<?xml version="1.0" encoding="utf-8" standalone="no"?>
<!DOCTYPE svg PUBLIC "-//W3C//DTD SVG 1.1//EN"
  "http://www.w3.org/Graphics/SVG/1.1/DTD/svg11.dtd">
<!-- Created with matplotlib (http://matplotlib.org/) -->
<svg height="356pt" version="1.1" viewBox="0 0 606 356" width="606pt" xmlns="http://www.w3.org/2000/svg" xmlns:xlink="http://www.w3.org/1999/xlink">
 <defs>
  <style type="text/css">
*{stroke-linecap:butt;stroke-linejoin:round;}
  </style>
 </defs>
 <g id="figure_1">
  <g id="patch_1">
   <path d="M 0 356.337917 
L 606.442883 356.337917 
L 606.442883 0 
L 0 0 
z
" style="fill:#ffffff;"/>
  </g>
  <g id="axes_1">
   <g id="patch_2">
    <path d="M 149.144095 306.18 
L 595.544095 306.18 
L 595.544095 7.2 
L 149.144095 7.2 
z
" style="fill:#eaeaf2;"/>
   </g>
   <g id="matplotlib.axis_1">
    <g id="xtick_1">
     <g id="line2d_1"/>
     <g id="text_1">
      <!-- $0$ -->
      <defs>
       <path d="M 14.796875 63.859375 
C 11.90625 61.859375 9.90625 59.140625 8.40625 56.03125 
C 4.796875 49 4.40625 40.765625 4.40625 31.828125 
C 4.40625 20.578125 6.40625 10.25 12 4.3125 
C 17.296875 -1.203125 25.703125 -2.609375 32.796875 0.296875 
C 37.203125 2.015625 40.40625 5.71875 42.40625 9.734375 
C 46 16.875 46.40625 25.40625 46.40625 34.234375 
C 46.40625 37.046875 46.296875 39.859375 46 42.671875 
C 45.296875 49.40625 43 56.828125 39.296875 60.953125 
C 33.203125 67.6875 22.296875 69.1875 14.796875 63.859375 
M 34.90625 58.140625 
C 39.59375 53.125 40 43.484375 40 34.34375 
L 40 28.921875 
C 40 24.296875 39.203125 18.28125 38.203125 14.859375 
C 36.796875 10.140625 34.5 6.734375 29.90625 4.625 
C 24.296875 2.609375 18.5 4.515625 15.296875 8.9375 
C 11 14.65625 10.796875 24.796875 10.796875 33.734375 
C 10.796875 42.171875 10.90625 51.515625 15 57.03125 
C 19.5 63.0625 29.203125 64.0625 34.90625 58.140625 
" id="Computer_Modern_Bright-48"/>
      </defs>
      <g style="fill:#262626;" transform="translate(157.614175 324.249603)scale(0.16 -0.16)">
       <use transform="scale(0.996264)" xlink:href="#Computer_Modern_Bright-48"/>
      </g>
     </g>
    </g>
    <g id="xtick_2">
     <g id="line2d_2"/>
     <g id="text_2">
      <!-- $1$ -->
      <defs>
       <path d="M 9.703125 60.015625 
L 9.703125 55 
C 15.203125 55 19 56 23.40625 57.90625 
L 23.40625 5.015625 
L 10.296875 5.015625 
L 10.296875 0 
L 43 0 
L 43 5.015625 
L 29.90625 5.015625 
L 29.90625 67 
C 27.5 67 27.90625 66.359375 26 64.875 
C 21.90625 61.71875 16.203125 60.015625 9.703125 60.015625 
" id="Computer_Modern_Bright-49"/>
      </defs>
      <g style="fill:#262626;" transform="translate(211.771695 324.249603)scale(0.16 -0.16)">
       <use transform="scale(0.996264)" xlink:href="#Computer_Modern_Bright-49"/>
      </g>
     </g>
    </g>
    <g id="xtick_3">
     <g id="line2d_3"/>
     <g id="text_3">
      <!-- $2$ -->
      <defs>
       <path d="M 7.296875 45.96875 
C 8.703125 51.59375 11.09375 57.984375 16.796875 60.5 
C 19.203125 61.5 21.796875 61.703125 24.40625 61.5 
C 29.296875 61.09375 34.09375 59.09375 37.09375 55.09375 
C 39.296875 52.078125 40.09375 48.375 39.703125 44.78125 
C 38.5 34.34375 28.296875 26.84375 21.703125 21.234375 
C 17.90625 18.03125 7.09375 7.8125 7.09375 7.8125 
L 5.40625 6.203125 
C 4.5 5.3125 4.40625 5.3125 4.40625 3.5 
L 4.40625 0 
L 46.40625 0 
L 46.40625 5.625 
L 10.203125 5.625 
C 13.40625 8.734375 26.703125 20.515625 28.5 21.921875 
C 34.296875 26.65625 40.796875 31.375 44.296875 38.21875 
C 48.203125 46.0625 46.5 55.9375 39.90625 61.765625 
C 35.90625 65.296875 30.40625 67 25.09375 67 
C 20.203125 67 15.203125 66 11.296875 62.90625 
C 8.296875 60.390625 5.796875 56.6875 4.40625 52.875 
C 4.09375 52.28125 3.59375 51.28125 3.703125 50.578125 
C 3.796875 49.984375 4.40625 49.484375 4.703125 49.078125 
C 5.5 48.078125 6.296875 46.875 7.296875 45.96875 
" id="Computer_Modern_Bright-50"/>
      </defs>
      <g style="fill:#262626;" transform="translate(265.929214 324.249603)scale(0.16 -0.16)">
       <use transform="scale(0.996264)" xlink:href="#Computer_Modern_Bright-50"/>
      </g>
     </g>
    </g>
    <g id="xtick_4">
     <g id="line2d_4"/>
     <g id="text_4">
      <!-- $3$ -->
      <defs>
       <path d="M 8.09375 50.71875 
C 8.90625 51.921875 9.5 53.234375 10.40625 54.4375 
C 12.5 57.25 15.40625 59.453125 18.703125 60.765625 
C 23.90625 62.875 31.5 62.875 35.59375 58.21875 
C 39.203125 54.078125 37.703125 47.609375 34.40625 43.78125 
C 31.40625 40.25 27.5 38.53125 21.703125 38.53125 
C 20 38.53125 18.40625 38.03125 16.703125 38.03125 
L 16.703125 33 
L 23.59375 33 
C 29.40625 33 33.203125 32.109375 36.40625 28.6875 
C 41.90625 22.859375 41.40625 12.515625 35.296875 7.203125 
C 32.203125 4.59375 27.90625 3.78125 23.90625 4.078125 
C 16.09375 4.6875 9.203125 8.8125 4.59375 15.234375 
C 4.09375 14.234375 4.09375 12.828125 3.90625 11.71875 
C 3.59375 10.109375 3.59375 10.109375 4.59375 8.8125 
C 7.5 4.890625 13.203125 1.28125 17.703125 -0.03125 
C 25.703125 -2.4375 35 -1.34375 41.203125 4.78125 
C 42.40625 6 43.5 7.296875 44.40625 8.703125 
C 48.09375 14.53125 48.203125 22.15625 44.09375 27.78125 
C 42.40625 30.09375 40.203125 31.90625 37.703125 33.3125 
C 36 34.3125 34 35.3125 32 35.515625 
C 37.796875 38.234375 43.203125 42.828125 44.203125 50.359375 
C 45.09375 57.375 41 61.6875 36.796875 64.1875 
C 30.296875 68 21.796875 68 15.09375 64.671875 
C 12 63.171875 9.203125 60.96875 7.09375 58.25 
C 6.703125 57.75 5.203125 56.046875 5.203125 55.234375 
C 5.203125 54.734375 5.59375 54.234375 5.90625 53.828125 
z
" id="Computer_Modern_Bright-51"/>
      </defs>
      <g style="fill:#262626;" transform="translate(320.086734 324.249603)scale(0.16 -0.16)">
       <use transform="scale(0.996264)" xlink:href="#Computer_Modern_Bright-51"/>
      </g>
     </g>
    </g>
    <g id="xtick_5">
     <g id="line2d_5"/>
     <g id="text_5">
      <!-- $4$ -->
      <defs>
       <path d="M 2.09375 18 
L 31 18 
L 31 0 
L 37.296875 0 
L 37.296875 18 
L 48.703125 18 
L 48.703125 23.328125 
L 37.296875 23.328125 
L 37.296875 66.46875 
L 31.90625 66.46875 
C 30.09375 66.46875 29.59375 66.578125 28.796875 65.0625 
C 24.796875 58.515625 3.703125 25.765625 3 24.859375 
C 2.203125 23.4375 2.09375 23.546875 2.09375 21.4375 
z
M 31.296875 60.875 
L 31.296875 23.328125 
L 8.59375 23.328125 
C 9.296875 24.734375 10.296875 26.03125 11.203125 27.4375 
C 16.203125 35.171875 28.09375 53.546875 30.59375 59.28125 
C 30.90625 59.78125 31 60.375 31.296875 60.875 
" id="Computer_Modern_Bright-52"/>
      </defs>
      <g style="fill:#262626;" transform="translate(374.244254 324.249603)scale(0.16 -0.16)">
       <use transform="scale(0.996264)" xlink:href="#Computer_Modern_Bright-52"/>
      </g>
     </g>
    </g>
    <g id="xtick_6">
     <g id="line2d_6"/>
     <g id="text_6">
      <!-- $5$ -->
      <defs>
       <path d="M 8.40625 66.328125 
L 8.40625 30.453125 
L 12.203125 30.453125 
C 12.703125 30.453125 13.40625 30.359375 13.796875 30.5625 
C 14.296875 30.859375 14.59375 31.5625 14.90625 31.96875 
C 15.59375 32.859375 16.40625 33.5625 17.203125 34.265625 
C 20.796875 37.28125 27.703125 38.484375 32.296875 36.171875 
C 38.59375 33.171875 39.796875 25.21875 39.296875 19 
C 39 15.0625 37.796875 11.453125 35.5 9.140625 
C 30.203125 3.5 21.296875 3.5 14.796875 6.796875 
C 11.59375 8.40625 8.90625 10.921875 6.90625 13.921875 
L 6.796875 13.921875 
C 6.5 13.421875 4.203125 9.90625 4.203125 9.296875 
C 4.203125 8.890625 4.5 8.59375 4.703125 8.296875 
C 7.703125 4.78125 11.59375 2.0625 16.09375 0.5625 
C 25 -2.25 35 -0.046875 41.296875 7.1875 
C 48.796875 15.921875 47.796875 30.15625 39.09375 37.765625 
C 36.5 40.1875 32.90625 41.890625 28.59375 42.28125 
C 22.796875 43.09375 17.59375 40.28125 14.5 37.671875 
L 14.5 61 
L 42.90625 61 
L 42.90625 66.328125 
z
" id="Computer_Modern_Bright-53"/>
      </defs>
      <g style="fill:#262626;" transform="translate(428.401774 324.249603)scale(0.16 -0.16)">
       <use transform="scale(0.996264)" xlink:href="#Computer_Modern_Bright-53"/>
      </g>
     </g>
    </g>
    <g id="xtick_7">
     <g id="line2d_7"/>
     <g id="text_7">
      <!-- $6$ -->
      <defs>
       <path d="M 11.296875 32.625 
L 11.203125 32.625 
C 11.203125 41.765625 12.796875 52.421875 20.59375 58.25 
C 24.90625 61.375 30.703125 62.96875 38.203125 61.171875 
C 39.796875 60.765625 41.296875 60.15625 42.796875 59.765625 
L 42.796875 63.28125 
C 42.796875 63.671875 42.90625 64.375 42.59375 64.78125 
C 41.90625 65.6875 36.296875 66.59375 36.09375 66.59375 
C 27.40625 67.59375 21.703125 65.6875 16.40625 61.171875 
C 10 55.640625 6.296875 47.515625 5.09375 39.28125 
C 4 32.65625 4.90625 22 6.203125 16.78125 
C 8.296875 9.046875 12.296875 2.21875 19.703125 -0.390625 
C 24.09375 -2 29.5 -2 33.703125 0.015625 
C 37.09375 1.640625 39.90625 4.46875 42.09375 7.5 
C 45.59375 12.34375 46.5 18.21875 46.09375 24.171875 
C 45.90625 27.109375 45.5 30.046875 44.296875 32.765625 
C 42.40625 37.125 39.203125 41.671875 35.09375 43.6875 
C 33.203125 44.5 31.203125 44.5 29.203125 44.5 
C 23.90625 44.5 18.90625 42.1875 15.203125 38.359375 
C 13.59375 36.75 12 34.71875 11.296875 32.625 
M 24.40625 39.515625 
C 28.203125 39.8125 32.203125 39.21875 35.09375 36.5 
C 38.90625 32.890625 39.59375 27.765625 39.59375 22.8125 
C 39.59375 19.46875 39.703125 16.015625 38.703125 12.859375 
C 38.09375 11.234375 37.296875 9.828125 36.40625 8.5 
C 34.203125 5.5625 31.40625 4.125 26.796875 3.515625 
C 22.296875 3.515625 17.796875 5.3125 15.203125 9.125 
C 13.59375 11.328125 12.796875 14.046875 12.296875 16.640625 
C 11.703125 19.34375 11.296875 22.140625 11.5 24.859375 
C 12 31.984375 17 38.515625 24.40625 39.515625 
" id="Computer_Modern_Bright-54"/>
      </defs>
      <g style="fill:#262626;" transform="translate(482.559293 324.249603)scale(0.16 -0.16)">
       <use transform="scale(0.996264)" xlink:href="#Computer_Modern_Bright-54"/>
      </g>
     </g>
    </g>
    <g id="xtick_8">
     <g id="line2d_8"/>
     <g id="text_8">
      <!-- $7$ -->
      <defs>
       <path d="M 3.59375 65.625 
L 3.59375 60 
L 42.796875 60 
L 39.09375 56.375 
C 35.796875 52.859375 32.796875 49.125 30.09375 45.109375 
C 21.09375 31.515625 16.203125 15.3125 16.203125 -1 
L 22.90625 -1 
C 22.90625 13.703125 26.59375 28.390625 33.59375 41.375 
C 37 47.921875 40.59375 52.640625 45.296875 58.171875 
C 45.90625 58.78125 46.796875 59.484375 47.09375 60.28125 
C 47.296875 60.78125 47.203125 61.484375 47.203125 62.109375 
L 47.203125 65.625 
z
" id="Computer_Modern_Bright-55"/>
      </defs>
      <g style="fill:#262626;" transform="translate(536.716813 324.249603)scale(0.16 -0.16)">
       <use transform="scale(0.996264)" xlink:href="#Computer_Modern_Bright-55"/>
      </g>
     </g>
    </g>
    <g id="xtick_9">
     <g id="line2d_9"/>
     <g id="text_9">
      <!-- $8$ -->
      <defs>
       <path d="M 18.703125 36 
L 18.703125 35.90625 
C 12.5 34.09375 7.296875 30.6875 4.796875 24.84375 
C 2.203125 18.71875 4 11.28125 8.40625 6.453125 
C 13.09375 1.421875 19.5 -1 26.296875 -1 
C 36.296875 -1 45.90625 6.40625 47.09375 16.734375 
C 47.296875 18.265625 47.203125 19.890625 47 21.40625 
C 45.203125 29.21875 39.5 33.875 32.09375 35.90625 
C 32.90625 36.203125 33.796875 36.40625 34.59375 36.703125 
C 38.796875 38.421875 42.296875 40.921875 44.5 44.9375 
C 47.796875 51.375 44.59375 58.90625 39.203125 63.015625 
C 33.796875 67.140625 26.5 68.234375 19.90625 66.828125 
C 12 65.125 4.5 58.40625 5 49.765625 
C 5.203125 46.75 6.5 44.234375 8 42.4375 
C 10.296875 39.625 14.796875 36.609375 18.703125 36 
M 23.796875 62.5 
C 28.203125 62.5 33.703125 62 36.90625 58.578125 
C 40.703125 54.46875 40.90625 47.03125 37.09375 42.8125 
C 34.703125 40.203125 31.203125 38.890625 27.703125 38.59375 
C 22.796875 38.1875 17.203125 39 13.703125 42.8125 
C 9.796875 47.125 10.09375 54.96875 14.296875 58.984375 
C 16.90625 61.390625 20.40625 62.1875 23.796875 62.5 
M 23.703125 33.5 
C 28.40625 33.5 33.5 32.390625 36.90625 28.9375 
C 38.203125 27.53125 39.203125 25.8125 39.796875 24.015625 
C 41.5 18.75 40.703125 12.09375 36.796875 8.046875 
C 34.09375 5.328125 30.40625 4.3125 26.703125 4.015625 
C 22.203125 4.015625 17 5.109375 13.796875 8.5625 
C 9.40625 13.390625 8.5 23.40625 13.703125 29.0625 
C 16.296875 31.78125 20 33.203125 23.703125 33.5 
" id="Computer_Modern_Bright-56"/>
      </defs>
      <g style="fill:#262626;" transform="translate(590.874333 324.249603)scale(0.16 -0.16)">
       <use transform="scale(0.996264)" xlink:href="#Computer_Modern_Bright-56"/>
      </g>
     </g>
    </g>
    <g id="text_10">
     <!-- $|\beta_{sy622}|$ -->
     <defs>
      <path d="M 11.90625 70.296875 
L 11.90625 -17.90625 
C 11.90625 -19.40625 11.5 -21.90625 13.59375 -22.203125 
C 13.90625 -22.203125 14.09375 -22.203125 14.40625 -22.09375 
C 16.5 -21.59375 15.90625 -18.59375 15.90625 -17 
L 15.90625 71.5 
C 15.90625 72.90625 16 74.703125 14.203125 75 
C 11.5 75 11.90625 72.203125 11.90625 70.296875 
" id="Computer_Modern_Bright_Math_Symbols-106"/>
      <path d="M -3.40625 -17.296875 
L 3 -17.296875 
L 4.203125 -11.21875 
L 7.5 4.359375 
C 9.40625 2.34375 11.296875 0.515625 13.796875 -0.796875 
C 18.09375 -3.125 25.203125 -4.546875 31.40625 -3.125 
C 40.59375 -1.296875 49 5.484375 52.90625 14.1875 
C 56 21.265625 56.40625 30.28125 52.90625 37.359375 
C 51.703125 39.78125 49.90625 42.515625 47.5 43.9375 
C 51.40625 46.171875 55.09375 49.046875 57 53.4375 
C 57.796875 55.375 58.40625 57.828125 57.90625 60.390625 
C 56.40625 67.4375 50 70.5 43.203125 70.5 
C 39.703125 70.5 36 69.890625 32.59375 68.984375 
C 24.40625 66.5625 16.796875 61.3125 12.59375 53.765625 
C 10 49.03125 9.40625 43.484375 8.296875 38.234375 
C 7 32.390625 -3.40625 -16.6875 -3.40625 -17.296875 
M 39.5 65.59375 
C 43.40625 65.890625 47.90625 64.890625 49.90625 62.96875 
C 53.59375 59.3125 50.90625 52.328125 48.5 49.5 
C 47.703125 48.484375 45.40625 46.359375 44.09375 46.15625 
C 43.5 46.0625 42.90625 46.4375 42.296875 46.515625 
C 37.90625 47.875 28.703125 47.875 25.703125 45.984375 
C 25 45.59375 24.203125 44.640625 24.296875 43.703125 
C 24.59375 42.03125 27.59375 41.40625 29 41.3125 
C 32.40625 41 35.90625 41 39.296875 41.40625 
C 40 41.5 40.796875 41.703125 41.5 41.8125 
C 42.40625 42.015625 43.09375 42.3125 43.90625 41.703125 
C 48.5 38.265625 49.59375 31.484375 49.09375 26.125 
C 48.59375 19.4375 47 12.765625 42.40625 7.703125 
C 39.296875 4.5625 35.796875 2.4375 30.40625 1.53125 
C 23.203125 0.625 14.40625 3.25 11.40625 10.546875 
C 10 14.484375 10.09375 17.21875 11.203125 22.171875 
L 12.703125 28.953125 
L 15.59375 43.125 
C 16.296875 46.0625 16.703125 49.09375 18 51.828125 
C 21.90625 60.03125 30.796875 64.890625 39.5 65.59375 
" id="Computer_Modern_Bright_Math_Slanted-12"/>
      <path d="M 6 10.125 
L 3.703125 4.3125 
C 5.59375 3.15625 7.5 2.078125 9.59375 1.234375 
C 15.5 -1 23.796875 -1 29.90625 1.296875 
C 34.59375 3.078125 38.09375 6.65625 39.90625 11.328125 
C 41.296875 14.890625 41.203125 18.765625 39.40625 21.546875 
C 36.703125 26.03125 32.09375 27.203125 26.09375 28.3125 
C 23.09375 28.890625 19.703125 29.40625 17.796875 32.09375 
C 15.703125 34.96875 17.296875 38.734375 19.703125 40.921875 
C 22.296875 43.203125 26.40625 44 31 44 
C 33.59375 44 36.203125 43.578125 38.703125 42.625 
C 40.40625 41.875 41.90625 40.953125 43.5 40.09375 
L 45.59375 45.5625 
C 41.59375 47.375 38.90625 48.5 33.59375 48.5 
C 27 49 20.09375 47.703125 15.796875 43.828125 
C 11.09375 39.546875 8.5 31.375 13.40625 26.515625 
C 16.703125 22.828125 21.796875 22.328125 26.40625 21.34375 
C 29.703125 20.640625 33.40625 19.65625 34.59375 16.0625 
C 35 14.671875 34.796875 13.171875 34.296875 11.875 
C 32.703125 7.109375 27.90625 4.71875 21.59375 4.71875 
C 17.703125 4.71875 13.90625 5.515625 10.40625 7.21875 
C 8.796875 8.015625 7.40625 9.125 6 10.125 
" id="Computer_Modern_Bright_Math_Slanted-115"/>
      <path d="M 11.5 47 
C 12 43.484375 12.796875 40.078125 13.5 36.671875 
L 19.703125 4.71875 
C 19.90625 3.90625 20.703125 0.609375 20.59375 -0.09375 
C 20.59375 -0.703125 20.203125 -1.203125 19.90625 -1.703125 
C 19.203125 -2.703125 18.59375 -3.796875 18 -4.8125 
C 16.296875 -7.71875 14 -11.21875 10.59375 -12.421875 
C 7.703125 -13.515625 2.09375 -12.015625 0.09375 -11.515625 
L -0.59375 -17.125 
C 2 -17.53125 7 -18.125 9.59375 -17.625 
C 16.5 -16.125 20.796875 -9.3125 23.703125 -4.296875 
L 51.40625 42.078125 
L 53.09375 44.984375 
C 53.5 45.6875 53.90625 46.296875 54.203125 47 
C 52.09375 47 49.796875 47 48 46.703125 
C 45.5 43.3125 43.59375 39.296875 41.296875 35.703125 
L 30 16.21875 
C 28.203125 12.90625 26.296875 9.703125 24.796875 6.109375 
C 24.59375 10.921875 23.796875 15.734375 22.90625 20.4375 
C 22.40625 23.046875 18.40625 46.09375 17.90625 46.796875 
C 17.5 47.1875 16.703125 47 16.203125 47 
z
" id="Computer_Modern_Bright_Math_Slanted-121"/>
     </defs>
     <g style="fill:#262626;" transform="translate(345.402097 346.149125)scale(0.18 -0.18)">
      <use transform="translate(0 14.943915)scale(0.996264)" xlink:href="#Computer_Modern_Bright_Math_Symbols-106"/>
      <use transform="translate(27.674085 14.943915)scale(0.996264)" xlink:href="#Computer_Modern_Bright_Math_Slanted-12"/>
      <use transform="translate(85.248738 0)scale(0.697382)" xlink:href="#Computer_Modern_Bright_Math_Slanted-115"/>
      <use transform="translate(119.097513 0)scale(0.697382)" xlink:href="#Computer_Modern_Bright_Math_Slanted-121"/>
      <use transform="translate(159.077486 0)scale(0.697382)" xlink:href="#Computer_Modern_Bright-54"/>
      <use transform="translate(194.527571 0)scale(0.697382)" xlink:href="#Computer_Modern_Bright-50"/>
      <use transform="translate(229.977656 0)scale(0.697382)" xlink:href="#Computer_Modern_Bright-50"/>
      <use transform="translate(265.925874 14.943915)scale(0.996264)" xlink:href="#Computer_Modern_Bright_Math_Symbols-106"/>
     </g>
    </g>
   </g>
   <g id="matplotlib.axis_2">
    <g id="ytick_1">
     <g id="line2d_10"/>
     <g id="text_11">
      <!-- \emph{sy622} specific -->
      <defs>
       <path d="M 5.203125 9.609375 
L 3 3.75 
C 8 0.515625 13.90625 -1 19.90625 -1 
C 29.90625 -1 37.296875 3.640625 39.59375 11.6875 
C 41 16.21875 39.703125 19.84375 37.40625 22.671875 
C 34.09375 26.28125 29.203125 26.796875 24.796875 27.78125 
C 21.90625 28.390625 18.59375 28.90625 16.796875 31.625 
C 14.703125 34.75 16.90625 38.875 19.59375 40.78125 
C 22.09375 42.59375 26.203125 43.296875 30.09375 43 
C 35.703125 43 38.296875 41.65625 42.59375 39.265625 
L 44.703125 44.875 
C 39.5 47.5 33.5 48.5 27.703125 48 
C 22.40625 48 18.203125 46.484375 14.796875 43.4375 
C 11.40625 40.3125 9 35.046875 10.203125 30.390625 
C 10.59375 28.359375 11.5 27.34375 12.703125 25.9375 
C 16.09375 22.484375 20.90625 21.984375 25.296875 20.96875 
C 28.203125 20.359375 31.5 19.65625 33.203125 16.921875 
C 35.203125 13.78125 33.5 9.734375 31 7.390625 
C 28.09375 4.96875 23.796875 3.96875 18.90625 4.359375 
C 14.296875 4.359375 10.40625 5.828125 7.203125 8.140625 
C 6.5 8.546875 5.90625 9.1875 5.203125 9.609375 
" id="Computer_Modern_Bright_Slanted-115"/>
       <path d="M 10.703125 48 
C 11.203125 44.265625 12 40.625 12.703125 36.890625 
C 13.09375 34.359375 19 0.8125 19 0.515625 
C 19 -0.09375 18.59375 -0.59375 18.296875 -1.109375 
L 16.59375 -4.140625 
C 14.703125 -7.265625 12.796875 -10.5 9 -11.8125 
C 6 -12.71875 0.5 -11.40625 -1.5 -10.796875 
C -1.796875 -12.625 -2 -14.53125 -2.203125 -16.453125 
C 0.5 -16.859375 5.40625 -17.46875 8.09375 -16.96875 
C 15.203125 -15.34375 19.203125 -8.671875 22.5 -3.21875 
L 44.09375 34.359375 
L 49.203125 43.359375 
C 50.09375 44.859375 51.203125 46.375 51.796875 48 
C 49.703125 48 47.40625 48 45.59375 47.703125 
C 43.203125 44.078125 41.203125 40.046875 38.90625 36.21875 
C 33.59375 26.4375 27.703125 17.359375 23.203125 6.78125 
L 23.09375 6.78125 
C 23.40625 8.390625 23.09375 10.109375 22.90625 11.734375 
C 21.796875 22.546875 18.59375 39.71875 17.09375 48 
z
" id="Computer_Modern_Bright_Slanted-121"/>
       <path d="M 18.296875 33.5625 
L 18.203125 33.5625 
C 20.90625 47.921875 28.5 61.265625 43.203125 63 
C 48.203125 63 51.296875 62.078125 55.5 60.78125 
L 56.59375 65.9375 
C 53.5 67.171875 50.296875 68.0625 47 68.0625 
C 40.296875 68.0625 34.5 65.46875 30.40625 62.765625 
C 19.90625 55.765625 13.09375 44.171875 10.703125 29.328125 
C 9 19.328125 9.40625 8.609375 15.203125 3.0625 
C 21.59375 -2.796875 31.5 -1.1875 38.09375 3.46875 
C 42.203125 6.484375 46 10.328125 48.296875 14.984375 
C 51.203125 20.734375 53.203125 30.4375 50.09375 37.515625 
C 49.09375 39.9375 47.703125 42.5625 45.40625 44.078125 
C 42.90625 45.6875 39.703125 45.6875 36.796875 45.375 
C 31.09375 44.78125 25.703125 41.75 21.703125 37.703125 
C 20.5 36.484375 19.203125 35.078125 18.296875 33.5625 
M 34.5 40.65625 
C 38.40625 40.65625 41.703125 39.640625 43.296875 36.921875 
C 46 33.015625 45.40625 28.40625 44.5 24.078125 
C 43.796875 20.5625 43.09375 17.046875 41.40625 13.9375 
C 38.59375 8.8125 33.40625 4.5 25.703125 4.5 
C 22.90625 4.5 19.796875 6.125 18.5 7.78125 
C 16.296875 10.4375 15.796875 14.21875 15.796875 17.59375 
C 15.796875 18.109375 15.90625 18.6875 15.90625 19.203125 
C 15.90625 21.703125 16.296875 24.21875 17.09375 26.625 
C 19.59375 33.9375 26.40625 40.65625 34.5 40.65625 
M 18.09375 33.03125 
C 18.09375 33.03125 18.203125 33.03125 18.203125 33.03125 
C 18.203125 32.9375 18.09375 32.828125 18.09375 33.03125 
" id="Computer_Modern_Bright_Slanted-54"/>
       <path d="M 17.09375 46.46875 
C 19.796875 53.140625 25.09375 60.3125 32 61.828125 
C 38.40625 63.234375 46.796875 61.109375 49.40625 54.34375 
C 50.296875 51.515625 50.203125 48.484375 49.203125 45.453125 
C 45.5 34.234375 33.796875 27.171875 25.09375 20.703125 
L 9.296875 8.375 
L 6.90625 6.5625 
C 6.5 6.15625 5.90625 5.859375 5.59375 5.453125 
C 5.203125 4.828125 4.40625 0 4.40625 0 
C 18.203125 0 33 0 46.203125 0 
C 46.90625 1.6875 47.203125 3.765625 47.59375 5.75 
L 11.40625 5.75 
L 19.796875 12.109375 
L 34.59375 23.125 
C 41.59375 28.078125 49.296875 33.03125 53.703125 40.609375 
C 57.5 47.078125 58.296875 55.859375 53.203125 61.828125 
C 50.703125 64.546875 47.5 66.171875 43.5 67.078125 
C 37.703125 68.296875 31.40625 67.484375 26.203125 64.546875 
C 21.59375 61.71875 18.5 58.078125 15.59375 53.4375 
C 15.203125 52.828125 14.5 51.921875 14.5 51.109375 
C 14.5 50.609375 14.796875 50.109375 15.09375 49.703125 
C 15.703125 48.59375 16.296875 47.375 17.09375 46.46875 
" id="Computer_Modern_Bright_Slanted-50"/>
       <path d="M 3.09375 9.640625 
C 2.90625 8.234375 2.59375 6.9375 2.40625 5.53125 
C 2.203125 4.421875 1.90625 3.921875 2.90625 3.421875 
C 7 1.015625 11.90625 -0.296875 17.703125 -0.796875 
C 24.203125 -1.40625 32.40625 0.109375 35.59375 6.53125 
C 36.5 8.34375 37 10.34375 37.09375 12.359375 
C 37.5 19.578125 31.796875 24.203125 26.90625 25.90625 
C 21.40625 28.015625 13.90625 27.3125 10.09375 31.53125 
C 8.09375 33.84375 8 37.265625 9.90625 39.671875 
C 13.90625 45.296875 26.796875 42.875 31.90625 40.375 
C 32.703125 39.96875 33.40625 39.46875 34.296875 39.265625 
L 35.203125 44.6875 
C 30.5 46.796875 26.40625 48 19.90625 48 
C 14.296875 48 9.203125 46.703125 6 43.484375 
C 2.796875 40.171875 1.703125 34.640625 3.59375 30.4375 
C 5.40625 26.40625 9.203125 23.796875 13.296875 22.5 
C 19.203125 20.390625 25.90625 21.390625 29.796875 16.578125 
C 32 13.765625 31.59375 9.546875 29.09375 7.03125 
C 24.296875 2.609375 14.09375 4.21875 8.5 6.625 
C 6.59375 7.4375 4.90625 8.640625 3.09375 9.640625 
" id="Computer_Modern_Bright-115"/>
       <path d="M 12.703125 40.53125 
L 12.703125 47.15625 
L 6.40625 47.15625 
L 6.40625 -17 
L 12.796875 -17 
L 12.796875 6.09375 
C 14.203125 4.078125 15.796875 2.28125 17.90625 1.078125 
C 25 -3.25 34 0.171875 38.90625 6.59375 
C 45.40625 14.96875 46.09375 27.5 41.59375 36.984375 
C 39 42.4375 34.09375 47.5 27.796875 48 
C 22.296875 48 18.09375 45.8125 15.09375 43.125 
C 14.203125 42.328125 13.5 41.4375 12.703125 40.53125 
M 21.90625 42.875 
C 26 43.171875 30 41.265625 32.796875 38.265625 
C 34.5 36.34375 35.796875 34.140625 36.59375 31.734375 
C 40.09375 22.296875 36.90625 9.234375 26.796875 5.328125 
C 21 3.109375 15.296875 5.125 13.09375 10.546875 
C 12.59375 11.546875 12.796875 12.859375 12.796875 13.953125 
L 12.796875 34.640625 
C 12.796875 36.953125 13 37.15625 14.5 38.859375 
C 16.296875 41.0625 19 42.578125 21.90625 42.875 
" id="Computer_Modern_Bright-112"/>
       <path d="M 41.796875 10.9375 
C 39.5 9.234375 38.796875 8.328125 35.90625 6.8125 
C 29.796875 3.5 22.59375 3.5 17.40625 7.171875 
C 12.40625 10.765625 9.5 16.640625 9.5 25 
L 42.5 25 
C 42.5 32.421875 40.796875 38.859375 36.59375 43.375 
C 32 47.890625 24.796875 49.296875 18.703125 47.390625 
C 16.40625 46.6875 14.296875 45.484375 12.40625 43.96875 
C 6.09375 38.859375 3.40625 30.71875 3.5 22.78125 
C 3.703125 12.34375 10.796875 1.90625 21.296875 -0.3125 
C 26.796875 -1.421875 32.59375 -0.203125 37.5 2.296875 
C 38.40625 2.796875 41.703125 4.609375 42.09375 5.515625 
C 42.40625 6.015625 41.796875 10.9375 41.796875 10.9375 
M 37.203125 28.90625 
L 10 28.90625 
C 11.203125 36.234375 17.203125 43.96875 25.296875 43.0625 
C 31.90625 42.46875 35.40625 37.75 36.703125 31.828125 
C 36.90625 30.8125 37 29.921875 37.203125 28.90625 
" id="Computer_Modern_Bright-101"/>
       <path d="M 42.40625 11.25 
C 40.5 9.84375 38.796875 8.328125 36.703125 7.125 
C 32 4.625 24.796875 3.421875 19.40625 5.921875 
C 11.59375 9.9375 9.5 19.6875 10.59375 27.71875 
C 10.796875 29.328125 11.09375 30.921875 11.59375 32.4375 
C 13.796875 38.96875 19.296875 44.078125 28.296875 43.078125 
C 33.09375 42.671875 35.5 41.875 39.296875 39.765625 
C 40 39.359375 40.59375 38.859375 41.40625 38.65625 
C 41.5 39.859375 41.796875 41.171875 42 42.375 
C 42.296875 43.984375 42.296875 44.1875 40.796875 44.890625 
C 39.703125 45.390625 38.59375 45.984375 37.40625 46.390625 
C 32.796875 48.40625 25.203125 49 20 47.5 
C 12.90625 45.484375 7.59375 39.359375 5.296875 32.53125 
C 4.203125 29.421875 3.90625 26.109375 3.90625 22.796875 
C 4 12.25 11.203125 1.90625 21.703125 -0.203125 
C 27.5 -1.40625 34.203125 0.296875 38.203125 2.40625 
C 39.203125 2.90625 42.203125 4.71875 42.703125 5.625 
C 43 6.125 42.40625 11.25 42.40625 11.25 
" id="Computer_Modern_Bright-99"/>
       <path d="M 6.40625 70 
L 6.40625 63.671875 
L 12.703125 63.671875 
L 12.703125 70 
z
M 6.40625 47.390625 
L 6.40625 0 
L 12.703125 0 
L 12.703125 47.390625 
z
" id="Computer_Modern_Bright-105"/>
       <path d="M 10.59375 47.015625 
L 2 47.015625 
L 2 42 
L 10.59375 42 
L 10.59375 0 
L 16.90625 0 
L 16.90625 42 
L 30.09375 42 
L 30.09375 47.015625 
L 16.796875 47.015625 
L 16.796875 55.203125 
C 16.796875 59.25 16.40625 61.421875 18.90625 63.703125 
C 21.90625 65.96875 25.703125 65.96875 30.09375 64.078125 
L 30.09375 69.90625 
C 27.703125 70.3125 25.203125 70.703125 22.703125 70.515625 
C 20 70.3125 17.09375 68.96875 15.5 67.328125 
C 12.796875 65.15625 11 60.9375 10.59375 57.03125 
C 10.5 55.671875 10.59375 54.4375 10.59375 53.109375 
z
M 38.09375 70 
L 38.09375 63.671875 
L 44.40625 63.671875 
L 44.40625 70 
z
M 38.09375 47.390625 
L 38.09375 0 
L 44.40625 0 
L 44.40625 47.390625 
z
" id="Computer_Modern_Bright-12"/>
      </defs>
      <g style="fill:#262626;" transform="translate(46.939117 62.564802)scale(0.16 -0.16)">
       <use transform="scale(0.996264)" xlink:href="#Computer_Modern_Bright_Slanted-115"/>
       <use transform="translate(38.439029 0)scale(0.996264)" xlink:href="#Computer_Modern_Bright_Slanted-121"/>
       <use transform="translate(80.780067 0)scale(0.996264)" xlink:href="#Computer_Modern_Bright_Slanted-54"/>
       <use transform="translate(131.423285 0)scale(0.996264)" xlink:href="#Computer_Modern_Bright_Slanted-50"/>
       <use transform="translate(182.066503 0)scale(0.996264)" xlink:href="#Computer_Modern_Bright_Slanted-50"/>
       <use transform="translate(275.151273 0)scale(0.996264)" xlink:href="#Computer_Modern_Bright-115"/>
       <use transform="translate(313.590302 0)scale(0.996264)" xlink:href="#Computer_Modern_Bright-112"/>
       <use transform="translate(361.742799 0)scale(0.996264)" xlink:href="#Computer_Modern_Bright-101"/>
       <use transform="translate(406.574467 0)scale(0.996264)" xlink:href="#Computer_Modern_Bright-99"/>
       <use transform="translate(451.406134 0)scale(0.996264)" xlink:href="#Computer_Modern_Bright-105"/>
       <use transform="translate(470.501093 0)scale(0.996264)" xlink:href="#Computer_Modern_Bright-12"/>
       <use transform="translate(521.144311 0)scale(0.996264)" xlink:href="#Computer_Modern_Bright-99"/>
      </g>
     </g>
    </g>
    <g id="ytick_2">
     <g id="line2d_11"/>
     <g id="text_12">
      <!-- \emph{bx93} associated -->
      <defs>
       <path d="M 21.09375 70 
L 6.40625 0 
C 8.59375 0 10.796875 0 12.703125 0.296875 
C 13.40625 2.203125 13.703125 4.40625 14.09375 6.515625 
L 14.203125 6.515625 
C 14.90625 4.59375 16.40625 2.46875 18 1.46875 
C 23.09375 -2.28125 30.296875 -0.359375 35.203125 2.78125 
C 42.59375 7.21875 47.90625 15.984375 49.59375 24.546875 
C 50.296875 28.078125 50.40625 31.8125 49.796875 35.4375 
C 48.40625 42.890625 43.90625 48.859375 35.203125 48.140625 
C 29.90625 47.640625 25.203125 44.8125 21.40625 41.078125 
L 27.40625 70 
z
M 38.09375 41.875 
C 39 41.375 39.796875 40.859375 40.5 40.15625 
C 44 36.71875 44.09375 31.265625 43.5 26.71875 
C 42.59375 19.4375 39.59375 11.875 33.296875 7.625 
C 30.59375 5.96875 27.59375 4.5 23.59375 4.5 
C 19.203125 4.5 15.796875 6.9375 15.203125 11.15625 
C 15.203125 12.265625 15.59375 13.578125 15.90625 14.703125 
C 16.796875 18.734375 20.09375 35.703125 20.59375 36.828125 
C 21.09375 37.734375 22 38.546875 22.703125 39.25 
C 26.59375 42.890625 32.296875 44.796875 38.09375 41.875 
M 21.296875 41.125 
C 21.296875 41.125 21.40625 41.125 21.40625 41.125 
C 21.40625 41.015625 21.296875 40.921875 21.296875 41.125 
" id="Computer_Modern_Bright_Slanted-98"/>
       <path d="M 9.796875 47.5 
C 14.09375 39.765625 18.90625 32.546875 23.09375 24.703125 
C 22.703125 23.890625 22.09375 23.296875 21.5 22.6875 
L -0.796875 0 
C 1.5 0 3.90625 0 6.09375 0 
C 12.703125 6.796875 18.90625 14 25.40625 20.875 
C 28 15.65625 30.796875 10.734375 33.40625 5.625 
C 34.296875 3.8125 35.203125 1.890625 36.40625 0.296875 
C 38.5 0 40.90625 0 43.296875 0 
C 42.203125 2.109375 35.09375 13.984375 32.796875 17.90625 
L 30.09375 22.53125 
C 29.796875 23.046875 29.09375 23.84375 29.09375 24.453125 
C 29.203125 25.0625 30.203125 25.75 30.59375 26.15625 
L 34.796875 30.484375 
C 36.59375 32.3125 50.59375 46.28125 51.5 47.5 
C 49.203125 47.5 46.90625 47.5 44.703125 47.5 
C 38.59375 41.65625 33 35.296875 27.09375 29.25 
C 23.59375 35.296875 20.5 41.765625 16.703125 47.5 
C 14.5 47.5 12.09375 47.5 9.796875 47.5 
" id="Computer_Modern_Bright_Slanted-120"/>
       <path d="M 46.5 33.03125 
L 46.59375 33.03125 
C 46.296875 31.3125 45.90625 29.59375 45.40625 27.96875 
C 42.703125 18.296875 37.09375 7.828125 26.90625 4.625 
C 21.5 3.015625 15.90625 4.03125 12.5 6.734375 
C 12.203125 6.9375 11.59375 7.640625 11.09375 7.546875 
C 10.703125 7.546875 10.296875 6.84375 10.09375 6.53125 
C 9.203125 5.421875 8.296875 4.328125 7.5 3.21875 
C 9.296875 1.796875 11.09375 0.484375 13.296875 -0.3125 
C 15.90625 -1.328125 20.5 -1.828125 23.59375 -1.234375 
C 29 -0.421875 34 2.515625 38.09375 6.03125 
C 47.5 14.375 53.09375 26.21875 54.59375 41.390625 
C 55.09375 45.90625 55.203125 50.515625 54.09375 55.046875 
C 53.203125 58.953125 51.703125 61.46875 48.90625 63.984375 
C 43.796875 68 36.296875 68 30.703125 65.453125 
C 25.40625 62.921875 19.90625 57.65625 17.203125 53.078125 
C 14.59375 48.609375 12.703125 41.40625 13.09375 34.90625 
C 13.5 30.8125 15.5 26.21875 18 23.703125 
C 20.296875 21.515625 23.09375 21 26.09375 21 
C 32.09375 21 38.203125 23.9375 42.5 28.171875 
C 43.90625 29.59375 45.59375 31.109375 46.5 33.03125 
M 43.90625 61.03125 
C 48.59375 58.484375 49.40625 52.515625 48.90625 47.640625 
C 48.703125 44.90625 48.5 42.171875 47.59375 39.53125 
C 45.796875 34.46875 42.09375 30 37.40625 27.578125 
C 32.40625 25.03125 24.59375 25.03125 21.5 29.765625 
C 18.90625 33.484375 19.296875 38 20.09375 42.234375 
C 20.796875 45.546875 21.5 48.96875 23 52.078125 
C 25 56.109375 28.59375 59.734375 32.90625 61.234375 
C 36.5 62.4375 40.59375 62.4375 43.90625 61.03125 
" id="Computer_Modern_Bright_Slanted-57"/>
       <path d="M 18.796875 50.609375 
C 19.90625 51.734375 20.703125 53.078125 21.703125 54.203125 
C 26.09375 58.96875 34.203125 63.8125 42.59375 61.796875 
C 45.703125 61.09375 48.5 58.96875 49 55.640625 
C 49.296875 53.28125 48.203125 50.296875 47.5 48.859375 
C 44.796875 43.921875 40.703125 40.3125 34.796875 38.78125 
C 32.5 38.265625 26.703125 38.265625 24.703125 38.265625 
L 23.703125 33 
L 30.59375 33 
C 36.09375 33 39 32.296875 42.09375 29.171875 
C 45.703125 24.921875 44.796875 18.359375 42.5 13.703125 
C 40.90625 10.78125 39.203125 8.5625 36.296875 6.734375 
C 29.5 2.1875 20.09375 3.203125 13.703125 7.84375 
C 11.09375 9.765625 9.296875 12.296875 7.796875 15.125 
C 7.40625 14.421875 5.796875 10.671875 5.90625 9.96875 
C 5.90625 9.46875 6.296875 8.953125 6.5 8.5625 
C 9.703125 3.703125 14.40625 0.265625 20.5 -0.9375 
C 31.203125 -3.0625 42.796875 2.1875 48.5 11.6875 
C 51.40625 16.640625 52.703125 22.90625 49.703125 28.15625 
C 48 31.6875 43.5 34.828125 39.59375 35.53125 
C 41.09375 36.234375 42.59375 36.9375 44 37.75 
C 48.40625 40.375 52.59375 44.625 54.5 49.671875 
C 55.296875 51.5 55.796875 53.515625 55.703125 55.53125 
C 55.40625 61.59375 50.203125 65.640625 44.703125 66.75 
C 38.203125 68.15625 31.40625 66.453125 25.796875 63.21875 
C 23.203125 61.703125 20.90625 59.78125 18.796875 57.65625 
C 18.296875 57.15625 17 55.9375 16.796875 55.125 
C 16.796875 54.609375 18.296875 51.640625 18.796875 50.609375 
" id="Computer_Modern_Bright_Slanted-51"/>
       <path d="M 7.90625 39.015625 
C 9.59375 39.859375 11 41.09375 12.703125 41.921875 
C 15.40625 43.15625 18.203125 44 21.203125 44 
C 22.59375 44.09375 24.203125 44.296875 25.59375 44 
C 28.09375 43.59375 30.296875 42.078125 31.796875 39.953125 
C 33.296875 37.515625 33.90625 35.390625 33.90625 31.46875 
L 33.90625 27.015625 
C 29.09375 27.015625 24.296875 26.609375 19.703125 25.390625 
C 13.90625 24.078125 7.59375 21.125 5.5 15.84375 
C 3.40625 10.78125 5.59375 4.078125 10.09375 1.03125 
C 12.296875 -0.5 14.90625 -0.5 17.5 -0.296875 
C 21.703125 0 25.90625 1.015625 29.5 3.25 
C 31.203125 4.25 32.90625 5.578125 33.90625 7.296875 
L 34 7.296875 
L 34 0.203125 
L 40.296875 0.203125 
L 40.296875 26.890625 
C 40.296875 29.8125 40.59375 32.953125 40 35.890625 
C 39.40625 39.921875 36.90625 43.265625 34 45.59375 
C 30.59375 48.21875 26.703125 49.109375 21.5 48.71875 
C 16.703125 48.71875 13 47.5 9.40625 45.765625 
C 8.90625 45.5625 7.90625 45.234375 7.59375 44.640625 
C 7.296875 44.21875 7.5 43.515625 7.5 43 
C 7.703125 41.671875 7.796875 40.34375 7.90625 39.015625 
M 33.90625 24 
L 33.90625 16.375 
C 33.90625 14.0625 34 11.953125 32.703125 9.953125 
C 31.59375 8.34375 30.09375 7.234375 28.5 6.4375 
C 22.796875 3.515625 14.09375 4.421875 11.59375 9.25 
C 9.59375 12.75 11.703125 16.875 14.59375 19.1875 
C 18.90625 22.5 27.296875 24 33.90625 24 
" id="Computer_Modern_Bright-97"/>
       <path d="M 10.703125 42.078125 
C 1.796875 33.234375 0.796875 17.875 8.5 7.9375 
C 9.59375 6.421875 10.90625 5.125 12.40625 4.015625 
C 16.09375 1 21.5 -1.203125 27.796875 -0.5 
C 37.796875 0.703125 44.703125 8.84375 46.796875 17.375 
C 49.59375 29.328125 43.703125 42.671875 32.703125 46.890625 
C 24.09375 50.40625 15.5 46.890625 10.703125 42.078125 
M 35.703125 39.359375 
C 40.5 35.03125 41.40625 28.109375 41 21.984375 
C 40.703125 17.265625 39.40625 12.34375 36.09375 8.828125 
C 30.703125 3 20.703125 3 14.90625 8.625 
C 11.90625 11.84375 10.09375 16.453125 9.796875 21.984375 
C 9.296875 30.109375 11.296875 38.75 19.296875 41.96875 
C 25.203125 44.578125 32 42.671875 35.703125 39.359375 
" id="Computer_Modern_Bright-111"/>
       <path d="M 10.796875 60.5 
L 10.796875 47.015625 
L 1.09375 47.015625 
L 1.09375 42 
L 10.703125 42 
L 10.703125 15.015625 
C 10.703125 10.578125 10.40625 5.234375 13.296875 1.515625 
C 15 -0.703125 17.296875 -1.296875 20.796875 -1 
C 23.703125 -1 26.59375 -0.390625 29.296875 0.65625 
C 30.203125 1.0625 33.5 2.515625 33.90625 3.234375 
C 34.09375 3.640625 32.796875 8.09375 32.796875 8.09375 
L 30.40625 6.265625 
C 27.296875 4.34375 21.09375 2.328125 18.5 5.96875 
C 16.203125 9.09375 16.796875 13.75 16.796875 17.375 
L 16.796875 42 
L 32.296875 42 
L 32.296875 47.015625 
L 16.796875 47.015625 
L 16.796875 60.5 
z
" id="Computer_Modern_Bright-116"/>
       <path d="M 35.59375 69.6875 
L 35.59375 41.375 
C 33.703125 43.484375 31.796875 45.484375 29.203125 46.6875 
C 20.296875 50.40625 11.703125 45.59375 7.296875 37.65625 
C 2.203125 28.21875 2.796875 15.765625 8.90625 6.921875 
C 13.203125 0.796875 20.296875 -2.203125 27.796875 0.5 
C 30.703125 1.609375 34.203125 4.515625 35.40625 7.125 
L 35.5 7.125 
L 35.5 0 
L 41.90625 0 
L 41.90625 69.6875 
z
M 35.203125 37.453125 
C 35.703125 36.546875 35.5 35.34375 35.5 34.34375 
L 35.5 13.65625 
C 35.5 11.34375 35.40625 11.140625 34.09375 9.34375 
C 32.296875 6.625 29.5 4.71875 26.203125 4.421875 
C 21.40625 4.015625 16.5 6.328125 13.703125 10.25 
C 12.09375 12.546875 11.203125 15.359375 10.703125 18.171875 
C 10.5 19.28125 10.5 20.28125 10.40625 21.390625 
C 9.796875 28.015625 11.203125 35.84375 17 40.0625 
C 18 40.765625 19.09375 41.265625 20.203125 41.765625 
C 26 43.984375 32.40625 43.375 35.203125 37.453125 
" id="Computer_Modern_Bright-100"/>
      </defs>
      <g style="fill:#262626;" transform="translate(33.655708 162.224802)scale(0.16 -0.16)">
       <use transform="scale(0.996264)" xlink:href="#Computer_Modern_Bright_Slanted-98"/>
       <use transform="translate(45.246767 0)scale(0.996264)" xlink:href="#Computer_Modern_Bright_Slanted-120"/>
       <use transform="translate(87.587805 0)scale(0.996264)" xlink:href="#Computer_Modern_Bright_Slanted-57"/>
       <use transform="translate(138.231023 0)scale(0.996264)" xlink:href="#Computer_Modern_Bright_Slanted-51"/>
       <use transform="translate(231.315793 0)scale(0.996264)" xlink:href="#Computer_Modern_Bright-97"/>
       <use transform="translate(277.807876 0)scale(0.996264)" xlink:href="#Computer_Modern_Bright-115"/>
       <use transform="translate(316.246905 0)scale(0.996264)" xlink:href="#Computer_Modern_Bright-115"/>
       <use transform="translate(354.685934 0)scale(0.996264)" xlink:href="#Computer_Modern_Bright-111"/>
       <use transform="translate(405.329152 0)scale(0.996264)" xlink:href="#Computer_Modern_Bright-99"/>
       <use transform="translate(450.16082 0)scale(0.996264)" xlink:href="#Computer_Modern_Bright-105"/>
       <use transform="translate(469.255779 0)scale(0.996264)" xlink:href="#Computer_Modern_Bright-97"/>
       <use transform="translate(515.747861 0)scale(0.996264)" xlink:href="#Computer_Modern_Bright-116"/>
       <use transform="translate(551.862249 0)scale(0.996264)" xlink:href="#Computer_Modern_Bright-101"/>
       <use transform="translate(596.693916 0)scale(0.996264)" xlink:href="#Computer_Modern_Bright-100"/>
      </g>
     </g>
    </g>
    <g id="ytick_3">
     <g id="line2d_12"/>
     <g id="text_13">
      <!-- \emph{sy622} associated -->
      <g style="fill:#262626;" transform="translate(26.642062 261.884802)scale(0.16 -0.16)">
       <use transform="scale(0.996264)" xlink:href="#Computer_Modern_Bright_Slanted-115"/>
       <use transform="translate(38.439029 0)scale(0.996264)" xlink:href="#Computer_Modern_Bright_Slanted-121"/>
       <use transform="translate(80.780067 0)scale(0.996264)" xlink:href="#Computer_Modern_Bright_Slanted-54"/>
       <use transform="translate(131.423285 0)scale(0.996264)" xlink:href="#Computer_Modern_Bright_Slanted-50"/>
       <use transform="translate(182.066503 0)scale(0.996264)" xlink:href="#Computer_Modern_Bright_Slanted-50"/>
       <use transform="translate(275.151273 0)scale(0.996264)" xlink:href="#Computer_Modern_Bright-97"/>
       <use transform="translate(321.643355 0)scale(0.996264)" xlink:href="#Computer_Modern_Bright-115"/>
       <use transform="translate(360.082385 0)scale(0.996264)" xlink:href="#Computer_Modern_Bright-115"/>
       <use transform="translate(398.521414 0)scale(0.996264)" xlink:href="#Computer_Modern_Bright-111"/>
       <use transform="translate(449.164632 0)scale(0.996264)" xlink:href="#Computer_Modern_Bright-99"/>
       <use transform="translate(493.996299 0)scale(0.996264)" xlink:href="#Computer_Modern_Bright-105"/>
       <use transform="translate(513.091258 0)scale(0.996264)" xlink:href="#Computer_Modern_Bright-97"/>
       <use transform="translate(559.58334 0)scale(0.996264)" xlink:href="#Computer_Modern_Bright-116"/>
       <use transform="translate(595.697728 0)scale(0.996264)" xlink:href="#Computer_Modern_Bright-101"/>
       <use transform="translate(640.529396 0)scale(0.996264)" xlink:href="#Computer_Modern_Bright-100"/>
      </g>
     </g>
    </g>
    <g id="text_14">
     <!-- phenotypic class -->
     <defs>
      <path d="M 6.40625 69.6875 
L 6.40625 0 
L 12.796875 0 
L 12.796875 21.984375 
C 12.796875 26.90625 12.5 31.9375 14.703125 36.546875 
C 15.796875 38.859375 17.5 40.875 19.796875 42.078125 
C 21.703125 42.984375 23.703125 42.984375 25.796875 42.78125 
C 28.796875 42.78125 31.703125 41.984375 33.59375 39.453125 
C 35.40625 37.140625 35.5 34.140625 35.5 31.3125 
L 35.5 0 
L 41.90625 0 
L 41.90625 27.21875 
C 41.90625 32.234375 42.40625 37.75 39.90625 42.28125 
C 37.90625 45.6875 34.40625 47.296875 30.703125 47.796875 
C 28.703125 48 26.703125 48 24.703125 47.703125 
C 21.09375 47.015625 18 45.03125 15.59375 42.34375 
C 14.5 41.046875 13.203125 39.46875 12.796875 37.765625 
L 12.703125 37.765625 
L 12.703125 69.6875 
z
" id="Computer_Modern_Bright-104"/>
      <path d="M 12.59375 37.28125 
L 12.5 37.28125 
L 12.5 47.390625 
L 6.40625 47.390625 
L 6.40625 0 
L 12.796875 0 
L 12.796875 21.9375 
C 12.796875 26.84375 12.5 31.875 14.703125 36.46875 
C 15.796875 38.78125 17.5 40.78125 19.796875 41.984375 
C 21.703125 42.890625 23.703125 42.890625 25.796875 42.6875 
C 28.796875 42.6875 31.703125 41.890625 33.59375 39.375 
C 35.40625 37.0625 35.5 34.0625 35.5 31.25 
L 35.5 0 
L 41.90625 0 
L 41.90625 26.859375 
C 41.90625 31.875 42.40625 37.375 40 41.890625 
C 38.09375 45.5 34.40625 47.203125 30.5 47.703125 
C 28.5 48 26.40625 48 24.40625 47.609375 
C 19.203125 46.5 14.40625 42.296875 12.59375 37.28125 
" id="Computer_Modern_Bright-110"/>
      <path d="M 0.703125 47.65625 
C 1.296875 45.75 5.40625 35.609375 5.5 35.3125 
L 17.40625 4.578125 
L 18.40625 2.078125 
C 19 0.671875 19.203125 0.46875 18.59375 -1.140625 
L 17.5 -4.046875 
C 16.59375 -6.46875 15.59375 -8.96875 13.703125 -10.484375 
C 10.296875 -13.296875 4.90625 -11.6875 0.796875 -10.78125 
L 1.296875 -16.5 
C 3.203125 -16.796875 5.09375 -17 7 -17 
C 11.296875 -17.515625 14.09375 -16.5 16.703125 -14.296875 
C 20 -11.484375 21.59375 -7.5625 23.09375 -3.546875 
L 26.203125 5.078125 
L 36.40625 32.90625 
C 38.09375 37.921875 40.203125 42.640625 41.796875 47.65625 
L 37.296875 47.65625 
C 36.796875 47.65625 36 47.859375 35.59375 47.46875 
C 35.40625 47.15625 35.296875 46.765625 35.203125 46.453125 
L 34.40625 44.34375 
C 33.40625 41.734375 32.5 39.234375 31.59375 36.609375 
L 25.796875 20.25 
C 24.296875 15.828125 22.59375 11.3125 21.796875 6.6875 
C 20.703125 11.3125 19.203125 15.734375 17.59375 20.140625 
C 16.296875 23.5625 8.5 44.546875 7.5 46.5625 
C 7.09375 47.65625 6.703125 47.65625 5.203125 47.65625 
z
" id="Computer_Modern_Bright-121"/>
      <path d="M 6.40625 69.6875 
L 6.40625 0 
L 12.703125 0 
L 12.703125 69.6875 
z
" id="Computer_Modern_Bright-108"/>
     </defs>
     <g style="fill:#262626;" transform="translate(19.65327 214.859058)rotate(-90)scale(0.18 -0.18)">
      <use transform="scale(0.996264)" xlink:href="#Computer_Modern_Bright-112"/>
      <use transform="translate(48.152497 0)scale(0.996264)" xlink:href="#Computer_Modern_Bright-104"/>
      <use transform="translate(96.304994 0)scale(0.996264)" xlink:href="#Computer_Modern_Bright-101"/>
      <use transform="translate(141.136662 0)scale(0.996264)" xlink:href="#Computer_Modern_Bright-110"/>
      <use transform="translate(189.289159 0)scale(0.996264)" xlink:href="#Computer_Modern_Bright-111"/>
      <use transform="translate(239.932376 0)scale(0.996264)" xlink:href="#Computer_Modern_Bright-116"/>
      <use transform="translate(273.141035 0)scale(0.996264)" xlink:href="#Computer_Modern_Bright-121"/>
      <use transform="translate(315.482073 0)scale(0.996264)" xlink:href="#Computer_Modern_Bright-112"/>
      <use transform="translate(363.63457 0)scale(0.996264)" xlink:href="#Computer_Modern_Bright-105"/>
      <use transform="translate(382.729529 0)scale(0.996264)" xlink:href="#Computer_Modern_Bright-99"/>
      <use transform="translate(459.026408 0)scale(0.996264)" xlink:href="#Computer_Modern_Bright-99"/>
      <use transform="translate(503.858076 0)scale(0.996264)" xlink:href="#Computer_Modern_Bright-108"/>
      <use transform="translate(522.953034 0)scale(0.996264)" xlink:href="#Computer_Modern_Bright-97"/>
      <use transform="translate(569.445117 0)scale(0.996264)" xlink:href="#Computer_Modern_Bright-115"/>
      <use transform="translate(607.884146 0)scale(0.996264)" xlink:href="#Computer_Modern_Bright-115"/>
     </g>
    </g>
   </g>
   <g id="patch_3">
    <path clip-path="url(#p1db9e43c9f)" d="M 178.39585 17.166 
L 178.39585 96.894 
L 220.50285 96.894 
L 220.50285 17.166 
L 178.39585 17.166 
z
" style="fill:#e85050;stroke:#4c4c4c;stroke-linejoin:miter;stroke-width:2;"/>
   </g>
   <g id="patch_4">
    <path clip-path="url(#p1db9e43c9f)" d="M 194.230182 116.826 
L 194.230182 196.554 
L 250.725726 196.554 
L 250.725726 116.826 
L 194.230182 116.826 
z
" style="fill:#f7e71d;stroke:#4c4c4c;stroke-linejoin:miter;stroke-width:2;"/>
   </g>
   <g id="patch_5">
    <path clip-path="url(#p1db9e43c9f)" d="M 179.778227 216.486 
L 179.778227 296.214 
L 225.342965 296.214 
L 225.342965 216.486 
L 179.778227 216.486 
z
" style="fill:#8f79ca;stroke:#4c4c4c;stroke-linejoin:miter;stroke-width:2;"/>
   </g>
   <g id="line2d_13">
    <path clip-path="url(#p1db9e43c9f)" d="M 178.39585 57.03 
L 169.435004 57.03 
" style="fill:none;stroke:#4c4c4c;stroke-linecap:round;stroke-width:2;"/>
   </g>
   <g id="line2d_14">
    <path clip-path="url(#p1db9e43c9f)" d="M 220.50285 57.03 
L 283.625739 57.03 
" style="fill:none;stroke:#4c4c4c;stroke-linecap:round;stroke-width:2;"/>
   </g>
   <g id="line2d_15">
    <path clip-path="url(#p1db9e43c9f)" d="M 169.435004 37.098 
L 169.435004 76.962 
" style="fill:none;stroke:#4c4c4c;stroke-linecap:round;stroke-width:2;"/>
   </g>
   <g id="line2d_16">
    <path clip-path="url(#p1db9e43c9f)" d="M 283.625739 37.098 
L 283.625739 76.962 
" style="fill:none;stroke:#4c4c4c;stroke-linecap:round;stroke-width:2;"/>
   </g>
   <g id="line2d_17">
    <defs>
     <path d="M -0 3.535534 
L 2.12132 0 
L -0 -3.535534 
L -2.12132 -0 
z
" id="m63e9e2a9c9"/>
    </defs>
    <g clip-path="url(#p1db9e43c9f)">
     <use style="fill:#4c4c4c;" x="337.144966" xlink:href="#m63e9e2a9c9" y="57.03"/>
     <use style="fill:#4c4c4c;" x="302.831701" xlink:href="#m63e9e2a9c9" y="57.03"/>
     <use style="fill:#4c4c4c;" x="411.00589" xlink:href="#m63e9e2a9c9" y="57.03"/>
     <use style="fill:#4c4c4c;" x="354.113434" xlink:href="#m63e9e2a9c9" y="57.03"/>
     <use style="fill:#4c4c4c;" x="291.971006" xlink:href="#m63e9e2a9c9" y="57.03"/>
     <use style="fill:#4c4c4c;" x="359.185712" xlink:href="#m63e9e2a9c9" y="57.03"/>
     <use style="fill:#4c4c4c;" x="300.029621" xlink:href="#m63e9e2a9c9" y="57.03"/>
     <use style="fill:#4c4c4c;" x="295.788577" xlink:href="#m63e9e2a9c9" y="57.03"/>
     <use style="fill:#4c4c4c;" x="341.915178" xlink:href="#m63e9e2a9c9" y="57.03"/>
     <use style="fill:#4c4c4c;" x="425.026946" xlink:href="#m63e9e2a9c9" y="57.03"/>
     <use style="fill:#4c4c4c;" x="376.22363" xlink:href="#m63e9e2a9c9" y="57.03"/>
     <use style="fill:#4c4c4c;" x="405.690538" xlink:href="#m63e9e2a9c9" y="57.03"/>
     <use style="fill:#4c4c4c;" x="575.253185" xlink:href="#m63e9e2a9c9" y="57.03"/>
     <use style="fill:#4c4c4c;" x="296.831891" xlink:href="#m63e9e2a9c9" y="57.03"/>
     <use style="fill:#4c4c4c;" x="300.877199" xlink:href="#m63e9e2a9c9" y="57.03"/>
     <use style="fill:#4c4c4c;" x="292.639918" xlink:href="#m63e9e2a9c9" y="57.03"/>
     <use style="fill:#4c4c4c;" x="287.20396" xlink:href="#m63e9e2a9c9" y="57.03"/>
     <use style="fill:#4c4c4c;" x="466.8909" xlink:href="#m63e9e2a9c9" y="57.03"/>
     <use style="fill:#4c4c4c;" x="288.608249" xlink:href="#m63e9e2a9c9" y="57.03"/>
     <use style="fill:#4c4c4c;" x="445.751884" xlink:href="#m63e9e2a9c9" y="57.03"/>
     <use style="fill:#4c4c4c;" x="384.152207" xlink:href="#m63e9e2a9c9" y="57.03"/>
     <use style="fill:#4c4c4c;" x="330.078261" xlink:href="#m63e9e2a9c9" y="57.03"/>
     <use style="fill:#4c4c4c;" x="320.278411" xlink:href="#m63e9e2a9c9" y="57.03"/>
     <use style="fill:#4c4c4c;" x="301.201437" xlink:href="#m63e9e2a9c9" y="57.03"/>
     <use style="fill:#4c4c4c;" x="308.473799" xlink:href="#m63e9e2a9c9" y="57.03"/>
     <use style="fill:#4c4c4c;" x="293.017122" xlink:href="#m63e9e2a9c9" y="57.03"/>
     <use style="fill:#4c4c4c;" x="313.191724" xlink:href="#m63e9e2a9c9" y="57.03"/>
     <use style="fill:#4c4c4c;" x="374.221428" xlink:href="#m63e9e2a9c9" y="57.03"/>
     <use style="fill:#4c4c4c;" x="308.199577" xlink:href="#m63e9e2a9c9" y="57.03"/>
     <use style="fill:#4c4c4c;" x="289.789265" xlink:href="#m63e9e2a9c9" y="57.03"/>
     <use style="fill:#4c4c4c;" x="335.38618" xlink:href="#m63e9e2a9c9" y="57.03"/>
     <use style="fill:#4c4c4c;" x="351.044428" xlink:href="#m63e9e2a9c9" y="57.03"/>
     <use style="fill:#4c4c4c;" x="294.358021" xlink:href="#m63e9e2a9c9" y="57.03"/>
     <use style="fill:#4c4c4c;" x="373.70439" xlink:href="#m63e9e2a9c9" y="57.03"/>
     <use style="fill:#4c4c4c;" x="378.731302" xlink:href="#m63e9e2a9c9" y="57.03"/>
     <use style="fill:#4c4c4c;" x="475.127971" xlink:href="#m63e9e2a9c9" y="57.03"/>
     <use style="fill:#4c4c4c;" x="319.693742" xlink:href="#m63e9e2a9c9" y="57.03"/>
     <use style="fill:#4c4c4c;" x="336.552039" xlink:href="#m63e9e2a9c9" y="57.03"/>
     <use style="fill:#4c4c4c;" x="340.85488" xlink:href="#m63e9e2a9c9" y="57.03"/>
     <use style="fill:#4c4c4c;" x="313.587536" xlink:href="#m63e9e2a9c9" y="57.03"/>
     <use style="fill:#4c4c4c;" x="296.894828" xlink:href="#m63e9e2a9c9" y="57.03"/>
     <use style="fill:#4c4c4c;" x="338.475199" xlink:href="#m63e9e2a9c9" y="57.03"/>
     <use style="fill:#4c4c4c;" x="347.84831" xlink:href="#m63e9e2a9c9" y="57.03"/>
     <use style="fill:#4c4c4c;" x="356.018768" xlink:href="#m63e9e2a9c9" y="57.03"/>
     <use style="fill:#4c4c4c;" x="348.011157" xlink:href="#m63e9e2a9c9" y="57.03"/>
     <use style="fill:#4c4c4c;" x="298.008211" xlink:href="#m63e9e2a9c9" y="57.03"/>
     <use style="fill:#4c4c4c;" x="322.270113" xlink:href="#m63e9e2a9c9" y="57.03"/>
     <use style="fill:#4c4c4c;" x="317.458097" xlink:href="#m63e9e2a9c9" y="57.03"/>
     <use style="fill:#4c4c4c;" x="291.707829" xlink:href="#m63e9e2a9c9" y="57.03"/>
     <use style="fill:#4c4c4c;" x="363.810072" xlink:href="#m63e9e2a9c9" y="57.03"/>
     <use style="fill:#4c4c4c;" x="329.106493" xlink:href="#m63e9e2a9c9" y="57.03"/>
     <use style="fill:#4c4c4c;" x="309.079033" xlink:href="#m63e9e2a9c9" y="57.03"/>
     <use style="fill:#4c4c4c;" x="359.117646" xlink:href="#m63e9e2a9c9" y="57.03"/>
     <use style="fill:#4c4c4c;" x="346.692407" xlink:href="#m63e9e2a9c9" y="57.03"/>
     <use style="fill:#4c4c4c;" x="316.24979" xlink:href="#m63e9e2a9c9" y="57.03"/>
     <use style="fill:#4c4c4c;" x="287.975568" xlink:href="#m63e9e2a9c9" y="57.03"/>
     <use style="fill:#4c4c4c;" x="366.499961" xlink:href="#m63e9e2a9c9" y="57.03"/>
     <use style="fill:#4c4c4c;" x="340.020366" xlink:href="#m63e9e2a9c9" y="57.03"/>
     <use style="fill:#4c4c4c;" x="318.412656" xlink:href="#m63e9e2a9c9" y="57.03"/>
     <use style="fill:#4c4c4c;" x="291.078857" xlink:href="#m63e9e2a9c9" y="57.03"/>
     <use style="fill:#4c4c4c;" x="295.78521" xlink:href="#m63e9e2a9c9" y="57.03"/>
     <use style="fill:#4c4c4c;" x="368.50883" xlink:href="#m63e9e2a9c9" y="57.03"/>
     <use style="fill:#4c4c4c;" x="309.368103" xlink:href="#m63e9e2a9c9" y="57.03"/>
     <use style="fill:#4c4c4c;" x="333.338919" xlink:href="#m63e9e2a9c9" y="57.03"/>
     <use style="fill:#4c4c4c;" x="290.434549" xlink:href="#m63e9e2a9c9" y="57.03"/>
     <use style="fill:#4c4c4c;" x="372.319158" xlink:href="#m63e9e2a9c9" y="57.03"/>
     <use style="fill:#4c4c4c;" x="285.852842" xlink:href="#m63e9e2a9c9" y="57.03"/>
     <use style="fill:#4c4c4c;" x="346.090173" xlink:href="#m63e9e2a9c9" y="57.03"/>
     <use style="fill:#4c4c4c;" x="372.490496" xlink:href="#m63e9e2a9c9" y="57.03"/>
     <use style="fill:#4c4c4c;" x="285.184989" xlink:href="#m63e9e2a9c9" y="57.03"/>
     <use style="fill:#4c4c4c;" x="391.068598" xlink:href="#m63e9e2a9c9" y="57.03"/>
     <use style="fill:#4c4c4c;" x="299.536932" xlink:href="#m63e9e2a9c9" y="57.03"/>
     <use style="fill:#4c4c4c;" x="353.281969" xlink:href="#m63e9e2a9c9" y="57.03"/>
     <use style="fill:#4c4c4c;" x="339.712914" xlink:href="#m63e9e2a9c9" y="57.03"/>
     <use style="fill:#4c4c4c;" x="297.845817" xlink:href="#m63e9e2a9c9" y="57.03"/>
     <use style="fill:#4c4c4c;" x="320.149008" xlink:href="#m63e9e2a9c9" y="57.03"/>
     <use style="fill:#4c4c4c;" x="320.149008" xlink:href="#m63e9e2a9c9" y="57.03"/>
     <use style="fill:#4c4c4c;" x="334.334776" xlink:href="#m63e9e2a9c9" y="57.03"/>
     <use style="fill:#4c4c4c;" x="438.248697" xlink:href="#m63e9e2a9c9" y="57.03"/>
     <use style="fill:#4c4c4c;" x="337.42438" xlink:href="#m63e9e2a9c9" y="57.03"/>
     <use style="fill:#4c4c4c;" x="424.030115" xlink:href="#m63e9e2a9c9" y="57.03"/>
     <use style="fill:#4c4c4c;" x="294.592903" xlink:href="#m63e9e2a9c9" y="57.03"/>
     <use style="fill:#4c4c4c;" x="336.31793" xlink:href="#m63e9e2a9c9" y="57.03"/>
     <use style="fill:#4c4c4c;" x="354.929025" xlink:href="#m63e9e2a9c9" y="57.03"/>
     <use style="fill:#4c4c4c;" x="445.905548" xlink:href="#m63e9e2a9c9" y="57.03"/>
     <use style="fill:#4c4c4c;" x="394.943005" xlink:href="#m63e9e2a9c9" y="57.03"/>
     <use style="fill:#4c4c4c;" x="321.856799" xlink:href="#m63e9e2a9c9" y="57.03"/>
     <use style="fill:#4c4c4c;" x="365.369836" xlink:href="#m63e9e2a9c9" y="57.03"/>
     <use style="fill:#4c4c4c;" x="305.295421" xlink:href="#m63e9e2a9c9" y="57.03"/>
     <use style="fill:#4c4c4c;" x="373.050389" xlink:href="#m63e9e2a9c9" y="57.03"/>
     <use style="fill:#4c4c4c;" x="326.847642" xlink:href="#m63e9e2a9c9" y="57.03"/>
     <use style="fill:#4c4c4c;" x="365.269467" xlink:href="#m63e9e2a9c9" y="57.03"/>
     <use style="fill:#4c4c4c;" x="378.650794" xlink:href="#m63e9e2a9c9" y="57.03"/>
     <use style="fill:#4c4c4c;" x="320.27423" xlink:href="#m63e9e2a9c9" y="57.03"/>
     <use style="fill:#4c4c4c;" x="383.571764" xlink:href="#m63e9e2a9c9" y="57.03"/>
     <use style="fill:#4c4c4c;" x="321.721909" xlink:href="#m63e9e2a9c9" y="57.03"/>
     <use style="fill:#4c4c4c;" x="305.685837" xlink:href="#m63e9e2a9c9" y="57.03"/>
     <use style="fill:#4c4c4c;" x="435.321272" xlink:href="#m63e9e2a9c9" y="57.03"/>
     <use style="fill:#4c4c4c;" x="349.285171" xlink:href="#m63e9e2a9c9" y="57.03"/>
     <use style="fill:#4c4c4c;" x="311.958389" xlink:href="#m63e9e2a9c9" y="57.03"/>
     <use style="fill:#4c4c4c;" x="366.677908" xlink:href="#m63e9e2a9c9" y="57.03"/>
     <use style="fill:#4c4c4c;" x="360.872616" xlink:href="#m63e9e2a9c9" y="57.03"/>
     <use style="fill:#4c4c4c;" x="364.868878" xlink:href="#m63e9e2a9c9" y="57.03"/>
     <use style="fill:#4c4c4c;" x="338.639791" xlink:href="#m63e9e2a9c9" y="57.03"/>
     <use style="fill:#4c4c4c;" x="313.135019" xlink:href="#m63e9e2a9c9" y="57.03"/>
     <use style="fill:#4c4c4c;" x="294.943046" xlink:href="#m63e9e2a9c9" y="57.03"/>
     <use style="fill:#4c4c4c;" x="329.130034" xlink:href="#m63e9e2a9c9" y="57.03"/>
     <use style="fill:#4c4c4c;" x="295.451751" xlink:href="#m63e9e2a9c9" y="57.03"/>
     <use style="fill:#4c4c4c;" x="351.224422" xlink:href="#m63e9e2a9c9" y="57.03"/>
     <use style="fill:#4c4c4c;" x="323.344111" xlink:href="#m63e9e2a9c9" y="57.03"/>
     <use style="fill:#4c4c4c;" x="326.84097" xlink:href="#m63e9e2a9c9" y="57.03"/>
     <use style="fill:#4c4c4c;" x="292.565849" xlink:href="#m63e9e2a9c9" y="57.03"/>
     <use style="fill:#4c4c4c;" x="294.577617" xlink:href="#m63e9e2a9c9" y="57.03"/>
     <use style="fill:#4c4c4c;" x="340.594553" xlink:href="#m63e9e2a9c9" y="57.03"/>
     <use style="fill:#4c4c4c;" x="307.739716" xlink:href="#m63e9e2a9c9" y="57.03"/>
     <use style="fill:#4c4c4c;" x="301.728439" xlink:href="#m63e9e2a9c9" y="57.03"/>
     <use style="fill:#4c4c4c;" x="302.881804" xlink:href="#m63e9e2a9c9" y="57.03"/>
     <use style="fill:#4c4c4c;" x="362.171805" xlink:href="#m63e9e2a9c9" y="57.03"/>
     <use style="fill:#4c4c4c;" x="352.215924" xlink:href="#m63e9e2a9c9" y="57.03"/>
     <use style="fill:#4c4c4c;" x="284.241851" xlink:href="#m63e9e2a9c9" y="57.03"/>
     <use style="fill:#4c4c4c;" x="386.065304" xlink:href="#m63e9e2a9c9" y="57.03"/>
     <use style="fill:#4c4c4c;" x="360.945751" xlink:href="#m63e9e2a9c9" y="57.03"/>
     <use style="fill:#4c4c4c;" x="353.620214" xlink:href="#m63e9e2a9c9" y="57.03"/>
     <use style="fill:#4c4c4c;" x="289.238651" xlink:href="#m63e9e2a9c9" y="57.03"/>
     <use style="fill:#4c4c4c;" x="330.203212" xlink:href="#m63e9e2a9c9" y="57.03"/>
     <use style="fill:#4c4c4c;" x="329.164896" xlink:href="#m63e9e2a9c9" y="57.03"/>
     <use style="fill:#4c4c4c;" x="311.730734" xlink:href="#m63e9e2a9c9" y="57.03"/>
     <use style="fill:#4c4c4c;" x="380.661862" xlink:href="#m63e9e2a9c9" y="57.03"/>
     <use style="fill:#4c4c4c;" x="449.805514" xlink:href="#m63e9e2a9c9" y="57.03"/>
     <use style="fill:#4c4c4c;" x="289.895726" xlink:href="#m63e9e2a9c9" y="57.03"/>
     <use style="fill:#4c4c4c;" x="325.530065" xlink:href="#m63e9e2a9c9" y="57.03"/>
     <use style="fill:#4c4c4c;" x="402.237134" xlink:href="#m63e9e2a9c9" y="57.03"/>
     <use style="fill:#4c4c4c;" x="358.621565" xlink:href="#m63e9e2a9c9" y="57.03"/>
     <use style="fill:#4c4c4c;" x="354.893295" xlink:href="#m63e9e2a9c9" y="57.03"/>
     <use style="fill:#4c4c4c;" x="418.737336" xlink:href="#m63e9e2a9c9" y="57.03"/>
     <use style="fill:#4c4c4c;" x="350.558537" xlink:href="#m63e9e2a9c9" y="57.03"/>
     <use style="fill:#4c4c4c;" x="403.389424" xlink:href="#m63e9e2a9c9" y="57.03"/>
     <use style="fill:#4c4c4c;" x="346.390293" xlink:href="#m63e9e2a9c9" y="57.03"/>
     <use style="fill:#4c4c4c;" x="296.047133" xlink:href="#m63e9e2a9c9" y="57.03"/>
     <use style="fill:#4c4c4c;" x="421.719853" xlink:href="#m63e9e2a9c9" y="57.03"/>
     <use style="fill:#4c4c4c;" x="316.505196" xlink:href="#m63e9e2a9c9" y="57.03"/>
     <use style="fill:#4c4c4c;" x="290.862633" xlink:href="#m63e9e2a9c9" y="57.03"/>
     <use style="fill:#4c4c4c;" x="335.62513" xlink:href="#m63e9e2a9c9" y="57.03"/>
     <use style="fill:#4c4c4c;" x="321.995332" xlink:href="#m63e9e2a9c9" y="57.03"/>
     <use style="fill:#4c4c4c;" x="288.132346" xlink:href="#m63e9e2a9c9" y="57.03"/>
     <use style="fill:#4c4c4c;" x="338.714182" xlink:href="#m63e9e2a9c9" y="57.03"/>
    </g>
   </g>
   <g id="line2d_18">
    <path clip-path="url(#p1db9e43c9f)" d="M 194.230182 156.69 
L 170.739994 156.69 
" style="fill:none;stroke:#4c4c4c;stroke-linecap:round;stroke-width:2;"/>
   </g>
   <g id="line2d_19">
    <path clip-path="url(#p1db9e43c9f)" d="M 250.725726 156.69 
L 333.936898 156.69 
" style="fill:none;stroke:#4c4c4c;stroke-linecap:round;stroke-width:2;"/>
   </g>
   <g id="line2d_20">
    <path clip-path="url(#p1db9e43c9f)" d="M 170.739994 136.758 
L 170.739994 176.622 
" style="fill:none;stroke:#4c4c4c;stroke-linecap:round;stroke-width:2;"/>
   </g>
   <g id="line2d_21">
    <path clip-path="url(#p1db9e43c9f)" d="M 333.936898 136.758 
L 333.936898 176.622 
" style="fill:none;stroke:#4c4c4c;stroke-linecap:round;stroke-width:2;"/>
   </g>
   <g id="line2d_22">
    <g clip-path="url(#p1db9e43c9f)">
     <use style="fill:#4c4c4c;" x="346.173028" xlink:href="#m63e9e2a9c9" y="156.69"/>
     <use style="fill:#4c4c4c;" x="444.559783" xlink:href="#m63e9e2a9c9" y="156.69"/>
     <use style="fill:#4c4c4c;" x="398.120038" xlink:href="#m63e9e2a9c9" y="156.69"/>
     <use style="fill:#4c4c4c;" x="357.409456" xlink:href="#m63e9e2a9c9" y="156.69"/>
     <use style="fill:#4c4c4c;" x="353.743599" xlink:href="#m63e9e2a9c9" y="156.69"/>
     <use style="fill:#4c4c4c;" x="458.122013" xlink:href="#m63e9e2a9c9" y="156.69"/>
     <use style="fill:#4c4c4c;" x="387.967837" xlink:href="#m63e9e2a9c9" y="156.69"/>
     <use style="fill:#4c4c4c;" x="376.966663" xlink:href="#m63e9e2a9c9" y="156.69"/>
     <use style="fill:#4c4c4c;" x="507.752406" xlink:href="#m63e9e2a9c9" y="156.69"/>
     <use style="fill:#4c4c4c;" x="376.966663" xlink:href="#m63e9e2a9c9" y="156.69"/>
     <use style="fill:#4c4c4c;" x="467.215509" xlink:href="#m63e9e2a9c9" y="156.69"/>
     <use style="fill:#4c4c4c;" x="418.079474" xlink:href="#m63e9e2a9c9" y="156.69"/>
     <use style="fill:#4c4c4c;" x="352.708787" xlink:href="#m63e9e2a9c9" y="156.69"/>
     <use style="fill:#4c4c4c;" x="433.268815" xlink:href="#m63e9e2a9c9" y="156.69"/>
     <use style="fill:#4c4c4c;" x="402.211762" xlink:href="#m63e9e2a9c9" y="156.69"/>
     <use style="fill:#4c4c4c;" x="407.839532" xlink:href="#m63e9e2a9c9" y="156.69"/>
     <use style="fill:#4c4c4c;" x="356.482099" xlink:href="#m63e9e2a9c9" y="156.69"/>
     <use style="fill:#4c4c4c;" x="431.437066" xlink:href="#m63e9e2a9c9" y="156.69"/>
     <use style="fill:#4c4c4c;" x="387.647545" xlink:href="#m63e9e2a9c9" y="156.69"/>
     <use style="fill:#4c4c4c;" x="387.967837" xlink:href="#m63e9e2a9c9" y="156.69"/>
     <use style="fill:#4c4c4c;" x="347.750563" xlink:href="#m63e9e2a9c9" y="156.69"/>
     <use style="fill:#4c4c4c;" x="416.397033" xlink:href="#m63e9e2a9c9" y="156.69"/>
    </g>
   </g>
   <g id="line2d_23">
    <path clip-path="url(#p1db9e43c9f)" d="M 179.778227 256.35 
L 169.541122 256.35 
" style="fill:none;stroke:#4c4c4c;stroke-linecap:round;stroke-width:2;"/>
   </g>
   <g id="line2d_24">
    <path clip-path="url(#p1db9e43c9f)" d="M 225.342965 256.35 
L 293.608718 256.35 
" style="fill:none;stroke:#4c4c4c;stroke-linecap:round;stroke-width:2;"/>
   </g>
   <g id="line2d_25">
    <path clip-path="url(#p1db9e43c9f)" d="M 169.541122 236.418 
L 169.541122 276.282 
" style="fill:none;stroke:#4c4c4c;stroke-linecap:round;stroke-width:2;"/>
   </g>
   <g id="line2d_26">
    <path clip-path="url(#p1db9e43c9f)" d="M 293.608718 236.418 
L 293.608718 276.282 
" style="fill:none;stroke:#4c4c4c;stroke-linecap:round;stroke-width:2;"/>
   </g>
   <g id="line2d_27">
    <g clip-path="url(#p1db9e43c9f)">
     <use style="fill:#4c4c4c;" x="309.336453" xlink:href="#m63e9e2a9c9" y="256.35"/>
     <use style="fill:#4c4c4c;" x="316.144724" xlink:href="#m63e9e2a9c9" y="256.35"/>
     <use style="fill:#4c4c4c;" x="309.867173" xlink:href="#m63e9e2a9c9" y="256.35"/>
     <use style="fill:#4c4c4c;" x="364.97043" xlink:href="#m63e9e2a9c9" y="256.35"/>
     <use style="fill:#4c4c4c;" x="357.110012" xlink:href="#m63e9e2a9c9" y="256.35"/>
     <use style="fill:#4c4c4c;" x="379.694291" xlink:href="#m63e9e2a9c9" y="256.35"/>
     <use style="fill:#4c4c4c;" x="311.212455" xlink:href="#m63e9e2a9c9" y="256.35"/>
     <use style="fill:#4c4c4c;" x="383.23145" xlink:href="#m63e9e2a9c9" y="256.35"/>
     <use style="fill:#4c4c4c;" x="301.501656" xlink:href="#m63e9e2a9c9" y="256.35"/>
     <use style="fill:#4c4c4c;" x="302.858725" xlink:href="#m63e9e2a9c9" y="256.35"/>
     <use style="fill:#4c4c4c;" x="341.75719" xlink:href="#m63e9e2a9c9" y="256.35"/>
     <use style="fill:#4c4c4c;" x="364.826181" xlink:href="#m63e9e2a9c9" y="256.35"/>
     <use style="fill:#4c4c4c;" x="406.817158" xlink:href="#m63e9e2a9c9" y="256.35"/>
     <use style="fill:#4c4c4c;" x="359.963319" xlink:href="#m63e9e2a9c9" y="256.35"/>
     <use style="fill:#4c4c4c;" x="382.833219" xlink:href="#m63e9e2a9c9" y="256.35"/>
     <use style="fill:#4c4c4c;" x="362.96169" xlink:href="#m63e9e2a9c9" y="256.35"/>
     <use style="fill:#4c4c4c;" x="351.960517" xlink:href="#m63e9e2a9c9" y="256.35"/>
     <use style="fill:#4c4c4c;" x="397.396844" xlink:href="#m63e9e2a9c9" y="256.35"/>
     <use style="fill:#4c4c4c;" x="338.84343" xlink:href="#m63e9e2a9c9" y="256.35"/>
     <use style="fill:#4c4c4c;" x="325.127022" xlink:href="#m63e9e2a9c9" y="256.35"/>
     <use style="fill:#4c4c4c;" x="386.303353" xlink:href="#m63e9e2a9c9" y="256.35"/>
     <use style="fill:#4c4c4c;" x="515.334498" xlink:href="#m63e9e2a9c9" y="256.35"/>
     <use style="fill:#4c4c4c;" x="338.356309" xlink:href="#m63e9e2a9c9" y="256.35"/>
     <use style="fill:#4c4c4c;" x="320.984944" xlink:href="#m63e9e2a9c9" y="256.35"/>
     <use style="fill:#4c4c4c;" x="419.512595" xlink:href="#m63e9e2a9c9" y="256.35"/>
     <use style="fill:#4c4c4c;" x="353.751107" xlink:href="#m63e9e2a9c9" y="256.35"/>
     <use style="fill:#4c4c4c;" x="353.490174" xlink:href="#m63e9e2a9c9" y="256.35"/>
     <use style="fill:#4c4c4c;" x="332.883701" xlink:href="#m63e9e2a9c9" y="256.35"/>
     <use style="fill:#4c4c4c;" x="398.231922" xlink:href="#m63e9e2a9c9" y="256.35"/>
     <use style="fill:#4c4c4c;" x="330.997139" xlink:href="#m63e9e2a9c9" y="256.35"/>
     <use style="fill:#4c4c4c;" x="374.266334" xlink:href="#m63e9e2a9c9" y="256.35"/>
     <use style="fill:#4c4c4c;" x="351.55379" xlink:href="#m63e9e2a9c9" y="256.35"/>
     <use style="fill:#4c4c4c;" x="335.111547" xlink:href="#m63e9e2a9c9" y="256.35"/>
     <use style="fill:#4c4c4c;" x="304.649622" xlink:href="#m63e9e2a9c9" y="256.35"/>
     <use style="fill:#4c4c4c;" x="352.772658" xlink:href="#m63e9e2a9c9" y="256.35"/>
     <use style="fill:#4c4c4c;" x="317.116699" xlink:href="#m63e9e2a9c9" y="256.35"/>
     <use style="fill:#4c4c4c;" x="326.385533" xlink:href="#m63e9e2a9c9" y="256.35"/>
     <use style="fill:#4c4c4c;" x="317.620648" xlink:href="#m63e9e2a9c9" y="256.35"/>
     <use style="fill:#4c4c4c;" x="386.565599" xlink:href="#m63e9e2a9c9" y="256.35"/>
     <use style="fill:#4c4c4c;" x="299.106005" xlink:href="#m63e9e2a9c9" y="256.35"/>
     <use style="fill:#4c4c4c;" x="328.65589" xlink:href="#m63e9e2a9c9" y="256.35"/>
     <use style="fill:#4c4c4c;" x="310.814877" xlink:href="#m63e9e2a9c9" y="256.35"/>
     <use style="fill:#4c4c4c;" x="410.423625" xlink:href="#m63e9e2a9c9" y="256.35"/>
     <use style="fill:#4c4c4c;" x="295.782899" xlink:href="#m63e9e2a9c9" y="256.35"/>
     <use style="fill:#4c4c4c;" x="320.624998" xlink:href="#m63e9e2a9c9" y="256.35"/>
     <use style="fill:#4c4c4c;" x="336.885124" xlink:href="#m63e9e2a9c9" y="256.35"/>
     <use style="fill:#4c4c4c;" x="355.565911" xlink:href="#m63e9e2a9c9" y="256.35"/>
     <use style="fill:#4c4c4c;" x="295.700057" xlink:href="#m63e9e2a9c9" y="256.35"/>
     <use style="fill:#4c4c4c;" x="334.244708" xlink:href="#m63e9e2a9c9" y="256.35"/>
     <use style="fill:#4c4c4c;" x="334.637585" xlink:href="#m63e9e2a9c9" y="256.35"/>
     <use style="fill:#4c4c4c;" x="415.472445" xlink:href="#m63e9e2a9c9" y="256.35"/>
     <use style="fill:#4c4c4c;" x="370.160047" xlink:href="#m63e9e2a9c9" y="256.35"/>
     <use style="fill:#4c4c4c;" x="339.190926" xlink:href="#m63e9e2a9c9" y="256.35"/>
     <use style="fill:#4c4c4c;" x="381.478805" xlink:href="#m63e9e2a9c9" y="256.35"/>
     <use style="fill:#4c4c4c;" x="322.099141" xlink:href="#m63e9e2a9c9" y="256.35"/>
     <use style="fill:#4c4c4c;" x="443.84004" xlink:href="#m63e9e2a9c9" y="256.35"/>
     <use style="fill:#4c4c4c;" x="334.027468" xlink:href="#m63e9e2a9c9" y="256.35"/>
     <use style="fill:#4c4c4c;" x="335.074413" xlink:href="#m63e9e2a9c9" y="256.35"/>
     <use style="fill:#4c4c4c;" x="323.83991" xlink:href="#m63e9e2a9c9" y="256.35"/>
     <use style="fill:#4c4c4c;" x="332.116792" xlink:href="#m63e9e2a9c9" y="256.35"/>
     <use style="fill:#4c4c4c;" x="390.519747" xlink:href="#m63e9e2a9c9" y="256.35"/>
     <use style="fill:#4c4c4c;" x="309.525893" xlink:href="#m63e9e2a9c9" y="256.35"/>
     <use style="fill:#4c4c4c;" x="295.517971" xlink:href="#m63e9e2a9c9" y="256.35"/>
     <use style="fill:#4c4c4c;" x="335.617327" xlink:href="#m63e9e2a9c9" y="256.35"/>
     <use style="fill:#4c4c4c;" x="405.618512" xlink:href="#m63e9e2a9c9" y="256.35"/>
     <use style="fill:#4c4c4c;" x="339.208774" xlink:href="#m63e9e2a9c9" y="256.35"/>
     <use style="fill:#4c4c4c;" x="334.235689" xlink:href="#m63e9e2a9c9" y="256.35"/>
     <use style="fill:#4c4c4c;" x="362.539811" xlink:href="#m63e9e2a9c9" y="256.35"/>
     <use style="fill:#4c4c4c;" x="334.397405" xlink:href="#m63e9e2a9c9" y="256.35"/>
     <use style="fill:#4c4c4c;" x="363.449625" xlink:href="#m63e9e2a9c9" y="256.35"/>
     <use style="fill:#4c4c4c;" x="300.675918" xlink:href="#m63e9e2a9c9" y="256.35"/>
     <use style="fill:#4c4c4c;" x="318.219927" xlink:href="#m63e9e2a9c9" y="256.35"/>
     <use style="fill:#4c4c4c;" x="380.266243" xlink:href="#m63e9e2a9c9" y="256.35"/>
     <use style="fill:#4c4c4c;" x="313.584261" xlink:href="#m63e9e2a9c9" y="256.35"/>
     <use style="fill:#4c4c4c;" x="333.751753" xlink:href="#m63e9e2a9c9" y="256.35"/>
     <use style="fill:#4c4c4c;" x="352.657722" xlink:href="#m63e9e2a9c9" y="256.35"/>
     <use style="fill:#4c4c4c;" x="339.623381" xlink:href="#m63e9e2a9c9" y="256.35"/>
     <use style="fill:#4c4c4c;" x="400.419057" xlink:href="#m63e9e2a9c9" y="256.35"/>
     <use style="fill:#4c4c4c;" x="430.451062" xlink:href="#m63e9e2a9c9" y="256.35"/>
     <use style="fill:#4c4c4c;" x="301.634059" xlink:href="#m63e9e2a9c9" y="256.35"/>
     <use style="fill:#4c4c4c;" x="321.650236" xlink:href="#m63e9e2a9c9" y="256.35"/>
     <use style="fill:#4c4c4c;" x="435.555102" xlink:href="#m63e9e2a9c9" y="256.35"/>
     <use style="fill:#4c4c4c;" x="366.298562" xlink:href="#m63e9e2a9c9" y="256.35"/>
     <use style="fill:#4c4c4c;" x="333.956831" xlink:href="#m63e9e2a9c9" y="256.35"/>
     <use style="fill:#4c4c4c;" x="295.436048" xlink:href="#m63e9e2a9c9" y="256.35"/>
     <use style="fill:#4c4c4c;" x="337.572865" xlink:href="#m63e9e2a9c9" y="256.35"/>
     <use style="fill:#4c4c4c;" x="357.267519" xlink:href="#m63e9e2a9c9" y="256.35"/>
     <use style="fill:#4c4c4c;" x="409.793735" xlink:href="#m63e9e2a9c9" y="256.35"/>
     <use style="fill:#4c4c4c;" x="298.426904" xlink:href="#m63e9e2a9c9" y="256.35"/>
     <use style="fill:#4c4c4c;" x="344.178223" xlink:href="#m63e9e2a9c9" y="256.35"/>
     <use style="fill:#4c4c4c;" x="405.983068" xlink:href="#m63e9e2a9c9" y="256.35"/>
     <use style="fill:#4c4c4c;" x="418.570072" xlink:href="#m63e9e2a9c9" y="256.35"/>
     <use style="fill:#4c4c4c;" x="323.35505" xlink:href="#m63e9e2a9c9" y="256.35"/>
     <use style="fill:#4c4c4c;" x="371.122406" xlink:href="#m63e9e2a9c9" y="256.35"/>
     <use style="fill:#4c4c4c;" x="312.351549" xlink:href="#m63e9e2a9c9" y="256.35"/>
     <use style="fill:#4c4c4c;" x="321.242275" xlink:href="#m63e9e2a9c9" y="256.35"/>
     <use style="fill:#4c4c4c;" x="333.69888" xlink:href="#m63e9e2a9c9" y="256.35"/>
     <use style="fill:#4c4c4c;" x="326.640446" xlink:href="#m63e9e2a9c9" y="256.35"/>
     <use style="fill:#4c4c4c;" x="311.127903" xlink:href="#m63e9e2a9c9" y="256.35"/>
     <use style="fill:#4c4c4c;" x="364.396791" xlink:href="#m63e9e2a9c9" y="256.35"/>
     <use style="fill:#4c4c4c;" x="330.501335" xlink:href="#m63e9e2a9c9" y="256.35"/>
     <use style="fill:#4c4c4c;" x="388.457859" xlink:href="#m63e9e2a9c9" y="256.35"/>
     <use style="fill:#4c4c4c;" x="364.932853" xlink:href="#m63e9e2a9c9" y="256.35"/>
     <use style="fill:#4c4c4c;" x="415.16946" xlink:href="#m63e9e2a9c9" y="256.35"/>
     <use style="fill:#4c4c4c;" x="483.370632" xlink:href="#m63e9e2a9c9" y="256.35"/>
     <use style="fill:#4c4c4c;" x="454.753998" xlink:href="#m63e9e2a9c9" y="256.35"/>
     <use style="fill:#4c4c4c;" x="312.100855" xlink:href="#m63e9e2a9c9" y="256.35"/>
     <use style="fill:#4c4c4c;" x="341.433321" xlink:href="#m63e9e2a9c9" y="256.35"/>
     <use style="fill:#4c4c4c;" x="312.100855" xlink:href="#m63e9e2a9c9" y="256.35"/>
     <use style="fill:#4c4c4c;" x="341.433321" xlink:href="#m63e9e2a9c9" y="256.35"/>
     <use style="fill:#4c4c4c;" x="312.100855" xlink:href="#m63e9e2a9c9" y="256.35"/>
     <use style="fill:#4c4c4c;" x="320.984944" xlink:href="#m63e9e2a9c9" y="256.35"/>
     <use style="fill:#4c4c4c;" x="314.139264" xlink:href="#m63e9e2a9c9" y="256.35"/>
     <use style="fill:#4c4c4c;" x="302.576358" xlink:href="#m63e9e2a9c9" y="256.35"/>
     <use style="fill:#4c4c4c;" x="294.824038" xlink:href="#m63e9e2a9c9" y="256.35"/>
    </g>
   </g>
   <g id="line2d_28">
    <path clip-path="url(#p1db9e43c9f)" d="M 192.359991 17.166 
L 192.359991 96.894 
" style="fill:none;stroke:#4c4c4c;stroke-linecap:round;stroke-width:2;"/>
   </g>
   <g id="line2d_29">
    <path clip-path="url(#p1db9e43c9f)" d="M 213.9749 116.826 
L 213.9749 196.554 
" style="fill:none;stroke:#4c4c4c;stroke-linecap:round;stroke-width:2;"/>
   </g>
   <g id="line2d_30">
    <path clip-path="url(#p1db9e43c9f)" d="M 191.560765 216.486 
L 191.560765 296.214 
" style="fill:none;stroke:#4c4c4c;stroke-linecap:round;stroke-width:2;"/>
   </g>
   <g id="patch_6">
    <path d="M 149.144095 306.18 
L 149.144095 7.2 
" style="fill:none;"/>
   </g>
   <g id="patch_7">
    <path d="M 595.544095 306.18 
L 595.544095 7.2 
" style="fill:none;"/>
   </g>
   <g id="patch_8">
    <path d="M 149.144095 306.18 
L 595.544095 306.18 
" style="fill:none;"/>
   </g>
   <g id="patch_9">
    <path d="M 149.144095 7.2 
L 595.544095 7.2 
" style="fill:none;"/>
   </g>
  </g>
 </g>
 <defs>
  <clipPath id="p1db9e43c9f">
   <rect height="298.98" width="446.4" x="149.144095" y="7.2"/>
  </clipPath>
 </defs>
</svg>
