<?xml version="1.0" encoding="utf-8" standalone="no"?>
<!DOCTYPE svg PUBLIC "-//W3C//DTD SVG 1.1//EN"
  "http://www.w3.org/Graphics/SVG/1.1/DTD/svg11.dtd">
<!-- Created with matplotlib (http://matplotlib.org/) -->
<svg height="274.797917pt" version="1.1" viewBox="0 0 491.144095 274.797917" width="491.144095pt" xmlns="http://www.w3.org/2000/svg" xmlns:xlink="http://www.w3.org/1999/xlink">
 <defs>
  <style type="text/css">
*{stroke-linecap:butt;stroke-linejoin:round;}
  </style>
 </defs>
 <g id="figure_1">
  <g id="patch_1">
   <path d="M 0 274.797917 
L 491.144095 274.797917 
L 491.144095 0 
L 0 0 
z
" style="fill:#ffffff;"/>
  </g>
  <g id="axes_1">
   <g id="patch_2">
    <path d="M 149.144095 224.64 
L 483.944095 224.64 
L 483.944095 7.2 
L 149.144095 7.2 
z
" style="fill:#eaeaf2;"/>
   </g>
   <g id="matplotlib.axis_1">
    <g id="xtick_1">
     <g id="line2d_1"/>
     <g id="text_1">
      <!-- $0$ -->
      <defs>
       <path d="M 14.796875 63.34375 
C 11.90625 61.34375 9.90625 58.65625 8.40625 55.5625 
C 4.796875 48.59375 4.40625 40.4375 4.40625 31.5625 
C 4.40625 20.421875 6.40625 10.15625 12 4.28125 
C 17.296875 -1.1875 25.703125 -2.59375 32.796875 0.296875 
C 37.203125 1.984375 40.40625 5.671875 42.40625 9.65625 
C 46 16.734375 46.40625 25.203125 46.40625 33.953125 
C 46.40625 36.75 46.296875 39.53125 46 42.328125 
C 45.296875 49 43 56.359375 39.296875 60.453125 
C 33.203125 67.125 22.296875 68.609375 14.796875 63.34375 
z
M 34.90625 57.65625 
C 39.59375 52.6875 40 43.125 40 34.0625 
L 40 28.6875 
C 40 24.09375 39.203125 18.125 38.203125 14.734375 
C 36.796875 10.0625 34.5 6.671875 29.90625 4.578125 
C 24.296875 2.59375 18.5 4.484375 15.296875 8.859375 
C 11 14.546875 10.796875 24.59375 10.796875 33.46875 
C 10.796875 41.828125 10.90625 51.09375 15 56.5625 
C 19.5 62.546875 29.203125 63.53125 34.90625 57.65625 
z
" id="Computer_Modern_Bright-48"/>
      </defs>
      <g style="fill:#262626;" transform="translate(153.415962 242.709603)scale(0.16 -0.16)">
       <use transform="scale(0.996264)" xlink:href="#Computer_Modern_Bright-48"/>
      </g>
     </g>
    </g>
    <g id="xtick_2">
     <g id="line2d_2"/>
     <g id="text_2">
      <!-- $2$ -->
      <defs>
       <path d="M 7.296875 45.625 
C 8.703125 51.1875 11.09375 57.546875 16.796875 60.046875 
C 19.203125 61.03125 21.796875 61.234375 24.40625 61.03125 
C 29.296875 60.640625 34.09375 58.640625 37.09375 54.65625 
C 39.296875 51.6875 40.09375 48 39.703125 44.4375 
C 38.5 34.09375 28.296875 26.640625 21.703125 21.0625 
C 17.90625 17.890625 7.09375 7.75 7.09375 7.75 
L 5.40625 6.15625 
C 4.5 5.265625 4.40625 5.265625 4.40625 3.484375 
L 4.40625 0 
L 46.40625 0 
L 46.40625 5.578125 
L 10.203125 5.578125 
C 13.40625 8.6875 26.703125 20.359375 28.5 21.75 
C 34.296875 26.453125 40.796875 31.15625 44.296875 37.9375 
C 48.203125 45.71875 46.5 55.515625 39.90625 61.296875 
C 35.90625 64.796875 30.40625 66.5 25.09375 66.5 
C 20.203125 66.5 15.203125 65.5 11.296875 62.421875 
C 8.296875 59.9375 5.796875 56.25 4.40625 52.484375 
C 4.09375 51.890625 3.59375 50.890625 3.703125 50.203125 
C 3.796875 49.59375 4.40625 49.109375 4.703125 48.703125 
C 5.5 47.703125 6.296875 46.515625 7.296875 45.625 
z
" id="Computer_Modern_Bright-50"/>
      </defs>
      <g style="fill:#262626;" transform="translate(235.852967 242.709603)scale(0.16 -0.16)">
       <use transform="scale(0.996264)" xlink:href="#Computer_Modern_Bright-50"/>
      </g>
     </g>
    </g>
    <g id="xtick_3">
     <g id="line2d_3"/>
     <g id="text_3">
      <!-- $4$ -->
      <defs>
       <path d="M 2.09375 18 
L 31 18 
L 31 0 
L 37.296875 0 
L 37.296875 18 
L 48.703125 18 
L 48.703125 23.265625 
L 37.296875 23.265625 
L 37.296875 65.921875 
L 31.90625 65.921875 
C 30.09375 65.921875 29.59375 66.03125 28.796875 64.53125 
C 24.796875 58.0625 3.703125 25.65625 3 24.765625 
C 2.203125 23.375 2.09375 23.46875 2.09375 21.375 
z
M 31.296875 60.515625 
L 31.296875 23.265625 
L 8.59375 23.265625 
C 9.296875 24.671875 10.296875 25.96875 11.203125 27.359375 
C 16.203125 35.015625 28.09375 53.25 30.59375 58.921875 
C 30.90625 59.421875 31 60.015625 31.296875 60.515625 
z
" id="Computer_Modern_Bright-52"/>
      </defs>
      <g style="fill:#262626;" transform="translate(318.289973 242.709603)scale(0.16 -0.16)">
       <use transform="scale(0.996264)" xlink:href="#Computer_Modern_Bright-52"/>
      </g>
     </g>
    </g>
    <g id="xtick_4">
     <g id="line2d_4"/>
     <g id="text_4">
      <!-- $6$ -->
      <defs>
       <path d="M 11.296875 32.25 
L 11.203125 32.25 
C 11.203125 41.3125 12.796875 51.875 20.59375 57.640625 
C 24.90625 60.734375 30.703125 62.328125 38.203125 60.53125 
C 39.796875 60.140625 41.296875 59.546875 42.796875 59.140625 
L 42.796875 62.625 
C 42.796875 63.03125 42.90625 63.71875 42.59375 64.125 
C 41.90625 65.015625 36.296875 65.90625 36.09375 65.90625 
C 27.40625 66.90625 21.703125 65.015625 16.40625 60.53125 
C 10 55.078125 6.296875 47.015625 5.09375 38.875 
C 4 32.296875 4.90625 21.765625 6.203125 16.59375 
C 8.296875 8.9375 12.296875 2.1875 19.703125 -0.40625 
C 24.09375 -2 29.5 -2 33.703125 0.015625 
C 37.09375 1.609375 39.90625 4.40625 42.09375 7.40625 
C 45.59375 12.203125 46.5 18 46.09375 23.90625 
C 45.90625 26.8125 45.5 29.703125 44.296875 32.40625 
C 42.40625 36.703125 39.203125 41.203125 35.09375 43.203125 
C 33.203125 44 31.203125 44 29.203125 44 
C 23.90625 44 18.90625 41.71875 15.203125 37.921875 
C 13.59375 36.328125 12 34.34375 11.296875 32.25 
z
M 24.40625 39.125 
C 28.203125 39.421875 32.203125 38.828125 35.09375 36.140625 
C 38.90625 32.546875 39.59375 27.46875 39.59375 22.578125 
C 39.59375 19.265625 39.703125 15.84375 38.703125 12.71875 
C 38.09375 11.109375 37.296875 9.703125 36.40625 8.390625 
C 34.203125 5.46875 31.40625 4.0625 26.796875 3.46875 
C 22.296875 3.46875 17.796875 5.25 15.203125 9.015625 
C 13.59375 11.203125 12.796875 13.875 12.296875 16.453125 
C 11.703125 19.140625 11.296875 21.90625 11.5 24.578125 
C 12 31.65625 17 38.125 24.40625 39.125 
z
" id="Computer_Modern_Bright-54"/>
      </defs>
      <g style="fill:#262626;" transform="translate(400.726978 242.709603)scale(0.16 -0.16)">
       <use transform="scale(0.996264)" xlink:href="#Computer_Modern_Bright-54"/>
      </g>
     </g>
    </g>
    <g id="text_5">
     <!-- $|\beta_{sy622}|$ -->
     <defs>
      <path d="M 11.90625 70.296875 
L 11.90625 -17.90625 
C 11.90625 -19.40625 11.5 -21.90625 13.59375 -22.203125 
C 13.90625 -22.203125 14.09375 -22.203125 14.40625 -22.09375 
C 16.5 -21.59375 15.90625 -18.59375 15.90625 -17 
L 15.90625 71.5 
C 15.90625 72.90625 16 74.703125 14.203125 75 
C 11.5 75 11.90625 72.203125 11.90625 70.296875 
z
" id="Computer_Modern_Bright_Math_Symbols-106"/>
      <path d="M -3.40625 -17.296875 
L 3 -17.296875 
L 4.203125 -11.21875 
L 7.5 4.359375 
C 9.40625 2.34375 11.296875 0.515625 13.796875 -0.796875 
C 18.09375 -3.125 25.203125 -4.546875 31.40625 -3.125 
C 40.59375 -1.296875 49 5.484375 52.90625 14.1875 
C 56 21.265625 56.40625 30.28125 52.90625 37.359375 
C 51.703125 39.78125 49.90625 42.515625 47.5 43.9375 
C 51.40625 46.171875 55.09375 49.046875 57 53.4375 
C 57.796875 55.375 58.40625 57.828125 57.90625 60.390625 
C 56.40625 67.4375 50 70.5 43.203125 70.5 
C 39.703125 70.5 36 69.890625 32.59375 68.984375 
C 24.40625 66.5625 16.796875 61.3125 12.59375 53.765625 
C 10 49.03125 9.40625 43.484375 8.296875 38.234375 
C 7 32.390625 -3.40625 -16.6875 -3.40625 -17.296875 
z
M 39.5 65.59375 
C 43.40625 65.890625 47.90625 64.890625 49.90625 62.96875 
C 53.59375 59.3125 50.90625 52.328125 48.5 49.5 
C 47.703125 48.484375 45.40625 46.359375 44.09375 46.15625 
C 43.5 46.0625 42.90625 46.4375 42.296875 46.515625 
C 37.90625 47.875 28.703125 47.875 25.703125 45.984375 
C 25 45.59375 24.203125 44.640625 24.296875 43.703125 
C 24.59375 42.03125 27.59375 41.40625 29 41.3125 
C 32.40625 41 35.90625 41 39.296875 41.40625 
C 40 41.5 40.796875 41.703125 41.5 41.8125 
C 42.40625 42.015625 43.09375 42.3125 43.90625 41.703125 
C 48.5 38.265625 49.59375 31.484375 49.09375 26.125 
C 48.59375 19.4375 47 12.765625 42.40625 7.703125 
C 39.296875 4.5625 35.796875 2.4375 30.40625 1.53125 
C 23.203125 0.625 14.40625 3.25 11.40625 10.546875 
C 10 14.484375 10.09375 17.21875 11.203125 22.171875 
L 12.703125 28.953125 
L 15.59375 43.125 
C 16.296875 46.0625 16.703125 49.09375 18 51.828125 
C 21.90625 60.03125 30.796875 64.890625 39.5 65.59375 
z
" id="Computer_Modern_Bright_Math_Slanted-12"/>
      <path d="M 6 10.171875 
L 3.703125 4.328125 
C 5.59375 3.15625 7.5 2.09375 9.59375 1.234375 
C 15.5 -1 23.796875 -1 29.90625 1.28125 
C 34.59375 3.078125 38.09375 6.65625 39.90625 11.3125 
C 41.296875 14.890625 41.203125 18.765625 39.40625 21.53125 
C 36.703125 26.015625 32.09375 27.203125 26.09375 28.296875 
C 23.09375 28.890625 19.703125 29.390625 17.796875 32.078125 
C 15.703125 34.953125 17.296875 38.71875 19.703125 40.921875 
C 22.296875 43.203125 26.40625 44 31 44 
C 33.59375 44 36.203125 43.578125 38.703125 42.625 
C 40.40625 41.875 41.90625 40.9375 43.5 40.09375 
L 45.59375 45.734375 
C 41.59375 47.765625 38.90625 49 33.59375 49 
C 27 49.5 20.09375 48.1875 15.796875 44.265625 
C 11.09375 39.9375 8.5 31.6875 13.40625 26.765625 
C 16.703125 23.046875 21.796875 22.53125 26.40625 21.53125 
C 29.703125 20.828125 33.40625 19.828125 34.59375 16.203125 
C 35 14.796875 34.796875 13.28125 34.296875 11.96875 
C 32.703125 7.140625 27.90625 4.734375 21.59375 4.734375 
C 17.703125 4.734375 13.90625 5.53125 10.40625 7.25 
C 8.796875 8.046875 7.40625 9.15625 6 10.171875 
z
" id="Computer_Modern_Bright_Math_Slanted-115"/>
      <path d="M 11.5 47 
C 12 43.484375 12.796875 40.0625 13.5 36.640625 
L 19.703125 4.546875 
C 19.90625 3.734375 20.703125 0.421875 20.59375 -0.28125 
C 20.59375 -0.890625 20.203125 -1.390625 19.90625 -1.890625 
C 19.203125 -2.90625 18.59375 -4 18 -5.015625 
C 16.296875 -7.921875 14 -11.453125 10.59375 -12.65625 
C 7.703125 -13.765625 2.09375 -12.25 0.09375 -11.75 
L -0.59375 -17.390625 
C 2 -17.78125 7 -18.390625 9.59375 -17.890625 
C 16.5 -16.375 20.796875 -9.53125 23.703125 -4.515625 
L 51.40625 42.0625 
L 53.09375 44.984375 
C 53.5 45.6875 53.90625 46.296875 54.203125 47 
C 52.09375 47 49.796875 47 48 46.703125 
C 45.5 43.296875 43.59375 39.28125 41.296875 35.671875 
L 30 16.09375 
C 28.203125 12.78125 26.296875 9.5625 24.796875 5.953125 
C 24.59375 10.78125 23.796875 15.609375 22.90625 20.34375 
C 22.40625 22.953125 18.40625 46.09375 17.90625 46.796875 
C 17.5 47.203125 16.703125 47 16.203125 47 
z
" id="Computer_Modern_Bright_Math_Slanted-121"/>
     </defs>
     <g style="fill:#262626;" transform="translate(289.602097 264.609125)scale(0.18 -0.18)">
      <use transform="translate(0 14.943915)scale(0.996264)" xlink:href="#Computer_Modern_Bright_Math_Symbols-106"/>
      <use transform="translate(27.674085 14.943915)scale(0.996264)" xlink:href="#Computer_Modern_Bright_Math_Slanted-12"/>
      <use transform="translate(85.248738 0)scale(0.697382)" xlink:href="#Computer_Modern_Bright_Math_Slanted-115"/>
      <use transform="translate(119.097513 0)scale(0.697382)" xlink:href="#Computer_Modern_Bright_Math_Slanted-121"/>
      <use transform="translate(159.077486 0)scale(0.697382)" xlink:href="#Computer_Modern_Bright-54"/>
      <use transform="translate(194.527571 0)scale(0.697382)" xlink:href="#Computer_Modern_Bright-50"/>
      <use transform="translate(229.977656 0)scale(0.697382)" xlink:href="#Computer_Modern_Bright-50"/>
      <use transform="translate(265.925874 14.943915)scale(0.996264)" xlink:href="#Computer_Modern_Bright_Math_Symbols-106"/>
     </g>
    </g>
   </g>
   <g id="matplotlib.axis_2">
    <g id="ytick_1">
     <g id="line2d_5"/>
     <g id="text_6">
      <!-- \emph{sy622} specific -->
      <defs>
       <path d="M 5.203125 9.59375 
L 3 3.734375 
C 8 0.515625 13.90625 -1 19.90625 -1 
C 29.90625 -1 37.296875 3.640625 39.59375 11.6875 
C 41 16.21875 39.703125 19.84375 37.40625 22.671875 
C 34.09375 26.296875 29.203125 26.78125 24.796875 27.796875 
C 21.90625 28.40625 18.59375 28.90625 16.796875 31.625 
C 14.703125 34.75 16.90625 38.875 19.59375 40.78125 
C 22.09375 42.609375 26.203125 43.3125 30.09375 43 
C 35.703125 43 38.296875 41.65625 42.59375 39.265625 
L 44.703125 44.875 
C 39.5 47.5 33.5 48.5 27.703125 48 
C 22.40625 48 18.203125 46.5 14.796875 43.453125 
C 11.40625 40.3125 9 35.03125 10.203125 30.375 
C 10.59375 28.34375 11.5 27.34375 12.703125 25.90625 
C 16.09375 22.46875 20.90625 21.96875 25.296875 20.953125 
C 28.203125 20.359375 31.5 19.640625 33.203125 16.90625 
C 35.203125 13.765625 33.5 9.71875 31 7.375 
C 28.09375 4.953125 23.796875 3.9375 18.90625 4.34375 
C 14.296875 4.34375 10.40625 5.828125 7.203125 8.125 
C 6.5 8.53125 5.90625 9.171875 5.203125 9.59375 
z
" id="Computer_Modern_Bright_Slanted-115"/>
       <path d="M 10.703125 48 
C 11.203125 44.265625 12 40.640625 12.703125 36.90625 
C 13.09375 34.390625 19 0.90625 19 0.609375 
C 19 0 18.59375 -0.5 18.296875 -1 
L 16.59375 -4.03125 
C 14.703125 -7.15625 12.796875 -10.390625 9 -11.6875 
C 6 -12.609375 0.5 -11.296875 -1.5 -10.6875 
C -1.796875 -12.5 -2 -14.421875 -2.203125 -16.328125 
C 0.5 -16.734375 5.40625 -17.34375 8.09375 -16.84375 
C 15.203125 -15.21875 19.203125 -8.5625 22.5 -3.125 
L 44.09375 34.390625 
L 49.203125 43.359375 
C 50.09375 44.875 51.203125 46.390625 51.796875 48 
C 49.703125 48 47.40625 48 45.59375 47.6875 
C 43.203125 44.078125 41.203125 40.046875 38.90625 36.21875 
C 33.59375 26.46875 27.703125 17.421875 23.203125 6.859375 
L 23.09375 6.859375 
C 23.40625 8.46875 23.09375 10.1875 22.90625 11.796875 
C 21.796875 22.59375 18.59375 39.734375 17.09375 48 
z
" id="Computer_Modern_Bright_Slanted-121"/>
       <path d="M 18.296875 32.59375 
L 18.203125 32.59375 
C 20.90625 46.921875 28.5 60.28125 43.203125 62 
C 48.203125 62 51.296875 61.0625 55.5 59.78125 
L 56.59375 64.921875 
C 53.5 66.15625 50.296875 67.03125 47 67.03125 
C 40.296875 67.03125 34.5 64.453125 30.40625 61.75 
C 19.90625 54.765625 13.09375 43.171875 10.703125 28.34375 
C 9 18.359375 9.40625 7.671875 15.203125 2.125 
C 21.59375 -3.71875 31.5 -2.109375 38.09375 2.53125 
C 42.203125 5.5625 46 9.390625 48.296875 14.03125 
C 51.203125 19.78125 53.203125 29.453125 50.09375 36.515625 
C 49.09375 38.9375 47.703125 41.5625 45.40625 43.0625 
C 42.90625 44.6875 39.703125 44.6875 36.796875 44.390625 
C 31.09375 43.78125 25.703125 40.75 21.703125 36.71875 
C 20.5 35.515625 19.203125 34.109375 18.296875 32.59375 
z
M 34.5 39.640625 
C 38.40625 39.640625 41.703125 38.625 43.296875 35.921875 
C 46 32 45.40625 27.390625 44.5 23.078125 
C 43.796875 19.5625 43.09375 16.046875 41.40625 12.9375 
C 38.59375 7.828125 33.40625 3.5 25.703125 3.5 
C 22.90625 3.5 19.796875 5.125 18.5 6.78125 
C 16.296875 9.421875 15.796875 13.21875 15.796875 16.59375 
C 15.796875 17.09375 15.90625 17.703125 15.90625 18.1875 
C 15.90625 20.703125 16.296875 23.203125 17.09375 25.609375 
C 19.59375 32.9375 26.40625 39.640625 34.5 39.640625 
z
M 18.09375 32.96875 
C 18.09375 32.96875 18.203125 32.96875 18.203125 32.96875 
C 18.203125 32.875 18.09375 32.765625 18.09375 32.96875 
z
" id="Computer_Modern_Bright_Slanted-54"/>
       <path d="M 17.09375 46.375 
C 19.796875 53.03125 25.09375 60.1875 32 61.703125 
C 38.40625 63.109375 46.796875 61 49.40625 54.25 
C 50.296875 51.421875 50.203125 48.390625 49.203125 45.375 
C 45.5 34.171875 33.796875 27.125 25.09375 20.671875 
L 9.296875 8.359375 
L 6.90625 6.546875 
C 6.5 6.140625 5.90625 5.84375 5.59375 5.4375 
C 5.203125 4.8125 4.40625 0 4.40625 0 
C 18.203125 0 33 0 46.203125 0 
C 46.90625 1.6875 47.203125 3.765625 47.59375 5.734375 
L 11.40625 5.734375 
L 19.796875 12.09375 
L 34.59375 23.078125 
C 41.59375 28.03125 49.296875 32.96875 53.703125 40.53125 
C 57.5 46.984375 58.296875 55.75 53.203125 61.703125 
C 50.703125 64.421875 47.5 66.046875 43.5 66.953125 
C 37.703125 68.15625 31.40625 67.34375 26.203125 64.421875 
C 21.59375 61.609375 18.5 57.96875 15.59375 53.328125 
C 15.203125 52.734375 14.5 51.828125 14.5 51.015625 
C 14.5 50.515625 14.796875 50 15.09375 49.609375 
C 15.703125 48.5 16.296875 47.28125 17.09375 46.375 
z
" id="Computer_Modern_Bright_Slanted-50"/>
       <path d="M 3.09375 9.953125 
C 2.90625 8.5625 2.59375 7.265625 2.40625 5.875 
C 2.203125 4.78125 1.90625 4.28125 2.90625 3.78125 
C 7 1.390625 11.90625 0.09375 17.703125 -0.40625 
C 24.203125 -1 32.40625 0.484375 35.59375 6.859375 
C 36.5 8.65625 37 10.65625 37.09375 12.640625 
C 37.5 19.8125 31.796875 24.390625 26.90625 26.09375 
C 21.40625 28.171875 13.90625 27.484375 10.09375 31.65625 
C 8.09375 33.953125 8 37.34375 9.90625 39.734375 
C 13.90625 45.3125 26.796875 42.921875 31.90625 40.421875 
C 32.703125 40.03125 33.40625 39.53125 34.296875 39.328125 
L 35.203125 44.703125 
C 30.5 46.796875 26.40625 48 19.90625 48 
C 14.296875 48 9.203125 46.703125 6 43.515625 
C 2.796875 40.234375 1.703125 34.75 3.59375 30.5625 
C 5.40625 26.578125 9.203125 24 13.296875 22.703125 
C 19.203125 20.609375 25.90625 21.609375 29.796875 16.828125 
C 32 14.03125 31.59375 9.859375 29.09375 7.359375 
C 24.296875 2.984375 14.09375 4.578125 8.5 6.96875 
C 6.59375 7.765625 4.90625 8.953125 3.09375 9.953125 
z
" id="Computer_Modern_Bright-115"/>
       <path d="M 12.703125 40.046875 
L 12.703125 46.625 
L 6.40625 46.625 
L 6.40625 -17 
L 12.796875 -17 
L 12.796875 5.90625 
C 14.203125 3.90625 15.796875 2.109375 17.90625 0.921875 
C 25 -3.359375 34 0.015625 38.90625 6.390625 
C 45.40625 14.71875 46.09375 27.15625 41.59375 36.578125 
C 39 41.984375 34.09375 47 27.796875 47.5 
C 22.296875 47.5 18.09375 45.296875 15.09375 42.625 
C 14.203125 41.828125 13.5 40.9375 12.703125 40.046875 
z
M 21.90625 42.53125 
C 26 42.828125 30 40.9375 32.796875 37.9375 
C 34.5 36.046875 35.796875 33.859375 36.59375 31.46875 
C 40.09375 22.109375 36.90625 9.15625 26.796875 5.28125 
C 21 3.09375 15.296875 5.078125 13.09375 10.453125 
C 12.59375 11.453125 12.796875 12.75 12.796875 13.84375 
L 12.796875 34.359375 
C 12.796875 36.640625 13 36.84375 14.5 38.546875 
C 16.296875 40.734375 19 42.21875 21.90625 42.53125 
z
" id="Computer_Modern_Bright-112"/>
       <path d="M 41.796875 10.890625 
C 39.5 9.203125 38.796875 8.296875 35.90625 6.8125 
C 29.796875 3.5 22.59375 3.5 17.40625 7.1875 
C 12.40625 10.765625 9.5 16.640625 9.5 25 
L 42.5 25 
C 42.5 32.375 40.796875 38.75 36.59375 43.234375 
C 32 47.71875 24.796875 49.109375 18.703125 47.21875 
C 16.40625 46.515625 14.296875 45.328125 12.40625 43.828125 
C 6.09375 38.75 3.40625 30.6875 3.5 22.796875 
C 3.703125 12.34375 10.796875 1.921875 21.296875 -0.265625 
C 26.796875 -1.359375 32.59375 -0.15625 37.5 2.328125 
C 38.40625 2.828125 41.703125 4.625 42.09375 5.515625 
C 42.40625 6.015625 41.796875 10.890625 41.796875 10.890625 
z
M 37.203125 28.890625 
L 10 28.890625 
C 11.203125 36.15625 17.203125 43.828125 25.296875 42.9375 
C 31.90625 42.328125 35.40625 37.65625 36.703125 31.78125 
C 36.90625 30.78125 37 29.890625 37.203125 28.890625 
z
" id="Computer_Modern_Bright-101"/>
       <path d="M 42.40625 11.15625 
C 40.5 9.765625 38.796875 8.265625 36.703125 7.078125 
C 32 4.578125 24.796875 3.390625 19.40625 5.875 
C 11.59375 9.859375 9.5 19.515625 10.59375 27.484375 
C 10.796875 29.078125 11.09375 30.671875 11.59375 32.171875 
C 13.796875 38.640625 19.296875 43.71875 28.296875 42.71875 
C 33.09375 42.328125 35.5 41.53125 39.296875 39.4375 
C 40 39.03125 40.59375 38.546875 41.40625 38.34375 
C 41.5 39.53125 41.796875 40.828125 42 42.03125 
C 42.296875 43.625 42.296875 43.8125 40.796875 44.515625 
C 39.703125 45.015625 38.59375 45.609375 37.40625 46.015625 
C 32.796875 48 25.203125 48.59375 20 47.109375 
C 12.90625 45.109375 7.59375 39.03125 5.296875 32.265625 
C 4.203125 29.171875 3.90625 25.890625 3.90625 22.609375 
C 4 12.15625 11.203125 1.890625 21.703125 -0.203125 
C 27.5 -1.390625 34.203125 0.296875 38.203125 2.390625 
C 39.203125 2.890625 42.203125 4.6875 42.703125 5.578125 
C 43 6.078125 42.40625 11.15625 42.40625 11.15625 
z
" id="Computer_Modern_Bright-99"/>
       <path d="M 6.40625 69 
L 6.40625 62.734375 
L 12.703125 62.734375 
L 12.703125 69 
z
M 6.40625 47 
L 6.40625 0 
L 12.703125 0 
L 12.703125 47 
z
" id="Computer_Modern_Bright-105"/>
       <path d="M 10.59375 47 
L 2 47 
L 2 42.03125 
L 10.59375 42.03125 
L 10.59375 0 
L 16.90625 0 
L 16.90625 42.03125 
L 30.09375 42.03125 
L 30.09375 47 
L 16.796875 47 
L 16.796875 54.90625 
C 16.796875 58.796875 16.40625 60.890625 18.90625 63.09375 
C 21.90625 65.296875 25.703125 65.296875 30.09375 63.40625 
L 30.09375 69.1875 
C 27.703125 69.59375 25.203125 69.984375 22.703125 69.78125 
C 20 69.59375 17.09375 68.296875 15.5 66.6875 
C 12.796875 64.59375 11 60.5 10.59375 56.703125 
C 10.5 55.40625 10.59375 54.203125 10.59375 52.890625 
z
M 38.09375 69.28125 
L 38.09375 63 
L 44.40625 63 
L 44.40625 69.28125 
z
M 38.09375 47 
L 38.09375 0 
L 44.40625 0 
L 44.40625 47 
z
" id="Computer_Modern_Bright-12"/>
      </defs>
      <g style="fill:#262626;" transform="translate(46.939117 48.974802)scale(0.16 -0.16)">
       <use transform="scale(0.996264)" xlink:href="#Computer_Modern_Bright_Slanted-115"/>
       <use transform="translate(38.439029 0)scale(0.996264)" xlink:href="#Computer_Modern_Bright_Slanted-121"/>
       <use transform="translate(80.780067 0)scale(0.996264)" xlink:href="#Computer_Modern_Bright_Slanted-54"/>
       <use transform="translate(131.423285 0)scale(0.996264)" xlink:href="#Computer_Modern_Bright_Slanted-50"/>
       <use transform="translate(182.066503 0)scale(0.996264)" xlink:href="#Computer_Modern_Bright_Slanted-50"/>
       <use transform="translate(275.151273 0)scale(0.996264)" xlink:href="#Computer_Modern_Bright-115"/>
       <use transform="translate(313.590302 0)scale(0.996264)" xlink:href="#Computer_Modern_Bright-112"/>
       <use transform="translate(361.742799 0)scale(0.996264)" xlink:href="#Computer_Modern_Bright-101"/>
       <use transform="translate(406.574467 0)scale(0.996264)" xlink:href="#Computer_Modern_Bright-99"/>
       <use transform="translate(451.406134 0)scale(0.996264)" xlink:href="#Computer_Modern_Bright-105"/>
       <use transform="translate(470.501093 0)scale(0.996264)" xlink:href="#Computer_Modern_Bright-12"/>
       <use transform="translate(521.144311 0)scale(0.996264)" xlink:href="#Computer_Modern_Bright-99"/>
      </g>
     </g>
    </g>
    <g id="ytick_2">
     <g id="line2d_6"/>
     <g id="text_7">
      <!-- \emph{bx93} associated -->
      <defs>
       <path d="M 21.09375 70 
L 6.40625 0 
C 8.59375 0 10.796875 0 12.703125 0.296875 
C 13.40625 2.203125 13.703125 4.421875 14.09375 6.515625 
L 14.203125 6.515625 
C 14.90625 4.59375 16.40625 2.484375 18 1.46875 
C 23.09375 -2.25 30.296875 -0.34375 35.203125 2.78125 
C 42.59375 7.21875 47.90625 15.984375 49.59375 24.546875 
C 50.296875 28.078125 50.40625 31.8125 49.796875 35.421875 
C 48.40625 42.890625 43.90625 48.828125 35.203125 48.125 
C 29.90625 47.625 25.203125 44.796875 21.40625 41.078125 
L 27.40625 70 
z
M 38.09375 41.8125 
C 39 41.296875 39.796875 40.796875 40.5 40.09375 
C 44 36.671875 44.09375 31.21875 43.5 26.6875 
C 42.59375 19.421875 39.59375 11.859375 33.296875 7.609375 
C 30.59375 5.953125 27.59375 4.5 23.59375 4.5 
C 19.203125 4.5 15.796875 6.9375 15.203125 11.15625 
C 15.203125 12.265625 15.59375 13.578125 15.90625 14.6875 
C 16.796875 18.71875 20.09375 35.65625 20.59375 36.765625 
C 21.09375 37.671875 22 38.484375 22.703125 39.1875 
C 26.59375 42.8125 32.296875 44.734375 38.09375 41.8125 
z
M 21.296875 41.046875 
C 21.296875 41.046875 21.40625 41.046875 21.40625 41.046875 
C 21.40625 40.9375 21.296875 40.84375 21.296875 41.046875 
z
" id="Computer_Modern_Bright_Slanted-98"/>
       <path d="M 9.796875 47.5 
C 14.09375 39.765625 18.90625 32.53125 23.09375 24.703125 
C 22.703125 23.890625 22.09375 23.296875 21.5 22.6875 
L -0.796875 0 
C 1.5 0 3.90625 0 6.09375 0 
C 12.703125 6.796875 18.90625 13.984375 25.40625 20.875 
C 28 15.65625 30.796875 10.734375 33.40625 5.609375 
C 34.296875 3.8125 35.203125 1.890625 36.40625 0.296875 
C 38.5 0 40.90625 0 43.296875 0 
C 42.203125 2.125 35.09375 13.984375 32.796875 17.921875 
L 30.09375 22.546875 
C 29.796875 23.046875 29.09375 23.84375 29.09375 24.453125 
C 29.203125 25.0625 30.203125 25.765625 30.59375 26.171875 
L 34.796875 30.484375 
C 36.59375 32.3125 50.59375 46.296875 51.5 47.5 
C 49.203125 47.5 46.90625 47.5 44.703125 47.5 
C 38.59375 41.640625 33 35.296875 27.09375 29.25 
C 23.59375 35.296875 20.5 41.75 16.703125 47.5 
C 14.5 47.5 12.09375 47.5 9.796875 47.5 
z
" id="Computer_Modern_Bright_Slanted-120"/>
       <path d="M 46.5 33 
L 46.59375 33 
C 46.296875 31.28125 45.90625 29.5625 45.40625 27.953125 
C 42.703125 18.28125 37.09375 7.859375 26.90625 4.65625 
C 21.5 3.0625 15.90625 4.0625 12.5 6.765625 
C 12.203125 6.96875 11.59375 7.65625 11.09375 7.5625 
C 10.703125 7.5625 10.296875 6.875 10.09375 6.5625 
C 9.203125 5.453125 8.296875 4.359375 7.5 3.25 
C 9.296875 1.84375 11.09375 0.53125 13.296875 -0.265625 
C 15.90625 -1.28125 20.5 -1.78125 23.59375 -1.1875 
C 29 -0.375 34 2.546875 38.09375 6.0625 
C 47.5 14.40625 53.09375 26.234375 54.59375 41.40625 
C 55.09375 45.90625 55.203125 50.53125 54.09375 55.046875 
C 53.203125 58.96875 51.703125 61.46875 48.90625 63.984375 
C 43.796875 68 36.296875 68 30.703125 65.453125 
C 25.40625 62.921875 19.90625 57.640625 17.203125 53.078125 
C 14.59375 48.609375 12.703125 41.421875 13.09375 34.921875 
C 13.5 30.8125 15.5 26.203125 18 23.703125 
C 20.296875 21.5 23.09375 21 26.09375 21 
C 32.09375 21 38.203125 23.921875 42.5 28.15625 
C 43.90625 29.5625 45.59375 31.078125 46.5 33 
z
M 43.90625 61.03125 
C 48.59375 58.5 49.40625 52.515625 48.90625 47.640625 
C 48.703125 44.90625 48.5 42.171875 47.59375 39.53125 
C 45.796875 34.453125 42.09375 30.015625 37.40625 27.578125 
C 32.40625 25.03125 24.59375 25.03125 21.5 29.75 
C 18.90625 33.484375 19.296875 38 20.09375 42.21875 
C 20.796875 45.546875 21.5 48.96875 23 52.09375 
C 25 56.109375 28.59375 59.71875 32.90625 61.234375 
C 36.5 62.453125 40.59375 62.453125 43.90625 61.03125 
z
" id="Computer_Modern_Bright_Slanted-57"/>
       <path d="M 18.796875 50.578125 
C 19.90625 51.703125 20.703125 53.03125 21.703125 54.15625 
C 26.09375 58.921875 34.203125 63.765625 42.59375 61.734375 
C 45.703125 61.03125 48.5 58.921875 49 55.59375 
C 49.296875 53.234375 48.203125 50.265625 47.5 48.828125 
C 44.796875 43.890625 40.703125 40.296875 34.796875 38.765625 
C 32.5 38.25 26.703125 38.25 24.703125 38.25 
L 23.703125 33 
L 30.59375 33 
C 36.09375 33 39 32.296875 42.09375 29.171875 
C 45.703125 24.9375 44.796875 18.375 42.5 13.75 
C 40.90625 10.8125 39.203125 8.59375 36.296875 6.78125 
C 29.5 2.25 20.09375 3.25 13.703125 7.890625 
C 11.09375 9.8125 9.296875 12.328125 7.796875 15.15625 
C 7.40625 14.453125 5.796875 10.71875 5.90625 10.015625 
C 5.90625 9.515625 6.296875 9 6.5 8.59375 
C 9.703125 3.765625 14.40625 0.328125 20.5 -0.875 
C 31.203125 -3 42.796875 2.25 48.5 11.734375 
C 51.40625 16.671875 52.703125 22.921875 49.703125 28.15625 
C 48 31.6875 43.5 34.8125 39.59375 35.53125 
C 41.09375 36.234375 42.59375 36.9375 44 37.75 
C 48.40625 40.359375 52.59375 44.59375 54.5 49.640625 
C 55.296875 51.453125 55.796875 53.46875 55.703125 55.484375 
C 55.40625 61.546875 50.203125 65.578125 44.703125 66.6875 
C 38.203125 68.09375 31.40625 66.375 25.796875 63.15625 
C 23.203125 61.640625 20.90625 59.71875 18.796875 57.609375 
C 18.296875 57.109375 17 55.890625 16.796875 55.09375 
C 16.796875 54.5625 18.296875 51.59375 18.796875 50.578125 
z
" id="Computer_Modern_Bright_Slanted-51"/>
       <path d="M 7.90625 37.515625 
C 9.59375 38.3125 11 39.515625 12.703125 40.328125 
C 15.40625 41.515625 18.203125 42.3125 21.203125 42.3125 
C 22.59375 42.40625 24.203125 42.609375 25.59375 42.3125 
C 28.09375 41.921875 30.296875 40.46875 31.796875 38.421875 
C 33.296875 36.09375 33.90625 34.046875 33.90625 30.25 
L 33.90625 25.984375 
C 29.09375 25.984375 24.296875 25.59375 19.703125 24.390625 
C 13.90625 23.09375 7.59375 20.203125 5.5 15.03125 
C 3.40625 10.046875 5.59375 3.484375 10.09375 0.484375 
C 12.296875 -1 14.90625 -1 17.5 -0.796875 
C 21.703125 -0.5 25.90625 0.5 29.5 2.671875 
C 31.203125 3.671875 32.90625 4.953125 33.90625 6.640625 
L 34 6.640625 
L 34 -0.296875 
L 40.296875 -0.296875 
L 40.296875 25.71875 
C 40.296875 28.5625 40.59375 31.625 40 34.484375 
C 39.40625 38.4375 36.90625 41.6875 34 43.953125 
C 30.59375 46.5 26.703125 47.40625 21.5 47 
C 16.703125 47 13 45.796875 9.40625 44.109375 
C 8.90625 43.90625 7.90625 43.609375 7.59375 43.015625 
C 7.296875 42.609375 7.5 41.90625 7.5 41.40625 
C 7.703125 40.109375 7.796875 38.8125 7.90625 37.515625 
z
M 33.90625 23 
L 33.90625 15.421875 
C 33.90625 13.140625 34 11.046875 32.703125 9.046875 
C 31.59375 7.46875 30.09375 6.359375 28.5 5.5625 
C 22.796875 2.6875 14.09375 3.578125 11.59375 8.359375 
C 9.59375 11.84375 11.703125 15.921875 14.59375 18.21875 
C 18.90625 21.5 27.296875 23 33.90625 23 
z
" id="Computer_Modern_Bright-97"/>
       <path d="M 10.703125 41.734375 
C 1.796875 32.96875 0.796875 17.71875 8.5 7.875 
C 9.59375 6.375 10.90625 5.078125 12.40625 3.984375 
C 16.09375 1 21.5 -1.1875 27.796875 -0.5 
C 37.796875 0.703125 44.703125 8.765625 46.796875 17.234375 
C 49.59375 29.078125 43.703125 42.328125 32.703125 46.5 
C 24.09375 50 15.5 46.5 10.703125 41.734375 
z
M 35.703125 39.046875 
C 40.5 34.765625 41.40625 27.890625 41 21.8125 
C 40.703125 17.140625 39.40625 12.25 36.09375 8.765625 
C 30.703125 3 20.703125 3 14.90625 8.578125 
C 11.90625 11.75 10.09375 16.34375 9.796875 21.8125 
C 9.296875 29.875 11.296875 38.453125 19.296875 41.640625 
C 25.203125 44.21875 32 42.328125 35.703125 39.046875 
z
" id="Computer_Modern_Bright-111"/>
       <path d="M 10.796875 60.5 
L 10.796875 46.96875 
L 1.09375 46.96875 
L 1.09375 42 
L 10.703125 42 
L 10.703125 15.328125 
C 10.703125 10.9375 10.40625 5.671875 13.296875 1.984375 
C 15 -0.203125 17.296875 -0.796875 20.796875 -0.5 
C 23.703125 -0.5 26.59375 0.109375 29.296875 1.140625 
C 30.203125 1.53125 33.5 2.984375 33.90625 3.6875 
C 34.09375 4.09375 32.796875 8.46875 32.796875 8.46875 
L 30.40625 6.671875 
C 27.296875 4.78125 21.09375 2.796875 18.5 6.375 
C 16.203125 9.484375 16.796875 14.0625 16.796875 17.640625 
L 16.796875 42 
L 32.296875 42 
L 32.296875 46.96875 
L 16.796875 46.96875 
L 16.796875 60.5 
z
" id="Computer_Modern_Bright-116"/>
       <path d="M 35.59375 69.109375 
L 35.59375 41.03125 
C 33.703125 43.125 31.796875 45.109375 29.203125 46.3125 
C 20.296875 50 11.703125 45.21875 7.296875 37.34375 
C 2.203125 27.984375 2.796875 15.625 8.90625 6.859375 
C 13.203125 0.78125 20.296875 -2.203125 27.796875 0.484375 
C 30.703125 1.578125 34.203125 4.46875 35.40625 7.0625 
L 35.5 7.0625 
L 35.5 0 
L 41.90625 0 
L 41.90625 69.109375 
z
M 35.203125 37.140625 
C 35.703125 36.25 35.5 35.046875 35.5 34.0625 
L 35.5 13.546875 
C 35.5 11.25 35.40625 11.046875 34.09375 9.265625 
C 32.296875 6.578125 29.5 4.6875 26.203125 4.375 
C 21.40625 3.984375 16.5 6.28125 13.703125 10.15625 
C 12.09375 12.453125 11.203125 15.234375 10.703125 18.03125 
C 10.5 19.125 10.5 20.109375 10.40625 21.21875 
C 9.796875 27.78125 11.203125 35.546875 17 39.734375 
C 18 40.4375 19.09375 40.9375 20.203125 41.421875 
C 26 43.625 32.40625 43.015625 35.203125 37.140625 
z
" id="Computer_Modern_Bright-100"/>
      </defs>
      <g style="fill:#262626;" transform="translate(33.655708 121.454802)scale(0.16 -0.16)">
       <use transform="scale(0.996264)" xlink:href="#Computer_Modern_Bright_Slanted-98"/>
       <use transform="translate(45.246767 0)scale(0.996264)" xlink:href="#Computer_Modern_Bright_Slanted-120"/>
       <use transform="translate(87.587805 0)scale(0.996264)" xlink:href="#Computer_Modern_Bright_Slanted-57"/>
       <use transform="translate(138.231023 0)scale(0.996264)" xlink:href="#Computer_Modern_Bright_Slanted-51"/>
       <use transform="translate(231.315793 0)scale(0.996264)" xlink:href="#Computer_Modern_Bright-97"/>
       <use transform="translate(277.807876 0)scale(0.996264)" xlink:href="#Computer_Modern_Bright-115"/>
       <use transform="translate(316.246905 0)scale(0.996264)" xlink:href="#Computer_Modern_Bright-115"/>
       <use transform="translate(354.685934 0)scale(0.996264)" xlink:href="#Computer_Modern_Bright-111"/>
       <use transform="translate(405.329152 0)scale(0.996264)" xlink:href="#Computer_Modern_Bright-99"/>
       <use transform="translate(450.16082 0)scale(0.996264)" xlink:href="#Computer_Modern_Bright-105"/>
       <use transform="translate(469.255779 0)scale(0.996264)" xlink:href="#Computer_Modern_Bright-97"/>
       <use transform="translate(515.747861 0)scale(0.996264)" xlink:href="#Computer_Modern_Bright-116"/>
       <use transform="translate(551.862249 0)scale(0.996264)" xlink:href="#Computer_Modern_Bright-101"/>
       <use transform="translate(596.693916 0)scale(0.996264)" xlink:href="#Computer_Modern_Bright-100"/>
      </g>
     </g>
    </g>
    <g id="ytick_3">
     <g id="line2d_7"/>
     <g id="text_8">
      <!-- \emph{sy622} associated -->
      <g style="fill:#262626;" transform="translate(26.642062 193.934802)scale(0.16 -0.16)">
       <use transform="scale(0.996264)" xlink:href="#Computer_Modern_Bright_Slanted-115"/>
       <use transform="translate(38.439029 0)scale(0.996264)" xlink:href="#Computer_Modern_Bright_Slanted-121"/>
       <use transform="translate(80.780067 0)scale(0.996264)" xlink:href="#Computer_Modern_Bright_Slanted-54"/>
       <use transform="translate(131.423285 0)scale(0.996264)" xlink:href="#Computer_Modern_Bright_Slanted-50"/>
       <use transform="translate(182.066503 0)scale(0.996264)" xlink:href="#Computer_Modern_Bright_Slanted-50"/>
       <use transform="translate(275.151273 0)scale(0.996264)" xlink:href="#Computer_Modern_Bright-97"/>
       <use transform="translate(321.643355 0)scale(0.996264)" xlink:href="#Computer_Modern_Bright-115"/>
       <use transform="translate(360.082385 0)scale(0.996264)" xlink:href="#Computer_Modern_Bright-115"/>
       <use transform="translate(398.521414 0)scale(0.996264)" xlink:href="#Computer_Modern_Bright-111"/>
       <use transform="translate(449.164632 0)scale(0.996264)" xlink:href="#Computer_Modern_Bright-99"/>
       <use transform="translate(493.996299 0)scale(0.996264)" xlink:href="#Computer_Modern_Bright-105"/>
       <use transform="translate(513.091258 0)scale(0.996264)" xlink:href="#Computer_Modern_Bright-97"/>
       <use transform="translate(559.58334 0)scale(0.996264)" xlink:href="#Computer_Modern_Bright-116"/>
       <use transform="translate(595.697728 0)scale(0.996264)" xlink:href="#Computer_Modern_Bright-101"/>
       <use transform="translate(640.529396 0)scale(0.996264)" xlink:href="#Computer_Modern_Bright-100"/>
      </g>
     </g>
    </g>
    <g id="text_9">
     <!-- phenotypic class -->
     <defs>
      <path d="M 6.40625 69.109375 
L 6.40625 0 
L 12.796875 0 
L 12.796875 22.015625 
C 12.796875 26.9375 12.5 31.96875 14.703125 36.578125 
C 15.796875 38.90625 17.5 40.90625 19.796875 42.109375 
C 21.703125 43.015625 23.703125 43.015625 25.796875 42.8125 
C 28.796875 42.8125 31.703125 42 33.59375 39.484375 
C 35.40625 37.171875 35.5 34.15625 35.5 31.328125 
L 35.5 0 
L 41.90625 0 
L 41.90625 27.203125 
C 41.90625 32.234375 42.40625 37.75 39.90625 42.265625 
C 37.90625 45.6875 34.40625 47.296875 30.703125 47.796875 
C 28.703125 48 26.703125 48 24.703125 47.703125 
C 21.09375 47 18 45.03125 15.59375 42.359375 
C 14.5 41.0625 13.203125 39.484375 12.796875 37.78125 
L 12.703125 37.78125 
L 12.703125 69.109375 
z
" id="Computer_Modern_Bright-104"/>
      <path d="M 12.59375 37.296875 
L 12.5 37.296875 
L 12.5 47 
L 6.40625 47 
L 6.40625 0 
L 12.796875 0 
L 12.796875 21.953125 
C 12.796875 26.859375 12.5 31.875 14.703125 36.484375 
C 15.796875 38.796875 17.5 40.796875 19.796875 42.015625 
C 21.703125 42.90625 23.703125 42.90625 25.796875 42.71875 
C 28.796875 42.71875 31.703125 41.921875 33.59375 39.390625 
C 35.40625 37.09375 35.5 34.078125 35.5 31.25 
L 35.5 0 
L 41.90625 0 
L 41.90625 26.859375 
C 41.90625 31.875 42.40625 37.375 40 41.890625 
C 38.09375 45.5 34.40625 47.203125 30.5 47.703125 
C 28.5 48 26.40625 48 24.40625 47.59375 
C 19.203125 46.5 14.40625 42.296875 12.59375 37.296875 
z
" id="Computer_Modern_Bright-110"/>
      <path d="M 0.703125 47.125 
C 1.296875 45.234375 5.40625 35.171875 5.5 34.875 
L 17.40625 4.40625 
L 18.40625 1.921875 
C 19 0.515625 19.203125 0.328125 18.59375 -1.265625 
L 17.5 -4.15625 
C 16.59375 -6.546875 15.59375 -9.03125 13.703125 -10.53125 
C 10.296875 -13.3125 4.90625 -11.71875 0.796875 -10.828125 
L 1.296875 -16.5 
C 3.203125 -16.796875 5.09375 -17 7 -17 
C 11.296875 -17.5 14.09375 -16.5 16.703125 -14.3125 
C 20 -11.546875 21.59375 -7.65625 23.09375 -3.6875 
L 26.203125 4.859375 
L 36.40625 32.390625 
C 38.09375 37.359375 40.203125 42.046875 41.796875 47 
L 37.296875 47 
C 36.796875 47 36 47.203125 35.59375 46.8125 
C 35.40625 46.5 35.296875 46.109375 35.203125 45.8125 
L 34.40625 43.734375 
C 33.40625 41.140625 32.5 38.671875 31.59375 36.078125 
L 25.796875 19.890625 
C 24.296875 15.53125 22.59375 11.0625 21.796875 6.5 
C 20.703125 11.078125 19.203125 15.46875 17.59375 19.84375 
C 16.296875 23.234375 8.5 44.046875 7.5 46.03125 
C 7.09375 47.125 6.703125 47.125 5.203125 47.125 
z
" id="Computer_Modern_Bright-121"/>
      <path d="M 6.40625 69.109375 
L 6.40625 0 
L 12.703125 0 
L 12.703125 69.109375 
z
" id="Computer_Modern_Bright-108"/>
     </defs>
     <g style="fill:#262626;" transform="translate(19.65327 174.089058)rotate(-90)scale(0.18 -0.18)">
      <use transform="scale(0.996264)" xlink:href="#Computer_Modern_Bright-112"/>
      <use transform="translate(48.152497 0)scale(0.996264)" xlink:href="#Computer_Modern_Bright-104"/>
      <use transform="translate(96.304994 0)scale(0.996264)" xlink:href="#Computer_Modern_Bright-101"/>
      <use transform="translate(141.136662 0)scale(0.996264)" xlink:href="#Computer_Modern_Bright-110"/>
      <use transform="translate(189.289159 0)scale(0.996264)" xlink:href="#Computer_Modern_Bright-111"/>
      <use transform="translate(239.932376 0)scale(0.996264)" xlink:href="#Computer_Modern_Bright-116"/>
      <use transform="translate(273.141035 0)scale(0.996264)" xlink:href="#Computer_Modern_Bright-121"/>
      <use transform="translate(315.482073 0)scale(0.996264)" xlink:href="#Computer_Modern_Bright-112"/>
      <use transform="translate(363.63457 0)scale(0.996264)" xlink:href="#Computer_Modern_Bright-105"/>
      <use transform="translate(382.729529 0)scale(0.996264)" xlink:href="#Computer_Modern_Bright-99"/>
      <use transform="translate(459.026408 0)scale(0.996264)" xlink:href="#Computer_Modern_Bright-99"/>
      <use transform="translate(503.858076 0)scale(0.996264)" xlink:href="#Computer_Modern_Bright-108"/>
      <use transform="translate(522.953034 0)scale(0.996264)" xlink:href="#Computer_Modern_Bright-97"/>
      <use transform="translate(569.445117 0)scale(0.996264)" xlink:href="#Computer_Modern_Bright-115"/>
      <use transform="translate(607.884146 0)scale(0.996264)" xlink:href="#Computer_Modern_Bright-115"/>
     </g>
    </g>
   </g>
   <g id="patch_3">
    <path clip-path="url(#pc2e58fff04)" d="M 170.739446 14.448 
L 170.739446 72.432 
L 205.297972 72.432 
L 205.297972 14.448 
L 170.739446 14.448 
z
" style="fill:#e85050;stroke:#3d3d3d;stroke-linejoin:miter;stroke-width:2;"/>
   </g>
   <g id="patch_4">
    <path clip-path="url(#pc2e58fff04)" d="M 180.85619 86.928 
L 180.85619 144.912 
L 218.406547 144.912 
L 218.406547 86.928 
L 180.85619 86.928 
z
" style="fill:#f7e71d;stroke:#3d3d3d;stroke-linejoin:miter;stroke-width:2;"/>
   </g>
   <g id="patch_5">
    <path clip-path="url(#pc2e58fff04)" d="M 171.725603 159.408 
L 171.725603 217.392 
L 217.864735 217.392 
L 217.864735 159.408 
L 171.725603 159.408 
z
" style="fill:#8f79ca;stroke:#3d3d3d;stroke-linejoin:miter;stroke-width:2;"/>
   </g>
   <g id="line2d_8">
    <path clip-path="url(#pc2e58fff04)" d="M 170.739446 43.44 
L 164.394917 43.44 
" style="fill:none;stroke:#3d3d3d;stroke-linecap:round;stroke-width:2;"/>
   </g>
   <g id="line2d_9">
    <path clip-path="url(#pc2e58fff04)" d="M 205.297972 43.44 
L 257.03837 43.44 
" style="fill:none;stroke:#3d3d3d;stroke-linecap:round;stroke-width:2;"/>
   </g>
   <g id="line2d_10">
    <path clip-path="url(#pc2e58fff04)" d="M 164.394917 28.944 
L 164.394917 57.936 
" style="fill:none;stroke:#3d3d3d;stroke-linecap:round;stroke-width:2;"/>
   </g>
   <g id="line2d_11">
    <path clip-path="url(#pc2e58fff04)" d="M 257.03837 28.944 
L 257.03837 57.936 
" style="fill:none;stroke:#3d3d3d;stroke-linecap:round;stroke-width:2;"/>
   </g>
   <g id="line2d_12">
    <defs>
     <path d="M -0 3.535534 
L 2.12132 0 
L -0 -3.535534 
L -2.12132 -0 
z
" id="m6a23366d5f"/>
    </defs>
    <g clip-path="url(#pc2e58fff04)">
     <use style="fill:#3d3d3d;" x="290.882106" xlink:href="#m6a23366d5f" y="43.44"/>
     <use style="fill:#3d3d3d;" x="263.030561" xlink:href="#m6a23366d5f" y="43.44"/>
     <use style="fill:#3d3d3d;" x="343.91133" xlink:href="#m6a23366d5f" y="43.44"/>
     <use style="fill:#3d3d3d;" x="304.933667" xlink:href="#m6a23366d5f" y="43.44"/>
     <use style="fill:#3d3d3d;" x="305.74343" xlink:href="#m6a23366d5f" y="43.44"/>
     <use style="fill:#3d3d3d;" x="292.183895" xlink:href="#m6a23366d5f" y="43.44"/>
     <use style="fill:#3d3d3d;" x="353.20104" xlink:href="#m6a23366d5f" y="43.44"/>
     <use style="fill:#3d3d3d;" x="399.332476" xlink:href="#m6a23366d5f" y="43.44"/>
     <use style="fill:#3d3d3d;" x="318.069475" xlink:href="#m6a23366d5f" y="43.44"/>
     <use style="fill:#3d3d3d;" x="310.009915" xlink:href="#m6a23366d5f" y="43.44"/>
     <use style="fill:#3d3d3d;" x="341.978628" xlink:href="#m6a23366d5f" y="43.44"/>
     <use style="fill:#3d3d3d;" x="468.725913" xlink:href="#m6a23366d5f" y="43.44"/>
     <use style="fill:#3d3d3d;" x="386.232274" xlink:href="#m6a23366d5f" y="43.44"/>
     <use style="fill:#3d3d3d;" x="371.116826" xlink:href="#m6a23366d5f" y="43.44"/>
     <use style="fill:#3d3d3d;" x="325.644593" xlink:href="#m6a23366d5f" y="43.44"/>
     <use style="fill:#3d3d3d;" x="276.911418" xlink:href="#m6a23366d5f" y="43.44"/>
     <use style="fill:#3d3d3d;" x="262.384786" xlink:href="#m6a23366d5f" y="43.44"/>
     <use style="fill:#3d3d3d;" x="269.162923" xlink:href="#m6a23366d5f" y="43.44"/>
     <use style="fill:#3d3d3d;" x="257.404026" xlink:href="#m6a23366d5f" y="43.44"/>
     <use style="fill:#3d3d3d;" x="318.480209" xlink:href="#m6a23366d5f" y="43.44"/>
     <use style="fill:#3d3d3d;" x="269.809616" xlink:href="#m6a23366d5f" y="43.44"/>
     <use style="fill:#3d3d3d;" x="324.506039" xlink:href="#m6a23366d5f" y="43.44"/>
     <use style="fill:#3d3d3d;" x="394.705773" xlink:href="#m6a23366d5f" y="43.44"/>
     <use style="fill:#3d3d3d;" x="278.834369" xlink:href="#m6a23366d5f" y="43.44"/>
     <use style="fill:#3d3d3d;" x="289.329537" xlink:href="#m6a23366d5f" y="43.44"/>
     <use style="fill:#3d3d3d;" x="289.345141" xlink:href="#m6a23366d5f" y="43.44"/>
     <use style="fill:#3d3d3d;" x="291.710168" xlink:href="#m6a23366d5f" y="43.44"/>
     <use style="fill:#3d3d3d;" x="296.569231" xlink:href="#m6a23366d5f" y="43.44"/>
     <use style="fill:#3d3d3d;" x="280.697152" xlink:href="#m6a23366d5f" y="43.44"/>
     <use style="fill:#3d3d3d;" x="309.396148" xlink:href="#m6a23366d5f" y="43.44"/>
     <use style="fill:#3d3d3d;" x="285.916747" xlink:href="#m6a23366d5f" y="43.44"/>
     <use style="fill:#3d3d3d;" x="296.945135" xlink:href="#m6a23366d5f" y="43.44"/>
     <use style="fill:#3d3d3d;" x="277.757088" xlink:href="#m6a23366d5f" y="43.44"/>
     <use style="fill:#3d3d3d;" x="293.248784" xlink:href="#m6a23366d5f" y="43.44"/>
     <use style="fill:#3d3d3d;" x="317.507188" xlink:href="#m6a23366d5f" y="43.44"/>
     <use style="fill:#3d3d3d;" x="295.088953" xlink:href="#m6a23366d5f" y="43.44"/>
     <use style="fill:#3d3d3d;" x="261.747524" xlink:href="#m6a23366d5f" y="43.44"/>
     <use style="fill:#3d3d3d;" x="300.657288" xlink:href="#m6a23366d5f" y="43.44"/>
     <use style="fill:#3d3d3d;" x="279.16373" xlink:href="#m6a23366d5f" y="43.44"/>
     <use style="fill:#3d3d3d;" x="279.16373" xlink:href="#m6a23366d5f" y="43.44"/>
     <use style="fill:#3d3d3d;" x="287.615915" xlink:href="#m6a23366d5f" y="43.44"/>
     <use style="fill:#3d3d3d;" x="288.965027" xlink:href="#m6a23366d5f" y="43.44"/>
     <use style="fill:#3d3d3d;" x="291.392965" xlink:href="#m6a23366d5f" y="43.44"/>
     <use style="fill:#3d3d3d;" x="301.862375" xlink:href="#m6a23366d5f" y="43.44"/>
     <use style="fill:#3d3d3d;" x="371.372454" xlink:href="#m6a23366d5f" y="43.44"/>
     <use style="fill:#3d3d3d;" x="276.556883" xlink:href="#m6a23366d5f" y="43.44"/>
     <use style="fill:#3d3d3d;" x="264.911186" xlink:href="#m6a23366d5f" y="43.44"/>
     <use style="fill:#3d3d3d;" x="371.285833" xlink:href="#m6a23366d5f" y="43.44"/>
     <use style="fill:#3d3d3d;" x="315.305449" xlink:href="#m6a23366d5f" y="43.44"/>
     <use style="fill:#3d3d3d;" x="284.297609" xlink:href="#m6a23366d5f" y="43.44"/>
     <use style="fill:#3d3d3d;" x="321.39471" xlink:href="#m6a23366d5f" y="43.44"/>
     <use style="fill:#3d3d3d;" x="280.37678" xlink:href="#m6a23366d5f" y="43.44"/>
     <use style="fill:#3d3d3d;" x="305.742945" xlink:href="#m6a23366d5f" y="43.44"/>
     <use style="fill:#3d3d3d;" x="268.052227" xlink:href="#m6a23366d5f" y="43.44"/>
     <use style="fill:#3d3d3d;" x="271.002764" xlink:href="#m6a23366d5f" y="43.44"/>
     <use style="fill:#3d3d3d;" x="362.587145" xlink:href="#m6a23366d5f" y="43.44"/>
     <use style="fill:#3d3d3d;" x="299.033207" xlink:href="#m6a23366d5f" y="43.44"/>
     <use style="fill:#3d3d3d;" x="269.237766" xlink:href="#m6a23366d5f" y="43.44"/>
     <use style="fill:#3d3d3d;" x="312.926224" xlink:href="#m6a23366d5f" y="43.44"/>
     <use style="fill:#3d3d3d;" x="312.72011" xlink:href="#m6a23366d5f" y="43.44"/>
     <use style="fill:#3d3d3d;" x="282.295061" xlink:href="#m6a23366d5f" y="43.44"/>
     <use style="fill:#3d3d3d;" x="257.305129" xlink:href="#m6a23366d5f" y="43.44"/>
     <use style="fill:#3d3d3d;" x="299.368927" xlink:href="#m6a23366d5f" y="43.44"/>
     <use style="fill:#3d3d3d;" x="280.225106" xlink:href="#m6a23366d5f" y="43.44"/>
     <use style="fill:#3d3d3d;" x="284.271952" xlink:href="#m6a23366d5f" y="43.44"/>
     <use style="fill:#3d3d3d;" x="258.106626" xlink:href="#m6a23366d5f" y="43.44"/>
     <use style="fill:#3d3d3d;" x="299.055543" xlink:href="#m6a23366d5f" y="43.44"/>
     <use style="fill:#3d3d3d;" x="307.410546" xlink:href="#m6a23366d5f" y="43.44"/>
     <use style="fill:#3d3d3d;" x="359.252519" xlink:href="#m6a23366d5f" y="43.44"/>
     <use style="fill:#3d3d3d;" x="285.884679" xlink:href="#m6a23366d5f" y="43.44"/>
     <use style="fill:#3d3d3d;" x="269.511295" xlink:href="#m6a23366d5f" y="43.44"/>
     <use style="fill:#3d3d3d;" x="325.1471" xlink:href="#m6a23366d5f" y="43.44"/>
     <use style="fill:#3d3d3d;" x="301.585252" xlink:href="#m6a23366d5f" y="43.44"/>
     <use style="fill:#3d3d3d;" x="300.761944" xlink:href="#m6a23366d5f" y="43.44"/>
     <use style="fill:#3d3d3d;" x="342.219587" xlink:href="#m6a23366d5f" y="43.44"/>
     <use style="fill:#3d3d3d;" x="279.843175" xlink:href="#m6a23366d5f" y="43.44"/>
     <use style="fill:#3d3d3d;" x="309.496783" xlink:href="#m6a23366d5f" y="43.44"/>
     <use style="fill:#3d3d3d;" x="292.488454" xlink:href="#m6a23366d5f" y="43.44"/>
    </g>
   </g>
   <g id="line2d_13">
    <path clip-path="url(#pc2e58fff04)" d="M 180.85619 115.92 
L 165.496707 115.92 
" style="fill:none;stroke:#3d3d3d;stroke-linecap:round;stroke-width:2;"/>
   </g>
   <g id="line2d_14">
    <path clip-path="url(#pc2e58fff04)" d="M 218.406547 115.92 
L 264.799426 115.92 
" style="fill:none;stroke:#3d3d3d;stroke-linecap:round;stroke-width:2;"/>
   </g>
   <g id="line2d_15">
    <path clip-path="url(#pc2e58fff04)" d="M 165.496707 101.424 
L 165.496707 130.416 
" style="fill:none;stroke:#3d3d3d;stroke-linecap:round;stroke-width:2;"/>
   </g>
   <g id="line2d_16">
    <path clip-path="url(#pc2e58fff04)" d="M 264.799426 101.424 
L 264.799426 130.416 
" style="fill:none;stroke:#3d3d3d;stroke-linecap:round;stroke-width:2;"/>
   </g>
   <g id="line2d_17">
    <g clip-path="url(#pc2e58fff04)">
     <use style="fill:#3d3d3d;" x="296.686447" xlink:href="#m6a23366d5f" y="115.92"/>
     <use style="fill:#3d3d3d;" x="382.432024" xlink:href="#m6a23366d5f" y="115.92"/>
     <use style="fill:#3d3d3d;" x="328.314943" xlink:href="#m6a23366d5f" y="115.92"/>
     <use style="fill:#3d3d3d;" x="320.252028" xlink:href="#m6a23366d5f" y="115.92"/>
     <use style="fill:#3d3d3d;" x="417.985845" xlink:href="#m6a23366d5f" y="115.92"/>
     <use style="fill:#3d3d3d;" x="320.252028" xlink:href="#m6a23366d5f" y="115.92"/>
     <use style="fill:#3d3d3d;" x="325.476128" xlink:href="#m6a23366d5f" y="115.92"/>
     <use style="fill:#3d3d3d;" x="343.745148" xlink:href="#m6a23366d5f" y="115.92"/>
     <use style="fill:#3d3d3d;" x="329.478071" xlink:href="#m6a23366d5f" y="115.92"/>
     <use style="fill:#3d3d3d;" x="328.314943" xlink:href="#m6a23366d5f" y="115.92"/>
     <use style="fill:#3d3d3d;" x="350.083934" xlink:href="#m6a23366d5f" y="115.92"/>
    </g>
   </g>
   <g id="line2d_18">
    <path clip-path="url(#pc2e58fff04)" d="M 171.725603 188.4 
L 164.362276 188.4 
" style="fill:none;stroke:#3d3d3d;stroke-linecap:round;stroke-width:2;"/>
   </g>
   <g id="line2d_19">
    <path clip-path="url(#pc2e58fff04)" d="M 217.864735 188.4 
L 284.948473 188.4 
" style="fill:none;stroke:#3d3d3d;stroke-linecap:round;stroke-width:2;"/>
   </g>
   <g id="line2d_20">
    <path clip-path="url(#pc2e58fff04)" d="M 164.362276 173.904 
L 164.362276 202.896 
" style="fill:none;stroke:#3d3d3d;stroke-linecap:round;stroke-width:2;"/>
   </g>
   <g id="line2d_21">
    <path clip-path="url(#pc2e58fff04)" d="M 284.948473 173.904 
L 284.948473 202.896 
" style="fill:none;stroke:#3d3d3d;stroke-linecap:round;stroke-width:2;"/>
   </g>
   <g id="line2d_22">
    <g clip-path="url(#pc2e58fff04)">
     <use style="fill:#3d3d3d;" x="303.82529" xlink:href="#m6a23366d5f" y="188.4"/>
     <use style="fill:#3d3d3d;" x="321.037288" xlink:href="#m6a23366d5f" y="188.4"/>
     <use style="fill:#3d3d3d;" x="291.887366" xlink:href="#m6a23366d5f" y="188.4"/>
     <use style="fill:#3d3d3d;" x="310.046774" xlink:href="#m6a23366d5f" y="188.4"/>
     <use style="fill:#3d3d3d;" x="342.027429" xlink:href="#m6a23366d5f" y="188.4"/>
     <use style="fill:#3d3d3d;" x="301.303379" xlink:href="#m6a23366d5f" y="188.4"/>
     <use style="fill:#3d3d3d;" x="301.228377" xlink:href="#m6a23366d5f" y="188.4"/>
     <use style="fill:#3d3d3d;" x="335.055568" xlink:href="#m6a23366d5f" y="188.4"/>
     <use style="fill:#3d3d3d;" x="289.543635" xlink:href="#m6a23366d5f" y="188.4"/>
     <use style="fill:#3d3d3d;" x="428.685762" xlink:href="#m6a23366d5f" y="188.4"/>
     <use style="fill:#3d3d3d;" x="302.433535" xlink:href="#m6a23366d5f" y="188.4"/>
     <use style="fill:#3d3d3d;" x="301.139296" xlink:href="#m6a23366d5f" y="188.4"/>
     <use style="fill:#3d3d3d;" x="301.79186" xlink:href="#m6a23366d5f" y="188.4"/>
     <use style="fill:#3d3d3d;" x="326.238271" xlink:href="#m6a23366d5f" y="188.4"/>
     <use style="fill:#3d3d3d;" x="303.676615" xlink:href="#m6a23366d5f" y="188.4"/>
     <use style="fill:#3d3d3d;" x="287.532627" xlink:href="#m6a23366d5f" y="188.4"/>
     <use style="fill:#3d3d3d;" x="348.22212" xlink:href="#m6a23366d5f" y="188.4"/>
     <use style="fill:#3d3d3d;" x="290.712005" xlink:href="#m6a23366d5f" y="188.4"/>
     <use style="fill:#3d3d3d;" x="343.195864" xlink:href="#m6a23366d5f" y="188.4"/>
     <use style="fill:#3d3d3d;" x="291.489824" xlink:href="#m6a23366d5f" y="188.4"/>
     <use style="fill:#3d3d3d;" x="289.917859" xlink:href="#m6a23366d5f" y="188.4"/>
     <use style="fill:#3d3d3d;" x="291.416698" xlink:href="#m6a23366d5f" y="188.4"/>
     <use style="fill:#3d3d3d;" x="337.785618" xlink:href="#m6a23366d5f" y="188.4"/>
     <use style="fill:#3d3d3d;" x="290.216579" xlink:href="#m6a23366d5f" y="188.4"/>
     <use style="fill:#3d3d3d;" x="305.727191" xlink:href="#m6a23366d5f" y="188.4"/>
     <use style="fill:#3d3d3d;" x="350.495162" xlink:href="#m6a23366d5f" y="188.4"/>
     <use style="fill:#3d3d3d;" x="361.049691" xlink:href="#m6a23366d5f" y="188.4"/>
     <use style="fill:#3d3d3d;" x="328.848128" xlink:href="#m6a23366d5f" y="188.4"/>
     <use style="fill:#3d3d3d;" x="290.487749" xlink:href="#m6a23366d5f" y="188.4"/>
     <use style="fill:#3d3d3d;" x="401.111506" xlink:href="#m6a23366d5f" y="188.4"/>
     <use style="fill:#3d3d3d;" x="379.864743" xlink:href="#m6a23366d5f" y="188.4"/>
     <use style="fill:#3d3d3d;" x="294.564" xlink:href="#m6a23366d5f" y="188.4"/>
     <use style="fill:#3d3d3d;" x="294.564" xlink:href="#m6a23366d5f" y="188.4"/>
    </g>
   </g>
   <g id="line2d_23">
    <path clip-path="url(#pc2e58fff04)" d="M 180.307454 14.448 
L 180.307454 72.432 
" style="fill:none;stroke:#3d3d3d;stroke-linecap:round;stroke-width:2;"/>
   </g>
   <g id="line2d_24">
    <path clip-path="url(#pc2e58fff04)" d="M 191.736491 86.928 
L 191.736491 144.912 
" style="fill:none;stroke:#3d3d3d;stroke-linecap:round;stroke-width:2;"/>
   </g>
   <g id="line2d_25">
    <path clip-path="url(#pc2e58fff04)" d="M 181.762352 159.408 
L 181.762352 217.392 
" style="fill:none;stroke:#3d3d3d;stroke-linecap:round;stroke-width:2;"/>
   </g>
   <g id="patch_6">
    <path d="M 149.144095 224.64 
L 149.144095 7.2 
" style="fill:none;"/>
   </g>
   <g id="patch_7">
    <path d="M 483.944095 224.64 
L 483.944095 7.2 
" style="fill:none;"/>
   </g>
   <g id="patch_8">
    <path d="M 149.144095 224.64 
L 483.944095 224.64 
" style="fill:none;"/>
   </g>
   <g id="patch_9">
    <path d="M 149.144095 7.2 
L 483.944095 7.2 
" style="fill:none;"/>
   </g>
  </g>
 </g>
 <defs>
  <clipPath id="pc2e58fff04">
   <rect height="217.44" width="334.8" x="149.144095" y="7.2"/>
  </clipPath>
 </defs>
</svg>
