<?xml version="1.0" encoding="utf-8" standalone="no"?>
<!DOCTYPE svg PUBLIC "-//W3C//DTD SVG 1.1//EN"
  "http://www.w3.org/Graphics/SVG/1.1/DTD/svg11.dtd">
<!-- Created with matplotlib (http://matplotlib.org/) -->
<svg height="275pt" version="1.1" viewBox="0 0 469 275" width="469pt" xmlns="http://www.w3.org/2000/svg" xmlns:xlink="http://www.w3.org/1999/xlink">
 <defs>
  <style type="text/css">
*{stroke-linecap:butt;stroke-linejoin:round;}
  </style>
 </defs>
 <g id="figure_1">
  <g id="patch_1">
   <path d="M 0 275.087149 
L 469.661 275.087149 
L 469.661 0 
L 0 0 
z
" style="fill:#ffffff;"/>
  </g>
  <g id="axes_1">
   <g id="patch_2">
    <path d="M 62.777159 227.718774 
L 397.577159 227.718774 
L 397.577159 10.278774 
L 62.777159 10.278774 
z
" style="fill:#eaeaf2;"/>
   </g>
   <g id="matplotlib.axis_1">
    <g id="xtick_1">
     <g id="line2d_1"/>
     <g id="text_1">
      <!-- $-50$ -->
      <defs>
       <path d="M 9.796875 28.078125 
C 8 27.484375 7.796875 24.78125 9.796875 24.28125 
C 10.296875 24.078125 10.90625 24.1875 11.5 24.1875 
L 64.703125 24.1875 
C 65.90625 24.1875 67.796875 23.78125 68.796875 24.78125 
C 69.90625 25.875 69.296875 27.875 67.703125 28.1875 
C 66.5 28.375 65.09375 28.1875 63.90625 28.1875 
L 11.40625 28.1875 
C 10.90625 28.1875 10.296875 28.28125 9.796875 28.078125 
z
" id="Computer_Modern_Bright_Math_Symbols-0"/>
       <path d="M 8.40625 65.28125 
L 8.40625 29.703125 
L 12.203125 29.703125 
C 12.703125 29.703125 13.40625 29.609375 13.796875 29.8125 
C 14.296875 30.109375 14.59375 30.796875 14.90625 31.203125 
C 15.59375 32.09375 16.40625 32.796875 17.203125 33.5 
C 20.796875 36.484375 27.703125 37.671875 32.296875 35.390625 
C 38.59375 32.390625 39.796875 24.53125 39.296875 18.359375 
C 39 14.453125 37.796875 10.875 35.5 8.578125 
C 30.203125 3 21.296875 3 14.796875 6.265625 
C 11.59375 7.859375 8.90625 10.34375 6.90625 13.328125 
L 6.796875 13.328125 
C 6.5 12.828125 4.203125 9.34375 4.203125 8.75 
C 4.203125 8.34375 4.5 8.046875 4.703125 7.75 
C 7.703125 4.265625 11.59375 1.578125 16.09375 0.078125 
C 25 -2.703125 35 -0.515625 41.296875 6.65625 
C 48.796875 15.3125 47.796875 29.40625 39.09375 36.96875 
C 36.5 39.359375 32.90625 41.046875 28.59375 41.4375 
C 22.796875 42.234375 17.59375 39.453125 14.5 36.859375 
L 14.5 60 
L 42.90625 60 
L 42.90625 65.28125 
z
" id="Computer_Modern_Bright-53"/>
       <path d="M 14.796875 63.34375 
C 11.90625 61.34375 9.90625 58.65625 8.40625 55.5625 
C 4.796875 48.59375 4.40625 40.4375 4.40625 31.5625 
C 4.40625 20.421875 6.40625 10.15625 12 4.28125 
C 17.296875 -1.1875 25.703125 -2.59375 32.796875 0.296875 
C 37.203125 1.984375 40.40625 5.671875 42.40625 9.65625 
C 46 16.734375 46.40625 25.203125 46.40625 33.953125 
C 46.40625 36.75 46.296875 39.53125 46 42.328125 
C 45.296875 49 43 56.359375 39.296875 60.453125 
C 33.203125 67.125 22.296875 68.609375 14.796875 63.34375 
z
M 34.90625 57.65625 
C 39.59375 52.6875 40 43.125 40 34.0625 
L 40 28.6875 
C 40 24.09375 39.203125 18.125 38.203125 14.734375 
C 36.796875 10.0625 34.5 6.671875 29.90625 4.578125 
C 24.296875 2.59375 18.5 4.484375 15.296875 8.859375 
C 11 14.546875 10.796875 24.59375 10.796875 33.46875 
C 10.796875 41.828125 10.90625 51.09375 15 56.5625 
C 19.5 62.546875 29.203125 63.53125 34.90625 57.65625 
z
" id="Computer_Modern_Bright-48"/>
      </defs>
      <g style="fill:#262626;" transform="translate(87.769531 245.788378)scale(0.16 -0.16)">
       <use transform="scale(0.996264)" xlink:href="#Computer_Modern_Bright_Math_Symbols-0"/>
       <use transform="translate(77.487468 0)scale(0.996264)" xlink:href="#Computer_Modern_Bright-53"/>
       <use transform="translate(128.130685 0)scale(0.996264)" xlink:href="#Computer_Modern_Bright-48"/>
      </g>
     </g>
    </g>
    <g id="xtick_2">
     <g id="line2d_2"/>
     <g id="text_2">
      <!-- $0$ -->
      <g style="fill:#262626;" transform="translate(205.299645 245.788378)scale(0.16 -0.16)">
       <use transform="scale(0.996264)" xlink:href="#Computer_Modern_Bright-48"/>
      </g>
     </g>
    </g>
    <g id="xtick_3">
     <g id="line2d_3"/>
     <g id="text_3">
      <!-- $50$ -->
      <g style="fill:#262626;" transform="translate(308.262211 245.788378)scale(0.16 -0.16)">
       <use transform="scale(0.996264)" xlink:href="#Computer_Modern_Bright-53"/>
       <use transform="translate(50.643218 0)scale(0.996264)" xlink:href="#Computer_Modern_Bright-48"/>
      </g>
     </g>
    </g>
    <g id="text_4">
     <!-- PC1, 42\% -->
     <defs>
      <path d="M 8 69 
L 8 -0.5 
L 15 -0.5 
L 15 29 
L 29.09375 29 
C 31.296875 29 33.5 29 35.59375 29 
C 43 29.59375 49.203125 32.625 53.40625 37.15625 
C 57.703125 41.890625 59.59375 49.140625 56.796875 55.296875 
C 53.59375 63.0625 46 67.984375 36.296875 69 
C 33.40625 69 30.40625 69 27.5 69 
z
M 14.90625 34.1875 
L 14.90625 63.71875 
L 28.59375 63.71875 
C 37.296875 63.71875 45.203125 62.71875 49.203125 56.65625 
C 51.90625 52.625 52.296875 46.984375 50.09375 42.65625 
C 48.90625 40.34375 47.09375 38.515625 44.90625 37.203125 
C 40 34.1875 34.296875 34.1875 28.796875 34.1875 
z
" id="Computer_Modern_Bright-80"/>
      <path d="M 60.5 10.28125 
C 58.5 9.28125 56.703125 7.890625 54.703125 6.890625 
C 50 4.5 44 3.609375 37.5 4.203125 
C 31.703125 5 26.90625 7.78125 23.40625 11.265625 
C 12.203125 22.453125 11.40625 42.125 21.296875 54.40625 
C 25.5 59.890625 31.90625 64 41.296875 64 
C 45.09375 64 49 63.296875 52.5 61.90625 
C 54.59375 61 56.59375 59.8125 58.59375 58.8125 
L 59.796875 65.796875 
C 57.59375 66.65625 55.296875 67.53125 53 68.0625 
C 47.40625 69.578125 38.90625 69.578125 33.09375 68.1875 
C 22.90625 65.90625 15.5 58.84375 11.296875 50.71875 
C 5.5 39.1875 6.203125 24.8125 13.203125 14 
C 15 11.109375 17.296875 8.53125 19.90625 6.34375 
C 25.90625 1.1875 33.296875 -1.796875 43.59375 -1 
C 49.796875 -1 53.40625 0.015625 58.203125 2.671875 
C 58.703125 2.96875 60.59375 3.984375 60.90625 4.390625 
C 61.09375 4.890625 60.59375 8.953125 60.5 10.28125 
z
" id="Computer_Modern_Bright-67"/>
      <path d="M 9.703125 59.984375 
L 9.703125 55 
C 15.203125 55 19 56 23.40625 57.890625 
L 23.40625 4.984375 
L 10.296875 4.984375 
L 10.296875 0 
L 43 0 
L 43 4.984375 
L 29.90625 4.984375 
L 29.90625 66.5 
C 27.5 66.5 27.90625 65.890625 26 64.515625 
C 21.90625 61.5625 16.203125 59.984375 9.703125 59.984375 
z
" id="Computer_Modern_Bright-49"/>
      <path d="M 9.90625 7.765625 
L 9.90625 0 
L 12.296875 0 
L 9.796875 -11 
L 13.796875 -11 
C 15.09375 -7.34375 16.40625 -3.765625 17.59375 -0.09375 
C 17.703125 2.390625 17.703125 5.078125 17.703125 7.765625 
z
" id="Computer_Modern_Bright-44"/>
      <path d="M 2.09375 18 
L 31 18 
L 31 0 
L 37.296875 0 
L 37.296875 18 
L 48.703125 18 
L 48.703125 23.265625 
L 37.296875 23.265625 
L 37.296875 65.921875 
L 31.90625 65.921875 
C 30.09375 65.921875 29.59375 66.03125 28.796875 64.53125 
C 24.796875 58.0625 3.703125 25.65625 3 24.765625 
C 2.203125 23.375 2.09375 23.46875 2.09375 21.375 
z
M 31.296875 60.515625 
L 31.296875 23.265625 
L 8.59375 23.265625 
C 9.296875 24.671875 10.296875 25.96875 11.203125 27.359375 
C 16.203125 35.015625 28.09375 53.25 30.59375 58.921875 
C 30.90625 59.421875 31 60.015625 31.296875 60.515625 
z
" id="Computer_Modern_Bright-52"/>
      <path d="M 7.296875 45.625 
C 8.703125 51.1875 11.09375 57.546875 16.796875 60.046875 
C 19.203125 61.03125 21.796875 61.234375 24.40625 61.03125 
C 29.296875 60.640625 34.09375 58.640625 37.09375 54.65625 
C 39.296875 51.6875 40.09375 48 39.703125 44.4375 
C 38.5 34.09375 28.296875 26.640625 21.703125 21.0625 
C 17.90625 17.890625 7.09375 7.75 7.09375 7.75 
L 5.40625 6.15625 
C 4.5 5.265625 4.40625 5.265625 4.40625 3.484375 
L 4.40625 0 
L 46.40625 0 
L 46.40625 5.578125 
L 10.203125 5.578125 
C 13.40625 8.6875 26.703125 20.359375 28.5 21.75 
C 34.296875 26.453125 40.796875 31.15625 44.296875 37.9375 
C 48.203125 45.71875 46.5 55.515625 39.90625 61.296875 
C 35.90625 64.796875 30.40625 66.5 25.09375 66.5 
C 20.203125 66.5 15.203125 65.5 11.296875 62.421875 
C 8.296875 59.9375 5.796875 56.25 4.40625 52.484375 
C 4.09375 51.890625 3.59375 50.890625 3.703125 50.203125 
C 3.796875 49.59375 4.40625 49.109375 4.703125 48.703125 
C 5.5 47.703125 6.296875 46.515625 7.296875 45.625 
z
" id="Computer_Modern_Bright-50"/>
      <path d="M 18.59375 74.6875 
C 13.703125 74 9.796875 70.40625 7.59375 66.125 
C 4.296875 59.453125 4 50.796875 7.203125 44.015625 
C 9.59375 38.84375 14.59375 33.859375 20.796875 34.65625 
C 25.40625 35.15625 29 38.4375 31.203125 42.421875 
C 35 49.203125 35.09375 58.0625 32.09375 65.125 
C 29.90625 70.3125 24.703125 75.390625 18.59375 74.6875 
z
M 65.90625 74.59375 
C 64.90625 74.296875 64.5 73.59375 64 72.796875 
L 18.59375 -1.5 
C 18.296875 -2.09375 17.796875 -2.6875 17.703125 -3.390625 
C 17.59375 -4.578125 18.703125 -5.671875 19.90625 -5.578125 
C 20.90625 -5.484375 21.40625 -4.6875 21.796875 -3.984375 
C 22.40625 -3.09375 67.90625 71.5 68 71.609375 
C 68.703125 73 67.703125 75.09375 65.90625 74.59375 
z
M 19 69.703125 
C 22.796875 70.015625 25.40625 66.71875 26.796875 63.53125 
C 29.09375 57.859375 29 49.890625 26.40625 45.015625 
C 25.203125 42.53125 23.203125 39.828125 20.09375 39.53125 
C 16.296875 39.234375 13.5 42.21875 12.296875 45.515625 
C 11.203125 48.40625 11.09375 51.59375 11.09375 54.578125 
C 11.09375 57.65625 11.203125 60.953125 12.296875 63.828125 
C 13.40625 66.71875 15.703125 69.40625 19 69.703125 
z
M 65.203125 34.5625 
C 60.296875 33.859375 56.40625 30.28125 54.203125 26 
C 50.90625 19.3125 50.59375 10.65625 53.796875 3.890625 
C 56.203125 -1.296875 61.203125 -6.28125 67.40625 -5.484375 
C 72 -4.984375 75.59375 -1.6875 77.796875 2.296875 
C 81.59375 9.0625 81.703125 17.921875 78.703125 25 
C 76.5 30.171875 71.296875 35.25 65.203125 34.5625 
z
M 65.59375 29.578125 
C 69.40625 29.875 72 26.59375 73.40625 23.40625 
C 75.703125 17.71875 75.59375 9.765625 73 4.875 
C 71.796875 2.390625 69.796875 -0.296875 66.703125 -0.59375 
C 62.90625 -0.890625 60.09375 2.09375 58.90625 5.375 
C 57.796875 8.265625 57.703125 11.453125 57.703125 14.4375 
C 57.703125 17.53125 57.796875 20.8125 59 23.796875 
C 60.09375 26.6875 62.40625 29.28125 65.59375 29.578125 
z
" id="Computer_Modern_Bright-37"/>
     </defs>
     <g style="fill:#262626;" transform="translate(191.984308 264.898357)scale(0.18 -0.18)">
      <use transform="scale(0.996264)" xlink:href="#Computer_Modern_Bright-80"/>
      <use transform="translate(62.888907 0)scale(0.996264)" xlink:href="#Computer_Modern_Bright-67"/>
      <use transform="translate(128.06094 0)scale(0.996264)" xlink:href="#Computer_Modern_Bright-49"/>
      <use transform="translate(178.704158 0)scale(0.996264)" xlink:href="#Computer_Modern_Bright-44"/>
      <use transform="translate(237.566493 0)scale(0.996264)" xlink:href="#Computer_Modern_Bright-52"/>
      <use transform="translate(288.20971 0)scale(0.996264)" xlink:href="#Computer_Modern_Bright-50"/>
      <use transform="translate(338.852928 0)scale(0.996264)" xlink:href="#Computer_Modern_Bright-37"/>
     </g>
    </g>
   </g>
   <g id="matplotlib.axis_2">
    <g id="ytick_1">
     <g id="line2d_4"/>
     <g id="text_5">
      <!-- $-40$ -->
      <g style="fill:#262626;" transform="translate(26.642062 220.225467)scale(0.16 -0.16)">
       <use transform="scale(0.996264)" xlink:href="#Computer_Modern_Bright_Math_Symbols-0"/>
       <use transform="translate(77.487468 0)scale(0.996264)" xlink:href="#Computer_Modern_Bright-52"/>
       <use transform="translate(128.130685 0)scale(0.996264)" xlink:href="#Computer_Modern_Bright-48"/>
      </g>
     </g>
    </g>
    <g id="ytick_2">
     <g id="line2d_5"/>
     <g id="text_6">
      <!-- $-20$ -->
      <g style="fill:#262626;" transform="translate(26.642062 182.814317)scale(0.16 -0.16)">
       <use transform="scale(0.996264)" xlink:href="#Computer_Modern_Bright_Math_Symbols-0"/>
       <use transform="translate(77.487468 0)scale(0.996264)" xlink:href="#Computer_Modern_Bright-50"/>
       <use transform="translate(128.130685 0)scale(0.996264)" xlink:href="#Computer_Modern_Bright-48"/>
      </g>
     </g>
    </g>
    <g id="ytick_3">
     <g id="line2d_6"/>
     <g id="text_7">
      <!-- $0$ -->
      <g style="fill:#262626;" transform="translate(47.408609 145.403168)scale(0.16 -0.16)">
       <use transform="scale(0.996264)" xlink:href="#Computer_Modern_Bright-48"/>
      </g>
     </g>
    </g>
    <g id="ytick_4">
     <g id="line2d_7"/>
     <g id="text_8">
      <!-- $20$ -->
      <g style="fill:#262626;" transform="translate(39.040058 107.992019)scale(0.16 -0.16)">
       <use transform="scale(0.996264)" xlink:href="#Computer_Modern_Bright-50"/>
       <use transform="translate(50.643218 0)scale(0.996264)" xlink:href="#Computer_Modern_Bright-48"/>
      </g>
     </g>
    </g>
    <g id="ytick_5">
     <g id="line2d_8"/>
     <g id="text_9">
      <!-- $40$ -->
      <g style="fill:#262626;" transform="translate(39.040058 70.58087)scale(0.16 -0.16)">
       <use transform="scale(0.996264)" xlink:href="#Computer_Modern_Bright-52"/>
       <use transform="translate(50.643218 0)scale(0.996264)" xlink:href="#Computer_Modern_Bright-48"/>
      </g>
     </g>
    </g>
    <g id="ytick_6">
     <g id="line2d_9"/>
     <g id="text_10">
      <!-- $60$ -->
      <defs>
       <path d="M 11.296875 32.25 
L 11.203125 32.25 
C 11.203125 41.3125 12.796875 51.875 20.59375 57.640625 
C 24.90625 60.734375 30.703125 62.328125 38.203125 60.53125 
C 39.796875 60.140625 41.296875 59.546875 42.796875 59.140625 
L 42.796875 62.625 
C 42.796875 63.03125 42.90625 63.71875 42.59375 64.125 
C 41.90625 65.015625 36.296875 65.90625 36.09375 65.90625 
C 27.40625 66.90625 21.703125 65.015625 16.40625 60.53125 
C 10 55.078125 6.296875 47.015625 5.09375 38.875 
C 4 32.296875 4.90625 21.765625 6.203125 16.59375 
C 8.296875 8.9375 12.296875 2.1875 19.703125 -0.40625 
C 24.09375 -2 29.5 -2 33.703125 0.015625 
C 37.09375 1.609375 39.90625 4.40625 42.09375 7.40625 
C 45.59375 12.203125 46.5 18 46.09375 23.90625 
C 45.90625 26.8125 45.5 29.703125 44.296875 32.40625 
C 42.40625 36.703125 39.203125 41.203125 35.09375 43.203125 
C 33.203125 44 31.203125 44 29.203125 44 
C 23.90625 44 18.90625 41.71875 15.203125 37.921875 
C 13.59375 36.328125 12 34.34375 11.296875 32.25 
z
M 24.40625 39.125 
C 28.203125 39.421875 32.203125 38.828125 35.09375 36.140625 
C 38.90625 32.546875 39.59375 27.46875 39.59375 22.578125 
C 39.59375 19.265625 39.703125 15.84375 38.703125 12.71875 
C 38.09375 11.109375 37.296875 9.703125 36.40625 8.390625 
C 34.203125 5.46875 31.40625 4.0625 26.796875 3.46875 
C 22.296875 3.46875 17.796875 5.25 15.203125 9.015625 
C 13.59375 11.203125 12.796875 13.875 12.296875 16.453125 
C 11.703125 19.140625 11.296875 21.90625 11.5 24.578125 
C 12 31.65625 17 38.125 24.40625 39.125 
z
" id="Computer_Modern_Bright-54"/>
      </defs>
      <g style="fill:#262626;" transform="translate(39.040058 33.16972)scale(0.16 -0.16)">
       <use transform="scale(0.996264)" xlink:href="#Computer_Modern_Bright-54"/>
       <use transform="translate(50.643218 0)scale(0.996264)" xlink:href="#Computer_Modern_Bright-48"/>
      </g>
     </g>
    </g>
    <g id="text_11">
     <!-- PC2, 23\% -->
     <defs>
      <path d="M 8.09375 50.875 
C 8.90625 52.078125 9.5 53.375 10.40625 54.5625 
C 12.5 57.359375 15.40625 59.546875 18.703125 60.84375 
C 23.90625 62.921875 31.5 62.921875 35.59375 58.25 
C 39.203125 54.109375 37.703125 47.609375 34.40625 43.75 
C 31.40625 40.203125 27.5 38.46875 21.703125 38.46875 
C 20 38.46875 18.40625 37.984375 16.703125 37.984375 
L 16.703125 33 
L 23.59375 33 
C 29.40625 33 33.203125 32.109375 36.40625 28.71875 
C 41.90625 22.9375 41.40625 12.6875 35.296875 7.40625 
C 32.203125 4.8125 27.90625 4.015625 23.90625 4.3125 
C 16.09375 4.921875 9.203125 9 4.59375 15.375 
C 4.09375 14.375 4.09375 12.984375 3.90625 11.890625 
C 3.59375 10.296875 3.59375 10.296875 4.59375 9 
C 7.5 5.109375 13.203125 1.53125 17.703125 0.234375 
C 25.703125 -2.15625 35 -1.0625 41.203125 5.015625 
C 42.40625 6.203125 43.5 7.5 44.40625 8.90625 
C 48.09375 14.671875 48.203125 22.25 44.09375 27.8125 
C 42.40625 30.109375 40.203125 31.90625 37.703125 33.296875 
C 36 34.3125 34 35.296875 32 35.5 
C 37.796875 38.203125 43.203125 42.828125 44.203125 50.359375 
C 45.09375 57.375 41 61.6875 36.796875 64.1875 
C 30.296875 68 21.796875 68 15.09375 64.71875 
C 12 63.234375 9.203125 61.03125 7.09375 58.34375 
C 6.703125 57.84375 5.203125 56.15625 5.203125 55.359375 
C 5.203125 54.859375 5.59375 54.359375 5.90625 53.96875 
z
" id="Computer_Modern_Bright-51"/>
     </defs>
     <g style="fill:#262626;" transform="translate(19.65327 157.191626)rotate(-90)scale(0.18 -0.18)">
      <use transform="scale(0.996264)" xlink:href="#Computer_Modern_Bright-80"/>
      <use transform="translate(62.888907 0)scale(0.996264)" xlink:href="#Computer_Modern_Bright-67"/>
      <use transform="translate(128.06094 0)scale(0.996264)" xlink:href="#Computer_Modern_Bright-50"/>
      <use transform="translate(178.704158 0)scale(0.996264)" xlink:href="#Computer_Modern_Bright-44"/>
      <use transform="translate(237.566493 0)scale(0.996264)" xlink:href="#Computer_Modern_Bright-50"/>
      <use transform="translate(288.20971 0)scale(0.996264)" xlink:href="#Computer_Modern_Bright-51"/>
      <use transform="translate(338.852928 0)scale(0.996264)" xlink:href="#Computer_Modern_Bright-37"/>
     </g>
    </g>
   </g>
   <g id="PathCollection_1">
    <defs>
     <path d="M 0 3.708099 
C 0.983399 3.708099 1.926654 3.317391 2.622022 2.622022 
C 3.317391 1.926654 3.708099 0.983399 3.708099 0 
C 3.708099 -0.983399 3.317391 -1.926654 2.622022 -2.622022 
C 1.926654 -3.317391 0.983399 -3.708099 0 -3.708099 
C -0.983399 -3.708099 -1.926654 -3.317391 -2.622022 -2.622022 
C -3.317391 -1.926654 -3.708099 -0.983399 -3.708099 0 
C -3.708099 0.983399 -3.317391 1.926654 -2.622022 2.622022 
C -1.926654 3.317391 -0.983399 3.708099 0 3.708099 
z
" id="mf3d346204a" style="stroke:#1f77b4;stroke-width:0.3;"/>
    </defs>
    <g clip-path="url(#p9aeea40857)">
     <use style="fill:#1f77b4;stroke:#1f77b4;stroke-width:0.3;" x="382.335243" xlink:href="#mf3d346204a" y="217.803238"/>
    </g>
   </g>
   <g id="PathCollection_2">
    <defs>
     <path d="M -3.708099 3.708099 
L 3.708099 3.708099 
L 3.708099 -3.708099 
L -3.708099 -3.708099 
z
" id="m90c8bb1045" style="stroke:#ff7f0e;stroke-width:0.3;"/>
    </defs>
    <g clip-path="url(#p9aeea40857)">
     <use style="fill:#ff7f0e;stroke:#ff7f0e;stroke-width:0.3;" x="149.166575" xlink:href="#m90c8bb1045" y="114.879649"/>
    </g>
   </g>
   <g id="PathCollection_3">
    <defs>
     <path d="M -3.708099 3.708099 
L 3.708099 3.708099 
L 3.708099 -3.708099 
L -3.708099 -3.708099 
z
" id="m8352fa985e" style="stroke:#2ca02c;stroke-width:0.3;"/>
    </defs>
    <g clip-path="url(#p9aeea40857)">
     <use style="fill:#2ca02c;stroke:#2ca02c;stroke-width:0.3;" x="147.657785" xlink:href="#m8352fa985e" y="113.860104"/>
    </g>
   </g>
   <g id="PathCollection_4">
    <defs>
     <path d="M -3.708099 3.708099 
L 3.708099 3.708099 
L 3.708099 -3.708099 
L -3.708099 -3.708099 
z
" id="mccde15f866" style="stroke:#d62728;stroke-width:0.3;"/>
    </defs>
    <g clip-path="url(#p9aeea40857)">
     <use style="fill:#d62728;stroke:#d62728;stroke-width:0.3;" x="182.50529" xlink:href="#mccde15f866" y="213.009251"/>
    </g>
   </g>
   <g id="PathCollection_5">
    <defs>
     <path d="M -0 3.708099 
L 3.708099 -3.708099 
L -3.708099 -3.708099 
z
" id="m99d98e3640" style="stroke:#9467bd;stroke-width:0.3;"/>
    </defs>
    <g clip-path="url(#p9aeea40857)">
     <use style="fill:#9467bd;stroke:#9467bd;stroke-width:0.3;" x="314.349283" xlink:href="#m99d98e3640" y="22.149085"/>
    </g>
   </g>
   <g id="PathCollection_6">
    <defs>
     <path d="M -0 3.708099 
L 3.708099 -3.708099 
L -3.708099 -3.708099 
z
" id="mc8f1d8c4fd" style="stroke:#8c564b;stroke-width:0.3;"/>
    </defs>
    <g clip-path="url(#p9aeea40857)">
     <use style="fill:#8c564b;stroke:#8c564b;stroke-width:0.3;" x="80.889347" xlink:href="#mc8f1d8c4fd" y="157.508871"/>
    </g>
   </g>
   <g id="patch_3">
    <path d="M 62.777159 227.718774 
L 62.777159 10.278774 
" style="fill:none;"/>
   </g>
   <g id="patch_4">
    <path d="M 397.577159 227.718774 
L 397.577159 10.278774 
" style="fill:none;"/>
   </g>
   <g id="patch_5">
    <path d="M 62.777159 227.718774 
L 397.577159 227.718774 
" style="fill:none;"/>
   </g>
   <g id="patch_6">
    <path d="M 62.777159 10.278774 
L 397.577159 10.278774 
" style="fill:none;"/>
   </g>
   <g id="text_12">
    <!-- \emph{bar-1(ga80)} -->
    <defs>
     <path d="M 21.09375 70 
L 6.40625 0 
C 8.59375 0 10.796875 0 12.703125 0.296875 
C 13.40625 2.203125 13.703125 4.421875 14.09375 6.515625 
L 14.203125 6.515625 
C 14.90625 4.59375 16.40625 2.484375 18 1.46875 
C 23.09375 -2.25 30.296875 -0.34375 35.203125 2.78125 
C 42.59375 7.21875 47.90625 15.984375 49.59375 24.546875 
C 50.296875 28.078125 50.40625 31.8125 49.796875 35.421875 
C 48.40625 42.890625 43.90625 48.828125 35.203125 48.125 
C 29.90625 47.625 25.203125 44.796875 21.40625 41.078125 
L 27.40625 70 
z
M 38.09375 41.8125 
C 39 41.296875 39.796875 40.796875 40.5 40.09375 
C 44 36.671875 44.09375 31.21875 43.5 26.6875 
C 42.59375 19.421875 39.59375 11.859375 33.296875 7.609375 
C 30.59375 5.953125 27.59375 4.5 23.59375 4.5 
C 19.203125 4.5 15.796875 6.9375 15.203125 11.15625 
C 15.203125 12.265625 15.59375 13.578125 15.90625 14.6875 
C 16.796875 18.71875 20.09375 35.65625 20.59375 36.765625 
C 21.09375 37.671875 22 38.484375 22.703125 39.1875 
C 26.59375 42.8125 32.296875 44.734375 38.09375 41.8125 
z
M 21.296875 41.046875 
C 21.296875 41.046875 21.40625 41.046875 21.40625 41.046875 
C 21.40625 40.9375 21.296875 40.84375 21.296875 41.046875 
z
" id="Computer_Modern_Bright_Slanted-98"/>
     <path d="M 16 38.8125 
C 17.40625 39.40625 18.703125 40.296875 20.09375 41.015625 
C 23.40625 42.5 26.796875 43.5 30.5 43.796875 
C 32.09375 44 33.90625 44 35.40625 43.59375 
C 39 42.703125 41 39.234375 41.09375 35.65625 
C 41.09375 33.375 40.203125 30.40625 39.796875 28.515625 
C 39.796875 27.703125 39.5 27.015625 38.59375 27.015625 
L 36.90625 27.015625 
C 34.59375 26.71875 32.40625 26.71875 30.09375 26.40625 
C 24.5 25.625 18.59375 24.203125 13.90625 21.015625 
C 11.703125 19.609375 9.59375 17.703125 8.40625 15.40625 
C 5.90625 10.796875 6.203125 3.0625 11.59375 0.53125 
C 14.40625 -0.46875 16.90625 -0.265625 20.59375 0.234375 
C 26.203125 1.25 31.40625 3.46875 35.5 7.5 
L 34 0.5 
L 38.59375 0.5 
C 39.59375 0.5 40.5 0.296875 40.5 1.59375 
C 40.703125 2.296875 47.296875 33.203125 47.5 34.8125 
C 47.796875 38.40625 46.703125 42.140625 44.203125 44.859375 
C 41.90625 47.171875 38.796875 48.390625 35.59375 48.6875 
C 31.5 48.984375 25.59375 47.78125 22.90625 46.96875 
C 21.703125 46.578125 17.59375 45.15625 16.90625 44.453125 
C 16.5 44.046875 16.296875 40.125 16 38.8125 
z
M 38.90625 24 
C 38.40625 21.375 37.796875 18.84375 37.296875 16.234375 
C 36.796875 14.109375 36.40625 12.09375 35.09375 10.375 
C 31.703125 6.046875 25.59375 4.234375 20.296875 4.828125 
C 17.796875 5.140625 14.90625 6.140625 13.703125 8.5625 
C 11.90625 12.09375 14.703125 16.03125 17.296875 18.140625 
C 22.203125 22.171875 30.90625 24 38.90625 24 
z
" id="Computer_Modern_Bright_Slanted-97"/>
     <path d="M 19.90625 34.53125 
L 19.796875 34.53125 
L 22.40625 47.140625 
L 16.40625 47.140625 
L 6.40625 -0.5 
L 10.90625 -0.5 
C 11.40625 -0.5 12.203125 -0.703125 12.59375 -0.296875 
C 12.90625 -0.09375 13.5 3.4375 13.796875 4.640625 
L 16.703125 18.578125 
C 17.5 22.125 18 25.84375 19.59375 29.171875 
C 23.40625 36.859375 31.90625 42 40.40625 42 
L 41.5 47.75 
C 34.90625 47.75 28.59375 44.421875 24 39.78125 
C 22.5 38.265625 20.90625 36.453125 19.90625 34.53125 
z
M 19.703125 34.890625 
C 19.703125 34.890625 19.796875 34.890625 19.796875 34.890625 
C 19.796875 34.78125 19.703125 34.6875 19.703125 34.890625 
z
" id="Computer_Modern_Bright_Slanted-114"/>
     <path d="M 5.90625 26.03125 
L 4.90625 21 
L 32.796875 21 
L 33.796875 26.03125 
z
" id="Computer_Modern_Bright_Slanted-45"/>
     <path d="M 22.5 61 
L 21.5 55.953125 
C 26.296875 55.953125 31.40625 56.59375 35.703125 58.875 
L 24.5 5.03125 
C 20.296875 5.03125 15.296875 5.53125 11.5 5.03125 
C 10.90625 3.546875 10.703125 1.671875 10.296875 0 
C 21.09375 0 32.59375 0 42.796875 0 
C 43.40625 1.4375 43.703125 3.28125 44.09375 5.03125 
L 31 5.03125 
C 35.203125 26.046875 39.796875 46.578125 44.09375 67.5 
C 41.703125 67.5 42 67.09375 40 65.59375 
C 35.59375 62.609375 28.90625 61 22.5 61 
z
" id="Computer_Modern_Bright_Slanted-49"/>
     <path d="M 29.5 -22 
C 28.59375 -20.78125 27.5 -19.78125 26.59375 -18.5625 
C 20.40625 -10.296875 17.59375 1.59375 18.703125 14.90625 
C 20.40625 38.484375 31.40625 61.375 47.59375 73.984375 
C 48.40625 74.6875 49.40625 75.1875 50.09375 76 
L 46.90625 76 
C 46.40625 76 45.703125 76.109375 45.203125 75.90625 
C 44.203125 75.59375 40.90625 72.875 40.703125 72.78125 
C 27.09375 61.578125 17.59375 45.34375 13.796875 25.90625 
C 10.59375 10.265625 12.203125 -5.65625 19.59375 -16.34375 
C 20.59375 -17.5625 23.296875 -21.1875 24.59375 -21.890625 
C 25.09375 -22.09375 25.796875 -22 26.296875 -22 
z
" id="Computer_Modern_Bright_Slanted-40"/>
     <path d="M 37.90625 12.09375 
L 38 12.09375 
C 37.703125 10.171875 37.203125 8.265625 36.796875 6.34375 
C 36.203125 3.328125 35.703125 0.171875 34.703125 -2.640625 
C 33.5 -5.96875 31.203125 -9.109375 28.296875 -11.125 
C 25.90625 -12.75 23.796875 -13.25 19.90625 -12.953125 
C 15.09375 -12.953125 11.59375 -12.03125 7.796875 -10.265625 
C 6.703125 -9.75 5.796875 -9.125 4.703125 -8.609375 
L 3.5 -14.171875 
C 8.09375 -16.25 12.203125 -18 18.40625 -18 
C 19.796875 -18.109375 21.203125 -18.203125 22.59375 -18.109375 
C 31.703125 -17.203125 38.5 -10.265625 41.09375 -2.9375 
C 41.796875 -1.125 42.09375 0.875 42.5 2.796875 
L 44.203125 10.828125 
C 44.796875 13.53125 51.90625 46.890625 52 48 
L 45.703125 48 
L 44.09375 40.265625 
C 43.703125 40.984375 43.5 41.78125 43.203125 42.484375 
C 42.5 43.90625 41.5 45.21875 40.296875 46.21875 
C 34.40625 51.15625 25 46.625 21 43.5 
C 15.09375 38.96875 11 32.296875 9.203125 25.125 
C 6.90625 16.25 9.5 8.0625 14.90625 4.328125 
C 18.796875 1.59375 24.796875 0.78125 30 3.71875 
C 32.90625 5.4375 36.40625 8.96875 37.90625 12.09375 
z
M 34.59375 43.5 
C 40.296875 43.5 42.703125 39.546875 42.703125 33.890625 
C 42.59375 33.1875 42.40625 32.375 42.296875 31.671875 
C 40.703125 24.609375 39.40625 17.546875 35.59375 12.109375 
C 33.703125 9.390625 30.90625 7.171875 27.5 6.859375 
C 25 6.65625 22.40625 7.578125 20.796875 8.375 
C 15.90625 11.203125 14.296875 17.25 15.09375 22.59375 
C 16 28.953125 19.5 35.03125 24.5 39.0625 
C 27.40625 41.4375 30.90625 43.203125 34.59375 43.5 
z
M 38 12.203125 
C 38 12.203125 38.09375 12.203125 38.09375 12.203125 
C 38.09375 12.09375 38 12 38 12.203125 
z
" id="Computer_Modern_Bright_Slanted-103"/>
     <path d="M 26.203125 36.09375 
C 18.796875 34.046875 11.40625 29.296875 8.40625 21.796875 
C 6.703125 17.34375 6.703125 12.171875 8.703125 8.109375 
C 12 1.53125 19.5 -1.515625 26.40625 -1 
C 35.09375 -1 43.40625 3.59375 48.09375 11.140625 
C 51.09375 15.828125 52.59375 21.734375 50.296875 27.046875 
C 48.59375 31.328125 43.90625 34.484375 39.59375 35.71875 
C 41.203125 36.21875 42.796875 36.609375 44.296875 37.3125 
C 48.796875 39.3125 53.09375 42.609375 55.296875 47.109375 
C 56.5 49.5 57 52.203125 56.5 55.40625 
C 55 63.703125 46.296875 67.5 38.40625 67.5 
C 30.796875 67.5 23.09375 63.75 18.59375 57.46875 
C 16 53.71875 14.40625 48.953125 16 44.5 
C 17.703125 39.9375 21.703125 37.921875 26.203125 36.09375 
z
M 43.203125 61.90625 
C 45 61.515625 46.796875 60.703125 48.203125 59.5 
C 52 55.96875 51 49.515625 48.5 45.578125 
C 45.796875 41.140625 40.796875 38.71875 35.703125 38.3125 
C 31.59375 37.921875 27 38.625 24.59375 40.640625 
C 19.703125 44.265625 20.90625 51.53125 24.09375 55.96875 
C 27.90625 61.3125 35.40625 63.53125 43.203125 61.90625 
z
M 30.703125 32.78125 
C 34.703125 33.09375 39.5 32.375 42.40625 29.25 
C 46.59375 24.8125 44.90625 16.953125 42.5 12.625 
C 39.90625 7.375 33.90625 4.046875 27.5 4.046875 
C 23.703125 4.046875 19.09375 4.140625 16.296875 6.96875 
C 12.90625 10.5 13.296875 16.046875 14.703125 20.375 
C 16.90625 27.640625 23.40625 32.171875 30.703125 32.78125 
z
" id="Computer_Modern_Bright_Slanted-56"/>
     <path d="M 31.796875 66.578125 
C 20.5 62.125 15.296875 49.78125 12.5 38.65625 
C 9.796875 27.53125 6.59375 10.734375 14.5 3.15625 
C 17 0.609375 21.59375 -1 26.296875 -1 
C 40.40625 0.296875 47.5 12.171875 50.90625 23.5 
C 51.296875 25.03125 51.796875 26.4375 52.09375 27.96875 
C 53.40625 32.921875 55.09375 40.4375 55.203125 45.703125 
C 55.203125 47.03125 55.296875 48.4375 55.296875 49.75 
C 55.203125 56.328125 53 63.125 47.296875 66.0625 
C 42.796875 68.5 36.796875 68.5 31.796875 66.578125 
z
M 44.09375 61.3125 
C 49.296875 58.5 49.703125 52.046875 49.296875 46.796875 
C 48.796875 41.15625 46.5 29.859375 45.203125 25.828125 
C 43.09375 17.453125 39.40625 7.78125 30.5 4.84375 
C 27.296875 3.9375 23.296875 3.9375 20.703125 5.5625 
C 13 10.296875 15.703125 22.796875 17.203125 30.671875 
C 19.59375 42.0625 21.703125 54.859375 30.203125 60.109375 
C 33.5 62.421875 39.59375 63.84375 44.09375 61.3125 
z
" id="Computer_Modern_Bright_Slanted-48"/>
     <path d="M 20.90625 76 
C 21.796875 74.796875 22.90625 73.78125 23.796875 72.578125 
C 25.59375 70.25 27 67.625 28.203125 64.90625 
C 32.5 54.71875 32.703125 43.125 31 32.34375 
C 28.296875 15.21875 21.296875 -1.625 9.203125 -14.234375 
C 6.5 -17.046875 3.5 -19.578125 0.296875 -21.890625 
C 1.296875 -22.203125 2.5 -22 3.59375 -22 
C 4.203125 -22 4.796875 -22.09375 5.40625 -21.890625 
C 11.203125 -18.359375 18.296875 -10.796875 21.5 -6.5625 
C 29.09375 3.625 34.203125 15.71875 36.703125 28.21875 
C 39.90625 44.9375 37.90625 60.671875 30.09375 71.265625 
C 29.40625 72.171875 26.796875 75.5 25.90625 75.90625 
C 25.40625 76.109375 24.703125 76 24.203125 76 
z
" id="Computer_Modern_Bright_Slanted-41"/>
    </defs>
    <g style="fill:#262626;" transform="translate(386.621117 214.062124)scale(0.15 -0.15)">
     <use transform="scale(0.996264)" xlink:href="#Computer_Modern_Bright_Slanted-98"/>
     <use transform="translate(48.152497 0)scale(0.996264)" xlink:href="#Computer_Modern_Bright_Slanted-97"/>
     <use transform="translate(91.73885 0)scale(0.996264)" xlink:href="#Computer_Modern_Bright_Slanted-114"/>
     <use transform="translate(123.702209 0)scale(0.996264)" xlink:href="#Computer_Modern_Bright_Slanted-45"/>
     <use transform="translate(156.910882 0)scale(0.996264)" xlink:href="#Computer_Modern_Bright_Slanted-49"/>
     <use transform="translate(207.5541 0)scale(0.996264)" xlink:href="#Computer_Modern_Bright_Slanted-40"/>
     <use transform="translate(246.574309 0)scale(0.996264)" xlink:href="#Computer_Modern_Bright_Slanted-103"/>
     <use transform="translate(294.726806 0)scale(0.996264)" xlink:href="#Computer_Modern_Bright_Slanted-97"/>
     <use transform="translate(341.218888 0)scale(0.996264)" xlink:href="#Computer_Modern_Bright_Slanted-56"/>
     <use transform="translate(391.862106 0)scale(0.996264)" xlink:href="#Computer_Modern_Bright_Slanted-48"/>
     <use transform="translate(442.505324 0)scale(0.996264)" xlink:href="#Computer_Modern_Bright_Slanted-41"/>
    </g>
   </g>
   <g id="text_13">
    <!-- \emph{dpy-22(bx93)} -->
    <defs>
     <path d="M 50.296875 70 
L 44.40625 41.671875 
C 43.90625 42.28125 43.5 42.984375 43.09375 43.578125 
C 42.203125 44.796875 41.09375 45.796875 39.796875 46.515625 
C 32.703125 50.84375 23.796875 46.8125 18.40625 41.46875 
C 12.796875 35.921875 9.203125 28.453125 8.40625 20.578125 
C 7.40625 11.5 10.296875 3.84375 16.5 0.71875 
C 22 -1.90625 28.5 0.015625 33.09375 3.53125 
C 34.40625 4.546875 36 5.859375 36.90625 7.265625 
L 37 7.265625 
L 35.5 0 
C 37.703125 0 39.90625 0 41.796875 0.296875 
L 42.203125 1.40625 
C 43.203125 6.453125 44.296875 11.375 45.40625 16.40625 
L 56.59375 70 
z
M 42.40625 39.671875 
C 42.703125 39.0625 43.09375 38.359375 43.203125 37.65625 
C 43.40625 36.640625 42.90625 35.328125 42.703125 34.328125 
C 40.703125 25.34375 38.40625 14.15625 38.40625 14.15625 
C 38 11.734375 37.203125 10.828125 35.59375 9.21875 
C 33.296875 6.890625 30.5 5.078125 27.09375 4.78125 
C 23.40625 4.484375 19.796875 5.984375 17.90625 7.90625 
C 14.40625 11.328125 14.203125 16.671875 14.796875 21.3125 
C 15.796875 28.671875 18.90625 36.4375 25.40625 40.46875 
C 26.59375 41.1875 27.796875 41.890625 29.09375 42.296875 
C 34 44 39.703125 44 42.40625 39.671875 
z
" id="Computer_Modern_Bright_Slanted-100"/>
     <path d="M 21.296875 40.75 
L 22.09375 44.578125 
L 22.703125 47.5 
L 16.40625 47.5 
L 2.90625 -17 
L 9.296875 -17 
C 10.90625 -9.15625 12.59375 -1.421875 14.09375 6.515625 
C 14.90625 4.90625 15.796875 3.390625 17.09375 2.1875 
C 22.296875 -2.5625 30.296875 -0.4375 35.59375 2.984375 
C 42.90625 7.8125 47.796875 15.734375 49.5 24.25 
C 50 26.65625 50.296875 29.171875 50.203125 31.5625 
C 49.90625 38.890625 46.5 47.09375 37.90625 48 
C 30.59375 48 24.90625 44.375 21.296875 40.75 
z
M 34.5 42.78125 
C 35.40625 42.578125 36.40625 42.28125 37.203125 41.78125 
C 42.40625 38.859375 43.796875 32.59375 43.5 27.0625 
C 43.09375 19.890625 39.203125 12.9375 33.59375 8.546875 
C 30.703125 6.15625 27.09375 4.5 23.40625 4.5 
C 19.09375 4.5 15.796875 6.921875 15.203125 11.125 
C 15.203125 12.234375 15.59375 13.546875 15.90625 14.65625 
C 16.40625 16.875 20.09375 34.421875 20.09375 34.625 
C 20.40625 37.03125 21.09375 37.4375 22.703125 39.0625 
C 25.5 41.671875 29.796875 44.09375 34.5 42.78125 
z
" id="Computer_Modern_Bright_Slanted-112"/>
     <path d="M 10.703125 48 
C 11.203125 44.265625 12 40.640625 12.703125 36.90625 
C 13.09375 34.390625 19 0.90625 19 0.609375 
C 19 0 18.59375 -0.5 18.296875 -1 
L 16.59375 -4.03125 
C 14.703125 -7.15625 12.796875 -10.390625 9 -11.6875 
C 6 -12.609375 0.5 -11.296875 -1.5 -10.6875 
C -1.796875 -12.5 -2 -14.421875 -2.203125 -16.328125 
C 0.5 -16.734375 5.40625 -17.34375 8.09375 -16.84375 
C 15.203125 -15.21875 19.203125 -8.5625 22.5 -3.125 
L 44.09375 34.390625 
L 49.203125 43.359375 
C 50.09375 44.875 51.203125 46.390625 51.796875 48 
C 49.703125 48 47.40625 48 45.59375 47.6875 
C 43.203125 44.078125 41.203125 40.046875 38.90625 36.21875 
C 33.59375 26.46875 27.703125 17.421875 23.203125 6.859375 
L 23.09375 6.859375 
C 23.40625 8.46875 23.09375 10.1875 22.90625 11.796875 
C 21.796875 22.59375 18.59375 39.734375 17.09375 48 
z
" id="Computer_Modern_Bright_Slanted-121"/>
     <path d="M 17.09375 46.375 
C 19.796875 53.03125 25.09375 60.1875 32 61.703125 
C 38.40625 63.109375 46.796875 61 49.40625 54.25 
C 50.296875 51.421875 50.203125 48.390625 49.203125 45.375 
C 45.5 34.171875 33.796875 27.125 25.09375 20.671875 
L 9.296875 8.359375 
L 6.90625 6.546875 
C 6.5 6.140625 5.90625 5.84375 5.59375 5.4375 
C 5.203125 4.8125 4.40625 0 4.40625 0 
C 18.203125 0 33 0 46.203125 0 
C 46.90625 1.6875 47.203125 3.765625 47.59375 5.734375 
L 11.40625 5.734375 
L 19.796875 12.09375 
L 34.59375 23.078125 
C 41.59375 28.03125 49.296875 32.96875 53.703125 40.53125 
C 57.5 46.984375 58.296875 55.75 53.203125 61.703125 
C 50.703125 64.421875 47.5 66.046875 43.5 66.953125 
C 37.703125 68.15625 31.40625 67.34375 26.203125 64.421875 
C 21.59375 61.609375 18.5 57.96875 15.59375 53.328125 
C 15.203125 52.734375 14.5 51.828125 14.5 51.015625 
C 14.5 50.515625 14.796875 50 15.09375 49.609375 
C 15.703125 48.5 16.296875 47.28125 17.09375 46.375 
z
" id="Computer_Modern_Bright_Slanted-50"/>
     <path d="M 9.796875 47.5 
C 14.09375 39.765625 18.90625 32.53125 23.09375 24.703125 
C 22.703125 23.890625 22.09375 23.296875 21.5 22.6875 
L -0.796875 0 
C 1.5 0 3.90625 0 6.09375 0 
C 12.703125 6.796875 18.90625 13.984375 25.40625 20.875 
C 28 15.65625 30.796875 10.734375 33.40625 5.609375 
C 34.296875 3.8125 35.203125 1.890625 36.40625 0.296875 
C 38.5 0 40.90625 0 43.296875 0 
C 42.203125 2.125 35.09375 13.984375 32.796875 17.921875 
L 30.09375 22.546875 
C 29.796875 23.046875 29.09375 23.84375 29.09375 24.453125 
C 29.203125 25.0625 30.203125 25.765625 30.59375 26.171875 
L 34.796875 30.484375 
C 36.59375 32.3125 50.59375 46.296875 51.5 47.5 
C 49.203125 47.5 46.90625 47.5 44.703125 47.5 
C 38.59375 41.640625 33 35.296875 27.09375 29.25 
C 23.59375 35.296875 20.5 41.75 16.703125 47.5 
C 14.5 47.5 12.09375 47.5 9.796875 47.5 
z
" id="Computer_Modern_Bright_Slanted-120"/>
     <path d="M 46.5 33 
L 46.59375 33 
C 46.296875 31.28125 45.90625 29.5625 45.40625 27.953125 
C 42.703125 18.28125 37.09375 7.859375 26.90625 4.65625 
C 21.5 3.0625 15.90625 4.0625 12.5 6.765625 
C 12.203125 6.96875 11.59375 7.65625 11.09375 7.5625 
C 10.703125 7.5625 10.296875 6.875 10.09375 6.5625 
C 9.203125 5.453125 8.296875 4.359375 7.5 3.25 
C 9.296875 1.84375 11.09375 0.53125 13.296875 -0.265625 
C 15.90625 -1.28125 20.5 -1.78125 23.59375 -1.1875 
C 29 -0.375 34 2.546875 38.09375 6.0625 
C 47.5 14.40625 53.09375 26.234375 54.59375 41.40625 
C 55.09375 45.90625 55.203125 50.53125 54.09375 55.046875 
C 53.203125 58.96875 51.703125 61.46875 48.90625 63.984375 
C 43.796875 68 36.296875 68 30.703125 65.453125 
C 25.40625 62.921875 19.90625 57.640625 17.203125 53.078125 
C 14.59375 48.609375 12.703125 41.421875 13.09375 34.921875 
C 13.5 30.8125 15.5 26.203125 18 23.703125 
C 20.296875 21.5 23.09375 21 26.09375 21 
C 32.09375 21 38.203125 23.921875 42.5 28.15625 
C 43.90625 29.5625 45.59375 31.078125 46.5 33 
z
M 43.90625 61.03125 
C 48.59375 58.5 49.40625 52.515625 48.90625 47.640625 
C 48.703125 44.90625 48.5 42.171875 47.59375 39.53125 
C 45.796875 34.453125 42.09375 30.015625 37.40625 27.578125 
C 32.40625 25.03125 24.59375 25.03125 21.5 29.75 
C 18.90625 33.484375 19.296875 38 20.09375 42.21875 
C 20.796875 45.546875 21.5 48.96875 23 52.09375 
C 25 56.109375 28.59375 59.71875 32.90625 61.234375 
C 36.5 62.453125 40.59375 62.453125 43.90625 61.03125 
z
" id="Computer_Modern_Bright_Slanted-57"/>
     <path d="M 18.796875 50.578125 
C 19.90625 51.703125 20.703125 53.03125 21.703125 54.15625 
C 26.09375 58.921875 34.203125 63.765625 42.59375 61.734375 
C 45.703125 61.03125 48.5 58.921875 49 55.59375 
C 49.296875 53.234375 48.203125 50.265625 47.5 48.828125 
C 44.796875 43.890625 40.703125 40.296875 34.796875 38.765625 
C 32.5 38.25 26.703125 38.25 24.703125 38.25 
L 23.703125 33 
L 30.59375 33 
C 36.09375 33 39 32.296875 42.09375 29.171875 
C 45.703125 24.9375 44.796875 18.375 42.5 13.75 
C 40.90625 10.8125 39.203125 8.59375 36.296875 6.78125 
C 29.5 2.25 20.09375 3.25 13.703125 7.890625 
C 11.09375 9.8125 9.296875 12.328125 7.796875 15.15625 
C 7.40625 14.453125 5.796875 10.71875 5.90625 10.015625 
C 5.90625 9.515625 6.296875 9 6.5 8.59375 
C 9.703125 3.765625 14.40625 0.328125 20.5 -0.875 
C 31.203125 -3 42.796875 2.25 48.5 11.734375 
C 51.40625 16.671875 52.703125 22.921875 49.703125 28.15625 
C 48 31.6875 43.5 34.8125 39.59375 35.53125 
C 41.09375 36.234375 42.59375 36.9375 44 37.75 
C 48.40625 40.359375 52.59375 44.59375 54.5 49.640625 
C 55.296875 51.453125 55.796875 53.46875 55.703125 55.484375 
C 55.40625 61.546875 50.203125 65.578125 44.703125 66.6875 
C 38.203125 68.09375 31.40625 66.375 25.796875 63.15625 
C 23.203125 61.640625 20.90625 59.71875 18.796875 57.609375 
C 18.296875 57.109375 17 55.890625 16.796875 55.09375 
C 16.796875 54.5625 18.296875 51.59375 18.796875 50.578125 
z
" id="Computer_Modern_Bright_Slanted-51"/>
    </defs>
    <g style="fill:#262626;" transform="translate(153.452449 111.138534)scale(0.15 -0.15)">
     <use transform="scale(0.996264)" xlink:href="#Computer_Modern_Bright_Slanted-100"/>
     <use transform="translate(48.152497 0)scale(0.996264)" xlink:href="#Computer_Modern_Bright_Slanted-112"/>
     <use transform="translate(93.399264 0)scale(0.996264)" xlink:href="#Computer_Modern_Bright_Slanted-121"/>
     <use transform="translate(135.740302 0)scale(0.996264)" xlink:href="#Computer_Modern_Bright_Slanted-45"/>
     <use transform="translate(168.948976 0)scale(0.996264)" xlink:href="#Computer_Modern_Bright_Slanted-50"/>
     <use transform="translate(219.592194 0)scale(0.996264)" xlink:href="#Computer_Modern_Bright_Slanted-50"/>
     <use transform="translate(270.235412 0)scale(0.996264)" xlink:href="#Computer_Modern_Bright_Slanted-40"/>
     <use transform="translate(309.25562 0)scale(0.996264)" xlink:href="#Computer_Modern_Bright_Slanted-98"/>
     <use transform="translate(354.502388 0)scale(0.996264)" xlink:href="#Computer_Modern_Bright_Slanted-120"/>
     <use transform="translate(396.843426 0)scale(0.996264)" xlink:href="#Computer_Modern_Bright_Slanted-57"/>
     <use transform="translate(447.486644 0)scale(0.996264)" xlink:href="#Computer_Modern_Bright_Slanted-51"/>
     <use transform="translate(498.129862 0)scale(0.996264)" xlink:href="#Computer_Modern_Bright_Slanted-41"/>
    </g>
   </g>
   <g id="text_14">
    <!-- \emph{dpy-22(bx93)/dpy-22(sy622)} -->
    <defs>
     <path d="M 58.90625 75.53125 
C 57.90625 75.21875 57.5 74.515625 57 73.71875 
L 12.296875 -0.5 
L 2.296875 -17.046875 
C 1.796875 -17.953125 0.90625 -18.953125 0.796875 -20.0625 
C 0.5 -21.375 1.703125 -22.484375 2.90625 -22.390625 
C 3.796875 -22.28125 4.296875 -21.578125 4.796875 -20.875 
L 51.40625 56.5625 
L 60.59375 71.796875 
C 60.90625 72.40625 61.296875 72.90625 61.296875 73.609375 
C 61.296875 74.8125 60.09375 75.921875 58.90625 75.53125 
z
" id="Computer_Modern_Bright_Slanted-47"/>
     <path d="M 5.203125 9.59375 
L 3 3.734375 
C 8 0.515625 13.90625 -1 19.90625 -1 
C 29.90625 -1 37.296875 3.640625 39.59375 11.6875 
C 41 16.21875 39.703125 19.84375 37.40625 22.671875 
C 34.09375 26.296875 29.203125 26.78125 24.796875 27.796875 
C 21.90625 28.40625 18.59375 28.90625 16.796875 31.625 
C 14.703125 34.75 16.90625 38.875 19.59375 40.78125 
C 22.09375 42.609375 26.203125 43.3125 30.09375 43 
C 35.703125 43 38.296875 41.65625 42.59375 39.265625 
L 44.703125 44.875 
C 39.5 47.5 33.5 48.5 27.703125 48 
C 22.40625 48 18.203125 46.5 14.796875 43.453125 
C 11.40625 40.3125 9 35.03125 10.203125 30.375 
C 10.59375 28.34375 11.5 27.34375 12.703125 25.90625 
C 16.09375 22.46875 20.90625 21.96875 25.296875 20.953125 
C 28.203125 20.359375 31.5 19.640625 33.203125 16.90625 
C 35.203125 13.765625 33.5 9.71875 31 7.375 
C 28.09375 4.953125 23.796875 3.9375 18.90625 4.34375 
C 14.296875 4.34375 10.40625 5.828125 7.203125 8.125 
C 6.5 8.53125 5.90625 9.171875 5.203125 9.59375 
z
" id="Computer_Modern_Bright_Slanted-115"/>
     <path d="M 18.296875 32.59375 
L 18.203125 32.59375 
C 20.90625 46.921875 28.5 60.28125 43.203125 62 
C 48.203125 62 51.296875 61.0625 55.5 59.78125 
L 56.59375 64.921875 
C 53.5 66.15625 50.296875 67.03125 47 67.03125 
C 40.296875 67.03125 34.5 64.453125 30.40625 61.75 
C 19.90625 54.765625 13.09375 43.171875 10.703125 28.34375 
C 9 18.359375 9.40625 7.671875 15.203125 2.125 
C 21.59375 -3.71875 31.5 -2.109375 38.09375 2.53125 
C 42.203125 5.5625 46 9.390625 48.296875 14.03125 
C 51.203125 19.78125 53.203125 29.453125 50.09375 36.515625 
C 49.09375 38.9375 47.703125 41.5625 45.40625 43.0625 
C 42.90625 44.6875 39.703125 44.6875 36.796875 44.390625 
C 31.09375 43.78125 25.703125 40.75 21.703125 36.71875 
C 20.5 35.515625 19.203125 34.109375 18.296875 32.59375 
z
M 34.5 39.640625 
C 38.40625 39.640625 41.703125 38.625 43.296875 35.921875 
C 46 32 45.40625 27.390625 44.5 23.078125 
C 43.796875 19.5625 43.09375 16.046875 41.40625 12.9375 
C 38.59375 7.828125 33.40625 3.5 25.703125 3.5 
C 22.90625 3.5 19.796875 5.125 18.5 6.78125 
C 16.296875 9.421875 15.796875 13.21875 15.796875 16.59375 
C 15.796875 17.09375 15.90625 17.703125 15.90625 18.1875 
C 15.90625 20.703125 16.296875 23.203125 17.09375 25.609375 
C 19.59375 32.9375 26.40625 39.640625 34.5 39.640625 
z
M 18.09375 32.96875 
C 18.09375 32.96875 18.203125 32.96875 18.203125 32.96875 
C 18.203125 32.875 18.09375 32.765625 18.09375 32.96875 
z
" id="Computer_Modern_Bright_Slanted-54"/>
    </defs>
    <g style="fill:#262626;" transform="translate(151.943659 110.118989)scale(0.15 -0.15)">
     <use transform="scale(0.996264)" xlink:href="#Computer_Modern_Bright_Slanted-100"/>
     <use transform="translate(48.152497 0)scale(0.996264)" xlink:href="#Computer_Modern_Bright_Slanted-112"/>
     <use transform="translate(93.399264 0)scale(0.996264)" xlink:href="#Computer_Modern_Bright_Slanted-121"/>
     <use transform="translate(135.740302 0)scale(0.996264)" xlink:href="#Computer_Modern_Bright_Slanted-45"/>
     <use transform="translate(168.948976 0)scale(0.996264)" xlink:href="#Computer_Modern_Bright_Slanted-50"/>
     <use transform="translate(219.592194 0)scale(0.996264)" xlink:href="#Computer_Modern_Bright_Slanted-50"/>
     <use transform="translate(270.235412 0)scale(0.996264)" xlink:href="#Computer_Modern_Bright_Slanted-40"/>
     <use transform="translate(309.25562 0)scale(0.996264)" xlink:href="#Computer_Modern_Bright_Slanted-98"/>
     <use transform="translate(354.502388 0)scale(0.996264)" xlink:href="#Computer_Modern_Bright_Slanted-120"/>
     <use transform="translate(396.843426 0)scale(0.996264)" xlink:href="#Computer_Modern_Bright_Slanted-57"/>
     <use transform="translate(447.486644 0)scale(0.996264)" xlink:href="#Computer_Modern_Bright_Slanted-51"/>
     <use transform="translate(498.129862 0)scale(0.996264)" xlink:href="#Computer_Modern_Bright_Slanted-41"/>
     <use transform="translate(537.15007 0)scale(0.996264)" xlink:href="#Computer_Modern_Bright_Slanted-47"/>
     <use transform="translate(587.793288 0)scale(0.996264)" xlink:href="#Computer_Modern_Bright_Slanted-100"/>
     <use transform="translate(635.945785 0)scale(0.996264)" xlink:href="#Computer_Modern_Bright_Slanted-112"/>
     <use transform="translate(681.192552 0)scale(0.996264)" xlink:href="#Computer_Modern_Bright_Slanted-121"/>
     <use transform="translate(723.53359 0)scale(0.996264)" xlink:href="#Computer_Modern_Bright_Slanted-45"/>
     <use transform="translate(756.742264 0)scale(0.996264)" xlink:href="#Computer_Modern_Bright_Slanted-50"/>
     <use transform="translate(807.385482 0)scale(0.996264)" xlink:href="#Computer_Modern_Bright_Slanted-50"/>
     <use transform="translate(858.0287 0)scale(0.996264)" xlink:href="#Computer_Modern_Bright_Slanted-40"/>
     <use transform="translate(897.048908 0)scale(0.996264)" xlink:href="#Computer_Modern_Bright_Slanted-115"/>
     <use transform="translate(935.487938 0)scale(0.996264)" xlink:href="#Computer_Modern_Bright_Slanted-121"/>
     <use transform="translate(977.828976 0)scale(0.996264)" xlink:href="#Computer_Modern_Bright_Slanted-54"/>
     <use transform="translate(1028.472194 0)scale(0.996264)" xlink:href="#Computer_Modern_Bright_Slanted-50"/>
     <use transform="translate(1079.115411 0)scale(0.996264)" xlink:href="#Computer_Modern_Bright_Slanted-50"/>
     <use transform="translate(1129.758629 0)scale(0.996264)" xlink:href="#Computer_Modern_Bright_Slanted-41"/>
    </g>
   </g>
   <g id="text_15">
    <!-- \emph{dpy-22(sy622)} -->
    <g style="fill:#262626;" transform="translate(186.791163 209.268136)scale(0.15 -0.15)">
     <use transform="scale(0.996264)" xlink:href="#Computer_Modern_Bright_Slanted-100"/>
     <use transform="translate(48.152497 0)scale(0.996264)" xlink:href="#Computer_Modern_Bright_Slanted-112"/>
     <use transform="translate(93.399264 0)scale(0.996264)" xlink:href="#Computer_Modern_Bright_Slanted-121"/>
     <use transform="translate(135.740302 0)scale(0.996264)" xlink:href="#Computer_Modern_Bright_Slanted-45"/>
     <use transform="translate(168.948976 0)scale(0.996264)" xlink:href="#Computer_Modern_Bright_Slanted-50"/>
     <use transform="translate(219.592194 0)scale(0.996264)" xlink:href="#Computer_Modern_Bright_Slanted-50"/>
     <use transform="translate(270.235412 0)scale(0.996264)" xlink:href="#Computer_Modern_Bright_Slanted-40"/>
     <use transform="translate(309.25562 0)scale(0.996264)" xlink:href="#Computer_Modern_Bright_Slanted-115"/>
     <use transform="translate(347.69465 0)scale(0.996264)" xlink:href="#Computer_Modern_Bright_Slanted-121"/>
     <use transform="translate(390.035688 0)scale(0.996264)" xlink:href="#Computer_Modern_Bright_Slanted-54"/>
     <use transform="translate(440.678906 0)scale(0.996264)" xlink:href="#Computer_Modern_Bright_Slanted-50"/>
     <use transform="translate(491.322123 0)scale(0.996264)" xlink:href="#Computer_Modern_Bright_Slanted-50"/>
     <use transform="translate(541.965341 0)scale(0.996264)" xlink:href="#Computer_Modern_Bright_Slanted-41"/>
    </g>
   </g>
   <g id="text_16">
    <!-- \emph{let-60(n1046)} -->
    <defs>
     <path d="M 21.09375 70 
L 6.40625 0 
C 8.5 0 10.796875 0 12.59375 0.296875 
L 13 1.40625 
C 14 6.453125 15.09375 11.375 16.203125 16.40625 
L 27.40625 70 
z
" id="Computer_Modern_Bright_Slanted-108"/>
     <path d="M 44.09375 10.890625 
C 42.796875 9.984375 41.5 8.96875 40.09375 8.171875 
C 34.296875 4.640625 24.09375 1.8125 18.203125 7.5625 
C 14.40625 11.390625 13.203125 17.546875 14.796875 25 
L 46.40625 25 
C 46.796875 25 47.40625 24.90625 47.703125 25.203125 
C 48.5 25.8125 48.703125 31.359375 48.703125 31.453125 
C 48.703125 32.671875 48.796875 33.875 48.703125 35.09375 
C 48.296875 40.4375 45.703125 45.28125 40.703125 47.09375 
C 34.296875 49.703125 27 47.796875 21.5 43.859375 
C 13.796875 38.421875 8.40625 29.046875 8 19.453125 
C 7.59375 11.890625 10.5 5.546875 15.40625 2.21875 
C 23.40625 -3.4375 34.5 -0.109375 40.90625 3.734375 
C 41.703125 4.234375 42.90625 4.734375 43.40625 5.4375 
C 43.703125 5.953125 44.09375 10.890625 44.09375 10.890625 
z
M 43.296875 28.9375 
L 16.203125 28.9375 
C 16.59375 30.65625 17.703125 32.359375 18.703125 33.78125 
C 21.296875 37.8125 25.09375 41.4375 29.796875 42.75 
C 33.59375 43.859375 38.296875 43.15625 41 40.03125 
C 43.203125 37.40625 43.703125 33.375 43.296875 28.9375 
z
" id="Computer_Modern_Bright_Slanted-101"/>
     <path d="M 11.09375 48.046875 
L 10.09375 43 
L 19.703125 43 
C 18.90625 39.78125 18.296875 36.453125 17.59375 33.21875 
L 13.59375 14.46875 
C 13.09375 12.046875 12.703125 9.625 12.703125 7.109375 
C 12.703125 5.390625 13 3.578125 13.90625 2.171875 
C 15.5 -0.046875 18 -0.359375 20.5 -0.046875 
C 25.40625 0.359375 29.5 1.46875 33.40625 3.484375 
C 34.296875 3.984375 35.09375 4.1875 34.796875 5.703125 
C 34.703125 6.8125 34.703125 8.015625 34.59375 9.125 
C 32.90625 8.015625 31.296875 6.90625 29.40625 6.203125 
C 27.59375 5.59375 24.296875 4.390625 22 5.1875 
C 19.5 5.890625 19 8.828125 19.203125 11.140625 
C 19.40625 13.5625 20.09375 15.875 20.59375 18.203125 
L 24.90625 38.96875 
L 25.5 41.59375 
C 25.796875 42.703125 25.703125 43 27.09375 43 
L 41.296875 43 
L 42.296875 48.046875 
L 26.796875 48.046875 
L 29.703125 61.5 
C 27.703125 61.5 25.5 61.5 23.796875 61.1875 
C 22.296875 57.34375 22.203125 52.109375 20.703125 48.25 
L 19.90625 48.046875 
z
" id="Computer_Modern_Bright_Slanted-116"/>
     <path d="M 20.5 37.515625 
L 20.40625 37.515625 
C 21.09375 40.84375 21.90625 44.171875 22.5 47.59375 
L 16.40625 47.59375 
L 6.40625 0 
L 10.90625 0 
C 11.796875 0 13 -0.296875 13 1.015625 
C 13.203125 1.71875 13.296875 2.3125 13.40625 3.03125 
C 14.40625 7.765625 19 29.4375 19.296875 30.359375 
C 20.40625 33.875 22.40625 37.3125 25.09375 39.828125 
C 28 42.34375 31.203125 43.765625 36.59375 42.859375 
C 38.796875 42.453125 40.90625 41.546875 42 39.421875 
C 43.5 36.40625 42.40625 32.875 41.796875 29.84375 
L 35.5 0 
L 40.203125 0 
C 41.203125 0 42.09375 -0.203125 42.09375 1.109375 
C 42.703125 3.125 44.09375 10.609375 44.09375 10.609375 
L 48.59375 31.640625 
C 49.296875 35.46875 50.296875 39.921875 48.40625 43.546875 
C 46.59375 46.890625 43 47.90625 39.59375 48.203125 
C 38.09375 48.203125 36.5 48.203125 35 47.953125 
C 30.796875 47.296875 27 44.96875 24 41.953125 
C 22.703125 40.640625 21.40625 39.21875 20.5 37.515625 
z
" id="Computer_Modern_Bright_Slanted-110"/>
     <path d="M 6 18 
L 34.796875 18 
L 31 -0.5 
C 33.09375 -0.5 35.40625 -0.5 37.203125 -0.203125 
L 37.59375 1.015625 
C 38.796875 6.71875 40 12.203125 41.09375 18 
L 52.59375 18 
L 53.703125 23.34375 
L 42.296875 23.34375 
L 51.40625 66.5 
C 48.796875 66.5 46.203125 66.5 43.796875 66.5 
L 42.90625 65.59375 
L 15.296875 33.0625 
C 12.59375 29.71875 9.703125 26.6875 7.09375 23.359375 
C 6.703125 21.625 6.296875 19.8125 6 18 
z
M 44.203125 61.140625 
L 42.40625 52.453125 
L 38.5 33.75 
L 36.296875 23.34375 
L 13.59375 23.34375 
C 14.59375 24.859375 16 26.265625 17.203125 27.703125 
C 24.59375 36.484375 36.5 50.234375 42.296875 58.21875 
C 43 59.125 43.5 60.234375 44.203125 61.140625 
z
" id="Computer_Modern_Bright_Slanted-52"/>
    </defs>
    <g style="fill:#262626;" transform="translate(318.635157 18.40797)scale(0.15 -0.15)">
     <use transform="scale(0.996264)" xlink:href="#Computer_Modern_Bright_Slanted-108"/>
     <use transform="translate(19.094959 0)scale(0.996264)" xlink:href="#Computer_Modern_Bright_Slanted-101"/>
     <use transform="translate(63.926626 0)scale(0.996264)" xlink:href="#Computer_Modern_Bright_Slanted-116"/>
     <use transform="translate(100.041014 0)scale(0.996264)" xlink:href="#Computer_Modern_Bright_Slanted-45"/>
     <use transform="translate(133.249688 0)scale(0.996264)" xlink:href="#Computer_Modern_Bright_Slanted-54"/>
     <use transform="translate(183.892906 0)scale(0.996264)" xlink:href="#Computer_Modern_Bright_Slanted-48"/>
     <use transform="translate(234.536124 0)scale(0.996264)" xlink:href="#Computer_Modern_Bright_Slanted-40"/>
     <use transform="translate(273.556332 0)scale(0.996264)" xlink:href="#Computer_Modern_Bright_Slanted-110"/>
     <use transform="translate(321.708829 0)scale(0.996264)" xlink:href="#Computer_Modern_Bright_Slanted-49"/>
     <use transform="translate(372.352047 0)scale(0.996264)" xlink:href="#Computer_Modern_Bright_Slanted-48"/>
     <use transform="translate(422.995265 0)scale(0.996264)" xlink:href="#Computer_Modern_Bright_Slanted-52"/>
     <use transform="translate(473.638483 0)scale(0.996264)" xlink:href="#Computer_Modern_Bright_Slanted-54"/>
     <use transform="translate(524.281701 0)scale(0.996264)" xlink:href="#Computer_Modern_Bright_Slanted-41"/>
    </g>
   </g>
   <g id="text_17">
    <!-- \emph{let-60(n2021)} -->
    <g style="fill:#262626;" transform="translate(85.175221 153.767756)scale(0.15 -0.15)">
     <use transform="scale(0.996264)" xlink:href="#Computer_Modern_Bright_Slanted-108"/>
     <use transform="translate(19.094959 0)scale(0.996264)" xlink:href="#Computer_Modern_Bright_Slanted-101"/>
     <use transform="translate(63.926626 0)scale(0.996264)" xlink:href="#Computer_Modern_Bright_Slanted-116"/>
     <use transform="translate(100.041014 0)scale(0.996264)" xlink:href="#Computer_Modern_Bright_Slanted-45"/>
     <use transform="translate(133.249688 0)scale(0.996264)" xlink:href="#Computer_Modern_Bright_Slanted-54"/>
     <use transform="translate(183.892906 0)scale(0.996264)" xlink:href="#Computer_Modern_Bright_Slanted-48"/>
     <use transform="translate(234.536124 0)scale(0.996264)" xlink:href="#Computer_Modern_Bright_Slanted-40"/>
     <use transform="translate(273.556332 0)scale(0.996264)" xlink:href="#Computer_Modern_Bright_Slanted-110"/>
     <use transform="translate(321.708829 0)scale(0.996264)" xlink:href="#Computer_Modern_Bright_Slanted-50"/>
     <use transform="translate(372.352047 0)scale(0.996264)" xlink:href="#Computer_Modern_Bright_Slanted-48"/>
     <use transform="translate(422.995265 0)scale(0.996264)" xlink:href="#Computer_Modern_Bright_Slanted-50"/>
     <use transform="translate(473.638483 0)scale(0.996264)" xlink:href="#Computer_Modern_Bright_Slanted-49"/>
     <use transform="translate(524.281701 0)scale(0.996264)" xlink:href="#Computer_Modern_Bright_Slanted-41"/>
    </g>
   </g>
  </g>
 </g>
 <defs>
  <clipPath id="p9aeea40857">
   <rect height="217.44" width="334.8" x="62.777159" y="10.278774"/>
  </clipPath>
 </defs>
</svg>
