<?xml version="1.0" encoding="utf-8" standalone="no"?>
<!DOCTYPE svg PUBLIC "-//W3C//DTD SVG 1.1//EN"
  "http://www.w3.org/Graphics/SVG/1.1/DTD/svg11.dtd">
<!-- Created with matplotlib (http://matplotlib.org/) -->
<svg height="272.63601pt" version="1.1" viewBox="0 0 542.573681 272.63601" width="542.573681pt" xmlns="http://www.w3.org/2000/svg" xmlns:xlink="http://www.w3.org/1999/xlink">
 <defs>
  <style type="text/css">
*{stroke-linecap:butt;stroke-linejoin:round;}
  </style>
 </defs>
 <g id="figure_1">
  <g id="patch_1">
   <path d="M 0 272.63601 
L 542.573681 272.63601 
L 542.573681 0 
L 0 0 
z
" style="fill:#ffffff;"/>
  </g>
  <g id="axes_1">
   <g id="patch_2">
    <path d="M 197.649789 224.64 
L 532.449789 224.64 
L 532.449789 7.2 
L 197.649789 7.2 
z
" style="fill:#eaeaf2;"/>
   </g>
   <g id="matplotlib.axis_1">
    <g id="xtick_1">
     <g id="line2d_1"/>
     <g id="text_1">
      <!-- $0$ -->
      <defs>
       <path d="M 14.796875 63.34375 
C 11.90625 61.34375 9.90625 58.65625 8.40625 55.5625 
C 4.796875 48.59375 4.40625 40.4375 4.40625 31.5625 
C 4.40625 20.421875 6.40625 10.15625 12 4.28125 
C 17.296875 -1.1875 25.703125 -2.59375 32.796875 0.296875 
C 37.203125 1.984375 40.40625 5.671875 42.40625 9.65625 
C 46 16.734375 46.40625 25.203125 46.40625 33.953125 
C 46.40625 36.75 46.296875 39.53125 46 42.328125 
C 45.296875 49 43 56.359375 39.296875 60.453125 
C 33.203125 67.125 22.296875 68.609375 14.796875 63.34375 
z
M 34.90625 57.65625 
C 39.59375 52.6875 40 43.125 40 34.0625 
L 40 28.6875 
C 40 24.09375 39.203125 18.125 38.203125 14.734375 
C 36.796875 10.0625 34.5 6.671875 29.90625 4.578125 
C 24.296875 2.59375 18.5 4.484375 15.296875 8.859375 
C 11 14.546875 10.796875 24.59375 10.796875 33.46875 
C 10.796875 41.828125 10.90625 51.09375 15 56.5625 
C 19.5 62.546875 29.203125 63.53125 34.90625 57.65625 
z
" id="Computer_Modern_Bright-48"/>
      </defs>
      <g style="fill:#262626;" transform="translate(193.465514 242.709603)scale(0.16 -0.16)">
       <use transform="scale(0.996264)" xlink:href="#Computer_Modern_Bright-48"/>
      </g>
     </g>
    </g>
    <g id="xtick_2">
     <g id="line2d_2"/>
     <g id="text_2">
      <!-- $25$ -->
      <defs>
       <path d="M 7.296875 45.625 
C 8.703125 51.1875 11.09375 57.546875 16.796875 60.046875 
C 19.203125 61.03125 21.796875 61.234375 24.40625 61.03125 
C 29.296875 60.640625 34.09375 58.640625 37.09375 54.65625 
C 39.296875 51.6875 40.09375 48 39.703125 44.4375 
C 38.5 34.09375 28.296875 26.640625 21.703125 21.0625 
C 17.90625 17.890625 7.09375 7.75 7.09375 7.75 
L 5.40625 6.15625 
C 4.5 5.265625 4.40625 5.265625 4.40625 3.484375 
L 4.40625 0 
L 46.40625 0 
L 46.40625 5.578125 
L 10.203125 5.578125 
C 13.40625 8.6875 26.703125 20.359375 28.5 21.75 
C 34.296875 26.453125 40.796875 31.15625 44.296875 37.9375 
C 48.203125 45.71875 46.5 55.515625 39.90625 61.296875 
C 35.90625 64.796875 30.40625 66.5 25.09375 66.5 
C 20.203125 66.5 15.203125 65.5 11.296875 62.421875 
C 8.296875 59.9375 5.796875 56.25 4.40625 52.484375 
C 4.09375 51.890625 3.59375 50.890625 3.703125 50.203125 
C 3.796875 49.59375 4.40625 49.109375 4.703125 48.703125 
C 5.5 47.703125 6.296875 46.515625 7.296875 45.625 
z
" id="Computer_Modern_Bright-50"/>
       <path d="M 8.40625 65.28125 
L 8.40625 29.703125 
L 12.203125 29.703125 
C 12.703125 29.703125 13.40625 29.609375 13.796875 29.8125 
C 14.296875 30.109375 14.59375 30.796875 14.90625 31.203125 
C 15.59375 32.09375 16.40625 32.796875 17.203125 33.5 
C 20.796875 36.484375 27.703125 37.671875 32.296875 35.390625 
C 38.59375 32.390625 39.796875 24.53125 39.296875 18.359375 
C 39 14.453125 37.796875 10.875 35.5 8.578125 
C 30.203125 3 21.296875 3 14.796875 6.265625 
C 11.59375 7.859375 8.90625 10.34375 6.90625 13.328125 
L 6.796875 13.328125 
C 6.5 12.828125 4.203125 9.34375 4.203125 8.75 
C 4.203125 8.34375 4.5 8.046875 4.703125 7.75 
C 7.703125 4.265625 11.59375 1.578125 16.09375 0.078125 
C 25 -2.703125 35 -0.515625 41.296875 6.65625 
C 48.796875 15.3125 47.796875 29.40625 39.09375 36.96875 
C 36.5 39.359375 32.90625 41.046875 28.59375 41.4375 
C 22.796875 42.234375 17.59375 39.453125 14.5 36.859375 
L 14.5 60 
L 42.90625 60 
L 42.90625 65.28125 
z
" id="Computer_Modern_Bright-53"/>
      </defs>
      <g style="fill:#262626;" transform="translate(254.315451 242.709603)scale(0.16 -0.16)">
       <use transform="scale(0.996264)" xlink:href="#Computer_Modern_Bright-50"/>
       <use transform="translate(50.643218 0)scale(0.996264)" xlink:href="#Computer_Modern_Bright-53"/>
      </g>
     </g>
    </g>
    <g id="xtick_3">
     <g id="line2d_3"/>
     <g id="text_3">
      <!-- $50$ -->
      <g style="fill:#262626;" transform="translate(319.349665 242.709603)scale(0.16 -0.16)">
       <use transform="scale(0.996264)" xlink:href="#Computer_Modern_Bright-53"/>
       <use transform="translate(50.643218 0)scale(0.996264)" xlink:href="#Computer_Modern_Bright-48"/>
      </g>
     </g>
    </g>
    <g id="xtick_4">
     <g id="line2d_4"/>
     <g id="text_4">
      <!-- $75$ -->
      <defs>
       <path d="M 3.59375 65.578125 
L 3.59375 60 
L 42.796875 60 
L 39.09375 56.40625 
C 35.796875 52.921875 32.796875 49.21875 30.09375 45.234375 
C 21.09375 31.734375 16.203125 15.671875 16.203125 -0.5 
L 22.90625 -0.5 
C 22.90625 14.0625 26.59375 28.640625 33.59375 41.515625 
C 37 48 40.59375 52.703125 45.296875 58.1875 
C 45.90625 58.796875 46.796875 59.484375 47.09375 60.28125 
C 47.296875 60.78125 47.203125 61.484375 47.203125 62.078125 
L 47.203125 65.578125 
z
" id="Computer_Modern_Bright-55"/>
      </defs>
      <g style="fill:#262626;" transform="translate(384.383878 242.709603)scale(0.16 -0.16)">
       <use transform="scale(0.996264)" xlink:href="#Computer_Modern_Bright-55"/>
       <use transform="translate(50.643218 0)scale(0.996264)" xlink:href="#Computer_Modern_Bright-53"/>
      </g>
     </g>
    </g>
    <g id="xtick_5">
     <g id="line2d_5"/>
     <g id="text_5">
      <!-- $100$ -->
      <defs>
       <path d="M 9.703125 59.984375 
L 9.703125 55 
C 15.203125 55 19 56 23.40625 57.890625 
L 23.40625 4.984375 
L 10.296875 4.984375 
L 10.296875 0 
L 43 0 
L 43 4.984375 
L 29.90625 4.984375 
L 29.90625 66.5 
C 27.5 66.5 27.90625 65.890625 26 64.515625 
C 21.90625 61.5625 16.203125 59.984375 9.703125 59.984375 
z
" id="Computer_Modern_Bright-49"/>
      </defs>
      <g style="fill:#262626;" transform="translate(445.233815 242.709603)scale(0.16 -0.16)">
       <use transform="scale(0.996264)" xlink:href="#Computer_Modern_Bright-49"/>
       <use transform="translate(50.643218 0)scale(0.996264)" xlink:href="#Computer_Modern_Bright-48"/>
       <use transform="translate(101.286436 0)scale(0.996264)" xlink:href="#Computer_Modern_Bright-48"/>
      </g>
     </g>
    </g>
    <g id="xtick_6">
     <g id="line2d_6"/>
     <g id="text_6">
      <!-- $125$ -->
      <g style="fill:#262626;" transform="translate(510.268028 242.709603)scale(0.16 -0.16)">
       <use transform="scale(0.996264)" xlink:href="#Computer_Modern_Bright-49"/>
       <use transform="translate(50.643218 0)scale(0.996264)" xlink:href="#Computer_Modern_Bright-50"/>
       <use transform="translate(101.286436 0)scale(0.996264)" xlink:href="#Computer_Modern_Bright-53"/>
      </g>
     </g>
    </g>
    <g id="text_7">
     <!-- $-\log_{10}{p}$ -->
     <defs>
      <path d="M 9.796875 28.078125 
C 8 27.484375 7.796875 24.78125 9.796875 24.28125 
C 10.296875 24.078125 10.90625 24.1875 11.5 24.1875 
L 64.703125 24.1875 
C 65.90625 24.1875 67.796875 23.78125 68.796875 24.78125 
C 69.90625 25.875 69.296875 27.875 67.703125 28.1875 
C 66.5 28.375 65.09375 28.1875 63.90625 28.1875 
L 11.40625 28.1875 
C 10.90625 28.1875 10.296875 28.28125 9.796875 28.078125 
z
" id="Computer_Modern_Bright_Math_Symbols-0"/>
      <path d="M 6.40625 69.109375 
L 6.40625 0 
L 12.703125 0 
L 12.703125 69.109375 
z
" id="Computer_Modern_Bright-108"/>
      <path d="M 10.703125 41.734375 
C 1.796875 32.96875 0.796875 17.71875 8.5 7.875 
C 9.59375 6.375 10.90625 5.078125 12.40625 3.984375 
C 16.09375 1 21.5 -1.1875 27.796875 -0.5 
C 37.796875 0.703125 44.703125 8.765625 46.796875 17.234375 
C 49.59375 29.078125 43.703125 42.328125 32.703125 46.5 
C 24.09375 50 15.5 46.5 10.703125 41.734375 
z
M 35.703125 39.046875 
C 40.5 34.765625 41.40625 27.890625 41 21.8125 
C 40.703125 17.140625 39.40625 12.25 36.09375 8.765625 
C 30.703125 3 20.703125 3 14.90625 8.578125 
C 11.90625 11.75 10.09375 16.34375 9.796875 21.8125 
C 9.296875 29.875 11.296875 38.453125 19.296875 41.640625 
C 25.203125 44.21875 32 42.328125 35.703125 39.046875 
z
" id="Computer_Modern_Bright-111"/>
      <path d="M 35.40625 11.75 
L 35.5 11.75 
L 35.5 2.5 
C 35.5 -0.28125 35.5 -2.953125 34.59375 -5.65625 
C 33.09375 -9.21875 30.5 -12.5 26.203125 -13.109375 
C 25 -13.203125 23.703125 -13.109375 22.5 -13 
C 16 -13 11.703125 -11.046875 6.5 -8.703125 
L 6.5 -12.484375 
C 6.5 -14.375 6.796875 -14.46875 8.703125 -15.078125 
C 13.796875 -17.171875 23 -19.25 29.296875 -17.65625 
C 36.296875 -15.875 41.40625 -9.296875 41.90625 -1.328125 
C 42 0.0625 41.90625 1.5625 41.90625 2.96875 
L 41.90625 47.5 
L 35.59375 47.5 
L 35.59375 39.5 
C 34.09375 41.984375 32.5 44.28125 29.90625 45.875 
C 22.90625 50.046875 13.40625 45.46875 9.5 40.09375 
C 3.09375 32.203125 1.90625 20.03125 7 11.25 
C 8 9.5625 9.203125 7.96875 10.59375 6.5625 
C 15.40625 1.890625 23.59375 -0.59375 29.5 3.578125 
C 31.90625 5.171875 34.703125 8.859375 35.40625 11.75 
z
M 25.5 42.5 
C 26.40625 42.5 27.40625 42.5 28.296875 42.296875 
C 31.90625 41.609375 33.90625 38.421875 35.09375 35.234375 
C 35.796875 33.03125 35.59375 30.640625 35.59375 28.359375 
C 35.59375 23.375 35.5 18.203125 33.796875 13.515625 
C 32.59375 10.03125 30.09375 6.953125 26.203125 6.546875 
C 24.90625 6.453125 23.59375 6.640625 22.296875 6.953125 
C 16.203125 8.34375 12 13.515625 10.703125 19.5 
C 8.90625 28.15625 13.203125 38.71875 22 41.703125 
C 23.09375 42.09375 24.296875 42.40625 25.5 42.5 
z
" id="Computer_Modern_Bright-103"/>
      <path d="M 23 40.640625 
L 24.40625 47.5 
L 18.09375 47.5 
L 4.59375 -17 
L 11 -17 
L 15.90625 6.625 
C 17 4.71875 18 3.015625 19.703125 1.59375 
C 25 -2.71875 32.59375 -0.921875 37.796875 2.40625 
C 47.59375 8.640625 53.203125 20.765625 52.703125 32.265625 
C 52.40625 38.515625 49.59375 45.890625 43.09375 47.90625 
C 35 50.109375 26.59375 44.265625 23 40.640625 
z
M 36.90625 42.53125 
C 43.5 41.03125 46.703125 33.578125 46.09375 27.34375 
C 45.90625 25.234375 45.59375 23.21875 45 21.203125 
C 43.203125 15.265625 39.296875 9.734375 34 6.515625 
C 31.59375 5.015625 28.796875 4 25.90625 4 
C 21.59375 4 19 5.8125 17.59375 8.9375 
C 17.40625 9.640625 17 10.4375 17 11.140625 
C 17 12.25 17.5 13.5625 17.703125 14.671875 
C 18.796875 20.203125 21.203125 31.265625 21.203125 31.265625 
L 21.796875 34.1875 
C 22.203125 36.59375 23 37.203125 24.703125 38.703125 
C 27.90625 41.328125 31.796875 43.4375 36.90625 42.53125 
z
" id="Computer_Modern_Bright_Math_Slanted-112"/>
     </defs>
     <g style="fill:#262626;" transform="translate(333.005108 262.447218)scale(0.18 -0.18)">
      <use transform="translate(0 20.091329)scale(0.996264)" xlink:href="#Computer_Modern_Bright_Math_Symbols-0"/>
      <use transform="translate(94.091873 20.091329)scale(0.996264)" xlink:href="#Computer_Modern_Bright-108"/>
      <use transform="translate(113.186832 20.091329)scale(0.996264)" xlink:href="#Computer_Modern_Bright-111"/>
      <use transform="translate(163.83005 20.091329)scale(0.996264)" xlink:href="#Computer_Modern_Bright-103"/>
      <use transform="translate(211.982547 0)scale(0.697382)" xlink:href="#Computer_Modern_Bright-49"/>
      <use transform="translate(247.432632 0)scale(0.697382)" xlink:href="#Computer_Modern_Bright-48"/>
      <use transform="translate(299.985254 20.091329)scale(0.996264)" xlink:href="#Computer_Modern_Bright_Math_Slanted-112"/>
     </g>
    </g>
   </g>
   <g id="matplotlib.axis_2">
    <g id="ytick_1">
     <g id="line2d_7"/>
     <g id="text_8">
      <!-- \emph{dpy-22(bx93)}-specific -->
      <defs>
       <path d="M 50.296875 70 
L 44.40625 41.671875 
C 43.90625 42.28125 43.5 42.984375 43.09375 43.578125 
C 42.203125 44.796875 41.09375 45.796875 39.796875 46.515625 
C 32.703125 50.84375 23.796875 46.8125 18.40625 41.46875 
C 12.796875 35.921875 9.203125 28.453125 8.40625 20.578125 
C 7.40625 11.5 10.296875 3.84375 16.5 0.71875 
C 22 -1.90625 28.5 0.015625 33.09375 3.53125 
C 34.40625 4.546875 36 5.859375 36.90625 7.265625 
L 37 7.265625 
L 35.5 0 
C 37.703125 0 39.90625 0 41.796875 0.296875 
L 42.203125 1.40625 
C 43.203125 6.453125 44.296875 11.375 45.40625 16.40625 
L 56.59375 70 
z
M 42.40625 39.671875 
C 42.703125 39.0625 43.09375 38.359375 43.203125 37.65625 
C 43.40625 36.640625 42.90625 35.328125 42.703125 34.328125 
C 40.703125 25.34375 38.40625 14.15625 38.40625 14.15625 
C 38 11.734375 37.203125 10.828125 35.59375 9.21875 
C 33.296875 6.890625 30.5 5.078125 27.09375 4.78125 
C 23.40625 4.484375 19.796875 5.984375 17.90625 7.90625 
C 14.40625 11.328125 14.203125 16.671875 14.796875 21.3125 
C 15.796875 28.671875 18.90625 36.4375 25.40625 40.46875 
C 26.59375 41.1875 27.796875 41.890625 29.09375 42.296875 
C 34 44 39.703125 44 42.40625 39.671875 
z
" id="Computer_Modern_Bright_Slanted-100"/>
       <path d="M 21.296875 40.75 
L 22.09375 44.578125 
L 22.703125 47.5 
L 16.40625 47.5 
L 2.90625 -17 
L 9.296875 -17 
C 10.90625 -9.15625 12.59375 -1.421875 14.09375 6.515625 
C 14.90625 4.90625 15.796875 3.390625 17.09375 2.1875 
C 22.296875 -2.5625 30.296875 -0.4375 35.59375 2.984375 
C 42.90625 7.8125 47.796875 15.734375 49.5 24.25 
C 50 26.65625 50.296875 29.171875 50.203125 31.5625 
C 49.90625 38.890625 46.5 47.09375 37.90625 48 
C 30.59375 48 24.90625 44.375 21.296875 40.75 
z
M 34.5 42.78125 
C 35.40625 42.578125 36.40625 42.28125 37.203125 41.78125 
C 42.40625 38.859375 43.796875 32.59375 43.5 27.0625 
C 43.09375 19.890625 39.203125 12.9375 33.59375 8.546875 
C 30.703125 6.15625 27.09375 4.5 23.40625 4.5 
C 19.09375 4.5 15.796875 6.921875 15.203125 11.125 
C 15.203125 12.234375 15.59375 13.546875 15.90625 14.65625 
C 16.40625 16.875 20.09375 34.421875 20.09375 34.625 
C 20.40625 37.03125 21.09375 37.4375 22.703125 39.0625 
C 25.5 41.671875 29.796875 44.09375 34.5 42.78125 
z
" id="Computer_Modern_Bright_Slanted-112"/>
       <path d="M 10.703125 48 
C 11.203125 44.265625 12 40.640625 12.703125 36.90625 
C 13.09375 34.390625 19 0.90625 19 0.609375 
C 19 0 18.59375 -0.5 18.296875 -1 
L 16.59375 -4.03125 
C 14.703125 -7.15625 12.796875 -10.390625 9 -11.6875 
C 6 -12.609375 0.5 -11.296875 -1.5 -10.6875 
C -1.796875 -12.5 -2 -14.421875 -2.203125 -16.328125 
C 0.5 -16.734375 5.40625 -17.34375 8.09375 -16.84375 
C 15.203125 -15.21875 19.203125 -8.5625 22.5 -3.125 
L 44.09375 34.390625 
L 49.203125 43.359375 
C 50.09375 44.875 51.203125 46.390625 51.796875 48 
C 49.703125 48 47.40625 48 45.59375 47.6875 
C 43.203125 44.078125 41.203125 40.046875 38.90625 36.21875 
C 33.59375 26.46875 27.703125 17.421875 23.203125 6.859375 
L 23.09375 6.859375 
C 23.40625 8.46875 23.09375 10.1875 22.90625 11.796875 
C 21.796875 22.59375 18.59375 39.734375 17.09375 48 
z
" id="Computer_Modern_Bright_Slanted-121"/>
       <path d="M 5.90625 26.03125 
L 4.90625 21 
L 32.796875 21 
L 33.796875 26.03125 
z
" id="Computer_Modern_Bright_Slanted-45"/>
       <path d="M 17.09375 46.375 
C 19.796875 53.03125 25.09375 60.1875 32 61.703125 
C 38.40625 63.109375 46.796875 61 49.40625 54.25 
C 50.296875 51.421875 50.203125 48.390625 49.203125 45.375 
C 45.5 34.171875 33.796875 27.125 25.09375 20.671875 
L 9.296875 8.359375 
L 6.90625 6.546875 
C 6.5 6.140625 5.90625 5.84375 5.59375 5.4375 
C 5.203125 4.8125 4.40625 0 4.40625 0 
C 18.203125 0 33 0 46.203125 0 
C 46.90625 1.6875 47.203125 3.765625 47.59375 5.734375 
L 11.40625 5.734375 
L 19.796875 12.09375 
L 34.59375 23.078125 
C 41.59375 28.03125 49.296875 32.96875 53.703125 40.53125 
C 57.5 46.984375 58.296875 55.75 53.203125 61.703125 
C 50.703125 64.421875 47.5 66.046875 43.5 66.953125 
C 37.703125 68.15625 31.40625 67.34375 26.203125 64.421875 
C 21.59375 61.609375 18.5 57.96875 15.59375 53.328125 
C 15.203125 52.734375 14.5 51.828125 14.5 51.015625 
C 14.5 50.515625 14.796875 50 15.09375 49.609375 
C 15.703125 48.5 16.296875 47.28125 17.09375 46.375 
z
" id="Computer_Modern_Bright_Slanted-50"/>
       <path d="M 29.5 -22 
C 28.59375 -20.78125 27.5 -19.78125 26.59375 -18.5625 
C 20.40625 -10.296875 17.59375 1.59375 18.703125 14.90625 
C 20.40625 38.484375 31.40625 61.375 47.59375 73.984375 
C 48.40625 74.6875 49.40625 75.1875 50.09375 76 
L 46.90625 76 
C 46.40625 76 45.703125 76.109375 45.203125 75.90625 
C 44.203125 75.59375 40.90625 72.875 40.703125 72.78125 
C 27.09375 61.578125 17.59375 45.34375 13.796875 25.90625 
C 10.59375 10.265625 12.203125 -5.65625 19.59375 -16.34375 
C 20.59375 -17.5625 23.296875 -21.1875 24.59375 -21.890625 
C 25.09375 -22.09375 25.796875 -22 26.296875 -22 
z
" id="Computer_Modern_Bright_Slanted-40"/>
       <path d="M 21.09375 70 
L 6.40625 0 
C 8.59375 0 10.796875 0 12.703125 0.296875 
C 13.40625 2.203125 13.703125 4.421875 14.09375 6.515625 
L 14.203125 6.515625 
C 14.90625 4.59375 16.40625 2.484375 18 1.46875 
C 23.09375 -2.25 30.296875 -0.34375 35.203125 2.78125 
C 42.59375 7.21875 47.90625 15.984375 49.59375 24.546875 
C 50.296875 28.078125 50.40625 31.8125 49.796875 35.421875 
C 48.40625 42.890625 43.90625 48.828125 35.203125 48.125 
C 29.90625 47.625 25.203125 44.796875 21.40625 41.078125 
L 27.40625 70 
z
M 38.09375 41.8125 
C 39 41.296875 39.796875 40.796875 40.5 40.09375 
C 44 36.671875 44.09375 31.21875 43.5 26.6875 
C 42.59375 19.421875 39.59375 11.859375 33.296875 7.609375 
C 30.59375 5.953125 27.59375 4.5 23.59375 4.5 
C 19.203125 4.5 15.796875 6.9375 15.203125 11.15625 
C 15.203125 12.265625 15.59375 13.578125 15.90625 14.6875 
C 16.796875 18.71875 20.09375 35.65625 20.59375 36.765625 
C 21.09375 37.671875 22 38.484375 22.703125 39.1875 
C 26.59375 42.8125 32.296875 44.734375 38.09375 41.8125 
z
M 21.296875 41.046875 
C 21.296875 41.046875 21.40625 41.046875 21.40625 41.046875 
C 21.40625 40.9375 21.296875 40.84375 21.296875 41.046875 
z
" id="Computer_Modern_Bright_Slanted-98"/>
       <path d="M 9.796875 47.5 
C 14.09375 39.765625 18.90625 32.53125 23.09375 24.703125 
C 22.703125 23.890625 22.09375 23.296875 21.5 22.6875 
L -0.796875 0 
C 1.5 0 3.90625 0 6.09375 0 
C 12.703125 6.796875 18.90625 13.984375 25.40625 20.875 
C 28 15.65625 30.796875 10.734375 33.40625 5.609375 
C 34.296875 3.8125 35.203125 1.890625 36.40625 0.296875 
C 38.5 0 40.90625 0 43.296875 0 
C 42.203125 2.125 35.09375 13.984375 32.796875 17.921875 
L 30.09375 22.546875 
C 29.796875 23.046875 29.09375 23.84375 29.09375 24.453125 
C 29.203125 25.0625 30.203125 25.765625 30.59375 26.171875 
L 34.796875 30.484375 
C 36.59375 32.3125 50.59375 46.296875 51.5 47.5 
C 49.203125 47.5 46.90625 47.5 44.703125 47.5 
C 38.59375 41.640625 33 35.296875 27.09375 29.25 
C 23.59375 35.296875 20.5 41.75 16.703125 47.5 
C 14.5 47.5 12.09375 47.5 9.796875 47.5 
z
" id="Computer_Modern_Bright_Slanted-120"/>
       <path d="M 46.5 33 
L 46.59375 33 
C 46.296875 31.28125 45.90625 29.5625 45.40625 27.953125 
C 42.703125 18.28125 37.09375 7.859375 26.90625 4.65625 
C 21.5 3.0625 15.90625 4.0625 12.5 6.765625 
C 12.203125 6.96875 11.59375 7.65625 11.09375 7.5625 
C 10.703125 7.5625 10.296875 6.875 10.09375 6.5625 
C 9.203125 5.453125 8.296875 4.359375 7.5 3.25 
C 9.296875 1.84375 11.09375 0.53125 13.296875 -0.265625 
C 15.90625 -1.28125 20.5 -1.78125 23.59375 -1.1875 
C 29 -0.375 34 2.546875 38.09375 6.0625 
C 47.5 14.40625 53.09375 26.234375 54.59375 41.40625 
C 55.09375 45.90625 55.203125 50.53125 54.09375 55.046875 
C 53.203125 58.96875 51.703125 61.46875 48.90625 63.984375 
C 43.796875 68 36.296875 68 30.703125 65.453125 
C 25.40625 62.921875 19.90625 57.640625 17.203125 53.078125 
C 14.59375 48.609375 12.703125 41.421875 13.09375 34.921875 
C 13.5 30.8125 15.5 26.203125 18 23.703125 
C 20.296875 21.5 23.09375 21 26.09375 21 
C 32.09375 21 38.203125 23.921875 42.5 28.15625 
C 43.90625 29.5625 45.59375 31.078125 46.5 33 
z
M 43.90625 61.03125 
C 48.59375 58.5 49.40625 52.515625 48.90625 47.640625 
C 48.703125 44.90625 48.5 42.171875 47.59375 39.53125 
C 45.796875 34.453125 42.09375 30.015625 37.40625 27.578125 
C 32.40625 25.03125 24.59375 25.03125 21.5 29.75 
C 18.90625 33.484375 19.296875 38 20.09375 42.21875 
C 20.796875 45.546875 21.5 48.96875 23 52.09375 
C 25 56.109375 28.59375 59.71875 32.90625 61.234375 
C 36.5 62.453125 40.59375 62.453125 43.90625 61.03125 
z
" id="Computer_Modern_Bright_Slanted-57"/>
       <path d="M 18.796875 50.578125 
C 19.90625 51.703125 20.703125 53.03125 21.703125 54.15625 
C 26.09375 58.921875 34.203125 63.765625 42.59375 61.734375 
C 45.703125 61.03125 48.5 58.921875 49 55.59375 
C 49.296875 53.234375 48.203125 50.265625 47.5 48.828125 
C 44.796875 43.890625 40.703125 40.296875 34.796875 38.765625 
C 32.5 38.25 26.703125 38.25 24.703125 38.25 
L 23.703125 33 
L 30.59375 33 
C 36.09375 33 39 32.296875 42.09375 29.171875 
C 45.703125 24.9375 44.796875 18.375 42.5 13.75 
C 40.90625 10.8125 39.203125 8.59375 36.296875 6.78125 
C 29.5 2.25 20.09375 3.25 13.703125 7.890625 
C 11.09375 9.8125 9.296875 12.328125 7.796875 15.15625 
C 7.40625 14.453125 5.796875 10.71875 5.90625 10.015625 
C 5.90625 9.515625 6.296875 9 6.5 8.59375 
C 9.703125 3.765625 14.40625 0.328125 20.5 -0.875 
C 31.203125 -3 42.796875 2.25 48.5 11.734375 
C 51.40625 16.671875 52.703125 22.921875 49.703125 28.15625 
C 48 31.6875 43.5 34.8125 39.59375 35.53125 
C 41.09375 36.234375 42.59375 36.9375 44 37.75 
C 48.40625 40.359375 52.59375 44.59375 54.5 49.640625 
C 55.296875 51.453125 55.796875 53.46875 55.703125 55.484375 
C 55.40625 61.546875 50.203125 65.578125 44.703125 66.6875 
C 38.203125 68.09375 31.40625 66.375 25.796875 63.15625 
C 23.203125 61.640625 20.90625 59.71875 18.796875 57.609375 
C 18.296875 57.109375 17 55.890625 16.796875 55.09375 
C 16.796875 54.5625 18.296875 51.59375 18.796875 50.578125 
z
" id="Computer_Modern_Bright_Slanted-51"/>
       <path d="M 20.90625 76 
C 21.796875 74.796875 22.90625 73.78125 23.796875 72.578125 
C 25.59375 70.25 27 67.625 28.203125 64.90625 
C 32.5 54.71875 32.703125 43.125 31 32.34375 
C 28.296875 15.21875 21.296875 -1.625 9.203125 -14.234375 
C 6.5 -17.046875 3.5 -19.578125 0.296875 -21.890625 
C 1.296875 -22.203125 2.5 -22 3.59375 -22 
C 4.203125 -22 4.796875 -22.09375 5.40625 -21.890625 
C 11.203125 -18.359375 18.296875 -10.796875 21.5 -6.5625 
C 29.09375 3.625 34.203125 15.71875 36.703125 28.21875 
C 39.90625 44.9375 37.90625 60.671875 30.09375 71.265625 
C 29.40625 72.171875 26.796875 75.5 25.90625 75.90625 
C 25.40625 76.109375 24.703125 76 24.203125 76 
z
" id="Computer_Modern_Bright_Slanted-41"/>
       <path d="M 0.40625 25.984375 
L 0.40625 21 
L 28.296875 21 
L 28.296875 25.984375 
z
" id="Computer_Modern_Bright-45"/>
       <path d="M 3.09375 9.953125 
C 2.90625 8.5625 2.59375 7.265625 2.40625 5.875 
C 2.203125 4.78125 1.90625 4.28125 2.90625 3.78125 
C 7 1.390625 11.90625 0.09375 17.703125 -0.40625 
C 24.203125 -1 32.40625 0.484375 35.59375 6.859375 
C 36.5 8.65625 37 10.65625 37.09375 12.640625 
C 37.5 19.8125 31.796875 24.390625 26.90625 26.09375 
C 21.40625 28.171875 13.90625 27.484375 10.09375 31.65625 
C 8.09375 33.953125 8 37.34375 9.90625 39.734375 
C 13.90625 45.3125 26.796875 42.921875 31.90625 40.421875 
C 32.703125 40.03125 33.40625 39.53125 34.296875 39.328125 
L 35.203125 44.703125 
C 30.5 46.796875 26.40625 48 19.90625 48 
C 14.296875 48 9.203125 46.703125 6 43.515625 
C 2.796875 40.234375 1.703125 34.75 3.59375 30.5625 
C 5.40625 26.578125 9.203125 24 13.296875 22.703125 
C 19.203125 20.609375 25.90625 21.609375 29.796875 16.828125 
C 32 14.03125 31.59375 9.859375 29.09375 7.359375 
C 24.296875 2.984375 14.09375 4.578125 8.5 6.96875 
C 6.59375 7.765625 4.90625 8.953125 3.09375 9.953125 
z
" id="Computer_Modern_Bright-115"/>
       <path d="M 12.703125 40.046875 
L 12.703125 46.625 
L 6.40625 46.625 
L 6.40625 -17 
L 12.796875 -17 
L 12.796875 5.90625 
C 14.203125 3.90625 15.796875 2.109375 17.90625 0.921875 
C 25 -3.359375 34 0.015625 38.90625 6.390625 
C 45.40625 14.71875 46.09375 27.15625 41.59375 36.578125 
C 39 41.984375 34.09375 47 27.796875 47.5 
C 22.296875 47.5 18.09375 45.296875 15.09375 42.625 
C 14.203125 41.828125 13.5 40.9375 12.703125 40.046875 
z
M 21.90625 42.53125 
C 26 42.828125 30 40.9375 32.796875 37.9375 
C 34.5 36.046875 35.796875 33.859375 36.59375 31.46875 
C 40.09375 22.109375 36.90625 9.15625 26.796875 5.28125 
C 21 3.09375 15.296875 5.078125 13.09375 10.453125 
C 12.59375 11.453125 12.796875 12.75 12.796875 13.84375 
L 12.796875 34.359375 
C 12.796875 36.640625 13 36.84375 14.5 38.546875 
C 16.296875 40.734375 19 42.21875 21.90625 42.53125 
z
" id="Computer_Modern_Bright-112"/>
       <path d="M 41.796875 10.890625 
C 39.5 9.203125 38.796875 8.296875 35.90625 6.8125 
C 29.796875 3.5 22.59375 3.5 17.40625 7.1875 
C 12.40625 10.765625 9.5 16.640625 9.5 25 
L 42.5 25 
C 42.5 32.375 40.796875 38.75 36.59375 43.234375 
C 32 47.71875 24.796875 49.109375 18.703125 47.21875 
C 16.40625 46.515625 14.296875 45.328125 12.40625 43.828125 
C 6.09375 38.75 3.40625 30.6875 3.5 22.796875 
C 3.703125 12.34375 10.796875 1.921875 21.296875 -0.265625 
C 26.796875 -1.359375 32.59375 -0.15625 37.5 2.328125 
C 38.40625 2.828125 41.703125 4.625 42.09375 5.515625 
C 42.40625 6.015625 41.796875 10.890625 41.796875 10.890625 
z
M 37.203125 28.890625 
L 10 28.890625 
C 11.203125 36.15625 17.203125 43.828125 25.296875 42.9375 
C 31.90625 42.328125 35.40625 37.65625 36.703125 31.78125 
C 36.90625 30.78125 37 29.890625 37.203125 28.890625 
z
" id="Computer_Modern_Bright-101"/>
       <path d="M 42.40625 11.15625 
C 40.5 9.765625 38.796875 8.265625 36.703125 7.078125 
C 32 4.578125 24.796875 3.390625 19.40625 5.875 
C 11.59375 9.859375 9.5 19.515625 10.59375 27.484375 
C 10.796875 29.078125 11.09375 30.671875 11.59375 32.171875 
C 13.796875 38.640625 19.296875 43.71875 28.296875 42.71875 
C 33.09375 42.328125 35.5 41.53125 39.296875 39.4375 
C 40 39.03125 40.59375 38.546875 41.40625 38.34375 
C 41.5 39.53125 41.796875 40.828125 42 42.03125 
C 42.296875 43.625 42.296875 43.8125 40.796875 44.515625 
C 39.703125 45.015625 38.59375 45.609375 37.40625 46.015625 
C 32.796875 48 25.203125 48.59375 20 47.109375 
C 12.90625 45.109375 7.59375 39.03125 5.296875 32.265625 
C 4.203125 29.171875 3.90625 25.890625 3.90625 22.609375 
C 4 12.15625 11.203125 1.890625 21.703125 -0.203125 
C 27.5 -1.390625 34.203125 0.296875 38.203125 2.390625 
C 39.203125 2.890625 42.203125 4.6875 42.703125 5.578125 
C 43 6.078125 42.40625 11.15625 42.40625 11.15625 
z
" id="Computer_Modern_Bright-99"/>
       <path d="M 6.40625 69 
L 6.40625 62.734375 
L 12.703125 62.734375 
L 12.703125 69 
z
M 6.40625 47 
L 6.40625 0 
L 12.703125 0 
L 12.703125 47 
z
" id="Computer_Modern_Bright-105"/>
       <path d="M 10.59375 47 
L 2 47 
L 2 42.03125 
L 10.59375 42.03125 
L 10.59375 0 
L 16.90625 0 
L 16.90625 42.03125 
L 30.09375 42.03125 
L 30.09375 47 
L 16.796875 47 
L 16.796875 54.90625 
C 16.796875 58.796875 16.40625 60.890625 18.90625 63.09375 
C 21.90625 65.296875 25.703125 65.296875 30.09375 63.40625 
L 30.09375 69.1875 
C 27.703125 69.59375 25.203125 69.984375 22.703125 69.78125 
C 20 69.59375 17.09375 68.296875 15.5 66.6875 
C 12.796875 64.59375 11 60.5 10.59375 56.703125 
C 10.5 55.40625 10.59375 54.203125 10.59375 52.890625 
z
M 38.09375 69.28125 
L 38.09375 63 
L 44.40625 63 
L 44.40625 69.28125 
z
M 38.09375 47 
L 38.09375 0 
L 44.40625 0 
L 44.40625 47 
z
" id="Computer_Modern_Bright-12"/>
      </defs>
      <g style="fill:#262626;" transform="translate(44.860272 34.921584)scale(0.16 -0.16)">
       <use transform="scale(0.996264)" xlink:href="#Computer_Modern_Bright_Slanted-100"/>
       <use transform="translate(48.152497 0)scale(0.996264)" xlink:href="#Computer_Modern_Bright_Slanted-112"/>
       <use transform="translate(93.399264 0)scale(0.996264)" xlink:href="#Computer_Modern_Bright_Slanted-121"/>
       <use transform="translate(135.740302 0)scale(0.996264)" xlink:href="#Computer_Modern_Bright_Slanted-45"/>
       <use transform="translate(168.948976 0)scale(0.996264)" xlink:href="#Computer_Modern_Bright_Slanted-50"/>
       <use transform="translate(219.592194 0)scale(0.996264)" xlink:href="#Computer_Modern_Bright_Slanted-50"/>
       <use transform="translate(270.235412 0)scale(0.996264)" xlink:href="#Computer_Modern_Bright_Slanted-40"/>
       <use transform="translate(309.25562 0)scale(0.996264)" xlink:href="#Computer_Modern_Bright_Slanted-98"/>
       <use transform="translate(354.502388 0)scale(0.996264)" xlink:href="#Computer_Modern_Bright_Slanted-120"/>
       <use transform="translate(396.843426 0)scale(0.996264)" xlink:href="#Computer_Modern_Bright_Slanted-57"/>
       <use transform="translate(447.486644 0)scale(0.996264)" xlink:href="#Computer_Modern_Bright_Slanted-51"/>
       <use transform="translate(498.129862 0)scale(0.996264)" xlink:href="#Computer_Modern_Bright_Slanted-41"/>
       <use transform="translate(539.832425 0)scale(0.996264)" xlink:href="#Computer_Modern_Bright-45"/>
       <use transform="translate(573.041098 0)scale(0.996264)" xlink:href="#Computer_Modern_Bright-115"/>
       <use transform="translate(611.480128 0)scale(0.996264)" xlink:href="#Computer_Modern_Bright-112"/>
       <use transform="translate(659.632625 0)scale(0.996264)" xlink:href="#Computer_Modern_Bright-101"/>
       <use transform="translate(704.464292 0)scale(0.996264)" xlink:href="#Computer_Modern_Bright-99"/>
       <use transform="translate(749.29596 0)scale(0.996264)" xlink:href="#Computer_Modern_Bright-105"/>
       <use transform="translate(768.390919 0)scale(0.996264)" xlink:href="#Computer_Modern_Bright-12"/>
       <use transform="translate(819.034137 0)scale(0.996264)" xlink:href="#Computer_Modern_Bright-99"/>
      </g>
     </g>
    </g>
    <g id="ytick_2">
     <g id="line2d_8"/>
     <g id="text_9">
      <!-- \emph{dpy-22(bx93)}-associated -->
      <defs>
       <path d="M 7.90625 37.515625 
C 9.59375 38.3125 11 39.515625 12.703125 40.328125 
C 15.40625 41.515625 18.203125 42.3125 21.203125 42.3125 
C 22.59375 42.40625 24.203125 42.609375 25.59375 42.3125 
C 28.09375 41.921875 30.296875 40.46875 31.796875 38.421875 
C 33.296875 36.09375 33.90625 34.046875 33.90625 30.25 
L 33.90625 25.984375 
C 29.09375 25.984375 24.296875 25.59375 19.703125 24.390625 
C 13.90625 23.09375 7.59375 20.203125 5.5 15.03125 
C 3.40625 10.046875 5.59375 3.484375 10.09375 0.484375 
C 12.296875 -1 14.90625 -1 17.5 -0.796875 
C 21.703125 -0.5 25.90625 0.5 29.5 2.671875 
C 31.203125 3.671875 32.90625 4.953125 33.90625 6.640625 
L 34 6.640625 
L 34 -0.296875 
L 40.296875 -0.296875 
L 40.296875 25.71875 
C 40.296875 28.5625 40.59375 31.625 40 34.484375 
C 39.40625 38.4375 36.90625 41.6875 34 43.953125 
C 30.59375 46.5 26.703125 47.40625 21.5 47 
C 16.703125 47 13 45.796875 9.40625 44.109375 
C 8.90625 43.90625 7.90625 43.609375 7.59375 43.015625 
C 7.296875 42.609375 7.5 41.90625 7.5 41.40625 
C 7.703125 40.109375 7.796875 38.8125 7.90625 37.515625 
z
M 33.90625 23 
L 33.90625 15.421875 
C 33.90625 13.140625 34 11.046875 32.703125 9.046875 
C 31.59375 7.46875 30.09375 6.359375 28.5 5.5625 
C 22.796875 2.6875 14.09375 3.578125 11.59375 8.359375 
C 9.59375 11.84375 11.703125 15.921875 14.59375 18.21875 
C 18.90625 21.5 27.296875 23 33.90625 23 
z
" id="Computer_Modern_Bright-97"/>
       <path d="M 10.796875 60.5 
L 10.796875 46.96875 
L 1.09375 46.96875 
L 1.09375 42 
L 10.703125 42 
L 10.703125 15.328125 
C 10.703125 10.9375 10.40625 5.671875 13.296875 1.984375 
C 15 -0.203125 17.296875 -0.796875 20.796875 -0.5 
C 23.703125 -0.5 26.59375 0.109375 29.296875 1.140625 
C 30.203125 1.53125 33.5 2.984375 33.90625 3.6875 
C 34.09375 4.09375 32.796875 8.46875 32.796875 8.46875 
L 30.40625 6.671875 
C 27.296875 4.78125 21.09375 2.796875 18.5 6.375 
C 16.203125 9.484375 16.796875 14.0625 16.796875 17.640625 
L 16.796875 42 
L 32.296875 42 
L 32.296875 46.96875 
L 16.796875 46.96875 
L 16.796875 60.5 
z
" id="Computer_Modern_Bright-116"/>
       <path d="M 35.59375 69.109375 
L 35.59375 41.03125 
C 33.703125 43.125 31.796875 45.109375 29.203125 46.3125 
C 20.296875 50 11.703125 45.21875 7.296875 37.34375 
C 2.203125 27.984375 2.796875 15.625 8.90625 6.859375 
C 13.203125 0.78125 20.296875 -2.203125 27.796875 0.484375 
C 30.703125 1.578125 34.203125 4.46875 35.40625 7.0625 
L 35.5 7.0625 
L 35.5 0 
L 41.90625 0 
L 41.90625 69.109375 
z
M 35.203125 37.140625 
C 35.703125 36.25 35.5 35.046875 35.5 34.0625 
L 35.5 13.546875 
C 35.5 11.25 35.40625 11.046875 34.09375 9.265625 
C 32.296875 6.578125 29.5 4.6875 26.203125 4.375 
C 21.40625 3.984375 16.5 6.28125 13.703125 10.15625 
C 12.09375 12.453125 11.203125 15.234375 10.703125 18.03125 
C 10.5 19.125 10.5 20.109375 10.40625 21.21875 
C 9.796875 27.78125 11.203125 35.546875 17 39.734375 
C 18 40.4375 19.09375 40.9375 20.203125 41.421875 
C 26 43.625 32.40625 43.015625 35.203125 37.140625 
z
" id="Computer_Modern_Bright-100"/>
      </defs>
      <g style="fill:#262626;" transform="translate(24.563217 78.409584)scale(0.16 -0.16)">
       <use transform="scale(0.996264)" xlink:href="#Computer_Modern_Bright_Slanted-100"/>
       <use transform="translate(48.152497 0)scale(0.996264)" xlink:href="#Computer_Modern_Bright_Slanted-112"/>
       <use transform="translate(93.399264 0)scale(0.996264)" xlink:href="#Computer_Modern_Bright_Slanted-121"/>
       <use transform="translate(135.740302 0)scale(0.996264)" xlink:href="#Computer_Modern_Bright_Slanted-45"/>
       <use transform="translate(168.948976 0)scale(0.996264)" xlink:href="#Computer_Modern_Bright_Slanted-50"/>
       <use transform="translate(219.592194 0)scale(0.996264)" xlink:href="#Computer_Modern_Bright_Slanted-50"/>
       <use transform="translate(270.235412 0)scale(0.996264)" xlink:href="#Computer_Modern_Bright_Slanted-40"/>
       <use transform="translate(309.25562 0)scale(0.996264)" xlink:href="#Computer_Modern_Bright_Slanted-98"/>
       <use transform="translate(354.502388 0)scale(0.996264)" xlink:href="#Computer_Modern_Bright_Slanted-120"/>
       <use transform="translate(396.843426 0)scale(0.996264)" xlink:href="#Computer_Modern_Bright_Slanted-57"/>
       <use transform="translate(447.486644 0)scale(0.996264)" xlink:href="#Computer_Modern_Bright_Slanted-51"/>
       <use transform="translate(498.129862 0)scale(0.996264)" xlink:href="#Computer_Modern_Bright_Slanted-41"/>
       <use transform="translate(539.832425 0)scale(0.996264)" xlink:href="#Computer_Modern_Bright-45"/>
       <use transform="translate(573.041098 0)scale(0.996264)" xlink:href="#Computer_Modern_Bright-97"/>
       <use transform="translate(619.533181 0)scale(0.996264)" xlink:href="#Computer_Modern_Bright-115"/>
       <use transform="translate(657.97221 0)scale(0.996264)" xlink:href="#Computer_Modern_Bright-115"/>
       <use transform="translate(696.411239 0)scale(0.996264)" xlink:href="#Computer_Modern_Bright-111"/>
       <use transform="translate(747.054457 0)scale(0.996264)" xlink:href="#Computer_Modern_Bright-99"/>
       <use transform="translate(791.886125 0)scale(0.996264)" xlink:href="#Computer_Modern_Bright-105"/>
       <use transform="translate(810.981084 0)scale(0.996264)" xlink:href="#Computer_Modern_Bright-97"/>
       <use transform="translate(857.473166 0)scale(0.996264)" xlink:href="#Computer_Modern_Bright-116"/>
       <use transform="translate(893.587554 0)scale(0.996264)" xlink:href="#Computer_Modern_Bright-101"/>
       <use transform="translate(938.419221 0)scale(0.996264)" xlink:href="#Computer_Modern_Bright-100"/>
      </g>
     </g>
    </g>
    <g id="ytick_3">
     <g id="line2d_9"/>
     <g id="text_10">
      <!-- \emph{dpy-22(sy622)}-specific -->
      <defs>
       <path d="M 5.203125 9.59375 
L 3 3.734375 
C 8 0.515625 13.90625 -1 19.90625 -1 
C 29.90625 -1 37.296875 3.640625 39.59375 11.6875 
C 41 16.21875 39.703125 19.84375 37.40625 22.671875 
C 34.09375 26.296875 29.203125 26.78125 24.796875 27.796875 
C 21.90625 28.40625 18.59375 28.90625 16.796875 31.625 
C 14.703125 34.75 16.90625 38.875 19.59375 40.78125 
C 22.09375 42.609375 26.203125 43.3125 30.09375 43 
C 35.703125 43 38.296875 41.65625 42.59375 39.265625 
L 44.703125 44.875 
C 39.5 47.5 33.5 48.5 27.703125 48 
C 22.40625 48 18.203125 46.5 14.796875 43.453125 
C 11.40625 40.3125 9 35.03125 10.203125 30.375 
C 10.59375 28.34375 11.5 27.34375 12.703125 25.90625 
C 16.09375 22.46875 20.90625 21.96875 25.296875 20.953125 
C 28.203125 20.359375 31.5 19.640625 33.203125 16.90625 
C 35.203125 13.765625 33.5 9.71875 31 7.375 
C 28.09375 4.953125 23.796875 3.9375 18.90625 4.34375 
C 14.296875 4.34375 10.40625 5.828125 7.203125 8.125 
C 6.5 8.53125 5.90625 9.171875 5.203125 9.59375 
z
" id="Computer_Modern_Bright_Slanted-115"/>
       <path d="M 18.296875 32.59375 
L 18.203125 32.59375 
C 20.90625 46.921875 28.5 60.28125 43.203125 62 
C 48.203125 62 51.296875 61.0625 55.5 59.78125 
L 56.59375 64.921875 
C 53.5 66.15625 50.296875 67.03125 47 67.03125 
C 40.296875 67.03125 34.5 64.453125 30.40625 61.75 
C 19.90625 54.765625 13.09375 43.171875 10.703125 28.34375 
C 9 18.359375 9.40625 7.671875 15.203125 2.125 
C 21.59375 -3.71875 31.5 -2.109375 38.09375 2.53125 
C 42.203125 5.5625 46 9.390625 48.296875 14.03125 
C 51.203125 19.78125 53.203125 29.453125 50.09375 36.515625 
C 49.09375 38.9375 47.703125 41.5625 45.40625 43.0625 
C 42.90625 44.6875 39.703125 44.6875 36.796875 44.390625 
C 31.09375 43.78125 25.703125 40.75 21.703125 36.71875 
C 20.5 35.515625 19.203125 34.109375 18.296875 32.59375 
z
M 34.5 39.640625 
C 38.40625 39.640625 41.703125 38.625 43.296875 35.921875 
C 46 32 45.40625 27.390625 44.5 23.078125 
C 43.796875 19.5625 43.09375 16.046875 41.40625 12.9375 
C 38.59375 7.828125 33.40625 3.5 25.703125 3.5 
C 22.90625 3.5 19.796875 5.125 18.5 6.78125 
C 16.296875 9.421875 15.796875 13.21875 15.796875 16.59375 
C 15.796875 17.09375 15.90625 17.703125 15.90625 18.1875 
C 15.90625 20.703125 16.296875 23.203125 17.09375 25.609375 
C 19.59375 32.9375 26.40625 39.640625 34.5 39.640625 
z
M 18.09375 32.96875 
C 18.09375 32.96875 18.203125 32.96875 18.203125 32.96875 
C 18.203125 32.875 18.09375 32.765625 18.09375 32.96875 
z
" id="Computer_Modern_Bright_Slanted-54"/>
      </defs>
      <g style="fill:#262626;" transform="translate(37.846626 121.897584)scale(0.16 -0.16)">
       <use transform="scale(0.996264)" xlink:href="#Computer_Modern_Bright_Slanted-100"/>
       <use transform="translate(48.152497 0)scale(0.996264)" xlink:href="#Computer_Modern_Bright_Slanted-112"/>
       <use transform="translate(93.399264 0)scale(0.996264)" xlink:href="#Computer_Modern_Bright_Slanted-121"/>
       <use transform="translate(135.740302 0)scale(0.996264)" xlink:href="#Computer_Modern_Bright_Slanted-45"/>
       <use transform="translate(168.948976 0)scale(0.996264)" xlink:href="#Computer_Modern_Bright_Slanted-50"/>
       <use transform="translate(219.592194 0)scale(0.996264)" xlink:href="#Computer_Modern_Bright_Slanted-50"/>
       <use transform="translate(270.235412 0)scale(0.996264)" xlink:href="#Computer_Modern_Bright_Slanted-40"/>
       <use transform="translate(309.25562 0)scale(0.996264)" xlink:href="#Computer_Modern_Bright_Slanted-115"/>
       <use transform="translate(347.69465 0)scale(0.996264)" xlink:href="#Computer_Modern_Bright_Slanted-121"/>
       <use transform="translate(390.035688 0)scale(0.996264)" xlink:href="#Computer_Modern_Bright_Slanted-54"/>
       <use transform="translate(440.678906 0)scale(0.996264)" xlink:href="#Computer_Modern_Bright_Slanted-50"/>
       <use transform="translate(491.322123 0)scale(0.996264)" xlink:href="#Computer_Modern_Bright_Slanted-50"/>
       <use transform="translate(541.965341 0)scale(0.996264)" xlink:href="#Computer_Modern_Bright_Slanted-41"/>
       <use transform="translate(583.667904 0)scale(0.996264)" xlink:href="#Computer_Modern_Bright-45"/>
       <use transform="translate(616.876578 0)scale(0.996264)" xlink:href="#Computer_Modern_Bright-115"/>
       <use transform="translate(655.315607 0)scale(0.996264)" xlink:href="#Computer_Modern_Bright-112"/>
       <use transform="translate(703.468104 0)scale(0.996264)" xlink:href="#Computer_Modern_Bright-101"/>
       <use transform="translate(748.299772 0)scale(0.996264)" xlink:href="#Computer_Modern_Bright-99"/>
       <use transform="translate(793.131439 0)scale(0.996264)" xlink:href="#Computer_Modern_Bright-105"/>
       <use transform="translate(812.226398 0)scale(0.996264)" xlink:href="#Computer_Modern_Bright-12"/>
       <use transform="translate(862.869616 0)scale(0.996264)" xlink:href="#Computer_Modern_Bright-99"/>
      </g>
     </g>
    </g>
    <g id="ytick_4">
     <g id="line2d_10"/>
     <g id="text_11">
      <!-- \emph{trans}-heterozygote-specific -->
      <defs>
       <path d="M 11.09375 48.046875 
L 10.09375 43 
L 19.703125 43 
C 18.90625 39.78125 18.296875 36.453125 17.59375 33.21875 
L 13.59375 14.46875 
C 13.09375 12.046875 12.703125 9.625 12.703125 7.109375 
C 12.703125 5.390625 13 3.578125 13.90625 2.171875 
C 15.5 -0.046875 18 -0.359375 20.5 -0.046875 
C 25.40625 0.359375 29.5 1.46875 33.40625 3.484375 
C 34.296875 3.984375 35.09375 4.1875 34.796875 5.703125 
C 34.703125 6.8125 34.703125 8.015625 34.59375 9.125 
C 32.90625 8.015625 31.296875 6.90625 29.40625 6.203125 
C 27.59375 5.59375 24.296875 4.390625 22 5.1875 
C 19.5 5.890625 19 8.828125 19.203125 11.140625 
C 19.40625 13.5625 20.09375 15.875 20.59375 18.203125 
L 24.90625 38.96875 
L 25.5 41.59375 
C 25.796875 42.703125 25.703125 43 27.09375 43 
L 41.296875 43 
L 42.296875 48.046875 
L 26.796875 48.046875 
L 29.703125 61.5 
C 27.703125 61.5 25.5 61.5 23.796875 61.1875 
C 22.296875 57.34375 22.203125 52.109375 20.703125 48.25 
L 19.90625 48.046875 
z
" id="Computer_Modern_Bright_Slanted-116"/>
       <path d="M 19.90625 34.53125 
L 19.796875 34.53125 
L 22.40625 47.140625 
L 16.40625 47.140625 
L 6.40625 -0.5 
L 10.90625 -0.5 
C 11.40625 -0.5 12.203125 -0.703125 12.59375 -0.296875 
C 12.90625 -0.09375 13.5 3.4375 13.796875 4.640625 
L 16.703125 18.578125 
C 17.5 22.125 18 25.84375 19.59375 29.171875 
C 23.40625 36.859375 31.90625 42 40.40625 42 
L 41.5 47.75 
C 34.90625 47.75 28.59375 44.421875 24 39.78125 
C 22.5 38.265625 20.90625 36.453125 19.90625 34.53125 
z
M 19.703125 34.890625 
C 19.703125 34.890625 19.796875 34.890625 19.796875 34.890625 
C 19.796875 34.78125 19.703125 34.6875 19.703125 34.890625 
z
" id="Computer_Modern_Bright_Slanted-114"/>
       <path d="M 16 38.8125 
C 17.40625 39.40625 18.703125 40.296875 20.09375 41.015625 
C 23.40625 42.5 26.796875 43.5 30.5 43.796875 
C 32.09375 44 33.90625 44 35.40625 43.59375 
C 39 42.703125 41 39.234375 41.09375 35.65625 
C 41.09375 33.375 40.203125 30.40625 39.796875 28.515625 
C 39.796875 27.703125 39.5 27.015625 38.59375 27.015625 
L 36.90625 27.015625 
C 34.59375 26.71875 32.40625 26.71875 30.09375 26.40625 
C 24.5 25.625 18.59375 24.203125 13.90625 21.015625 
C 11.703125 19.609375 9.59375 17.703125 8.40625 15.40625 
C 5.90625 10.796875 6.203125 3.0625 11.59375 0.53125 
C 14.40625 -0.46875 16.90625 -0.265625 20.59375 0.234375 
C 26.203125 1.25 31.40625 3.46875 35.5 7.5 
L 34 0.5 
L 38.59375 0.5 
C 39.59375 0.5 40.5 0.296875 40.5 1.59375 
C 40.703125 2.296875 47.296875 33.203125 47.5 34.8125 
C 47.796875 38.40625 46.703125 42.140625 44.203125 44.859375 
C 41.90625 47.171875 38.796875 48.390625 35.59375 48.6875 
C 31.5 48.984375 25.59375 47.78125 22.90625 46.96875 
C 21.703125 46.578125 17.59375 45.15625 16.90625 44.453125 
C 16.5 44.046875 16.296875 40.125 16 38.8125 
z
M 38.90625 24 
C 38.40625 21.375 37.796875 18.84375 37.296875 16.234375 
C 36.796875 14.109375 36.40625 12.09375 35.09375 10.375 
C 31.703125 6.046875 25.59375 4.234375 20.296875 4.828125 
C 17.796875 5.140625 14.90625 6.140625 13.703125 8.5625 
C 11.90625 12.09375 14.703125 16.03125 17.296875 18.140625 
C 22.203125 22.171875 30.90625 24 38.90625 24 
z
" id="Computer_Modern_Bright_Slanted-97"/>
       <path d="M 20.5 37.515625 
L 20.40625 37.515625 
C 21.09375 40.84375 21.90625 44.171875 22.5 47.59375 
L 16.40625 47.59375 
L 6.40625 0 
L 10.90625 0 
C 11.796875 0 13 -0.296875 13 1.015625 
C 13.203125 1.71875 13.296875 2.3125 13.40625 3.03125 
C 14.40625 7.765625 19 29.4375 19.296875 30.359375 
C 20.40625 33.875 22.40625 37.3125 25.09375 39.828125 
C 28 42.34375 31.203125 43.765625 36.59375 42.859375 
C 38.796875 42.453125 40.90625 41.546875 42 39.421875 
C 43.5 36.40625 42.40625 32.875 41.796875 29.84375 
L 35.5 0 
L 40.203125 0 
C 41.203125 0 42.09375 -0.203125 42.09375 1.109375 
C 42.703125 3.125 44.09375 10.609375 44.09375 10.609375 
L 48.59375 31.640625 
C 49.296875 35.46875 50.296875 39.921875 48.40625 43.546875 
C 46.59375 46.890625 43 47.90625 39.59375 48.203125 
C 38.09375 48.203125 36.5 48.203125 35 47.953125 
C 30.796875 47.296875 27 44.96875 24 41.953125 
C 22.703125 40.640625 21.40625 39.21875 20.5 37.515625 
z
" id="Computer_Modern_Bright_Slanted-110"/>
       <path d="M 6.40625 69.109375 
L 6.40625 0 
L 12.796875 0 
L 12.796875 22.015625 
C 12.796875 26.9375 12.5 31.96875 14.703125 36.578125 
C 15.796875 38.90625 17.5 40.90625 19.796875 42.109375 
C 21.703125 43.015625 23.703125 43.015625 25.796875 42.8125 
C 28.796875 42.8125 31.703125 42 33.59375 39.484375 
C 35.40625 37.171875 35.5 34.15625 35.5 31.328125 
L 35.5 0 
L 41.90625 0 
L 41.90625 27.203125 
C 41.90625 32.234375 42.40625 37.75 39.90625 42.265625 
C 37.90625 45.6875 34.40625 47.296875 30.703125 47.796875 
C 28.703125 48 26.703125 48 24.703125 47.703125 
C 21.09375 47 18 45.03125 15.59375 42.359375 
C 14.5 41.0625 13.203125 39.484375 12.796875 37.78125 
L 12.703125 37.78125 
L 12.703125 69.109375 
z
" id="Computer_Modern_Bright-104"/>
       <path d="M 12.5 34.515625 
L 12.40625 34.515625 
L 12.40625 47 
L 6.40625 47 
L 6.40625 0 
L 12.703125 0 
L 12.703125 22.75 
C 12.703125 24.25 12.703125 25.734375 12.90625 27.234375 
C 14.296875 35.71875 21.703125 42 31.40625 42 
L 31.40625 47.6875 
C 25 47.6875 19.09375 44.59375 15.296875 39.5 
C 14.203125 38 13 36.3125 12.5 34.515625 
z
" id="Computer_Modern_Bright-114"/>
       <path d="M 3.59375 47 
L 3.59375 42.125 
L 32.40625 42.125 
L 10.09375 13.546875 
C 7.5 10.0625 4.59375 6.96875 2.203125 3.28125 
C 2.09375 2.296875 2.09375 1.09375 2.09375 0 
L 41.40625 0 
L 41.40625 4.984375 
L 10.796875 4.984375 
L 33.296875 33.65625 
C 35.796875 37.046875 38.5 40.234375 41 43.71875 
C 41.09375 44.71875 41.09375 45.90625 41.09375 47 
z
" id="Computer_Modern_Bright-122"/>
       <path d="M 0.703125 47.125 
C 1.296875 45.234375 5.40625 35.171875 5.5 34.875 
L 17.40625 4.40625 
L 18.40625 1.921875 
C 19 0.515625 19.203125 0.328125 18.59375 -1.265625 
L 17.5 -4.15625 
C 16.59375 -6.546875 15.59375 -9.03125 13.703125 -10.53125 
C 10.296875 -13.3125 4.90625 -11.71875 0.796875 -10.828125 
L 1.296875 -16.5 
C 3.203125 -16.796875 5.09375 -17 7 -17 
C 11.296875 -17.5 14.09375 -16.5 16.703125 -14.3125 
C 20 -11.546875 21.59375 -7.65625 23.09375 -3.6875 
L 26.203125 4.859375 
L 36.40625 32.390625 
C 38.09375 37.359375 40.203125 42.046875 41.796875 47 
L 37.296875 47 
C 36.796875 47 36 47.203125 35.59375 46.8125 
C 35.40625 46.5 35.296875 46.109375 35.203125 45.8125 
L 34.40625 43.734375 
C 33.40625 41.140625 32.5 38.671875 31.59375 36.078125 
L 25.796875 19.890625 
C 24.296875 15.53125 22.59375 11.0625 21.796875 6.5 
C 20.703125 11.078125 19.203125 15.46875 17.59375 19.84375 
C 16.296875 23.234375 8.5 44.046875 7.5 46.03125 
C 7.09375 47.125 6.703125 47.125 5.203125 47.125 
z
" id="Computer_Modern_Bright-121"/>
      </defs>
      <g style="fill:#262626;" transform="translate(7.2 164.942802)scale(0.16 -0.16)">
       <use transform="scale(0.996264)" xlink:href="#Computer_Modern_Bright_Slanted-116"/>
       <use transform="translate(36.114388 0)scale(0.996264)" xlink:href="#Computer_Modern_Bright_Slanted-114"/>
       <use transform="translate(68.077747 0)scale(0.996264)" xlink:href="#Computer_Modern_Bright_Slanted-97"/>
       <use transform="translate(114.569829 0)scale(0.996264)" xlink:href="#Computer_Modern_Bright_Slanted-110"/>
       <use transform="translate(162.722326 0)scale(0.996264)" xlink:href="#Computer_Modern_Bright_Slanted-115"/>
       <use transform="translate(209.417717 0)scale(0.996264)" xlink:href="#Computer_Modern_Bright-45"/>
       <use transform="translate(242.626391 0)scale(0.996264)" xlink:href="#Computer_Modern_Bright-104"/>
       <use transform="translate(290.778888 0)scale(0.996264)" xlink:href="#Computer_Modern_Bright-101"/>
       <use transform="translate(335.610555 0)scale(0.996264)" xlink:href="#Computer_Modern_Bright-116"/>
       <use transform="translate(371.724943 0)scale(0.996264)" xlink:href="#Computer_Modern_Bright-101"/>
       <use transform="translate(416.556611 0)scale(0.996264)" xlink:href="#Computer_Modern_Bright-114"/>
       <use transform="translate(448.51997 0)scale(0.996264)" xlink:href="#Computer_Modern_Bright-111"/>
       <use transform="translate(499.163187 0)scale(0.996264)" xlink:href="#Computer_Modern_Bright-122"/>
       <use transform="translate(541.919341 0)scale(0.996264)" xlink:href="#Computer_Modern_Bright-121"/>
       <use transform="translate(584.260379 0)scale(0.996264)" xlink:href="#Computer_Modern_Bright-103"/>
       <use transform="translate(632.412876 0)scale(0.996264)" xlink:href="#Computer_Modern_Bright-111"/>
       <use transform="translate(683.056093 0)scale(0.996264)" xlink:href="#Computer_Modern_Bright-116"/>
       <use transform="translate(719.170481 0)scale(0.996264)" xlink:href="#Computer_Modern_Bright-101"/>
       <use transform="translate(764.002149 0)scale(0.996264)" xlink:href="#Computer_Modern_Bright-45"/>
       <use transform="translate(797.210823 0)scale(0.996264)" xlink:href="#Computer_Modern_Bright-115"/>
       <use transform="translate(835.649852 0)scale(0.996264)" xlink:href="#Computer_Modern_Bright-112"/>
       <use transform="translate(883.802349 0)scale(0.996264)" xlink:href="#Computer_Modern_Bright-101"/>
       <use transform="translate(928.634016 0)scale(0.996264)" xlink:href="#Computer_Modern_Bright-99"/>
       <use transform="translate(973.465684 0)scale(0.996264)" xlink:href="#Computer_Modern_Bright-105"/>
       <use transform="translate(992.560643 0)scale(0.996264)" xlink:href="#Computer_Modern_Bright-12"/>
       <use transform="translate(1043.203861 0)scale(0.996264)" xlink:href="#Computer_Modern_Bright-99"/>
      </g>
     </g>
    </g>
    <g id="ytick_5">
     <g id="line2d_11"/>
     <g id="text_12">
      <!-- \emph{dpy-22(sy622)}-associated -->
      <g style="fill:#262626;" transform="translate(17.549571 208.873584)scale(0.16 -0.16)">
       <use transform="scale(0.996264)" xlink:href="#Computer_Modern_Bright_Slanted-100"/>
       <use transform="translate(48.152497 0)scale(0.996264)" xlink:href="#Computer_Modern_Bright_Slanted-112"/>
       <use transform="translate(93.399264 0)scale(0.996264)" xlink:href="#Computer_Modern_Bright_Slanted-121"/>
       <use transform="translate(135.740302 0)scale(0.996264)" xlink:href="#Computer_Modern_Bright_Slanted-45"/>
       <use transform="translate(168.948976 0)scale(0.996264)" xlink:href="#Computer_Modern_Bright_Slanted-50"/>
       <use transform="translate(219.592194 0)scale(0.996264)" xlink:href="#Computer_Modern_Bright_Slanted-50"/>
       <use transform="translate(270.235412 0)scale(0.996264)" xlink:href="#Computer_Modern_Bright_Slanted-40"/>
       <use transform="translate(309.25562 0)scale(0.996264)" xlink:href="#Computer_Modern_Bright_Slanted-115"/>
       <use transform="translate(347.69465 0)scale(0.996264)" xlink:href="#Computer_Modern_Bright_Slanted-121"/>
       <use transform="translate(390.035688 0)scale(0.996264)" xlink:href="#Computer_Modern_Bright_Slanted-54"/>
       <use transform="translate(440.678906 0)scale(0.996264)" xlink:href="#Computer_Modern_Bright_Slanted-50"/>
       <use transform="translate(491.322123 0)scale(0.996264)" xlink:href="#Computer_Modern_Bright_Slanted-50"/>
       <use transform="translate(541.965341 0)scale(0.996264)" xlink:href="#Computer_Modern_Bright_Slanted-41"/>
       <use transform="translate(583.667904 0)scale(0.996264)" xlink:href="#Computer_Modern_Bright-45"/>
       <use transform="translate(616.876578 0)scale(0.996264)" xlink:href="#Computer_Modern_Bright-97"/>
       <use transform="translate(663.36866 0)scale(0.996264)" xlink:href="#Computer_Modern_Bright-115"/>
       <use transform="translate(701.80769 0)scale(0.996264)" xlink:href="#Computer_Modern_Bright-115"/>
       <use transform="translate(740.246719 0)scale(0.996264)" xlink:href="#Computer_Modern_Bright-111"/>
       <use transform="translate(790.889937 0)scale(0.996264)" xlink:href="#Computer_Modern_Bright-99"/>
       <use transform="translate(835.721604 0)scale(0.996264)" xlink:href="#Computer_Modern_Bright-105"/>
       <use transform="translate(854.816563 0)scale(0.996264)" xlink:href="#Computer_Modern_Bright-97"/>
       <use transform="translate(901.308645 0)scale(0.996264)" xlink:href="#Computer_Modern_Bright-116"/>
       <use transform="translate(937.423033 0)scale(0.996264)" xlink:href="#Computer_Modern_Bright-101"/>
       <use transform="translate(982.254701 0)scale(0.996264)" xlink:href="#Computer_Modern_Bright-100"/>
      </g>
     </g>
    </g>
   </g>
   <g id="patch_3">
    <path clip-path="url(#p52b152916f)" d="M 197.649789 11.5488 
L 199.833633 11.5488 
L 199.833633 23.1456 
L 197.649789 23.1456 
z
" style="fill:#3274a1;"/>
   </g>
   <g id="patch_4">
    <path clip-path="url(#p52b152916f)" d="M 197.649789 55.0368 
L 291.081557 55.0368 
L 291.081557 66.6336 
L 197.649789 66.6336 
z
" style="fill:#3274a1;"/>
   </g>
   <g id="patch_5">
    <path clip-path="url(#p52b152916f)" d="M 197.649789 98.5248 
L 334.76634 98.5248 
L 334.76634 110.1216 
L 197.649789 110.1216 
z
" style="fill:#3274a1;"/>
   </g>
   <g id="patch_6">
    <path clip-path="url(#p52b152916f)" d="M 197.649789 142.0128 
L 397.485983 142.0128 
L 397.485983 153.6096 
L 197.649789 153.6096 
z
" style="fill:#3274a1;"/>
   </g>
   <g id="patch_7">
    <path clip-path="url(#p52b152916f)" d="M 197.649789 185.5008 
L 465.961217 185.5008 
L 465.961217 197.0976 
L 197.649789 197.0976 
z
" style="fill:#3274a1;"/>
   </g>
   <g id="patch_8">
    <path clip-path="url(#p52b152916f)" d="M 197.649789 23.1456 
L 202.656725 23.1456 
L 202.656725 34.7424 
L 197.649789 34.7424 
z
" style="fill:#e1812c;"/>
   </g>
   <g id="patch_9">
    <path clip-path="url(#p52b152916f)" d="M 197.649789 66.6336 
L 274.091051 66.6336 
L 274.091051 78.2304 
L 197.649789 78.2304 
z
" style="fill:#e1812c;"/>
   </g>
   <g id="patch_10">
    <path clip-path="url(#p52b152916f)" d="M 197.649789 110.1216 
L 198.041331 110.1216 
L 198.041331 121.7184 
L 197.649789 121.7184 
z
" style="fill:#e1812c;"/>
   </g>
   <g id="patch_11">
    <path clip-path="url(#p52b152916f)" d="M 197.649789 153.6096 
L 516.506932 153.6096 
L 516.506932 165.2064 
L 197.649789 165.2064 
z
" style="fill:#e1812c;"/>
   </g>
   <g id="patch_12">
    <path clip-path="url(#p52b152916f)" d="M 197.649789 197.0976 
L 323.44434 197.0976 
L 323.44434 208.6944 
L 197.649789 208.6944 
z
" style="fill:#e1812c;"/>
   </g>
   <g id="patch_13">
    <path clip-path="url(#p52b152916f)" d="M 197.649789 34.7424 
L 204.551268 34.7424 
L 204.551268 46.3392 
L 197.649789 46.3392 
z
" style="fill:#3a923a;"/>
   </g>
   <g id="patch_14">
    <path clip-path="url(#p52b152916f)" d="M 197.649789 78.2304 
L 265.285157 78.2304 
L 265.285157 89.8272 
L 197.649789 89.8272 
z
" style="fill:#3a923a;"/>
   </g>
   <g id="patch_15">
    <path clip-path="url(#p52b152916f)" d="M 197.649789 121.7184 
L 242.221265 121.7184 
L 242.221265 133.3152 
L 197.649789 133.3152 
z
" style="fill:#3a923a;"/>
   </g>
   <g id="patch_16">
    <path clip-path="url(#p52b152916f)" d="M 197.649789 165.2064 
L 218.703899 165.2064 
L 218.703899 176.8032 
L 197.649789 176.8032 
z
" style="fill:#3a923a;"/>
   </g>
   <g id="patch_17">
    <path clip-path="url(#p52b152916f)" d="M 197.649789 208.6944 
L 294.045845 208.6944 
L 294.045845 220.2912 
L 197.649789 220.2912 
z
" style="fill:#3a923a;"/>
   </g>
   <g id="line2d_12">
    <path clip-path="url(#p52b152916f)" style="fill:none;stroke:#424242;stroke-linecap:round;stroke-width:3.6;"/>
   </g>
   <g id="line2d_13">
    <path clip-path="url(#p52b152916f)" style="fill:none;stroke:#424242;stroke-linecap:round;stroke-width:3.6;"/>
   </g>
   <g id="line2d_14">
    <path clip-path="url(#p52b152916f)" style="fill:none;stroke:#424242;stroke-linecap:round;stroke-width:3.6;"/>
   </g>
   <g id="line2d_15">
    <path clip-path="url(#p52b152916f)" style="fill:none;stroke:#424242;stroke-linecap:round;stroke-width:3.6;"/>
   </g>
   <g id="line2d_16">
    <path clip-path="url(#p52b152916f)" style="fill:none;stroke:#424242;stroke-linecap:round;stroke-width:3.6;"/>
   </g>
   <g id="line2d_17">
    <path clip-path="url(#p52b152916f)" style="fill:none;stroke:#424242;stroke-linecap:round;stroke-width:3.6;"/>
   </g>
   <g id="line2d_18">
    <path clip-path="url(#p52b152916f)" style="fill:none;stroke:#424242;stroke-linecap:round;stroke-width:3.6;"/>
   </g>
   <g id="line2d_19">
    <path clip-path="url(#p52b152916f)" style="fill:none;stroke:#424242;stroke-linecap:round;stroke-width:3.6;"/>
   </g>
   <g id="line2d_20">
    <path clip-path="url(#p52b152916f)" style="fill:none;stroke:#424242;stroke-linecap:round;stroke-width:3.6;"/>
   </g>
   <g id="line2d_21">
    <path clip-path="url(#p52b152916f)" style="fill:none;stroke:#424242;stroke-linecap:round;stroke-width:3.6;"/>
   </g>
   <g id="line2d_22">
    <path clip-path="url(#p52b152916f)" style="fill:none;stroke:#424242;stroke-linecap:round;stroke-width:3.6;"/>
   </g>
   <g id="line2d_23">
    <path clip-path="url(#p52b152916f)" style="fill:none;stroke:#424242;stroke-linecap:round;stroke-width:3.6;"/>
   </g>
   <g id="line2d_24">
    <path clip-path="url(#p52b152916f)" style="fill:none;stroke:#424242;stroke-linecap:round;stroke-width:3.6;"/>
   </g>
   <g id="line2d_25">
    <path clip-path="url(#p52b152916f)" style="fill:none;stroke:#424242;stroke-linecap:round;stroke-width:3.6;"/>
   </g>
   <g id="line2d_26">
    <path clip-path="url(#p52b152916f)" style="fill:none;stroke:#424242;stroke-linecap:round;stroke-width:3.6;"/>
   </g>
   <g id="line2d_27">
    <path clip-path="url(#p52b152916f)" d="M 223.663474 224.64 
L 223.663474 7.2 
" style="fill:none;stroke:#000000;stroke-dasharray:7.4,3.2;stroke-dashoffset:0;stroke-width:2;"/>
   </g>
   <g id="patch_18">
    <path d="M 197.649789 224.64 
L 197.649789 7.2 
" style="fill:none;"/>
   </g>
   <g id="patch_19">
    <path d="M 532.449789 224.64 
L 532.449789 7.2 
" style="fill:none;"/>
   </g>
   <g id="patch_20">
    <path d="M 197.649789 224.64 
L 532.449789 224.64 
" style="fill:none;"/>
   </g>
   <g id="patch_21">
    <path d="M 197.649789 7.2 
L 532.449789 7.2 
" style="fill:none;"/>
   </g>
   <g id="legend_1">
    <g id="text_13">
     <!-- Genotype -->
     <defs>
      <path d="M 62.09375 32.28125 
L 40 32.28125 
L 40 27 
L 55.703125 27 
L 55.703125 8.59375 
C 55.703125 8.109375 55.796875 7.40625 55.5 7 
C 55.203125 6.40625 53.90625 6.203125 53.296875 6.015625 
C 48.703125 4.71875 41.90625 3.421875 36.5 4.421875 
C 29.203125 5.609375 23 10.390625 19.203125 16.65625 
C 11.59375 28.984375 13 46.28125 23.40625 56.625 
C 26.5 59.703125 30.296875 62.09375 35 63.1875 
C 41.5 64.78125 49.09375 63.1875 53.90625 60.90625 
C 56.09375 59.90625 58 58.515625 60 57.21875 
L 61.203125 64.15625 
C 58.5 65.359375 55.90625 66.53125 53 67.4375 
C 48.59375 68.609375 44.09375 69 39.59375 69 
C 27.703125 69 18.5 61.6875 13.59375 54.640625 
C 6.296875 43.75 5.40625 29.09375 11.296875 17.40625 
C 14.59375 10.578125 20 5.515625 26.796875 2.0625 
C 35.203125 -2 45.09375 -2 53.90625 0.515625 
C 55.09375 0.828125 61.703125 2.90625 62 3.859375 
C 62.09375 4.171875 62.09375 4.578125 62.09375 4.90625 
z
" id="Computer_Modern_Bright-71"/>
      <path d="M 12.59375 37.296875 
L 12.5 37.296875 
L 12.5 47 
L 6.40625 47 
L 6.40625 0 
L 12.796875 0 
L 12.796875 21.953125 
C 12.796875 26.859375 12.5 31.875 14.703125 36.484375 
C 15.796875 38.796875 17.5 40.796875 19.796875 42.015625 
C 21.703125 42.90625 23.703125 42.90625 25.796875 42.71875 
C 28.796875 42.71875 31.703125 41.921875 33.59375 39.390625 
C 35.40625 37.09375 35.5 34.078125 35.5 31.25 
L 35.5 0 
L 41.90625 0 
L 41.90625 26.859375 
C 41.90625 31.875 42.40625 37.375 40 41.890625 
C 38.09375 45.5 34.40625 47.203125 30.5 47.703125 
C 28.5 48 26.40625 48 24.40625 47.59375 
C 19.203125 46.5 14.40625 42.296875 12.59375 37.296875 
z
" id="Computer_Modern_Bright-110"/>
     </defs>
     <g style="fill:#262626;" transform="translate(427.195245 30.869603)scale(0.16 -0.16)">
      <use transform="scale(0.996264)" xlink:href="#Computer_Modern_Bright-71"/>
      <use transform="translate(68.077762 0)scale(0.996264)" xlink:href="#Computer_Modern_Bright-101"/>
      <use transform="translate(112.90943 0)scale(0.996264)" xlink:href="#Computer_Modern_Bright-110"/>
      <use transform="translate(161.061927 0)scale(0.996264)" xlink:href="#Computer_Modern_Bright-111"/>
      <use transform="translate(211.705144 0)scale(0.996264)" xlink:href="#Computer_Modern_Bright-116"/>
      <use transform="translate(244.913803 0)scale(0.996264)" xlink:href="#Computer_Modern_Bright-121"/>
      <use transform="translate(287.254841 0)scale(0.996264)" xlink:href="#Computer_Modern_Bright-112"/>
      <use transform="translate(335.407338 0)scale(0.996264)" xlink:href="#Computer_Modern_Bright-101"/>
     </g>
    </g>
    <g id="patch_22">
     <path d="M 398.30105 50.987085 
L 426.30105 50.987085 
L 426.30105 41.187085 
L 398.30105 41.187085 
z
" style="fill:#3274a1;"/>
    </g>
    <g id="text_14">
     <!-- bar-1(ga80) -->
     <defs>
      <path d="M 6.40625 69.109375 
L 6.40625 0 
L 12.796875 0 
L 12.796875 6.28125 
L 12.90625 6.28125 
C 14 4.078125 16.5 1.984375 18.59375 0.890625 
C 25.796875 -2.890625 34.40625 0.890625 39.09375 6.96875 
C 48.59375 19.421875 44.796875 40.53125 32.296875 46.40625 
C 27.40625 48.59375 21.5 47.609375 17.09375 44.609375 
C 15.40625 43.421875 14 42.03125 12.703125 40.4375 
L 12.703125 69.109375 
z
M 21.90625 42.625 
C 26.59375 43.015625 31.5 40.9375 34.296875 37.140625 
C 36.203125 34.65625 37.203125 31.671875 37.703125 28.578125 
C 38.703125 21.3125 37.90625 12.15625 31.40625 7.375 
C 30.296875 6.578125 29.09375 5.96875 27.796875 5.484375 
C 22.40625 3.484375 17 4.078125 14 8.765625 
C 13.09375 10.359375 12.796875 10.453125 12.796875 12.84375 
L 12.796875 33.46875 
C 12.796875 34.453125 12.59375 35.65625 13 36.546875 
C 14.59375 39.828125 18.296875 42.328125 21.90625 42.625 
z
" id="Computer_Modern_Bright-98"/>
      <path d="M 34.203125 -22 
C 33.40625 -21.109375 32.40625 -20.3125 31.5 -19.515625 
C 30.703125 -18.8125 30 -18.015625 29.296875 -17.21875 
C 19.296875 -6.265625 14.09375 11.265625 14.90625 29.890625 
C 15.296875 40.046875 17.296875 50.40625 22.09375 59.5625 
C 24.296875 63.640625 28.09375 69.421875 31.5 72.3125 
C 32.40625 73.109375 33.40625 73.90625 34.203125 74.796875 
L 30.90625 74.796875 
C 30.40625 74.796875 29.703125 74.90625 29.203125 74.703125 
C 28 74.109375 25 71.109375 24.59375 70.71875 
C 15 61.15625 9.296875 46.71875 8.5 29.890625 
C 8 17.828125 10 5.59375 15.40625 -5.171875 
C 17.796875 -9.953125 21 -14.328125 24.796875 -18.109375 
C 25.796875 -19.109375 28 -21.296875 29.203125 -21.90625 
C 29.703125 -22.09375 30.40625 -22 30.90625 -22 
z
" id="Computer_Modern_Bright-40"/>
      <path d="M 18.703125 35.515625 
L 18.703125 35.40625 
C 12.5 33.625 7.296875 30.25 4.796875 24.5 
C 2.203125 18.4375 4 11.109375 8.40625 6.34375 
C 13.09375 1.375 19.5 -1 26.296875 -1 
C 36.296875 -1 45.90625 6.3125 47.09375 16.515625 
C 47.296875 18 47.203125 19.609375 47 21.109375 
C 45.203125 28.8125 39.5 33.40625 32.09375 35.40625 
C 32.90625 35.703125 33.796875 35.90625 34.59375 36.203125 
C 38.796875 37.90625 42.296875 40.390625 44.5 44.375 
C 47.796875 50.75 44.59375 58.21875 39.203125 62.296875 
C 33.796875 66.375 26.5 67.484375 19.90625 66.078125 
C 12 64.390625 4.5 57.71875 5 49.15625 
C 5.203125 46.171875 6.5 43.671875 8 41.890625 
C 10.296875 39.09375 14.796875 36.109375 18.703125 35.515625 
z
M 23.796875 62 
C 28.203125 62 33.703125 61.5 36.90625 58.109375 
C 40.703125 54.03125 40.90625 46.65625 37.09375 42.484375 
C 34.703125 39.890625 31.203125 38.59375 27.703125 38.296875 
C 22.796875 37.890625 17.203125 38.6875 13.703125 42.484375 
C 9.796875 46.765625 10.09375 54.53125 14.296875 58.515625 
C 16.90625 60.90625 20.40625 61.703125 23.796875 62 
z
M 23.703125 33 
C 28.40625 33 33.5 31.90625 36.90625 28.515625 
C 38.203125 27.140625 39.203125 25.453125 39.796875 23.65625 
C 41.5 18.46875 40.703125 11.921875 36.796875 7.953125 
C 34.09375 5.265625 30.40625 4.265625 26.703125 3.96875 
C 22.203125 3.96875 17 5.0625 13.796875 8.453125 
C 9.40625 13.21875 8.5 23.0625 13.703125 28.609375 
C 16.296875 31.3125 20 32.703125 23.703125 33 
z
" id="Computer_Modern_Bright-56"/>
      <path d="M 5 74.796875 
C 5.796875 73.90625 6.796875 73.109375 7.703125 72.3125 
C 8.5 71.609375 9.203125 70.8125 9.90625 70.015625 
C 18.59375 60.0625 23.59375 46.515625 24.296875 29.890625 
C 24.796875 17.53125 22.90625 4.6875 17.203125 -6.46875 
C 15.296875 -10.34375 12.796875 -14.03125 9.90625 -17.21875 
C 9.203125 -18.015625 8.5 -18.8125 7.703125 -19.515625 
C 6.796875 -20.3125 5.796875 -21.109375 5 -22 
L 8.296875 -22 
C 8.796875 -22 9.5 -22.09375 10 -21.90625 
C 11.203125 -21.296875 14.203125 -18.3125 14.59375 -17.921875 
C 24.203125 -8.359375 29.90625 6.078125 30.703125 22.921875 
C 31.203125 34.96875 29.203125 47.21875 23.796875 57.96875 
C 21.40625 62.75 18.203125 67.125 14.40625 70.921875 
C 13.40625 71.90625 11.203125 74.109375 10 74.703125 
C 9.5 74.90625 8.796875 74.796875 8.296875 74.796875 
z
" id="Computer_Modern_Bright-41"/>
     </defs>
     <g style="fill:#262626;" transform="translate(437.50105 50.987085)scale(0.14 -0.14)">
      <use transform="scale(0.996264)" xlink:href="#Computer_Modern_Bright-98"/>
      <use transform="translate(48.152497 0)scale(0.996264)" xlink:href="#Computer_Modern_Bright-97"/>
      <use transform="translate(91.73885 0)scale(0.996264)" xlink:href="#Computer_Modern_Bright-114"/>
      <use transform="translate(123.702209 0)scale(0.996264)" xlink:href="#Computer_Modern_Bright-45"/>
      <use transform="translate(156.910882 0)scale(0.996264)" xlink:href="#Computer_Modern_Bright-49"/>
      <use transform="translate(207.5541 0)scale(0.996264)" xlink:href="#Computer_Modern_Bright-40"/>
      <use transform="translate(246.574309 0)scale(0.996264)" xlink:href="#Computer_Modern_Bright-103"/>
      <use transform="translate(294.726806 0)scale(0.996264)" xlink:href="#Computer_Modern_Bright-97"/>
      <use transform="translate(341.218888 0)scale(0.996264)" xlink:href="#Computer_Modern_Bright-56"/>
      <use transform="translate(391.862106 0)scale(0.996264)" xlink:href="#Computer_Modern_Bright-48"/>
      <use transform="translate(442.505324 0)scale(0.996264)" xlink:href="#Computer_Modern_Bright-41"/>
     </g>
    </g>
    <g id="patch_23">
     <path d="M 398.30105 71.547348 
L 426.30105 71.547348 
L 426.30105 61.747348 
L 398.30105 61.747348 
z
" style="fill:#e1812c;"/>
    </g>
    <g id="text_15">
     <!-- let-60(n1046) -->
     <defs>
      <path d="M 11.296875 32.25 
L 11.203125 32.25 
C 11.203125 41.3125 12.796875 51.875 20.59375 57.640625 
C 24.90625 60.734375 30.703125 62.328125 38.203125 60.53125 
C 39.796875 60.140625 41.296875 59.546875 42.796875 59.140625 
L 42.796875 62.625 
C 42.796875 63.03125 42.90625 63.71875 42.59375 64.125 
C 41.90625 65.015625 36.296875 65.90625 36.09375 65.90625 
C 27.40625 66.90625 21.703125 65.015625 16.40625 60.53125 
C 10 55.078125 6.296875 47.015625 5.09375 38.875 
C 4 32.296875 4.90625 21.765625 6.203125 16.59375 
C 8.296875 8.9375 12.296875 2.1875 19.703125 -0.40625 
C 24.09375 -2 29.5 -2 33.703125 0.015625 
C 37.09375 1.609375 39.90625 4.40625 42.09375 7.40625 
C 45.59375 12.203125 46.5 18 46.09375 23.90625 
C 45.90625 26.8125 45.5 29.703125 44.296875 32.40625 
C 42.40625 36.703125 39.203125 41.203125 35.09375 43.203125 
C 33.203125 44 31.203125 44 29.203125 44 
C 23.90625 44 18.90625 41.71875 15.203125 37.921875 
C 13.59375 36.328125 12 34.34375 11.296875 32.25 
z
M 24.40625 39.125 
C 28.203125 39.421875 32.203125 38.828125 35.09375 36.140625 
C 38.90625 32.546875 39.59375 27.46875 39.59375 22.578125 
C 39.59375 19.265625 39.703125 15.84375 38.703125 12.71875 
C 38.09375 11.109375 37.296875 9.703125 36.40625 8.390625 
C 34.203125 5.46875 31.40625 4.0625 26.796875 3.46875 
C 22.296875 3.46875 17.796875 5.25 15.203125 9.015625 
C 13.59375 11.203125 12.796875 13.875 12.296875 16.453125 
C 11.703125 19.140625 11.296875 21.90625 11.5 24.578125 
C 12 31.65625 17 38.125 24.40625 39.125 
z
" id="Computer_Modern_Bright-54"/>
      <path d="M 2.09375 18 
L 31 18 
L 31 0 
L 37.296875 0 
L 37.296875 18 
L 48.703125 18 
L 48.703125 23.265625 
L 37.296875 23.265625 
L 37.296875 65.921875 
L 31.90625 65.921875 
C 30.09375 65.921875 29.59375 66.03125 28.796875 64.53125 
C 24.796875 58.0625 3.703125 25.65625 3 24.765625 
C 2.203125 23.375 2.09375 23.46875 2.09375 21.375 
z
M 31.296875 60.515625 
L 31.296875 23.265625 
L 8.59375 23.265625 
C 9.296875 24.671875 10.296875 25.96875 11.203125 27.359375 
C 16.203125 35.015625 28.09375 53.25 30.59375 58.921875 
C 30.90625 59.421875 31 60.015625 31.296875 60.515625 
z
" id="Computer_Modern_Bright-52"/>
     </defs>
     <g style="fill:#262626;" transform="translate(437.50105 71.547348)scale(0.14 -0.14)">
      <use transform="scale(0.996264)" xlink:href="#Computer_Modern_Bright-108"/>
      <use transform="translate(19.094959 0)scale(0.996264)" xlink:href="#Computer_Modern_Bright-101"/>
      <use transform="translate(63.926626 0)scale(0.996264)" xlink:href="#Computer_Modern_Bright-116"/>
      <use transform="translate(100.041014 0)scale(0.996264)" xlink:href="#Computer_Modern_Bright-45"/>
      <use transform="translate(133.249688 0)scale(0.996264)" xlink:href="#Computer_Modern_Bright-54"/>
      <use transform="translate(183.892906 0)scale(0.996264)" xlink:href="#Computer_Modern_Bright-48"/>
      <use transform="translate(234.536124 0)scale(0.996264)" xlink:href="#Computer_Modern_Bright-40"/>
      <use transform="translate(273.556332 0)scale(0.996264)" xlink:href="#Computer_Modern_Bright-110"/>
      <use transform="translate(321.708829 0)scale(0.996264)" xlink:href="#Computer_Modern_Bright-49"/>
      <use transform="translate(372.352047 0)scale(0.996264)" xlink:href="#Computer_Modern_Bright-48"/>
      <use transform="translate(422.995265 0)scale(0.996264)" xlink:href="#Computer_Modern_Bright-52"/>
      <use transform="translate(473.638483 0)scale(0.996264)" xlink:href="#Computer_Modern_Bright-54"/>
      <use transform="translate(524.281701 0)scale(0.996264)" xlink:href="#Computer_Modern_Bright-41"/>
     </g>
    </g>
    <g id="patch_24">
     <path d="M 398.30105 92.107612 
L 426.30105 92.107612 
L 426.30105 82.307612 
L 398.30105 82.307612 
z
" style="fill:#3a923a;"/>
    </g>
    <g id="text_16">
     <!-- let-60(n2021) -->
     <g style="fill:#262626;" transform="translate(437.50105 92.107612)scale(0.14 -0.14)">
      <use transform="scale(0.996264)" xlink:href="#Computer_Modern_Bright-108"/>
      <use transform="translate(19.094959 0)scale(0.996264)" xlink:href="#Computer_Modern_Bright-101"/>
      <use transform="translate(63.926626 0)scale(0.996264)" xlink:href="#Computer_Modern_Bright-116"/>
      <use transform="translate(100.041014 0)scale(0.996264)" xlink:href="#Computer_Modern_Bright-45"/>
      <use transform="translate(133.249688 0)scale(0.996264)" xlink:href="#Computer_Modern_Bright-54"/>
      <use transform="translate(183.892906 0)scale(0.996264)" xlink:href="#Computer_Modern_Bright-48"/>
      <use transform="translate(234.536124 0)scale(0.996264)" xlink:href="#Computer_Modern_Bright-40"/>
      <use transform="translate(273.556332 0)scale(0.996264)" xlink:href="#Computer_Modern_Bright-110"/>
      <use transform="translate(321.708829 0)scale(0.996264)" xlink:href="#Computer_Modern_Bright-50"/>
      <use transform="translate(372.352047 0)scale(0.996264)" xlink:href="#Computer_Modern_Bright-48"/>
      <use transform="translate(422.995265 0)scale(0.996264)" xlink:href="#Computer_Modern_Bright-50"/>
      <use transform="translate(473.638483 0)scale(0.996264)" xlink:href="#Computer_Modern_Bright-49"/>
      <use transform="translate(524.281701 0)scale(0.996264)" xlink:href="#Computer_Modern_Bright-41"/>
     </g>
    </g>
   </g>
  </g>
 </g>
 <defs>
  <clipPath id="p52b152916f">
   <rect height="217.44" width="334.8" x="197.649789" y="7.2"/>
  </clipPath>
 </defs>
</svg>
