<?xml version="1.0" encoding="utf-8" standalone="no"?>
<!DOCTYPE svg PUBLIC "-//W3C//DTD SVG 1.1//EN"
  "http://www.w3.org/Graphics/SVG/1.1/DTD/svg11.dtd">
<!-- Created with matplotlib (http://matplotlib.org/) -->
<svg height="240.959294pt" version="1.1" viewBox="0 0 316.756554 240.959294" width="316.756554pt" xmlns="http://www.w3.org/2000/svg" xmlns:xlink="http://www.w3.org/1999/xlink">
 <defs>
  <style type="text/css">
*{stroke-linecap:butt;stroke-linejoin:round;}
  </style>
 </defs>
 <g id="figure_1">
  <g id="patch_1">
   <path d="M 0 240.959294 
L 316.756554 240.959294 
L 316.756554 0 
L 0 0 
z
" style="fill:#ffffff;"/>
  </g>
  <g id="axes_1">
   <g id="patch_2">
    <path clip-path="url(#pf46154edcb)" d="M 206.044376 64.825716 
C 202.277243 54.769671 196.098798 45.790307 188.053051 38.678255 
C 180.007303 31.566203 170.337536 26.536514 159.895171 24.03205 
C 149.452806 21.527587 138.553592 21.624078 128.157204 24.313027 
C 117.760816 27.001976 108.181613 32.202076 100.263043 39.45546 
C 92.344473 46.708843 86.325972 55.796187 82.737469 65.917352 
C 79.148965 76.038517 78.098966 86.887464 79.679924 97.508948 
C 81.260882 108.130431 85.424992 118.203283 91.805606 126.840592 
C 98.186219 135.4779 106.590403 142.418495 116.278171 147.051259 
C 115.673457 138.066431 116.884403 129.051155 119.83862 120.544369 
C 122.792837 112.037583 127.430259 104.212245 133.473659 97.536159 
C 139.517058 90.860073 146.843562 85.468975 155.015188 81.685149 
C 163.186813 77.901322 172.037416 75.8017 181.037903 75.511797 
C 183.588878 71.36387 187.364787 68.107634 191.84264 66.194102 
C 196.320493 64.280569 201.283544 63.802362 206.044376 64.825716 
" style="fill:#e85050;opacity:0.7;stroke:#e85050;stroke-linejoin:miter;stroke-width:0.3;"/>
   </g>
   <g id="patch_3">
    <path clip-path="url(#pf46154edcb)" d="M 206.044376 64.825716 
C 207.019099 67.427659 207.827592 70.088881 208.464973 72.79331 
C 209.102353 75.497739 209.567335 78.23992 209.857111 81.003291 
C 212.482705 82.140661 215.032826 83.444886 217.491839 84.90797 
C 219.950852 86.371053 222.313719 87.989997 224.565953 89.754876 
C 225.028683 84.061298 223.404176 78.389398 219.997435 73.804087 
C 216.590694 69.218777 211.629162 66.026181 206.044376 64.825716 
" style="fill:#f7e71d;opacity:0.7;stroke:#f7e71d;stroke-linejoin:miter;stroke-width:0.3;"/>
   </g>
   <g id="patch_4">
    <path clip-path="url(#pf46154edcb)" d="M 206.044376 64.825716 
C 201.283544 63.802362 196.320493 64.280569 191.84264 66.194102 
C 187.364787 68.107634 183.588878 71.36387 181.037903 75.511797 
C 185.969802 75.352942 190.904204 75.738841 195.751446 76.662482 
C 200.598687 77.586123 205.329229 79.041877 209.857111 81.003291 
C 209.567335 78.23992 209.102353 75.497739 208.464973 72.79331 
C 207.827592 70.088881 207.019099 67.427659 206.044376 64.825716 
" style="fill:#b25900;opacity:0.4;"/>
   </g>
   <g id="patch_5">
    <path clip-path="url(#pf46154edcb)" d="M 116.278171 147.051259 
C 117.028997 158.207016 120.55763 168.999946 126.541914 178.44468 
C 132.526199 187.889414 140.778301 195.689504 150.544825 201.132819 
C 160.311348 206.576135 171.285743 209.491823 182.466075 209.613688 
C 193.646406 209.735554 204.681749 207.059771 214.564602 201.830634 
C 224.447455 196.601496 232.867618 188.983134 239.056351 179.671085 
C 245.245084 170.359037 249.008136 159.645586 250.00195 148.508845 
C 250.995764 137.372104 249.189146 126.16163 244.747036 115.900913 
C 240.304927 105.640195 233.366753 96.651295 224.565953 89.754876 
C 224.156247 94.79603 222.133059 99.5735 218.797736 103.375699 
C 215.462414 107.177897 210.989204 109.806186 206.044376 110.86909 
C 202.851377 119.392534 197.919781 127.159218 191.563812 133.674276 
C 185.207842 140.189334 177.565423 145.31139 169.123504 148.714084 
C 160.681585 152.116778 151.623354 153.726272 142.525971 153.440015 
C 133.428588 153.153758 124.489464 150.977961 116.278171 147.051259 
" style="fill:#4e66ed;opacity:0.7;stroke:#4e66ed;stroke-linejoin:miter;stroke-width:0.3;"/>
   </g>
   <g id="patch_6">
    <path clip-path="url(#pf46154edcb)" d="M 116.278171 147.051259 
C 124.489464 150.977961 133.428588 153.153758 142.525971 153.440015 
C 151.623354 153.726272 160.681585 152.116778 169.123504 148.714084 
C 177.565423 145.31139 185.207842 140.189334 191.563812 133.674276 
C 197.919781 127.159218 202.851377 119.392534 206.044376 110.86909 
C 201.535333 111.838321 196.839366 111.461808 192.542356 109.786524 
C 188.245345 108.111241 184.533745 105.209881 181.870623 101.444425 
C 179.207502 97.678969 177.708416 93.212807 177.560396 88.603146 
C 177.412375 83.993486 178.621843 79.44035 181.037903 75.511797 
C 172.037416 75.8017 163.186813 77.901322 155.015188 81.685149 
C 146.843562 85.468975 139.517058 90.860073 133.473659 97.536159 
C 127.430259 104.212245 122.792837 112.037583 119.83862 120.544369 
C 116.884403 129.051155 115.673457 138.066431 116.278171 147.051259 
" style="fill:#b200b2;opacity:0.4;"/>
   </g>
   <g id="patch_7">
    <path clip-path="url(#pf46154edcb)" d="M 209.857111 81.003291 
C 210.385737 86.044412 210.328538 91.129847 209.686658 96.157802 
C 209.044778 101.185757 207.822529 106.122459 206.044376 110.86909 
C 210.989204 109.806186 215.462414 107.177897 218.797736 103.375699 
C 222.133059 99.5735 224.156247 94.79603 224.565953 89.754876 
C 222.313719 87.989997 219.950852 86.371053 217.491839 84.90797 
C 215.032826 83.444886 212.482705 82.140661 209.857111 81.003291 
" style="fill:#0059b2;opacity:0.4;"/>
   </g>
   <g id="patch_8">
    <path clip-path="url(#pf46154edcb)" d="M 181.037903 75.511797 
C 178.621843 79.44035 177.412375 83.993486 177.560396 88.603146 
C 177.708416 93.212807 179.207502 97.678969 181.870623 101.444425 
C 184.533745 105.209881 188.245345 108.111241 192.542356 109.786524 
C 196.839366 111.461808 201.535333 111.838321 206.044376 110.86909 
C 207.822529 106.122459 209.044778 101.185757 209.686658 96.157802 
C 210.328538 91.129847 210.385737 86.044412 209.857111 81.003291 
C 205.329229 79.041877 200.598687 77.586123 195.751446 76.662482 
C 190.904204 75.738841 185.969802 75.352942 181.037903 75.511797 
" style="fill:#663366;opacity:0.4;"/>
   </g>
   <g id="text_1">
    <!-- 1213 -->
    <defs>
     <path d="M 9.703125 59.984375 
L 9.703125 55 
C 15.203125 55 19 56 23.40625 57.890625 
L 23.40625 4.984375 
L 10.296875 4.984375 
L 10.296875 0 
L 43 0 
L 43 4.984375 
L 29.90625 4.984375 
L 29.90625 66.5 
C 27.5 66.5 27.90625 65.890625 26 64.515625 
C 21.90625 61.5625 16.203125 59.984375 9.703125 59.984375 
z
" id="Computer_Modern_Bright-49"/>
     <path d="M 7.296875 45.625 
C 8.703125 51.1875 11.09375 57.546875 16.796875 60.046875 
C 19.203125 61.03125 21.796875 61.234375 24.40625 61.03125 
C 29.296875 60.640625 34.09375 58.640625 37.09375 54.65625 
C 39.296875 51.6875 40.09375 48 39.703125 44.4375 
C 38.5 34.09375 28.296875 26.640625 21.703125 21.0625 
C 17.90625 17.890625 7.09375 7.75 7.09375 7.75 
L 5.40625 6.15625 
C 4.5 5.265625 4.40625 5.265625 4.40625 3.484375 
L 4.40625 0 
L 46.40625 0 
L 46.40625 5.578125 
L 10.203125 5.578125 
C 13.40625 8.6875 26.703125 20.359375 28.5 21.75 
C 34.296875 26.453125 40.796875 31.15625 44.296875 37.9375 
C 48.203125 45.71875 46.5 55.515625 39.90625 61.296875 
C 35.90625 64.796875 30.40625 66.5 25.09375 66.5 
C 20.203125 66.5 15.203125 65.5 11.296875 62.421875 
C 8.296875 59.9375 5.796875 56.25 4.40625 52.484375 
C 4.09375 51.890625 3.59375 50.890625 3.703125 50.203125 
C 3.796875 49.59375 4.40625 49.109375 4.703125 48.703125 
C 5.5 47.703125 6.296875 46.515625 7.296875 45.625 
z
" id="Computer_Modern_Bright-50"/>
     <path d="M 8.09375 50.875 
C 8.90625 52.078125 9.5 53.375 10.40625 54.5625 
C 12.5 57.359375 15.40625 59.546875 18.703125 60.84375 
C 23.90625 62.921875 31.5 62.921875 35.59375 58.25 
C 39.203125 54.109375 37.703125 47.609375 34.40625 43.75 
C 31.40625 40.203125 27.5 38.46875 21.703125 38.46875 
C 20 38.46875 18.40625 37.984375 16.703125 37.984375 
L 16.703125 33 
L 23.59375 33 
C 29.40625 33 33.203125 32.109375 36.40625 28.71875 
C 41.90625 22.9375 41.40625 12.6875 35.296875 7.40625 
C 32.203125 4.8125 27.90625 4.015625 23.90625 4.3125 
C 16.09375 4.921875 9.203125 9 4.59375 15.375 
C 4.09375 14.375 4.09375 12.984375 3.90625 11.890625 
C 3.59375 10.296875 3.59375 10.296875 4.59375 9 
C 7.5 5.109375 13.203125 1.53125 17.703125 0.234375 
C 25.703125 -2.15625 35 -1.0625 41.203125 5.015625 
C 42.40625 6.203125 43.5 7.5 44.40625 8.90625 
C 48.09375 14.671875 48.203125 22.25 44.09375 27.8125 
C 42.40625 30.109375 40.203125 31.90625 37.703125 33.296875 
C 36 34.3125 34 35.296875 32 35.5 
C 37.796875 38.203125 43.203125 42.828125 44.203125 50.359375 
C 45.09375 57.375 41 61.6875 36.796875 64.1875 
C 30.296875 68 21.796875 68 15.09375 64.71875 
C 12 63.234375 9.203125 61.03125 7.09375 58.34375 
C 6.703125 57.84375 5.203125 56.15625 5.203125 55.359375 
C 5.203125 54.859375 5.59375 54.359375 5.90625 53.96875 
z
" id="Computer_Modern_Bright-51"/>
    </defs>
    <g style="fill:#262626;" transform="translate(108.148883 62.370312)scale(0.16 -0.16)">
     <use transform="scale(0.996264)" xlink:href="#Computer_Modern_Bright-49"/>
     <use transform="translate(50.643218 0)scale(0.996264)" xlink:href="#Computer_Modern_Bright-50"/>
     <use transform="translate(101.286436 0)scale(0.996264)" xlink:href="#Computer_Modern_Bright-49"/>
     <use transform="translate(151.929653 0)scale(0.996264)" xlink:href="#Computer_Modern_Bright-51"/>
    </g>
   </g>
   <g id="text_2">
    <!-- 37 -->
    <defs>
     <path d="M 3.59375 65.578125 
L 3.59375 60 
L 42.796875 60 
L 39.09375 56.40625 
C 35.796875 52.921875 32.796875 49.21875 30.09375 45.234375 
C 21.09375 31.734375 16.203125 15.671875 16.203125 -0.5 
L 22.90625 -0.5 
C 22.90625 14.0625 26.59375 28.640625 33.59375 41.515625 
C 37 48 40.59375 52.703125 45.296875 58.1875 
C 45.90625 58.796875 46.796875 59.484375 47.09375 60.28125 
C 47.296875 60.78125 47.203125 61.484375 47.203125 62.078125 
L 47.203125 65.578125 
z
" id="Computer_Modern_Bright-55"/>
    </defs>
    <g style="fill:#262626;" transform="translate(209.798201 79.335988)scale(0.16 -0.16)">
     <use transform="scale(0.996264)" xlink:href="#Computer_Modern_Bright-51"/>
     <use transform="translate(50.643218 0)scale(0.996264)" xlink:href="#Computer_Modern_Bright-55"/>
    </g>
   </g>
   <g id="text_3">
    <!-- 38 -->
    <defs>
     <path d="M 18.703125 35.515625 
L 18.703125 35.40625 
C 12.5 33.625 7.296875 30.25 4.796875 24.5 
C 2.203125 18.4375 4 11.109375 8.40625 6.34375 
C 13.09375 1.375 19.5 -1 26.296875 -1 
C 36.296875 -1 45.90625 6.3125 47.09375 16.515625 
C 47.296875 18 47.203125 19.609375 47 21.109375 
C 45.203125 28.8125 39.5 33.40625 32.09375 35.40625 
C 32.90625 35.703125 33.796875 35.90625 34.59375 36.203125 
C 38.796875 37.90625 42.296875 40.390625 44.5 44.375 
C 47.796875 50.75 44.59375 58.21875 39.203125 62.296875 
C 33.796875 66.375 26.5 67.484375 19.90625 66.078125 
C 12 64.390625 4.5 57.71875 5 49.15625 
C 5.203125 46.171875 6.5 43.671875 8 41.890625 
C 10.296875 39.09375 14.796875 36.109375 18.703125 35.515625 
z
M 23.796875 62 
C 28.203125 62 33.703125 61.5 36.90625 58.109375 
C 40.703125 54.03125 40.90625 46.65625 37.09375 42.484375 
C 34.703125 39.890625 31.203125 38.59375 27.703125 38.296875 
C 22.796875 37.890625 17.203125 38.6875 13.703125 42.484375 
C 9.796875 46.765625 10.09375 54.53125 14.296875 58.515625 
C 16.90625 60.90625 20.40625 61.703125 23.796875 62 
z
M 23.703125 33 
C 28.40625 33 33.5 31.90625 36.90625 28.515625 
C 38.203125 27.140625 39.203125 25.453125 39.796875 23.65625 
C 41.5 18.46875 40.703125 11.921875 36.796875 7.953125 
C 34.09375 5.265625 30.40625 4.265625 26.703125 3.96875 
C 22.203125 3.96875 17 5.0625 13.796875 8.453125 
C 9.40625 13.21875 8.5 23.0625 13.703125 28.609375 
C 16.296875 31.3125 20 32.703125 23.703125 33 
z
" id="Computer_Modern_Bright-56"/>
    </defs>
    <g style="fill:#262626;" transform="translate(186.560646 73.667407)scale(0.16 -0.16)">
     <use transform="scale(0.996264)" xlink:href="#Computer_Modern_Bright-51"/>
     <use transform="translate(50.643218 0)scale(0.996264)" xlink:href="#Computer_Modern_Bright-56"/>
    </g>
   </g>
   <g id="text_4">
    <!-- 1302 -->
    <defs>
     <path d="M 14.796875 63.34375 
C 11.90625 61.34375 9.90625 58.65625 8.40625 55.5625 
C 4.796875 48.59375 4.40625 40.4375 4.40625 31.5625 
C 4.40625 20.421875 6.40625 10.15625 12 4.28125 
C 17.296875 -1.1875 25.703125 -2.59375 32.796875 0.296875 
C 37.203125 1.984375 40.40625 5.671875 42.40625 9.65625 
C 46 16.734375 46.40625 25.203125 46.40625 33.953125 
C 46.40625 36.75 46.296875 39.53125 46 42.328125 
C 45.296875 49 43 56.359375 39.296875 60.453125 
C 33.203125 67.125 22.296875 68.609375 14.796875 63.34375 
z
M 34.90625 57.65625 
C 39.59375 52.6875 40 43.125 40 34.0625 
L 40 28.6875 
C 40 24.09375 39.203125 18.125 38.203125 14.734375 
C 36.796875 10.0625 34.5 6.671875 29.90625 4.578125 
C 24.296875 2.59375 18.5 4.484375 15.296875 8.859375 
C 11 14.546875 10.796875 24.59375 10.796875 33.46875 
C 10.796875 41.828125 10.90625 51.09375 15 56.5625 
C 19.5 62.546875 29.203125 63.53125 34.90625 57.65625 
z
" id="Computer_Modern_Bright-48"/>
    </defs>
    <g style="fill:#262626;" transform="translate(187.714482 175.111089)scale(0.16 -0.16)">
     <use transform="scale(0.996264)" xlink:href="#Computer_Modern_Bright-49"/>
     <use transform="translate(50.643218 0)scale(0.996264)" xlink:href="#Computer_Modern_Bright-51"/>
     <use transform="translate(101.286436 0)scale(0.996264)" xlink:href="#Computer_Modern_Bright-48"/>
     <use transform="translate(151.929653 0)scale(0.996264)" xlink:href="#Computer_Modern_Bright-50"/>
    </g>
   </g>
   <g id="text_5">
    <!-- 665 -->
    <defs>
     <path d="M 11.296875 32.25 
L 11.203125 32.25 
C 11.203125 41.3125 12.796875 51.875 20.59375 57.640625 
C 24.90625 60.734375 30.703125 62.328125 38.203125 60.53125 
C 39.796875 60.140625 41.296875 59.546875 42.796875 59.140625 
L 42.796875 62.625 
C 42.796875 63.03125 42.90625 63.71875 42.59375 64.125 
C 41.90625 65.015625 36.296875 65.90625 36.09375 65.90625 
C 27.40625 66.90625 21.703125 65.015625 16.40625 60.53125 
C 10 55.078125 6.296875 47.015625 5.09375 38.875 
C 4 32.296875 4.90625 21.765625 6.203125 16.59375 
C 8.296875 8.9375 12.296875 2.1875 19.703125 -0.40625 
C 24.09375 -2 29.5 -2 33.703125 0.015625 
C 37.09375 1.609375 39.90625 4.40625 42.09375 7.40625 
C 45.59375 12.203125 46.5 18 46.09375 23.90625 
C 45.90625 26.8125 45.5 29.703125 44.296875 32.40625 
C 42.40625 36.703125 39.203125 41.203125 35.09375 43.203125 
C 33.203125 44 31.203125 44 29.203125 44 
C 23.90625 44 18.90625 41.71875 15.203125 37.921875 
C 13.59375 36.328125 12 34.34375 11.296875 32.25 
z
M 24.40625 39.125 
C 28.203125 39.421875 32.203125 38.828125 35.09375 36.140625 
C 38.90625 32.546875 39.59375 27.46875 39.59375 22.578125 
C 39.59375 19.265625 39.703125 15.84375 38.703125 12.71875 
C 38.09375 11.109375 37.296875 9.703125 36.40625 8.390625 
C 34.203125 5.46875 31.40625 4.0625 26.796875 3.46875 
C 22.296875 3.46875 17.796875 5.25 15.203125 9.015625 
C 13.59375 11.203125 12.796875 13.875 12.296875 16.453125 
C 11.703125 19.140625 11.296875 21.90625 11.5 24.578125 
C 12 31.65625 17 38.125 24.40625 39.125 
z
" id="Computer_Modern_Bright-54"/>
     <path d="M 8.40625 65.28125 
L 8.40625 29.703125 
L 12.203125 29.703125 
C 12.703125 29.703125 13.40625 29.609375 13.796875 29.8125 
C 14.296875 30.109375 14.59375 30.796875 14.90625 31.203125 
C 15.59375 32.09375 16.40625 32.796875 17.203125 33.5 
C 20.796875 36.484375 27.703125 37.671875 32.296875 35.390625 
C 38.59375 32.390625 39.796875 24.53125 39.296875 18.359375 
C 39 14.453125 37.796875 10.875 35.5 8.578125 
C 30.203125 3 21.296875 3 14.796875 6.265625 
C 11.59375 7.859375 8.90625 10.34375 6.90625 13.328125 
L 6.796875 13.328125 
C 6.5 12.828125 4.203125 9.34375 4.203125 8.75 
C 4.203125 8.34375 4.5 8.046875 4.703125 7.75 
C 7.703125 4.265625 11.59375 1.578125 16.09375 0.078125 
C 25 -2.703125 35 -0.515625 41.296875 6.65625 
C 48.796875 15.3125 47.796875 29.40625 39.09375 36.96875 
C 36.5 39.359375 32.90625 41.046875 28.59375 41.4375 
C 22.796875 42.234375 17.59375 39.453125 14.5 36.859375 
L 14.5 60 
L 42.90625 60 
L 42.90625 65.28125 
z
" id="Computer_Modern_Bright-53"/>
    </defs>
    <g style="fill:#262626;" transform="translate(151.659039 118.533274)scale(0.16 -0.16)">
     <use transform="scale(0.996264)" xlink:href="#Computer_Modern_Bright-54"/>
     <use transform="translate(50.643218 0)scale(0.996264)" xlink:href="#Computer_Modern_Bright-54"/>
     <use transform="translate(101.286436 0)scale(0.996264)" xlink:href="#Computer_Modern_Bright-53"/>
    </g>
   </g>
   <g id="text_6">
    <!-- 41 -->
    <defs>
     <path d="M 2.09375 18 
L 31 18 
L 31 0 
L 37.296875 0 
L 37.296875 18 
L 48.703125 18 
L 48.703125 23.265625 
L 37.296875 23.265625 
L 37.296875 65.921875 
L 31.90625 65.921875 
C 30.09375 65.921875 29.59375 66.03125 28.796875 64.53125 
C 24.796875 58.0625 3.703125 25.65625 3 24.765625 
C 2.203125 23.375 2.09375 23.46875 2.09375 21.375 
z
M 31.296875 60.515625 
L 31.296875 23.265625 
L 8.59375 23.265625 
C 9.296875 24.671875 10.296875 25.96875 11.203125 27.359375 
C 16.203125 35.015625 28.09375 53.25 30.59375 58.921875 
C 30.90625 59.421875 31 60.015625 31.296875 60.515625 
z
" id="Computer_Modern_Bright-52"/>
    </defs>
    <g style="fill:#262626;" transform="translate(208.149605 103.542184)scale(0.16 -0.16)">
     <use transform="scale(0.996264)" xlink:href="#Computer_Modern_Bright-52"/>
     <use transform="translate(50.643218 0)scale(0.996264)" xlink:href="#Computer_Modern_Bright-49"/>
    </g>
   </g>
   <g id="text_7">
    <!-- 150 -->
    <g style="fill:#262626;" transform="translate(175.185241 101.519781)scale(0.16 -0.16)">
     <use transform="scale(0.996264)" xlink:href="#Computer_Modern_Bright-49"/>
     <use transform="translate(50.643218 0)scale(0.996264)" xlink:href="#Computer_Modern_Bright-53"/>
     <use transform="translate(101.286436 0)scale(0.996264)" xlink:href="#Computer_Modern_Bright-48"/>
    </g>
   </g>
   <g id="text_8">
    <!-- \emph{dpy-22(sy622)} -->
    <defs>
     <path d="M 50.296875 70 
L 44.40625 41.671875 
C 43.90625 42.28125 43.5 42.984375 43.09375 43.578125 
C 42.203125 44.796875 41.09375 45.796875 39.796875 46.515625 
C 32.703125 50.84375 23.796875 46.8125 18.40625 41.46875 
C 12.796875 35.921875 9.203125 28.453125 8.40625 20.578125 
C 7.40625 11.5 10.296875 3.84375 16.5 0.71875 
C 22 -1.90625 28.5 0.015625 33.09375 3.53125 
C 34.40625 4.546875 36 5.859375 36.90625 7.265625 
L 37 7.265625 
L 35.5 0 
C 37.703125 0 39.90625 0 41.796875 0.296875 
L 42.203125 1.40625 
C 43.203125 6.453125 44.296875 11.375 45.40625 16.40625 
L 56.59375 70 
z
M 42.40625 39.671875 
C 42.703125 39.0625 43.09375 38.359375 43.203125 37.65625 
C 43.40625 36.640625 42.90625 35.328125 42.703125 34.328125 
C 40.703125 25.34375 38.40625 14.15625 38.40625 14.15625 
C 38 11.734375 37.203125 10.828125 35.59375 9.21875 
C 33.296875 6.890625 30.5 5.078125 27.09375 4.78125 
C 23.40625 4.484375 19.796875 5.984375 17.90625 7.90625 
C 14.40625 11.328125 14.203125 16.671875 14.796875 21.3125 
C 15.796875 28.671875 18.90625 36.4375 25.40625 40.46875 
C 26.59375 41.1875 27.796875 41.890625 29.09375 42.296875 
C 34 44 39.703125 44 42.40625 39.671875 
z
" id="Computer_Modern_Bright_Slanted-100"/>
     <path d="M 21.296875 40.75 
L 22.09375 44.578125 
L 22.703125 47.5 
L 16.40625 47.5 
L 2.90625 -17 
L 9.296875 -17 
C 10.90625 -9.15625 12.59375 -1.421875 14.09375 6.515625 
C 14.90625 4.90625 15.796875 3.390625 17.09375 2.1875 
C 22.296875 -2.5625 30.296875 -0.4375 35.59375 2.984375 
C 42.90625 7.8125 47.796875 15.734375 49.5 24.25 
C 50 26.65625 50.296875 29.171875 50.203125 31.5625 
C 49.90625 38.890625 46.5 47.09375 37.90625 48 
C 30.59375 48 24.90625 44.375 21.296875 40.75 
z
M 34.5 42.78125 
C 35.40625 42.578125 36.40625 42.28125 37.203125 41.78125 
C 42.40625 38.859375 43.796875 32.59375 43.5 27.0625 
C 43.09375 19.890625 39.203125 12.9375 33.59375 8.546875 
C 30.703125 6.15625 27.09375 4.5 23.40625 4.5 
C 19.09375 4.5 15.796875 6.921875 15.203125 11.125 
C 15.203125 12.234375 15.59375 13.546875 15.90625 14.65625 
C 16.40625 16.875 20.09375 34.421875 20.09375 34.625 
C 20.40625 37.03125 21.09375 37.4375 22.703125 39.0625 
C 25.5 41.671875 29.796875 44.09375 34.5 42.78125 
z
" id="Computer_Modern_Bright_Slanted-112"/>
     <path d="M 10.703125 48 
C 11.203125 44.265625 12 40.640625 12.703125 36.90625 
C 13.09375 34.390625 19 0.90625 19 0.609375 
C 19 0 18.59375 -0.5 18.296875 -1 
L 16.59375 -4.03125 
C 14.703125 -7.15625 12.796875 -10.390625 9 -11.6875 
C 6 -12.609375 0.5 -11.296875 -1.5 -10.6875 
C -1.796875 -12.5 -2 -14.421875 -2.203125 -16.328125 
C 0.5 -16.734375 5.40625 -17.34375 8.09375 -16.84375 
C 15.203125 -15.21875 19.203125 -8.5625 22.5 -3.125 
L 44.09375 34.390625 
L 49.203125 43.359375 
C 50.09375 44.875 51.203125 46.390625 51.796875 48 
C 49.703125 48 47.40625 48 45.59375 47.6875 
C 43.203125 44.078125 41.203125 40.046875 38.90625 36.21875 
C 33.59375 26.46875 27.703125 17.421875 23.203125 6.859375 
L 23.09375 6.859375 
C 23.40625 8.46875 23.09375 10.1875 22.90625 11.796875 
C 21.796875 22.59375 18.59375 39.734375 17.09375 48 
z
" id="Computer_Modern_Bright_Slanted-121"/>
     <path d="M 5.90625 26.03125 
L 4.90625 21 
L 32.796875 21 
L 33.796875 26.03125 
z
" id="Computer_Modern_Bright_Slanted-45"/>
     <path d="M 17.09375 46.375 
C 19.796875 53.03125 25.09375 60.1875 32 61.703125 
C 38.40625 63.109375 46.796875 61 49.40625 54.25 
C 50.296875 51.421875 50.203125 48.390625 49.203125 45.375 
C 45.5 34.171875 33.796875 27.125 25.09375 20.671875 
L 9.296875 8.359375 
L 6.90625 6.546875 
C 6.5 6.140625 5.90625 5.84375 5.59375 5.4375 
C 5.203125 4.8125 4.40625 0 4.40625 0 
C 18.203125 0 33 0 46.203125 0 
C 46.90625 1.6875 47.203125 3.765625 47.59375 5.734375 
L 11.40625 5.734375 
L 19.796875 12.09375 
L 34.59375 23.078125 
C 41.59375 28.03125 49.296875 32.96875 53.703125 40.53125 
C 57.5 46.984375 58.296875 55.75 53.203125 61.703125 
C 50.703125 64.421875 47.5 66.046875 43.5 66.953125 
C 37.703125 68.15625 31.40625 67.34375 26.203125 64.421875 
C 21.59375 61.609375 18.5 57.96875 15.59375 53.328125 
C 15.203125 52.734375 14.5 51.828125 14.5 51.015625 
C 14.5 50.515625 14.796875 50 15.09375 49.609375 
C 15.703125 48.5 16.296875 47.28125 17.09375 46.375 
z
" id="Computer_Modern_Bright_Slanted-50"/>
     <path d="M 29.5 -22 
C 28.59375 -20.78125 27.5 -19.78125 26.59375 -18.5625 
C 20.40625 -10.296875 17.59375 1.59375 18.703125 14.90625 
C 20.40625 38.484375 31.40625 61.375 47.59375 73.984375 
C 48.40625 74.6875 49.40625 75.1875 50.09375 76 
L 46.90625 76 
C 46.40625 76 45.703125 76.109375 45.203125 75.90625 
C 44.203125 75.59375 40.90625 72.875 40.703125 72.78125 
C 27.09375 61.578125 17.59375 45.34375 13.796875 25.90625 
C 10.59375 10.265625 12.203125 -5.65625 19.59375 -16.34375 
C 20.59375 -17.5625 23.296875 -21.1875 24.59375 -21.890625 
C 25.09375 -22.09375 25.796875 -22 26.296875 -22 
z
" id="Computer_Modern_Bright_Slanted-40"/>
     <path d="M 5.203125 9.59375 
L 3 3.734375 
C 8 0.515625 13.90625 -1 19.90625 -1 
C 29.90625 -1 37.296875 3.640625 39.59375 11.6875 
C 41 16.21875 39.703125 19.84375 37.40625 22.671875 
C 34.09375 26.296875 29.203125 26.78125 24.796875 27.796875 
C 21.90625 28.40625 18.59375 28.90625 16.796875 31.625 
C 14.703125 34.75 16.90625 38.875 19.59375 40.78125 
C 22.09375 42.609375 26.203125 43.3125 30.09375 43 
C 35.703125 43 38.296875 41.65625 42.59375 39.265625 
L 44.703125 44.875 
C 39.5 47.5 33.5 48.5 27.703125 48 
C 22.40625 48 18.203125 46.5 14.796875 43.453125 
C 11.40625 40.3125 9 35.03125 10.203125 30.375 
C 10.59375 28.34375 11.5 27.34375 12.703125 25.90625 
C 16.09375 22.46875 20.90625 21.96875 25.296875 20.953125 
C 28.203125 20.359375 31.5 19.640625 33.203125 16.90625 
C 35.203125 13.765625 33.5 9.71875 31 7.375 
C 28.09375 4.953125 23.796875 3.9375 18.90625 4.34375 
C 14.296875 4.34375 10.40625 5.828125 7.203125 8.125 
C 6.5 8.53125 5.90625 9.171875 5.203125 9.59375 
z
" id="Computer_Modern_Bright_Slanted-115"/>
     <path d="M 18.296875 32.59375 
L 18.203125 32.59375 
C 20.90625 46.921875 28.5 60.28125 43.203125 62 
C 48.203125 62 51.296875 61.0625 55.5 59.78125 
L 56.59375 64.921875 
C 53.5 66.15625 50.296875 67.03125 47 67.03125 
C 40.296875 67.03125 34.5 64.453125 30.40625 61.75 
C 19.90625 54.765625 13.09375 43.171875 10.703125 28.34375 
C 9 18.359375 9.40625 7.671875 15.203125 2.125 
C 21.59375 -3.71875 31.5 -2.109375 38.09375 2.53125 
C 42.203125 5.5625 46 9.390625 48.296875 14.03125 
C 51.203125 19.78125 53.203125 29.453125 50.09375 36.515625 
C 49.09375 38.9375 47.703125 41.5625 45.40625 43.0625 
C 42.90625 44.6875 39.703125 44.6875 36.796875 44.390625 
C 31.09375 43.78125 25.703125 40.75 21.703125 36.71875 
C 20.5 35.515625 19.203125 34.109375 18.296875 32.59375 
z
M 34.5 39.640625 
C 38.40625 39.640625 41.703125 38.625 43.296875 35.921875 
C 46 32 45.40625 27.390625 44.5 23.078125 
C 43.796875 19.5625 43.09375 16.046875 41.40625 12.9375 
C 38.59375 7.828125 33.40625 3.5 25.703125 3.5 
C 22.90625 3.5 19.796875 5.125 18.5 6.78125 
C 16.296875 9.421875 15.796875 13.21875 15.796875 16.59375 
C 15.796875 17.09375 15.90625 17.703125 15.90625 18.1875 
C 15.90625 20.703125 16.296875 23.203125 17.09375 25.609375 
C 19.59375 32.9375 26.40625 39.640625 34.5 39.640625 
z
M 18.09375 32.96875 
C 18.09375 32.96875 18.203125 32.96875 18.203125 32.96875 
C 18.203125 32.875 18.09375 32.765625 18.09375 32.96875 
z
" id="Computer_Modern_Bright_Slanted-54"/>
     <path d="M 20.90625 76 
C 21.796875 74.796875 22.90625 73.78125 23.796875 72.578125 
C 25.59375 70.25 27 67.625 28.203125 64.90625 
C 32.5 54.71875 32.703125 43.125 31 32.34375 
C 28.296875 15.21875 21.296875 -1.625 9.203125 -14.234375 
C 6.5 -17.046875 3.5 -19.578125 0.296875 -21.890625 
C 1.296875 -22.203125 2.5 -22 3.59375 -22 
C 4.203125 -22 4.796875 -22.09375 5.40625 -21.890625 
C 11.203125 -18.359375 18.296875 -10.796875 21.5 -6.5625 
C 29.09375 3.625 34.203125 15.71875 36.703125 28.21875 
C 39.90625 44.9375 37.90625 60.671875 30.09375 71.265625 
C 29.40625 72.171875 26.796875 75.5 25.90625 75.90625 
C 25.40625 76.109375 24.703125 76 24.203125 76 
z
" id="Computer_Modern_Bright_Slanted-41"/>
    </defs>
    <g style="fill:#262626;" transform="translate(7.2 22.222328)scale(0.18 -0.18)">
     <use transform="scale(0.996264)" xlink:href="#Computer_Modern_Bright_Slanted-100"/>
     <use transform="translate(48.152497 0)scale(0.996264)" xlink:href="#Computer_Modern_Bright_Slanted-112"/>
     <use transform="translate(93.399264 0)scale(0.996264)" xlink:href="#Computer_Modern_Bright_Slanted-121"/>
     <use transform="translate(135.740302 0)scale(0.996264)" xlink:href="#Computer_Modern_Bright_Slanted-45"/>
     <use transform="translate(168.948976 0)scale(0.996264)" xlink:href="#Computer_Modern_Bright_Slanted-50"/>
     <use transform="translate(219.592194 0)scale(0.996264)" xlink:href="#Computer_Modern_Bright_Slanted-50"/>
     <use transform="translate(270.235412 0)scale(0.996264)" xlink:href="#Computer_Modern_Bright_Slanted-40"/>
     <use transform="translate(309.25562 0)scale(0.996264)" xlink:href="#Computer_Modern_Bright_Slanted-115"/>
     <use transform="translate(347.69465 0)scale(0.996264)" xlink:href="#Computer_Modern_Bright_Slanted-121"/>
     <use transform="translate(390.035688 0)scale(0.996264)" xlink:href="#Computer_Modern_Bright_Slanted-54"/>
     <use transform="translate(440.678906 0)scale(0.996264)" xlink:href="#Computer_Modern_Bright_Slanted-50"/>
     <use transform="translate(491.322123 0)scale(0.996264)" xlink:href="#Computer_Modern_Bright_Slanted-50"/>
     <use transform="translate(541.965341 0)scale(0.996264)" xlink:href="#Computer_Modern_Bright_Slanted-41"/>
    </g>
   </g>
   <g id="text_9">
    <!-- \emph{dpy-22(bx93)} -->
    <defs>
     <path d="M 21.09375 70 
L 6.40625 0 
C 8.59375 0 10.796875 0 12.703125 0.296875 
C 13.40625 2.203125 13.703125 4.421875 14.09375 6.515625 
L 14.203125 6.515625 
C 14.90625 4.59375 16.40625 2.484375 18 1.46875 
C 23.09375 -2.25 30.296875 -0.34375 35.203125 2.78125 
C 42.59375 7.21875 47.90625 15.984375 49.59375 24.546875 
C 50.296875 28.078125 50.40625 31.8125 49.796875 35.421875 
C 48.40625 42.890625 43.90625 48.828125 35.203125 48.125 
C 29.90625 47.625 25.203125 44.796875 21.40625 41.078125 
L 27.40625 70 
z
M 38.09375 41.8125 
C 39 41.296875 39.796875 40.796875 40.5 40.09375 
C 44 36.671875 44.09375 31.21875 43.5 26.6875 
C 42.59375 19.421875 39.59375 11.859375 33.296875 7.609375 
C 30.59375 5.953125 27.59375 4.5 23.59375 4.5 
C 19.203125 4.5 15.796875 6.9375 15.203125 11.15625 
C 15.203125 12.265625 15.59375 13.578125 15.90625 14.6875 
C 16.796875 18.71875 20.09375 35.65625 20.59375 36.765625 
C 21.09375 37.671875 22 38.484375 22.703125 39.1875 
C 26.59375 42.8125 32.296875 44.734375 38.09375 41.8125 
z
M 21.296875 41.046875 
C 21.296875 41.046875 21.40625 41.046875 21.40625 41.046875 
C 21.40625 40.9375 21.296875 40.84375 21.296875 41.046875 
z
" id="Computer_Modern_Bright_Slanted-98"/>
     <path d="M 9.796875 47.5 
C 14.09375 39.765625 18.90625 32.53125 23.09375 24.703125 
C 22.703125 23.890625 22.09375 23.296875 21.5 22.6875 
L -0.796875 0 
C 1.5 0 3.90625 0 6.09375 0 
C 12.703125 6.796875 18.90625 13.984375 25.40625 20.875 
C 28 15.65625 30.796875 10.734375 33.40625 5.609375 
C 34.296875 3.8125 35.203125 1.890625 36.40625 0.296875 
C 38.5 0 40.90625 0 43.296875 0 
C 42.203125 2.125 35.09375 13.984375 32.796875 17.921875 
L 30.09375 22.546875 
C 29.796875 23.046875 29.09375 23.84375 29.09375 24.453125 
C 29.203125 25.0625 30.203125 25.765625 30.59375 26.171875 
L 34.796875 30.484375 
C 36.59375 32.3125 50.59375 46.296875 51.5 47.5 
C 49.203125 47.5 46.90625 47.5 44.703125 47.5 
C 38.59375 41.640625 33 35.296875 27.09375 29.25 
C 23.59375 35.296875 20.5 41.75 16.703125 47.5 
C 14.5 47.5 12.09375 47.5 9.796875 47.5 
z
" id="Computer_Modern_Bright_Slanted-120"/>
     <path d="M 46.5 33 
L 46.59375 33 
C 46.296875 31.28125 45.90625 29.5625 45.40625 27.953125 
C 42.703125 18.28125 37.09375 7.859375 26.90625 4.65625 
C 21.5 3.0625 15.90625 4.0625 12.5 6.765625 
C 12.203125 6.96875 11.59375 7.65625 11.09375 7.5625 
C 10.703125 7.5625 10.296875 6.875 10.09375 6.5625 
C 9.203125 5.453125 8.296875 4.359375 7.5 3.25 
C 9.296875 1.84375 11.09375 0.53125 13.296875 -0.265625 
C 15.90625 -1.28125 20.5 -1.78125 23.59375 -1.1875 
C 29 -0.375 34 2.546875 38.09375 6.0625 
C 47.5 14.40625 53.09375 26.234375 54.59375 41.40625 
C 55.09375 45.90625 55.203125 50.53125 54.09375 55.046875 
C 53.203125 58.96875 51.703125 61.46875 48.90625 63.984375 
C 43.796875 68 36.296875 68 30.703125 65.453125 
C 25.40625 62.921875 19.90625 57.640625 17.203125 53.078125 
C 14.59375 48.609375 12.703125 41.421875 13.09375 34.921875 
C 13.5 30.8125 15.5 26.203125 18 23.703125 
C 20.296875 21.5 23.09375 21 26.09375 21 
C 32.09375 21 38.203125 23.921875 42.5 28.15625 
C 43.90625 29.5625 45.59375 31.078125 46.5 33 
z
M 43.90625 61.03125 
C 48.59375 58.5 49.40625 52.515625 48.90625 47.640625 
C 48.703125 44.90625 48.5 42.171875 47.59375 39.53125 
C 45.796875 34.453125 42.09375 30.015625 37.40625 27.578125 
C 32.40625 25.03125 24.59375 25.03125 21.5 29.75 
C 18.90625 33.484375 19.296875 38 20.09375 42.21875 
C 20.796875 45.546875 21.5 48.96875 23 52.09375 
C 25 56.109375 28.59375 59.71875 32.90625 61.234375 
C 36.5 62.453125 40.59375 62.453125 43.90625 61.03125 
z
" id="Computer_Modern_Bright_Slanted-57"/>
     <path d="M 18.796875 50.578125 
C 19.90625 51.703125 20.703125 53.03125 21.703125 54.15625 
C 26.09375 58.921875 34.203125 63.765625 42.59375 61.734375 
C 45.703125 61.03125 48.5 58.921875 49 55.59375 
C 49.296875 53.234375 48.203125 50.265625 47.5 48.828125 
C 44.796875 43.890625 40.703125 40.296875 34.796875 38.765625 
C 32.5 38.25 26.703125 38.25 24.703125 38.25 
L 23.703125 33 
L 30.59375 33 
C 36.09375 33 39 32.296875 42.09375 29.171875 
C 45.703125 24.9375 44.796875 18.375 42.5 13.75 
C 40.90625 10.8125 39.203125 8.59375 36.296875 6.78125 
C 29.5 2.25 20.09375 3.25 13.703125 7.890625 
C 11.09375 9.8125 9.296875 12.328125 7.796875 15.15625 
C 7.40625 14.453125 5.796875 10.71875 5.90625 10.015625 
C 5.90625 9.515625 6.296875 9 6.5 8.59375 
C 9.703125 3.765625 14.40625 0.328125 20.5 -0.875 
C 31.203125 -3 42.796875 2.25 48.5 11.734375 
C 51.40625 16.671875 52.703125 22.921875 49.703125 28.15625 
C 48 31.6875 43.5 34.8125 39.59375 35.53125 
C 41.09375 36.234375 42.59375 36.9375 44 37.75 
C 48.40625 40.359375 52.59375 44.59375 54.5 49.640625 
C 55.296875 51.453125 55.796875 53.46875 55.703125 55.484375 
C 55.40625 61.546875 50.203125 65.578125 44.703125 66.6875 
C 38.203125 68.09375 31.40625 66.375 25.796875 63.15625 
C 23.203125 61.640625 20.90625 59.71875 18.796875 57.609375 
C 18.296875 57.109375 17 55.890625 16.796875 55.09375 
C 16.796875 54.5625 18.296875 51.59375 18.796875 50.578125 
z
" id="Computer_Modern_Bright_Slanted-51"/>
    </defs>
    <g style="fill:#262626;" transform="translate(212.86957 64.299867)scale(0.18 -0.18)">
     <use transform="scale(0.996264)" xlink:href="#Computer_Modern_Bright_Slanted-100"/>
     <use transform="translate(48.152497 0)scale(0.996264)" xlink:href="#Computer_Modern_Bright_Slanted-112"/>
     <use transform="translate(93.399264 0)scale(0.996264)" xlink:href="#Computer_Modern_Bright_Slanted-121"/>
     <use transform="translate(135.740302 0)scale(0.996264)" xlink:href="#Computer_Modern_Bright_Slanted-45"/>
     <use transform="translate(168.948976 0)scale(0.996264)" xlink:href="#Computer_Modern_Bright_Slanted-50"/>
     <use transform="translate(219.592194 0)scale(0.996264)" xlink:href="#Computer_Modern_Bright_Slanted-50"/>
     <use transform="translate(270.235412 0)scale(0.996264)" xlink:href="#Computer_Modern_Bright_Slanted-40"/>
     <use transform="translate(309.25562 0)scale(0.996264)" xlink:href="#Computer_Modern_Bright_Slanted-98"/>
     <use transform="translate(354.502388 0)scale(0.996264)" xlink:href="#Computer_Modern_Bright_Slanted-120"/>
     <use transform="translate(396.843426 0)scale(0.996264)" xlink:href="#Computer_Modern_Bright_Slanted-57"/>
     <use transform="translate(447.486644 0)scale(0.996264)" xlink:href="#Computer_Modern_Bright_Slanted-51"/>
     <use transform="translate(498.129862 0)scale(0.996264)" xlink:href="#Computer_Modern_Bright_Slanted-41"/>
    </g>
   </g>
   <g id="text_10">
    <!-- \emph{dpy-22(bx93)/dpy-22(sy622)} -->
    <defs>
     <path d="M 58.90625 75.53125 
C 57.90625 75.21875 57.5 74.515625 57 73.71875 
L 12.296875 -0.5 
L 2.296875 -17.046875 
C 1.796875 -17.953125 0.90625 -18.953125 0.796875 -20.0625 
C 0.5 -21.375 1.703125 -22.484375 2.90625 -22.390625 
C 3.796875 -22.28125 4.296875 -21.578125 4.796875 -20.875 
L 51.40625 56.5625 
L 60.59375 71.796875 
C 60.90625 72.40625 61.296875 72.90625 61.296875 73.609375 
C 61.296875 74.8125 60.09375 75.921875 58.90625 75.53125 
z
" id="Computer_Modern_Bright_Slanted-47"/>
    </defs>
    <g style="fill:#262626;" transform="translate(78.007033 229.774238)scale(0.18 -0.18)">
     <use transform="scale(0.996264)" xlink:href="#Computer_Modern_Bright_Slanted-100"/>
     <use transform="translate(48.152497 0)scale(0.996264)" xlink:href="#Computer_Modern_Bright_Slanted-112"/>
     <use transform="translate(93.399264 0)scale(0.996264)" xlink:href="#Computer_Modern_Bright_Slanted-121"/>
     <use transform="translate(135.740302 0)scale(0.996264)" xlink:href="#Computer_Modern_Bright_Slanted-45"/>
     <use transform="translate(168.948976 0)scale(0.996264)" xlink:href="#Computer_Modern_Bright_Slanted-50"/>
     <use transform="translate(219.592194 0)scale(0.996264)" xlink:href="#Computer_Modern_Bright_Slanted-50"/>
     <use transform="translate(270.235412 0)scale(0.996264)" xlink:href="#Computer_Modern_Bright_Slanted-40"/>
     <use transform="translate(309.25562 0)scale(0.996264)" xlink:href="#Computer_Modern_Bright_Slanted-98"/>
     <use transform="translate(354.502388 0)scale(0.996264)" xlink:href="#Computer_Modern_Bright_Slanted-120"/>
     <use transform="translate(396.843426 0)scale(0.996264)" xlink:href="#Computer_Modern_Bright_Slanted-57"/>
     <use transform="translate(447.486644 0)scale(0.996264)" xlink:href="#Computer_Modern_Bright_Slanted-51"/>
     <use transform="translate(498.129862 0)scale(0.996264)" xlink:href="#Computer_Modern_Bright_Slanted-41"/>
     <use transform="translate(537.15007 0)scale(0.996264)" xlink:href="#Computer_Modern_Bright_Slanted-47"/>
     <use transform="translate(587.793288 0)scale(0.996264)" xlink:href="#Computer_Modern_Bright_Slanted-100"/>
     <use transform="translate(635.945785 0)scale(0.996264)" xlink:href="#Computer_Modern_Bright_Slanted-112"/>
     <use transform="translate(681.192552 0)scale(0.996264)" xlink:href="#Computer_Modern_Bright_Slanted-121"/>
     <use transform="translate(723.53359 0)scale(0.996264)" xlink:href="#Computer_Modern_Bright_Slanted-45"/>
     <use transform="translate(756.742264 0)scale(0.996264)" xlink:href="#Computer_Modern_Bright_Slanted-50"/>
     <use transform="translate(807.385482 0)scale(0.996264)" xlink:href="#Computer_Modern_Bright_Slanted-50"/>
     <use transform="translate(858.0287 0)scale(0.996264)" xlink:href="#Computer_Modern_Bright_Slanted-40"/>
     <use transform="translate(897.048908 0)scale(0.996264)" xlink:href="#Computer_Modern_Bright_Slanted-115"/>
     <use transform="translate(935.487938 0)scale(0.996264)" xlink:href="#Computer_Modern_Bright_Slanted-121"/>
     <use transform="translate(977.828976 0)scale(0.996264)" xlink:href="#Computer_Modern_Bright_Slanted-54"/>
     <use transform="translate(1028.472194 0)scale(0.996264)" xlink:href="#Computer_Modern_Bright_Slanted-50"/>
     <use transform="translate(1079.115411 0)scale(0.996264)" xlink:href="#Computer_Modern_Bright_Slanted-50"/>
     <use transform="translate(1129.758629 0)scale(0.996264)" xlink:href="#Computer_Modern_Bright_Slanted-41"/>
    </g>
   </g>
  </g>
 </g>
 <defs>
  <clipPath id="pf46154edcb">
   <rect height="217.44" width="201.347247" x="63.942498" y="7.2"/>
  </clipPath>
 </defs>
</svg>
