<?xml version="1.0" encoding="utf-8" standalone="no"?>
<!DOCTYPE svg PUBLIC "-//W3C//DTD SVG 1.1//EN"
  "http://www.w3.org/Graphics/SVG/1.1/DTD/svg11.dtd">
<!-- Created with matplotlib (http://matplotlib.org/) -->
<svg height="319pt" version="1.1" viewBox="0 0 354 319" width="354pt" xmlns="http://www.w3.org/2000/svg" xmlns:xlink="http://www.w3.org/1999/xlink">
 <defs>
  <style type="text/css">
*{stroke-linecap:butt;stroke-linejoin:round;}
  </style>
 </defs>
 <g id="figure_1">
  <g id="patch_1">
   <path d="M 0 319.35752 
L 354.771595 319.35752 
L 354.771595 0 
L 0 0 
z
" style="fill:#ffffff;"/>
  </g>
  <g id="axes_1">
   <g id="patch_2">
    <path clip-path="url(#p0771ab36b1)" d="M 242.468732 86.724612 
C 237.218061 72.826956 228.644653 60.423425 217.499295 50.600218 
C 206.353937 40.777011 192.971751 33.829495 178.524637 30.366074 
C 164.077522 26.902653 148.999879 27.027467 134.612082 30.729585 
C 120.224284 34.431703 106.958948 41.59981 95.977741 51.606182 
C 84.996534 61.612554 76.629641 74.156318 71.609765 88.138994 
C 66.58989 102.121671 65.06797 117.122826 67.177284 131.828784 
C 69.286597 146.534742 74.96372 160.50332 83.711498 172.511266 
C 92.459276 184.519213 104.014678 194.20547 117.365778 200.721796 
C 116.392899 188.334022 117.939634 175.876585 121.912442 164.102875 
C 125.885251 152.329165 132.202397 141.48141 140.481839 132.215651 
C 148.76128 122.949891 158.832679 115.456758 170.086947 110.189413 
C 181.341214 104.922068 193.546808 101.988881 205.965571 101.567241 
C 209.667076 95.520614 215.209714 90.815628 221.777189 88.145213 
C 228.344663 85.474798 235.59792 84.976818 242.468732 86.724612 
" style="fill:#e85050;opacity:0.7;stroke:#e85050;stroke-linejoin:miter;stroke-width:0.3;"/>
   </g>
   <g id="patch_3">
    <path clip-path="url(#p0771ab36b1)" d="M 242.468732 86.724612 
C 243.887835 90.480742 245.056905 94.32664 245.968283 98.237108 
C 246.87966 102.147576 247.531351 106.114055 247.919084 110.110557 
C 251.388892 111.725971 254.754518 113.556331 257.996337 115.590964 
C 261.238157 117.625597 264.349858 119.860541 267.313295 122.282764 
C 268.12379 114.363607 266.05985 106.411134 261.500474 99.885643 
C 256.941098 93.360152 250.183559 88.687107 242.468732 86.724612 
" style="fill:#f7e71d;opacity:0.7;stroke:#f7e71d;stroke-linejoin:miter;stroke-width:0.3;"/>
   </g>
   <g id="patch_4">
    <path clip-path="url(#p0771ab36b1)" d="M 242.468732 86.724612 
C 235.59792 84.976818 228.344663 85.474798 221.777189 88.145213 
C 215.209714 90.815628 209.667076 95.520614 205.965571 101.567241 
C 213.171449 101.322589 220.381171 101.92583 227.446201 103.364536 
C 234.511232 104.803242 241.382715 107.067466 247.919084 110.110557 
C 247.531351 106.114055 246.87966 102.147576 245.968283 98.237108 
C 245.056905 94.32664 243.887835 90.480742 242.468732 86.724612 
" style="fill:#b25900;opacity:0.4;"/>
   </g>
   <g id="patch_5">
    <path clip-path="url(#p0771ab36b1)" d="M 117.365778 200.721796 
C 118.556953 215.889144 123.491906 230.526828 131.727126 243.319345 
C 139.962347 256.111862 151.243514 266.664151 164.556778 274.027868 
C 177.870043 281.391584 192.804262 285.339322 208.017284 285.516292 
C 223.230305 285.693263 238.252318 282.094002 251.733278 275.041978 
C 265.214239 267.989953 276.737826 257.702948 285.268404 245.105465 
C 293.798982 232.507983 299.073109 217.989059 300.616792 202.853525 
C 302.160476 187.717992 299.926044 172.433265 294.114308 158.373 
C 288.302572 144.312735 279.09301 131.911141 267.313295 122.282764 
C 266.620816 129.048826 263.865772 135.441453 259.422875 140.591189 
C 254.979978 145.740926 249.060217 149.403217 242.468732 151.079956 
C 237.991751 162.929785 231.090596 173.715883 222.207715 182.746733 
C 213.324835 191.777582 202.654208 198.85597 190.879951 203.528088 
C 179.105695 208.200206 166.484928 210.364026 153.826796 209.880821 
C 141.168664 209.397617 128.749587 206.277938 117.365778 200.721796 
" style="fill:#4e66ed;opacity:0.7;stroke:#4e66ed;stroke-linejoin:miter;stroke-width:0.3;"/>
   </g>
   <g id="patch_6">
    <path clip-path="url(#p0771ab36b1)" d="M 117.365778 200.721796 
C 128.749587 206.277938 141.168664 209.397617 153.826796 209.880821 
C 166.484928 210.364026 179.105695 208.200206 190.879951 203.528088 
C 202.654208 198.85597 213.324835 191.777582 222.207715 182.746733 
C 231.090596 173.715883 237.991751 162.929785 242.468732 151.079956 
C 236.069712 152.707736 229.328278 152.390289 223.110535 150.168397 
C 216.892792 147.946505 211.476929 143.919578 207.558749 138.604977 
C 203.640568 133.290375 201.395373 126.925879 201.111616 120.329167 
C 200.827859 113.732455 202.518234 107.198671 205.965571 101.567241 
C 193.546808 101.988881 181.341214 104.922068 170.086947 110.189413 
C 158.832679 115.456758 148.76128 122.949891 140.481839 132.215651 
C 132.202397 141.48141 125.885251 152.329165 121.912442 164.102875 
C 117.939634 175.876585 116.392899 188.334022 117.365778 200.721796 
" style="fill:#b200b2;opacity:0.4;"/>
   </g>
   <g id="patch_7">
    <path clip-path="url(#p0771ab36b1)" d="M 247.919084 110.110557 
C 248.590841 117.034583 248.466815 124.012842 247.549437 130.908624 
C 246.632059 137.804405 244.927358 144.57238 242.468732 151.079956 
C 249.060217 149.403217 254.979978 145.740926 259.422875 140.591189 
C 263.865772 135.441453 266.620816 129.048826 267.313295 122.282764 
C 264.349858 119.860541 261.238157 117.625597 257.996337 115.590964 
C 254.754518 113.556331 251.388892 111.725971 247.919084 110.110557 
" style="fill:#0059b2;opacity:0.4;"/>
   </g>
   <g id="patch_8">
    <path clip-path="url(#p0771ab36b1)" d="M 205.965571 101.567241 
C 202.518234 107.198671 200.827859 113.732455 201.111616 120.329167 
C 201.395373 126.925879 203.640568 133.290375 207.558749 138.604977 
C 211.476929 143.919578 216.892792 147.946505 223.110535 150.168397 
C 229.328278 152.390289 236.069712 152.707736 242.468732 151.079956 
C 244.927358 144.57238 246.632059 137.804405 247.549437 130.908624 
C 248.466815 124.012842 248.590841 117.034583 247.919084 110.110557 
C 241.382715 107.067466 234.511232 104.803242 227.446201 103.364536 
C 220.381171 101.92583 213.171449 101.322589 205.965571 101.567241 
" style="fill:#663366;opacity:0.4;"/>
   </g>
   <g id="text_1">
    <!-- 1477 -->
    <defs>
     <path d="M 9.703125 60.015625 
L 9.703125 55 
C 15.203125 55 19 56 23.40625 57.90625 
L 23.40625 5.015625 
L 10.296875 5.015625 
L 10.296875 0 
L 43 0 
L 43 5.015625 
L 29.90625 5.015625 
L 29.90625 67 
C 27.5 67 27.90625 66.359375 26 64.875 
C 21.90625 61.71875 16.203125 60.015625 9.703125 60.015625 
" id="Computer_Modern_Bright-49"/>
     <path d="M 2.09375 18 
L 31 18 
L 31 0 
L 37.296875 0 
L 37.296875 18 
L 48.703125 18 
L 48.703125 23.328125 
L 37.296875 23.328125 
L 37.296875 66.46875 
L 31.90625 66.46875 
C 30.09375 66.46875 29.59375 66.578125 28.796875 65.0625 
C 24.796875 58.515625 3.703125 25.765625 3 24.859375 
C 2.203125 23.4375 2.09375 23.546875 2.09375 21.4375 
z
M 31.296875 60.875 
L 31.296875 23.328125 
L 8.59375 23.328125 
C 9.296875 24.734375 10.296875 26.03125 11.203125 27.4375 
C 16.203125 35.171875 28.09375 53.546875 30.59375 59.28125 
C 30.90625 59.78125 31 60.375 31.296875 60.875 
" id="Computer_Modern_Bright-52"/>
     <path d="M 3.59375 65.625 
L 3.59375 60 
L 42.796875 60 
L 39.09375 56.375 
C 35.796875 52.859375 32.796875 49.125 30.09375 45.109375 
C 21.09375 31.515625 16.203125 15.3125 16.203125 -1 
L 22.90625 -1 
C 22.90625 13.703125 26.59375 28.390625 33.59375 41.375 
C 37 47.921875 40.59375 52.640625 45.296875 58.171875 
C 45.90625 58.78125 46.796875 59.484375 47.09375 60.28125 
C 47.296875 60.78125 47.203125 61.484375 47.203125 62.109375 
L 47.203125 65.625 
z
" id="Computer_Modern_Bright-55"/>
    </defs>
    <g style="fill:#262626;" transform="translate(113.403375 81.852901)scale(0.16 -0.16)">
     <use transform="scale(0.996264)" xlink:href="#Computer_Modern_Bright-49"/>
     <use transform="translate(50.643218 0)scale(0.996264)" xlink:href="#Computer_Modern_Bright-52"/>
     <use transform="translate(101.286436 0)scale(0.996264)" xlink:href="#Computer_Modern_Bright-55"/>
     <use transform="translate(151.929653 0)scale(0.996264)" xlink:href="#Computer_Modern_Bright-55"/>
    </g>
   </g>
   <g id="text_2">
    <!-- 43 -->
    <defs>
     <path d="M 8.09375 50.71875 
C 8.90625 51.921875 9.5 53.234375 10.40625 54.4375 
C 12.5 57.25 15.40625 59.453125 18.703125 60.765625 
C 23.90625 62.875 31.5 62.875 35.59375 58.21875 
C 39.203125 54.078125 37.703125 47.609375 34.40625 43.78125 
C 31.40625 40.25 27.5 38.53125 21.703125 38.53125 
C 20 38.53125 18.40625 38.03125 16.703125 38.03125 
L 16.703125 33 
L 23.59375 33 
C 29.40625 33 33.203125 32.109375 36.40625 28.6875 
C 41.90625 22.859375 41.40625 12.515625 35.296875 7.203125 
C 32.203125 4.59375 27.90625 3.78125 23.90625 4.078125 
C 16.09375 4.6875 9.203125 8.8125 4.59375 15.234375 
C 4.09375 14.234375 4.09375 12.828125 3.90625 11.71875 
C 3.59375 10.109375 3.59375 10.109375 4.59375 8.8125 
C 7.5 4.890625 13.203125 1.28125 17.703125 -0.03125 
C 25.703125 -2.4375 35 -1.34375 41.203125 4.78125 
C 42.40625 6 43.5 7.296875 44.40625 8.703125 
C 48.09375 14.53125 48.203125 22.15625 44.09375 27.78125 
C 42.40625 30.09375 40.203125 31.90625 37.703125 33.3125 
C 36 34.3125 34 35.3125 32 35.515625 
C 37.796875 38.234375 43.203125 42.828125 44.203125 50.359375 
C 45.09375 57.375 41 61.6875 36.796875 64.1875 
C 30.296875 68 21.796875 68 15.09375 64.671875 
C 12 63.171875 9.203125 60.96875 7.09375 58.25 
C 6.703125 57.75 5.203125 56.046875 5.203125 55.234375 
C 5.203125 54.734375 5.59375 54.234375 5.90625 53.828125 
z
" id="Computer_Modern_Bright-51"/>
    </defs>
    <g style="fill:#262626;" transform="translate(250.56042 105.889431)scale(0.16 -0.16)">
     <use transform="scale(0.996264)" xlink:href="#Computer_Modern_Bright-52"/>
     <use transform="translate(50.643218 0)scale(0.996264)" xlink:href="#Computer_Modern_Bright-51"/>
    </g>
   </g>
   <g id="text_3">
    <!-- 54 -->
    <defs>
     <path d="M 8.40625 66.328125 
L 8.40625 30.453125 
L 12.203125 30.453125 
C 12.703125 30.453125 13.40625 30.359375 13.796875 30.5625 
C 14.296875 30.859375 14.59375 31.5625 14.90625 31.96875 
C 15.59375 32.859375 16.40625 33.5625 17.203125 34.265625 
C 20.796875 37.28125 27.703125 38.484375 32.296875 36.171875 
C 38.59375 33.171875 39.796875 25.21875 39.296875 19 
C 39 15.0625 37.796875 11.453125 35.5 9.140625 
C 30.203125 3.5 21.296875 3.5 14.796875 6.796875 
C 11.59375 8.40625 8.90625 10.921875 6.90625 13.921875 
L 6.796875 13.921875 
C 6.5 13.421875 4.203125 9.90625 4.203125 9.296875 
C 4.203125 8.890625 4.5 8.59375 4.703125 8.296875 
C 7.703125 4.78125 11.59375 2.0625 16.09375 0.5625 
C 25 -2.25 35 -0.046875 41.296875 7.1875 
C 48.796875 15.921875 47.796875 30.15625 39.09375 37.765625 
C 36.5 40.1875 32.90625 41.890625 28.59375 42.28125 
C 22.796875 43.09375 17.59375 40.28125 14.5 37.671875 
L 14.5 61 
L 42.90625 61 
L 42.90625 66.328125 
z
" id="Computer_Modern_Bright-53"/>
    </defs>
    <g style="fill:#262626;" transform="translate(217.928612 97.2487)scale(0.16 -0.16)">
     <use transform="scale(0.996264)" xlink:href="#Computer_Modern_Bright-53"/>
     <use transform="translate(50.643218 0)scale(0.996264)" xlink:href="#Computer_Modern_Bright-52"/>
    </g>
   </g>
   <g id="text_4">
    <!-- 1536 -->
    <defs>
     <path d="M 11.296875 32.625 
L 11.203125 32.625 
C 11.203125 41.765625 12.796875 52.421875 20.59375 58.25 
C 24.90625 61.375 30.703125 62.96875 38.203125 61.171875 
C 39.796875 60.765625 41.296875 60.15625 42.796875 59.765625 
L 42.796875 63.28125 
C 42.796875 63.671875 42.90625 64.375 42.59375 64.78125 
C 41.90625 65.6875 36.296875 66.59375 36.09375 66.59375 
C 27.40625 67.59375 21.703125 65.6875 16.40625 61.171875 
C 10 55.640625 6.296875 47.515625 5.09375 39.28125 
C 4 32.65625 4.90625 22 6.203125 16.78125 
C 8.296875 9.046875 12.296875 2.21875 19.703125 -0.390625 
C 24.09375 -2 29.5 -2 33.703125 0.015625 
C 37.09375 1.640625 39.90625 4.46875 42.09375 7.5 
C 45.59375 12.34375 46.5 18.21875 46.09375 24.171875 
C 45.90625 27.109375 45.5 30.046875 44.296875 32.765625 
C 42.40625 37.125 39.203125 41.671875 35.09375 43.6875 
C 33.203125 44.5 31.203125 44.5 29.203125 44.5 
C 23.90625 44.5 18.90625 42.1875 15.203125 38.359375 
C 13.59375 36.75 12 34.71875 11.296875 32.625 
M 24.40625 39.515625 
C 28.203125 39.8125 32.203125 39.21875 35.09375 36.5 
C 38.90625 32.890625 39.59375 27.765625 39.59375 22.8125 
C 39.59375 19.46875 39.703125 16.015625 38.703125 12.859375 
C 38.09375 11.234375 37.296875 9.828125 36.40625 8.5 
C 34.203125 5.5625 31.40625 4.125 26.796875 3.515625 
C 22.296875 3.515625 17.796875 5.3125 15.203125 9.125 
C 13.59375 11.328125 12.796875 14.046875 12.296875 16.640625 
C 11.703125 19.34375 11.296875 22.140625 11.5 24.859375 
C 12 31.984375 17 38.515625 24.40625 39.515625 
" id="Computer_Modern_Bright-54"/>
    </defs>
    <g style="fill:#262626;" transform="translate(221.551114 237.831741)scale(0.16 -0.16)">
     <use transform="scale(0.996264)" xlink:href="#Computer_Modern_Bright-49"/>
     <use transform="translate(50.643218 0)scale(0.996264)" xlink:href="#Computer_Modern_Bright-53"/>
     <use transform="translate(101.286436 0)scale(0.996264)" xlink:href="#Computer_Modern_Bright-51"/>
     <use transform="translate(151.929653 0)scale(0.996264)" xlink:href="#Computer_Modern_Bright-54"/>
    </g>
   </g>
   <g id="text_5">
    <!-- 825 -->
    <defs>
     <path d="M 18.703125 36 
L 18.703125 35.90625 
C 12.5 34.09375 7.296875 30.6875 4.796875 24.84375 
C 2.203125 18.71875 4 11.28125 8.40625 6.453125 
C 13.09375 1.421875 19.5 -1 26.296875 -1 
C 36.296875 -1 45.90625 6.40625 47.09375 16.734375 
C 47.296875 18.265625 47.203125 19.890625 47 21.40625 
C 45.203125 29.21875 39.5 33.875 32.09375 35.90625 
C 32.90625 36.203125 33.796875 36.40625 34.59375 36.703125 
C 38.796875 38.421875 42.296875 40.921875 44.5 44.9375 
C 47.796875 51.375 44.59375 58.90625 39.203125 63.015625 
C 33.796875 67.140625 26.5 68.234375 19.90625 66.828125 
C 12 65.125 4.5 58.40625 5 49.765625 
C 5.203125 46.75 6.5 44.234375 8 42.4375 
C 10.296875 39.625 14.796875 36.609375 18.703125 36 
M 23.796875 62.5 
C 28.203125 62.5 33.703125 62 36.90625 58.578125 
C 40.703125 54.46875 40.90625 47.03125 37.09375 42.8125 
C 34.703125 40.203125 31.203125 38.890625 27.703125 38.59375 
C 22.796875 38.1875 17.203125 39 13.703125 42.8125 
C 9.796875 47.125 10.09375 54.96875 14.296875 58.984375 
C 16.90625 61.390625 20.40625 62.1875 23.796875 62.5 
M 23.703125 33.5 
C 28.40625 33.5 33.5 32.390625 36.90625 28.9375 
C 38.203125 27.53125 39.203125 25.8125 39.796875 24.015625 
C 41.5 18.75 40.703125 12.09375 36.796875 8.046875 
C 34.09375 5.328125 30.40625 4.3125 26.703125 4.015625 
C 22.203125 4.015625 17 5.109375 13.796875 8.5625 
C 9.40625 13.390625 8.5 23.40625 13.703125 29.0625 
C 16.296875 31.78125 20 33.203125 23.703125 33.5 
" id="Computer_Modern_Bright-56"/>
     <path d="M 7.296875 45.96875 
C 8.703125 51.59375 11.09375 57.984375 16.796875 60.5 
C 19.203125 61.5 21.796875 61.703125 24.40625 61.5 
C 29.296875 61.09375 34.09375 59.09375 37.09375 55.09375 
C 39.296875 52.078125 40.09375 48.375 39.703125 44.78125 
C 38.5 34.34375 28.296875 26.84375 21.703125 21.234375 
C 17.90625 18.03125 7.09375 7.8125 7.09375 7.8125 
L 5.40625 6.203125 
C 4.5 5.3125 4.40625 5.3125 4.40625 3.5 
L 4.40625 0 
L 46.40625 0 
L 46.40625 5.625 
L 10.203125 5.625 
C 13.40625 8.734375 26.703125 20.515625 28.5 21.921875 
C 34.296875 26.65625 40.796875 31.375 44.296875 38.21875 
C 48.203125 46.0625 46.5 55.9375 39.90625 61.765625 
C 35.90625 65.296875 30.40625 67 25.09375 67 
C 20.203125 67 15.203125 66 11.296875 62.90625 
C 8.296875 60.390625 5.796875 56.6875 4.40625 52.875 
C 4.09375 52.28125 3.59375 51.28125 3.703125 50.578125 
C 3.796875 49.984375 4.40625 49.484375 4.703125 49.078125 
C 5.5 48.078125 6.296875 46.875 7.296875 45.96875 
" id="Computer_Modern_Bright-50"/>
    </defs>
    <g style="fill:#262626;" transform="translate(170.910575 160.10718)scale(0.16 -0.16)">
     <use transform="scale(0.996264)" xlink:href="#Computer_Modern_Bright-56"/>
     <use transform="translate(50.643218 0)scale(0.996264)" xlink:href="#Computer_Modern_Bright-50"/>
     <use transform="translate(101.286436 0)scale(0.996264)" xlink:href="#Computer_Modern_Bright-53"/>
    </g>
   </g>
   <g id="text_6">
    <!-- 49 -->
    <defs>
     <path d="M 39.5 32.953125 
C 39.5 32.953125 39.59375 32.953125 39.59375 32.953125 
C 39.59375 31.75 39.5 30.4375 39.5 29.234375 
C 39.296875 21.296875 37.203125 11.90625 30.40625 6.9375 
C 28.40625 5.328125 25.296875 4 22.296875 4 
C 16.90625 3.203125 12.5 5.78125 9.40625 7.84375 
L 6.796875 3.203125 
C 11.09375 -0.125 17.59375 -2.625 25.203125 -0.921875 
C 32 0.578125 37.5 5.8125 40.90625 11.734375 
C 46.09375 20.859375 47.40625 31.796875 45.40625 44.53125 
C 44.09375 53.578125 40.203125 62.296875 32.09375 65.609375 
C 27.703125 67.421875 22.09375 67.421875 17.796875 65.515625 
C 13.59375 63.484375 10 59.96875 7.59375 56.03125 
C 5.40625 52.3125 4.59375 48.09375 4.59375 43.859375 
C 4.59375 40.234375 5 36.71875 6.203125 33.28125 
C 8.09375 28.546875 11.90625 23.109375 16.40625 21.609375 
C 18.09375 21 19.796875 21 21.59375 21 
C 26.90625 21 32 23.40625 35.703125 27.21875 
C 36.90625 28.4375 39 31.25 39.5 32.953125 
M 24.40625 62 
C 28.90625 62 33.296875 60.1875 35.90625 56.28125 
C 37.09375 54.375 37.796875 52.140625 38.296875 49.9375 
C 39.796875 44.109375 40 37.6875 36.703125 32.453125 
C 34.59375 29.125 30.796875 26.015625 26.203125 26.015625 
C 22.90625 26.015625 19.296875 26.421875 16.59375 28.515625 
C 12.59375 31.609375 11.203125 36.109375 11.203125 42.703125 
C 11.203125 48.59375 11.40625 53.203125 14.59375 57 
C 16.796875 60 19.59375 61.390625 24.40625 62 
" id="Computer_Modern_Bright-57"/>
    </defs>
    <g style="fill:#262626;" transform="translate(248.048188 139.259896)scale(0.16 -0.16)">
     <use transform="scale(0.996264)" xlink:href="#Computer_Modern_Bright-52"/>
     <use transform="translate(50.643218 0)scale(0.996264)" xlink:href="#Computer_Modern_Bright-57"/>
    </g>
   </g>
   <g id="text_7">
    <!-- 193 -->
    <g style="fill:#262626;" transform="translate(203.394012 136.722049)scale(0.16 -0.16)">
     <use transform="scale(0.996264)" xlink:href="#Computer_Modern_Bright-49"/>
     <use transform="translate(50.643218 0)scale(0.996264)" xlink:href="#Computer_Modern_Bright-57"/>
     <use transform="translate(101.286436 0)scale(0.996264)" xlink:href="#Computer_Modern_Bright-51"/>
    </g>
   </g>
   <g id="text_8">
    <!-- \emph{dpy-22(sy622)} -->
    <defs>
     <path d="M 50.296875 70 
L 44.40625 41.671875 
C 43.90625 42.28125 43.5 42.984375 43.09375 43.59375 
C 42.203125 44.796875 41.09375 45.8125 39.796875 46.515625 
C 32.703125 50.859375 23.796875 46.828125 18.40625 41.46875 
C 12.796875 35.921875 9.203125 28.453125 8.40625 20.59375 
C 7.40625 11.515625 10.296875 3.828125 16.5 0.703125 
C 22 -1.921875 28.5 0 33.09375 3.53125 
C 34.40625 4.546875 36 5.859375 36.90625 7.265625 
L 37 7.265625 
L 35.5 0 
C 37.703125 0 39.90625 0 41.796875 0.296875 
L 42.203125 1.40625 
C 43.203125 6.4375 44.296875 11.375 45.40625 16.40625 
L 56.59375 70 
z
M 42.40625 39.65625 
C 42.703125 39.046875 43.09375 38.34375 43.203125 37.625 
C 43.40625 36.625 42.90625 35.3125 42.703125 34.296875 
C 40.703125 25.3125 38.40625 14.09375 38.40625 14.09375 
C 38 11.671875 37.203125 10.75 35.59375 9.140625 
C 33.296875 6.8125 30.5 5 27.09375 4.703125 
C 23.40625 4.390625 19.796875 5.90625 17.90625 7.828125 
C 14.40625 11.265625 14.203125 16.609375 14.796875 21.265625 
C 15.796875 28.640625 18.90625 36.421875 25.40625 40.453125 
C 26.59375 41.171875 27.796875 41.875 29.09375 42.28125 
C 34 44 39.703125 44 42.40625 39.65625 
" id="Computer_Modern_Bright_Slanted-100"/>
     <path d="M 21.296875 40.734375 
L 22.09375 44.5625 
L 22.703125 47.5 
L 16.40625 47.5 
L 2.90625 -17 
L 9.296875 -17 
C 10.90625 -9.15625 12.59375 -1.4375 14.09375 6.515625 
C 14.90625 4.890625 15.796875 3.375 17.09375 2.171875 
C 22.296875 -2.578125 30.296875 -0.453125 35.59375 2.984375 
C 42.90625 7.828125 47.796875 15.84375 49.5 24.453125 
C 50 26.890625 50.296875 29.421875 50.203125 31.859375 
C 49.90625 39.265625 46.5 47.59375 37.90625 48.5 
C 30.59375 48.5 24.90625 44.359375 21.296875 40.734375 
M 34.5 42.859375 
C 35.40625 42.65625 36.40625 42.34375 37.203125 41.84375 
C 42.40625 38.90625 43.796875 32.65625 43.5 27.09375 
C 43.09375 19.921875 39.203125 12.953125 33.59375 8.546875 
C 30.703125 6.171875 27.09375 4.5 23.40625 4.5 
C 19.09375 4.5 15.796875 6.921875 15.203125 11.125 
C 15.203125 12.234375 15.59375 13.546875 15.90625 14.671875 
C 16.40625 16.890625 20.09375 34.46875 20.09375 34.671875 
C 20.40625 37.09375 21.09375 37.5 22.703125 39.109375 
C 25.5 41.734375 29.796875 44.171875 34.5 42.859375 
" id="Computer_Modern_Bright_Slanted-112"/>
     <path d="M 10.703125 48 
C 11.203125 44.265625 12 40.625 12.703125 36.890625 
C 13.09375 34.359375 19 0.8125 19 0.515625 
C 19 -0.09375 18.59375 -0.59375 18.296875 -1.109375 
L 16.59375 -4.140625 
C 14.703125 -7.265625 12.796875 -10.5 9 -11.8125 
C 6 -12.71875 0.5 -11.40625 -1.5 -10.796875 
C -1.796875 -12.625 -2 -14.53125 -2.203125 -16.453125 
C 0.5 -16.859375 5.40625 -17.46875 8.09375 -16.96875 
C 15.203125 -15.34375 19.203125 -8.671875 22.5 -3.21875 
L 44.09375 34.359375 
L 49.203125 43.359375 
C 50.09375 44.859375 51.203125 46.375 51.796875 48 
C 49.703125 48 47.40625 48 45.59375 47.703125 
C 43.203125 44.078125 41.203125 40.046875 38.90625 36.21875 
C 33.59375 26.4375 27.703125 17.359375 23.203125 6.78125 
L 23.09375 6.78125 
C 23.40625 8.390625 23.09375 10.109375 22.90625 11.734375 
C 21.796875 22.546875 18.59375 39.71875 17.09375 48 
z
" id="Computer_Modern_Bright_Slanted-121"/>
     <path d="M 5.90625 26.0625 
L 4.90625 21 
L 32.796875 21 
L 33.796875 26.0625 
z
" id="Computer_Modern_Bright_Slanted-45"/>
     <path d="M 17.09375 46.46875 
C 19.796875 53.140625 25.09375 60.3125 32 61.828125 
C 38.40625 63.234375 46.796875 61.109375 49.40625 54.34375 
C 50.296875 51.515625 50.203125 48.484375 49.203125 45.453125 
C 45.5 34.234375 33.796875 27.171875 25.09375 20.703125 
L 9.296875 8.375 
L 6.90625 6.5625 
C 6.5 6.15625 5.90625 5.859375 5.59375 5.453125 
C 5.203125 4.828125 4.40625 0 4.40625 0 
C 18.203125 0 33 0 46.203125 0 
C 46.90625 1.6875 47.203125 3.765625 47.59375 5.75 
L 11.40625 5.75 
L 19.796875 12.109375 
L 34.59375 23.125 
C 41.59375 28.078125 49.296875 33.03125 53.703125 40.609375 
C 57.5 47.078125 58.296875 55.859375 53.203125 61.828125 
C 50.703125 64.546875 47.5 66.171875 43.5 67.078125 
C 37.703125 68.296875 31.40625 67.484375 26.203125 64.546875 
C 21.59375 61.71875 18.5 58.078125 15.59375 53.4375 
C 15.203125 52.828125 14.5 51.921875 14.5 51.109375 
C 14.5 50.609375 14.796875 50.109375 15.09375 49.703125 
C 15.703125 48.59375 16.296875 47.375 17.09375 46.46875 
" id="Computer_Modern_Bright_Slanted-50"/>
     <path d="M 29.5 -22 
C 28.59375 -20.796875 27.5 -19.78125 26.59375 -18.578125 
C 20.40625 -10.296875 17.59375 1.59375 18.703125 14.890625 
C 20.40625 38.5 31.40625 61.390625 47.59375 73.984375 
C 48.40625 74.6875 49.40625 75.203125 50.09375 76 
L 46.90625 76 
C 46.40625 76 45.703125 76.109375 45.203125 75.90625 
C 44.203125 75.609375 40.90625 72.875 40.703125 72.78125 
C 27.09375 61.59375 17.59375 45.359375 13.796875 25.890625 
C 10.59375 10.265625 12.203125 -5.671875 19.59375 -16.359375 
C 20.59375 -17.578125 23.296875 -21.203125 24.59375 -21.90625 
C 25.09375 -22.109375 25.796875 -22 26.296875 -22 
z
" id="Computer_Modern_Bright_Slanted-40"/>
     <path d="M 5.203125 9.609375 
L 3 3.75 
C 8 0.515625 13.90625 -1 19.90625 -1 
C 29.90625 -1 37.296875 3.640625 39.59375 11.6875 
C 41 16.21875 39.703125 19.84375 37.40625 22.671875 
C 34.09375 26.28125 29.203125 26.796875 24.796875 27.78125 
C 21.90625 28.390625 18.59375 28.90625 16.796875 31.625 
C 14.703125 34.75 16.90625 38.875 19.59375 40.78125 
C 22.09375 42.59375 26.203125 43.296875 30.09375 43 
C 35.703125 43 38.296875 41.65625 42.59375 39.265625 
L 44.703125 44.875 
C 39.5 47.5 33.5 48.5 27.703125 48 
C 22.40625 48 18.203125 46.484375 14.796875 43.4375 
C 11.40625 40.3125 9 35.046875 10.203125 30.390625 
C 10.59375 28.359375 11.5 27.34375 12.703125 25.9375 
C 16.09375 22.484375 20.90625 21.984375 25.296875 20.96875 
C 28.203125 20.359375 31.5 19.65625 33.203125 16.921875 
C 35.203125 13.78125 33.5 9.734375 31 7.390625 
C 28.09375 4.96875 23.796875 3.96875 18.90625 4.359375 
C 14.296875 4.359375 10.40625 5.828125 7.203125 8.140625 
C 6.5 8.546875 5.90625 9.1875 5.203125 9.609375 
" id="Computer_Modern_Bright_Slanted-115"/>
     <path d="M 18.296875 33.5625 
L 18.203125 33.5625 
C 20.90625 47.921875 28.5 61.265625 43.203125 63 
C 48.203125 63 51.296875 62.078125 55.5 60.78125 
L 56.59375 65.9375 
C 53.5 67.171875 50.296875 68.0625 47 68.0625 
C 40.296875 68.0625 34.5 65.46875 30.40625 62.765625 
C 19.90625 55.765625 13.09375 44.171875 10.703125 29.328125 
C 9 19.328125 9.40625 8.609375 15.203125 3.0625 
C 21.59375 -2.796875 31.5 -1.1875 38.09375 3.46875 
C 42.203125 6.484375 46 10.328125 48.296875 14.984375 
C 51.203125 20.734375 53.203125 30.4375 50.09375 37.515625 
C 49.09375 39.9375 47.703125 42.5625 45.40625 44.078125 
C 42.90625 45.6875 39.703125 45.6875 36.796875 45.375 
C 31.09375 44.78125 25.703125 41.75 21.703125 37.703125 
C 20.5 36.484375 19.203125 35.078125 18.296875 33.5625 
M 34.5 40.65625 
C 38.40625 40.65625 41.703125 39.640625 43.296875 36.921875 
C 46 33.015625 45.40625 28.40625 44.5 24.078125 
C 43.796875 20.5625 43.09375 17.046875 41.40625 13.9375 
C 38.59375 8.8125 33.40625 4.5 25.703125 4.5 
C 22.90625 4.5 19.796875 6.125 18.5 7.78125 
C 16.296875 10.4375 15.796875 14.21875 15.796875 17.59375 
C 15.796875 18.109375 15.90625 18.6875 15.90625 19.203125 
C 15.90625 21.703125 16.296875 24.21875 17.09375 26.625 
C 19.59375 33.9375 26.40625 40.65625 34.5 40.65625 
M 18.09375 33.03125 
C 18.09375 33.03125 18.203125 33.03125 18.203125 33.03125 
C 18.203125 32.9375 18.09375 32.828125 18.09375 33.03125 
" id="Computer_Modern_Bright_Slanted-54"/>
     <path d="M 20.90625 76 
C 21.796875 74.796875 22.90625 73.78125 23.796875 72.578125 
C 25.59375 70.265625 27 67.640625 28.203125 64.90625 
C 32.5 54.734375 32.703125 43.140625 31 32.34375 
C 28.296875 15.1875 21.296875 -1.625 9.203125 -14.25 
C 6.5 -17.078125 3.5 -19.578125 0.296875 -21.90625 
C 1.296875 -22.203125 2.5 -22 3.59375 -22 
C 4.203125 -22 4.796875 -22.109375 5.40625 -21.90625 
C 11.203125 -18.375 18.296875 -10.8125 21.5 -6.578125 
C 29.09375 3.609375 34.203125 15.703125 36.703125 28.21875 
C 39.90625 44.953125 37.90625 60.6875 30.09375 71.28125 
C 29.40625 72.171875 26.796875 75.5 25.90625 75.90625 
C 25.40625 76.109375 24.703125 76 24.203125 76 
z
" id="Computer_Modern_Bright_Slanted-41"/>
    </defs>
    <g style="fill:#262626;" transform="translate(7.2 27.857483)scale(0.18 -0.18)">
     <use transform="scale(0.996264)" xlink:href="#Computer_Modern_Bright_Slanted-100"/>
     <use transform="translate(48.152497 0)scale(0.996264)" xlink:href="#Computer_Modern_Bright_Slanted-112"/>
     <use transform="translate(93.399264 0)scale(0.996264)" xlink:href="#Computer_Modern_Bright_Slanted-121"/>
     <use transform="translate(135.740302 0)scale(0.996264)" xlink:href="#Computer_Modern_Bright_Slanted-45"/>
     <use transform="translate(168.948976 0)scale(0.996264)" xlink:href="#Computer_Modern_Bright_Slanted-50"/>
     <use transform="translate(219.592194 0)scale(0.996264)" xlink:href="#Computer_Modern_Bright_Slanted-50"/>
     <use transform="translate(270.235412 0)scale(0.996264)" xlink:href="#Computer_Modern_Bright_Slanted-40"/>
     <use transform="translate(309.25562 0)scale(0.996264)" xlink:href="#Computer_Modern_Bright_Slanted-115"/>
     <use transform="translate(347.69465 0)scale(0.996264)" xlink:href="#Computer_Modern_Bright_Slanted-121"/>
     <use transform="translate(390.035688 0)scale(0.996264)" xlink:href="#Computer_Modern_Bright_Slanted-54"/>
     <use transform="translate(440.678906 0)scale(0.996264)" xlink:href="#Computer_Modern_Bright_Slanted-50"/>
     <use transform="translate(491.322123 0)scale(0.996264)" xlink:href="#Computer_Modern_Bright_Slanted-50"/>
     <use transform="translate(541.965341 0)scale(0.996264)" xlink:href="#Computer_Modern_Bright_Slanted-41"/>
    </g>
   </g>
   <g id="text_9">
    <!-- \emph{dpy-22(bx93)} -->
    <defs>
     <path d="M 21.09375 70 
L 6.40625 0 
C 8.59375 0 10.796875 0 12.703125 0.296875 
C 13.40625 2.203125 13.703125 4.40625 14.09375 6.515625 
L 14.203125 6.515625 
C 14.90625 4.59375 16.40625 2.46875 18 1.46875 
C 23.09375 -2.28125 30.296875 -0.359375 35.203125 2.78125 
C 42.59375 7.21875 47.90625 15.984375 49.59375 24.546875 
C 50.296875 28.078125 50.40625 31.8125 49.796875 35.4375 
C 48.40625 42.890625 43.90625 48.859375 35.203125 48.140625 
C 29.90625 47.640625 25.203125 44.8125 21.40625 41.078125 
L 27.40625 70 
z
M 38.09375 41.875 
C 39 41.375 39.796875 40.859375 40.5 40.15625 
C 44 36.71875 44.09375 31.265625 43.5 26.71875 
C 42.59375 19.4375 39.59375 11.875 33.296875 7.625 
C 30.59375 5.96875 27.59375 4.5 23.59375 4.5 
C 19.203125 4.5 15.796875 6.9375 15.203125 11.15625 
C 15.203125 12.265625 15.59375 13.578125 15.90625 14.703125 
C 16.796875 18.734375 20.09375 35.703125 20.59375 36.828125 
C 21.09375 37.734375 22 38.546875 22.703125 39.25 
C 26.59375 42.890625 32.296875 44.796875 38.09375 41.875 
M 21.296875 41.125 
C 21.296875 41.125 21.40625 41.125 21.40625 41.125 
C 21.40625 41.015625 21.296875 40.921875 21.296875 41.125 
" id="Computer_Modern_Bright_Slanted-98"/>
     <path d="M 9.796875 47.5 
C 14.09375 39.765625 18.90625 32.546875 23.09375 24.703125 
C 22.703125 23.890625 22.09375 23.296875 21.5 22.6875 
L -0.796875 0 
C 1.5 0 3.90625 0 6.09375 0 
C 12.703125 6.796875 18.90625 14 25.40625 20.875 
C 28 15.65625 30.796875 10.734375 33.40625 5.625 
C 34.296875 3.8125 35.203125 1.890625 36.40625 0.296875 
C 38.5 0 40.90625 0 43.296875 0 
C 42.203125 2.109375 35.09375 13.984375 32.796875 17.90625 
L 30.09375 22.53125 
C 29.796875 23.046875 29.09375 23.84375 29.09375 24.453125 
C 29.203125 25.0625 30.203125 25.75 30.59375 26.15625 
L 34.796875 30.484375 
C 36.59375 32.3125 50.59375 46.28125 51.5 47.5 
C 49.203125 47.5 46.90625 47.5 44.703125 47.5 
C 38.59375 41.65625 33 35.296875 27.09375 29.25 
C 23.59375 35.296875 20.5 41.765625 16.703125 47.5 
C 14.5 47.5 12.09375 47.5 9.796875 47.5 
" id="Computer_Modern_Bright_Slanted-120"/>
     <path d="M 46.5 33.03125 
L 46.59375 33.03125 
C 46.296875 31.3125 45.90625 29.59375 45.40625 27.96875 
C 42.703125 18.296875 37.09375 7.828125 26.90625 4.625 
C 21.5 3.015625 15.90625 4.03125 12.5 6.734375 
C 12.203125 6.9375 11.59375 7.640625 11.09375 7.546875 
C 10.703125 7.546875 10.296875 6.84375 10.09375 6.53125 
C 9.203125 5.421875 8.296875 4.328125 7.5 3.21875 
C 9.296875 1.796875 11.09375 0.484375 13.296875 -0.3125 
C 15.90625 -1.328125 20.5 -1.828125 23.59375 -1.234375 
C 29 -0.421875 34 2.515625 38.09375 6.03125 
C 47.5 14.375 53.09375 26.21875 54.59375 41.390625 
C 55.09375 45.90625 55.203125 50.515625 54.09375 55.046875 
C 53.203125 58.953125 51.703125 61.46875 48.90625 63.984375 
C 43.796875 68 36.296875 68 30.703125 65.453125 
C 25.40625 62.921875 19.90625 57.65625 17.203125 53.078125 
C 14.59375 48.609375 12.703125 41.40625 13.09375 34.90625 
C 13.5 30.8125 15.5 26.21875 18 23.703125 
C 20.296875 21.515625 23.09375 21 26.09375 21 
C 32.09375 21 38.203125 23.9375 42.5 28.171875 
C 43.90625 29.59375 45.59375 31.109375 46.5 33.03125 
M 43.90625 61.03125 
C 48.59375 58.484375 49.40625 52.515625 48.90625 47.640625 
C 48.703125 44.90625 48.5 42.171875 47.59375 39.53125 
C 45.796875 34.46875 42.09375 30 37.40625 27.578125 
C 32.40625 25.03125 24.59375 25.03125 21.5 29.765625 
C 18.90625 33.484375 19.296875 38 20.09375 42.234375 
C 20.796875 45.546875 21.5 48.96875 23 52.078125 
C 25 56.109375 28.59375 59.734375 32.90625 61.234375 
C 36.5 62.4375 40.59375 62.4375 43.90625 61.03125 
" id="Computer_Modern_Bright_Slanted-57"/>
     <path d="M 18.796875 50.609375 
C 19.90625 51.734375 20.703125 53.078125 21.703125 54.203125 
C 26.09375 58.96875 34.203125 63.8125 42.59375 61.796875 
C 45.703125 61.09375 48.5 58.96875 49 55.640625 
C 49.296875 53.28125 48.203125 50.296875 47.5 48.859375 
C 44.796875 43.921875 40.703125 40.3125 34.796875 38.78125 
C 32.5 38.265625 26.703125 38.265625 24.703125 38.265625 
L 23.703125 33 
L 30.59375 33 
C 36.09375 33 39 32.296875 42.09375 29.171875 
C 45.703125 24.921875 44.796875 18.359375 42.5 13.703125 
C 40.90625 10.78125 39.203125 8.5625 36.296875 6.734375 
C 29.5 2.1875 20.09375 3.203125 13.703125 7.84375 
C 11.09375 9.765625 9.296875 12.296875 7.796875 15.125 
C 7.40625 14.421875 5.796875 10.671875 5.90625 9.96875 
C 5.90625 9.46875 6.296875 8.953125 6.5 8.5625 
C 9.703125 3.703125 14.40625 0.265625 20.5 -0.9375 
C 31.203125 -3.0625 42.796875 2.1875 48.5 11.6875 
C 51.40625 16.640625 52.703125 22.90625 49.703125 28.15625 
C 48 31.6875 43.5 34.828125 39.59375 35.53125 
C 41.09375 36.234375 42.59375 36.9375 44 37.75 
C 48.40625 40.375 52.59375 44.625 54.5 49.671875 
C 55.296875 51.5 55.796875 53.515625 55.703125 55.53125 
C 55.40625 61.59375 50.203125 65.640625 44.703125 66.75 
C 38.203125 68.15625 31.40625 66.453125 25.796875 63.21875 
C 23.203125 61.703125 20.90625 59.78125 18.796875 57.65625 
C 18.296875 57.15625 17 55.9375 16.796875 55.125 
C 16.796875 54.609375 18.296875 51.640625 18.796875 50.609375 
" id="Computer_Modern_Bright_Slanted-51"/>
    </defs>
    <g style="fill:#262626;" transform="translate(250.884611 85.699838)scale(0.18 -0.18)">
     <use transform="scale(0.996264)" xlink:href="#Computer_Modern_Bright_Slanted-100"/>
     <use transform="translate(48.152497 0)scale(0.996264)" xlink:href="#Computer_Modern_Bright_Slanted-112"/>
     <use transform="translate(93.399264 0)scale(0.996264)" xlink:href="#Computer_Modern_Bright_Slanted-121"/>
     <use transform="translate(135.740302 0)scale(0.996264)" xlink:href="#Computer_Modern_Bright_Slanted-45"/>
     <use transform="translate(168.948976 0)scale(0.996264)" xlink:href="#Computer_Modern_Bright_Slanted-50"/>
     <use transform="translate(219.592194 0)scale(0.996264)" xlink:href="#Computer_Modern_Bright_Slanted-50"/>
     <use transform="translate(270.235412 0)scale(0.996264)" xlink:href="#Computer_Modern_Bright_Slanted-40"/>
     <use transform="translate(309.25562 0)scale(0.996264)" xlink:href="#Computer_Modern_Bright_Slanted-98"/>
     <use transform="translate(354.502388 0)scale(0.996264)" xlink:href="#Computer_Modern_Bright_Slanted-120"/>
     <use transform="translate(396.843426 0)scale(0.996264)" xlink:href="#Computer_Modern_Bright_Slanted-57"/>
     <use transform="translate(447.486644 0)scale(0.996264)" xlink:href="#Computer_Modern_Bright_Slanted-51"/>
     <use transform="translate(498.129862 0)scale(0.996264)" xlink:href="#Computer_Modern_Bright_Slanted-41"/>
    </g>
   </g>
   <g id="text_10">
    <!-- \emph{dpy-22(bx93)/dpy-22(sy622)} -->
    <defs>
     <path d="M 58.90625 75.671875 
C 57.90625 75.375 57.5 74.65625 57 73.859375 
L 12.296875 -0.5 
L 2.296875 -17.078125 
C 1.796875 -17.984375 0.90625 -19 0.796875 -20.109375 
C 0.5 -21.421875 1.703125 -22.53125 2.90625 -22.421875 
C 3.796875 -22.328125 4.296875 -21.625 4.796875 -20.90625 
L 51.40625 56.671875 
L 60.59375 71.9375 
C 60.90625 72.546875 61.296875 73.046875 61.296875 73.75 
C 61.296875 74.96875 60.09375 76.078125 58.90625 75.671875 
" id="Computer_Modern_Bright_Slanted-47"/>
    </defs>
    <g style="fill:#262626;" transform="translate(103.897417 308.172463)scale(0.18 -0.18)">
     <use transform="scale(0.996264)" xlink:href="#Computer_Modern_Bright_Slanted-100"/>
     <use transform="translate(48.152497 0)scale(0.996264)" xlink:href="#Computer_Modern_Bright_Slanted-112"/>
     <use transform="translate(93.399264 0)scale(0.996264)" xlink:href="#Computer_Modern_Bright_Slanted-121"/>
     <use transform="translate(135.740302 0)scale(0.996264)" xlink:href="#Computer_Modern_Bright_Slanted-45"/>
     <use transform="translate(168.948976 0)scale(0.996264)" xlink:href="#Computer_Modern_Bright_Slanted-50"/>
     <use transform="translate(219.592194 0)scale(0.996264)" xlink:href="#Computer_Modern_Bright_Slanted-50"/>
     <use transform="translate(270.235412 0)scale(0.996264)" xlink:href="#Computer_Modern_Bright_Slanted-40"/>
     <use transform="translate(309.25562 0)scale(0.996264)" xlink:href="#Computer_Modern_Bright_Slanted-98"/>
     <use transform="translate(354.502388 0)scale(0.996264)" xlink:href="#Computer_Modern_Bright_Slanted-120"/>
     <use transform="translate(396.843426 0)scale(0.996264)" xlink:href="#Computer_Modern_Bright_Slanted-57"/>
     <use transform="translate(447.486644 0)scale(0.996264)" xlink:href="#Computer_Modern_Bright_Slanted-51"/>
     <use transform="translate(498.129862 0)scale(0.996264)" xlink:href="#Computer_Modern_Bright_Slanted-41"/>
     <use transform="translate(537.15007 0)scale(0.996264)" xlink:href="#Computer_Modern_Bright_Slanted-47"/>
     <use transform="translate(587.793288 0)scale(0.996264)" xlink:href="#Computer_Modern_Bright_Slanted-100"/>
     <use transform="translate(635.945785 0)scale(0.996264)" xlink:href="#Computer_Modern_Bright_Slanted-112"/>
     <use transform="translate(681.192552 0)scale(0.996264)" xlink:href="#Computer_Modern_Bright_Slanted-121"/>
     <use transform="translate(723.53359 0)scale(0.996264)" xlink:href="#Computer_Modern_Bright_Slanted-45"/>
     <use transform="translate(756.742264 0)scale(0.996264)" xlink:href="#Computer_Modern_Bright_Slanted-50"/>
     <use transform="translate(807.385482 0)scale(0.996264)" xlink:href="#Computer_Modern_Bright_Slanted-50"/>
     <use transform="translate(858.0287 0)scale(0.996264)" xlink:href="#Computer_Modern_Bright_Slanted-40"/>
     <use transform="translate(897.048908 0)scale(0.996264)" xlink:href="#Computer_Modern_Bright_Slanted-115"/>
     <use transform="translate(935.487938 0)scale(0.996264)" xlink:href="#Computer_Modern_Bright_Slanted-121"/>
     <use transform="translate(977.828976 0)scale(0.996264)" xlink:href="#Computer_Modern_Bright_Slanted-54"/>
     <use transform="translate(1028.472194 0)scale(0.996264)" xlink:href="#Computer_Modern_Bright_Slanted-50"/>
     <use transform="translate(1079.115411 0)scale(0.996264)" xlink:href="#Computer_Modern_Bright_Slanted-50"/>
     <use transform="translate(1129.758629 0)scale(0.996264)" xlink:href="#Computer_Modern_Bright_Slanted-41"/>
    </g>
   </g>
  </g>
 </g>
 <defs>
  <clipPath id="p0771ab36b1">
   <rect height="298.98" width="276.151613" x="45.597479" y="7.2"/>
  </clipPath>
 </defs>
</svg>
